<svg width="133" height="129" viewBox="0 0 133 129" fill="none" xmlns="http://www.w3.org/2000/svg">
<path d="M13.9738 80.4084C13.9453 80.2183 13.8797 80.0356 13.7806 79.8709C13.6816 79.7062 13.5511 79.5626 13.3965 79.4483C13.242 79.334 13.0664 79.2512 12.8799 79.2048C12.6934 79.1583 12.4995 79.1491 12.3094 79.1776C12.1193 79.206 11.9367 79.2717 11.772 79.3707C11.6072 79.4698 11.4636 79.6003 11.3493 79.7548C11.2351 79.9094 11.1523 80.0849 11.1059 80.2715C11.0594 80.458 11.0502 80.6518 11.0786 80.8419L17.4965 119.996H20.423L13.9738 80.4084Z" fill="#EBEBEB"/>
<path d="M11.6868 80.8904L38.131 51.8391L38.325 52.1585L39.6057 54.2807L13.8574 82.8528C13.7294 82.9985 13.5738 83.1173 13.3995 83.2022C13.2252 83.2872 13.0357 83.3367 12.8422 83.3478C12.6486 83.359 12.4547 83.3315 12.2718 83.2671C12.089 83.2026 11.9207 83.1025 11.7769 82.9724C11.633 82.8424 11.5165 82.6851 11.434 82.5096C11.3515 82.3341 11.3047 82.144 11.2963 81.9503C11.2879 81.7565 11.3181 81.5631 11.3851 81.3811C11.4522 81.1992 11.5547 81.0324 11.6868 80.8904Z" fill="#EBEBEB"/>
<path d="M13.6281 81.6349C13.6481 81.6349 13.6738 81.575 13.6623 81.4523C13.6431 81.2763 13.5562 81.1147 13.4199 81.0016C13.3156 80.914 13.1904 80.8548 13.0564 80.8298C12.9225 80.8048 12.7844 80.8149 12.6555 80.859C12.492 80.9131 12.3497 81.0173 12.2489 81.1568C12.148 81.2963 12.0938 81.4641 12.0938 81.6363C12.0938 81.8085 12.148 81.9763 12.2489 82.1158C12.3497 82.2553 12.492 82.3595 12.6555 82.4136C12.7845 82.4579 12.9229 82.4678 13.057 82.4423C13.1911 82.4168 13.3161 82.3567 13.4199 82.2681C13.5565 82.1565 13.6436 81.9956 13.6623 81.8203C13.6623 81.6976 13.6623 81.6349 13.6281 81.6349C13.5939 81.6349 13.5825 81.9201 13.2915 82.1027C13.2121 82.1543 13.1214 82.1862 13.0272 82.1956C12.9329 82.205 12.8377 82.1917 12.7496 82.1568C12.6492 82.1118 12.5639 82.0387 12.5041 81.9464C12.4443 81.854 12.4125 81.7463 12.4125 81.6363C12.4125 81.5263 12.4443 81.4186 12.5041 81.3262C12.5639 81.2338 12.6492 81.1607 12.7496 81.1157C12.8377 81.0808 12.9329 81.0675 13.0272 81.077C13.1214 81.0864 13.2121 81.1183 13.2915 81.1699C13.5825 81.3696 13.5825 81.652 13.6281 81.6349Z" fill="#E0E0E0"/>
<path d="M13.2272 79.199C13.1958 79.1733 12.8935 79.4528 12.4314 79.9292C12.1514 80.2055 11.8867 80.4969 11.6384 80.802C11.4704 80.9997 11.3463 81.2309 11.2745 81.4802C11.2027 81.7296 11.1848 81.9913 11.222 82.2481C11.2892 82.5048 11.4247 82.7384 11.614 82.9242C11.8034 83.11 12.0395 83.2411 12.2973 83.3035C12.5008 83.3587 12.7133 83.3722 12.922 83.3433C13.1308 83.3144 13.3316 83.2436 13.5124 83.1352C14.1057 82.7616 14.314 82.3822 14.294 82.3679C14.274 82.3537 13.9802 82.6532 13.4155 82.9384C13.0924 83.1028 12.7182 83.1355 12.3715 83.0297C12.1672 82.973 11.981 82.8643 11.8311 82.7144C11.6811 82.5645 11.5725 82.3783 11.5158 82.174C11.4891 81.9576 11.5062 81.738 11.5659 81.5283C11.6257 81.3186 11.727 81.123 11.8638 80.9532C12.1091 80.608 12.3858 80.3171 12.5911 80.0575C13.0104 79.5584 13.2557 79.2275 13.2272 79.199Z" fill="#E0E0E0"/>
<path d="M32.0319 123.451H7.95508C7.95508 123.451 11.0299 119.62 19.0451 119.62C26.5097 119.62 30.9565 121.813 32.0319 123.451Z" fill="#E0E0E0"/>
<path d="M37.9795 47.2325L36.7559 45.3985L38.2676 44.2375L39.5654 46.0859L37.9795 47.2325Z" fill="#EBEBEB"/>
<path d="M35.9062 48.3421L41.1774 44.5199L46.2461 50.604C55.0199 52.0302 58.5569 57.5381 58.5569 57.5381L42.8489 69.5665C37.4722 63.6222 40.0194 55.1336 40.0194 55.1336L35.9062 48.3421Z" fill="#F5F5F5"/>
<path d="M40.0066 55.1336C40.0551 55.1992 41.4898 54.2408 43.207 52.9914C44.9241 51.7421 46.2818 50.6725 46.2333 50.6069C46.1848 50.5413 44.7529 51.4996 43.033 52.749C41.313 53.9983 39.9695 55.068 40.0066 55.1336Z" fill="#E0E0E0"/>
<path d="M40.7635 7.70447H9.77539V38.6925H40.7635V7.70447Z" fill="#EBEBEB"/>
<path d="M39.8529 8.61723H10.6875V37.7826H39.8529V8.61723Z" fill="white"/>
<path d="M29.4566 19.0112H21.082V27.3858H29.4566V19.0112Z" fill="#E0E0E0"/>
<path d="M42.0701 7.71303H40.7637V38.6925H42.0701V7.71303Z" fill="#E0E0E0"/>
<path d="M123.197 48.459H92.209V79.4471H123.197V48.459Z" fill="#EBEBEB"/>
<path d="M122.285 49.3718H93.1191V78.5372H122.285V49.3718Z" fill="white"/>
<path d="M111.89 59.7658H103.516V68.1403H111.89V59.7658Z" fill="#E0E0E0"/>
<path d="M124.502 48.4676H123.195V79.4471H124.502V48.4676Z" fill="#E0E0E0"/>
<path d="M106.15 7.44875L102.137 7.47046L102.245 27.4367L106.258 27.415L106.15 7.44875Z" fill="#E0E0E0"/>
<path d="M77.7641 7.49976L67.373 7.55598L67.4327 18.5802L77.8237 18.524L77.7641 7.49976Z" fill="#EBEBEB"/>
<path d="M88.1058 7.44666L77.7148 7.50288L77.7745 18.5271L88.1655 18.4709L88.1058 7.44666Z" fill="#F5F5F5"/>
<path d="M67.3871 10.611C74.2917 10.6681 81.203 10.6367 88.1209 10.5169C88.1504 10.5169 88.1787 10.5052 88.1996 10.4843C88.2205 10.4635 88.2322 10.4352 88.2322 10.4057C88.2322 10.3761 88.2205 10.3479 88.1996 10.327C88.1787 10.3061 88.1504 10.2944 88.1209 10.2944C81.2154 10.2573 74.2898 10.2944 67.3871 10.4228C67.3621 10.4228 67.3382 10.4327 67.3205 10.4503C67.3029 10.468 67.293 10.4919 67.293 10.5169C67.293 10.5419 67.3029 10.5658 67.3205 10.5835C67.3382 10.6011 67.3621 10.611 67.3871 10.611Z" fill="#E0E0E0"/>
<path d="M79.774 18.3392L60.8945 18.4413L60.9431 27.4233L79.8226 27.3211L79.774 18.3392Z" fill="#EBEBEB"/>
<path d="M98.5631 18.2403L79.6836 18.3425L79.7322 27.3245L98.6117 27.2223L98.5631 18.2403Z" fill="#F5F5F5"/>
<path d="M60.9055 20.9451C73.4559 21.0878 86.032 20.9451 98.5738 20.7597C98.6033 20.7597 98.6316 20.748 98.6525 20.7272C98.6734 20.7063 98.6851 20.678 98.6851 20.6485C98.6851 20.619 98.6734 20.5907 98.6525 20.5698C98.6316 20.549 98.6033 20.5373 98.5738 20.5373C86.0234 20.4717 73.4445 20.4802 60.9027 20.754C60.8802 20.7579 60.8598 20.7697 60.845 20.7871C60.8303 20.8046 60.8223 20.8267 60.8223 20.8496C60.8223 20.8724 60.8303 20.8946 60.845 20.912C60.8598 20.9295 60.8802 20.9412 60.9027 20.9451H60.9055Z" fill="#E0E0E0"/>
<path d="M126.99 27.4286H53.8438V30.646H126.99V27.4286Z" fill="#E0E0E0"/>
<path d="M68.7896 28.9774H65.8203V39.959H68.7896V28.9774Z" fill="#E0E0E0"/>
<path d="M113.116 28.9774H110.146V39.959H113.116V28.9774Z" fill="#E0E0E0"/>
<path d="M110.066 -5.58299e-07L106.053 0.0217133L106.201 27.4839L110.215 27.4622L110.066 -5.58299e-07Z" fill="#EBEBEB"/>
<path d="M116.335 5.11461L110.1 5.14835L110.22 27.4022L116.455 27.3684L116.335 5.11461Z" fill="#F5F5F5"/>
<path d="M116.29 9.40732C116.29 9.46722 114.895 9.51571 113.172 9.51571C111.449 9.51571 110.055 9.46722 110.055 9.40732C110.055 9.34742 111.449 9.29893 113.172 9.29893C114.895 9.29893 116.29 9.34742 116.29 9.40732Z" fill="#E0E0E0"/>
<path d="M116.29 8.47175C116.29 8.53165 114.895 8.58014 113.172 8.58014C111.449 8.58014 110.055 8.53165 110.055 8.47175C110.055 8.41185 111.449 8.36336 113.172 8.36336C114.895 8.36336 116.29 8.41185 116.29 8.47175Z" fill="#E0E0E0"/>
<path d="M116.29 24.0171C116.29 24.077 114.895 24.1255 113.172 24.1255C111.449 24.1255 110.055 24.077 110.055 24.0171C110.055 23.9572 111.449 23.9087 113.172 23.9087C114.895 23.9087 116.29 23.9658 116.29 24.0171Z" fill="#E0E0E0"/>
<path d="M116.29 23.0901C116.29 23.15 114.895 23.1985 113.172 23.1985C111.449 23.1985 110.055 23.15 110.055 23.0901C110.055 23.0302 111.449 22.9846 113.172 22.9846C114.895 22.9846 116.29 23.0331 116.29 23.0901Z" fill="#E0E0E0"/>
<path d="M113.275 21.0507C113.216 21.0507 113.17 18.8059 113.17 16.0362C113.17 13.2666 113.216 11.0218 113.275 11.0218C113.335 11.0218 113.384 13.2666 113.384 16.0362C113.384 18.8059 113.333 21.0507 113.275 21.0507Z" fill="#E0E0E0"/>
<path d="M123.145 10.5854H116.359V27.3829H123.145V10.5854Z" fill="#EBEBEB"/>
<path d="M109.151 4.69808C109.148 4.92311 109.079 5.14228 108.952 5.32803C108.825 5.51377 108.646 5.65778 108.437 5.74196C108.228 5.82613 107.999 5.8467 107.779 5.80108C107.558 5.75546 107.356 5.64568 107.198 5.48557C107.04 5.32545 106.933 5.12214 106.89 4.90122C106.847 4.68029 106.871 4.45162 106.957 4.24397C107.044 4.03632 107.19 3.85896 107.378 3.73421C107.565 3.60947 107.785 3.54289 108.01 3.54288C108.161 3.54287 108.311 3.57284 108.45 3.63107C108.589 3.6893 108.716 3.77462 108.822 3.88208C108.928 3.98954 109.012 4.11701 109.068 4.25708C109.125 4.39716 109.153 4.54706 109.151 4.69808Z" fill="#E0E0E0"/>
<path d="M108.356 7.8699H107.643V24.2054H108.356V7.8699Z" fill="#E0E0E0"/>
<path d="M10.0781 110.427L11.9949 123.023H23.1305L25.7148 110.609L10.0781 110.427Z" fill="#CE9E41"/>
<path d="M24.1565 118.499C24.1565 118.536 21.3041 118.564 17.7843 118.564C14.2645 118.564 11.4121 118.536 11.4121 118.499C11.4121 118.462 14.2645 118.433 17.7843 118.433C21.3041 118.433 24.1565 118.462 24.1565 118.499Z" fill="#FAFAFA"/>
<path d="M24.1991 117.88C24.1991 117.914 21.3267 117.945 17.7841 117.945C14.2415 117.945 11.3691 117.914 11.3691 117.88C11.3691 117.846 14.2415 117.814 17.7841 117.814C21.3267 117.814 24.1991 117.843 24.1991 117.88Z" fill="#FAFAFA"/>
<path d="M24.1804 117.181C24.1804 117.215 21.3081 117.244 17.7655 117.244C14.2228 117.244 11.3477 117.215 11.3477 117.181C11.3477 117.147 14.22 117.115 17.7655 117.115C21.311 117.115 24.1804 117.144 24.1804 117.181Z" fill="#FAFAFA"/>
<path d="M13.275 122.304C13.1182 121.785 13.0037 121.255 12.9327 120.718C12.8191 120.188 12.7476 119.65 12.7188 119.109C12.8771 119.627 12.9916 120.158 13.061 120.695C13.1749 121.225 13.2464 121.763 13.275 122.304Z" fill="#FAFAFA"/>
<path d="M14.0322 122.17C13.9534 121.657 13.9076 121.14 13.8953 120.621C13.8401 120.106 13.8154 119.588 13.8211 119.069C14.0243 120.089 14.0953 121.132 14.0322 122.17Z" fill="#FAFAFA"/>
<path d="M15.4121 122.17C15.2627 121.651 15.1671 121.119 15.1268 120.581C15.0426 120.049 15.0139 119.51 15.0413 118.972C15.2021 120.034 15.3267 121.1 15.4149 122.17H15.4121Z" fill="#FAFAFA"/>
<path d="M16.3809 122.235C16.2751 121.705 16.2235 121.165 16.2269 120.624C16.1891 120.084 16.2053 119.541 16.2754 119.004C16.3337 119.54 16.3614 120.079 16.3581 120.618C16.3976 121.156 16.4053 121.696 16.3809 122.235Z" fill="#FAFAFA"/>
<path d="M18.0954 122.17C18.0143 121.663 17.9752 121.151 17.9784 120.638C17.9343 120.128 17.9343 119.614 17.9784 119.104C18.1 120.121 18.1344 121.147 18.0811 122.17H18.0954Z" fill="#FAFAFA"/>
<path d="M19.3517 122.235C19.2708 121.182 19.2794 120.124 19.3774 119.072C19.4544 120.126 19.4458 121.183 19.3517 122.235Z" fill="#FAFAFA"/>
<path d="M20.5254 122.067C20.5489 120.962 20.6604 119.86 20.8591 118.773C20.8687 119.326 20.8372 119.879 20.765 120.427C20.7274 120.979 20.6473 121.527 20.5254 122.067Z" fill="#FAFAFA"/>
<path d="M22.041 121.902C22.0441 121.427 22.1064 120.955 22.2264 120.495C22.3069 120.027 22.4469 119.571 22.6429 119.138C22.5731 119.605 22.4779 120.067 22.3576 120.524C22.2788 120.989 22.173 121.449 22.041 121.902Z" fill="#FAFAFA"/>
<path d="M8.80274 107.934V110.29C8.80236 110.412 8.82626 110.533 8.87307 110.646C8.91988 110.759 8.98866 110.862 9.07542 110.948C9.16219 111.034 9.26521 111.102 9.37851 111.149C9.49181 111.195 9.61314 111.218 9.73546 111.217H25.8513C25.9733 111.217 26.0941 111.193 26.2069 111.147C26.3197 111.101 26.4223 111.032 26.5087 110.946C26.595 110.86 26.6636 110.758 26.7103 110.645C26.7571 110.532 26.7812 110.412 26.7812 110.29V107.934H8.80274Z" fill="#CE9E41"/>
<g opacity="0.4">
<path opacity="0.4" d="M10.2012 111.217L10.3352 111.967L25.2103 113.028L25.5897 111.217H10.2012Z" fill="black"/>
</g>
<path d="M11.231 107.945C11.231 107.945 4.96147 100.72 5.65745 100.46C6.35343 100.201 11.9327 104.203 11.9327 104.203C11.9327 104.203 7.14353 93.495 8.10193 92.7106C9.06032 91.9262 14.109 102.2 14.109 102.2C14.109 102.2 13.3246 87.2284 14.109 87.0544C14.8934 86.8804 17.7657 102.026 17.7657 102.026C17.7657 102.026 22.0272 88.1953 23.2451 88.1953C24.4631 88.1953 21.9387 101.516 21.9387 101.516C21.9387 101.516 26.9874 92.9844 27.7718 94.1168C28.5562 95.2492 24.2035 104.454 24.2035 104.454C24.2035 104.454 30.5586 99.1427 30.8182 99.8387C31.0777 100.535 23.9411 107.937 23.9411 107.937L11.231 107.945Z" fill="#455A64"/>
<path d="M10.3552 97.0633C10.3979 97.0434 11.4961 99.4251 12.8396 102.386C14.183 105.347 15.2099 107.76 15.1642 107.78C15.1186 107.8 14.0233 105.415 12.6827 102.457C11.3421 99.4992 10.3067 97.0804 10.3552 97.0633Z" fill="#263238"/>
<path d="M15.4198 98.3925C15.4654 98.3925 15.6508 100.492 15.8305 103.085C16.0102 105.677 16.1158 107.788 16.073 107.791C16.0302 107.794 15.8391 105.695 15.6594 103.099C15.4797 100.503 15.3713 98.3982 15.4198 98.3925Z" fill="#263238"/>
<path d="M22.4027 91.6866C22.3989 91.7452 22.3864 91.8029 22.3656 91.8578C22.3314 91.9861 22.2858 92.143 22.2287 92.3341C22.0975 92.7705 21.9207 93.361 21.7039 94.0769C21.2618 95.5516 20.6685 97.591 20.0638 99.8558C19.4591 102.121 18.9571 104.189 18.6062 105.686C18.4379 106.416 18.2953 107.015 18.1926 107.46C18.147 107.654 18.1071 107.811 18.0757 107.942C18.0651 108 18.0469 108.055 18.0215 108.108C18.0215 108.049 18.0282 107.991 18.0415 107.934L18.127 107.446C18.204 107.024 18.3295 106.413 18.4893 105.66C18.8087 104.154 19.2908 102.083 19.8983 99.813C20.5059 97.5425 21.1163 95.5059 21.5898 94.0427C21.8237 93.3096 22.0233 92.7192 22.1603 92.3113C22.2287 92.1259 22.2829 91.9719 22.3286 91.8463C22.3471 91.7905 22.372 91.7369 22.4027 91.6866Z" fill="#263238"/>
<path d="M25.4241 99.4051C25.464 99.4336 24.2403 101.259 22.6915 103.481C21.1427 105.703 19.8563 107.474 19.8192 107.457C19.7821 107.44 21.0029 105.606 22.5517 103.381C24.1006 101.156 25.387 99.3794 25.4241 99.4051Z" fill="#263238"/>
<path d="M13.3432 107.791C13.1436 107.687 12.9594 107.555 12.7956 107.4C12.3782 107.055 11.9802 106.688 11.6033 106.299C11.2253 105.912 10.8683 105.504 10.5337 105.078C10.3805 104.907 10.2528 104.715 10.1543 104.508C10.1942 104.477 10.8474 105.267 11.7259 106.168C12.6045 107.069 13.3775 107.751 13.3432 107.791Z" fill="#263238"/>
<path d="M17.1525 104.922C17.201 104.922 17.3008 105.583 17.375 106.411C17.4491 107.238 17.4748 107.914 17.4263 107.917C17.3778 107.919 17.2809 107.255 17.2038 106.428C17.1316 105.929 17.1144 105.424 17.1525 104.922Z" fill="#263238"/>
<path d="M98.5964 73.3202C99.8833 73.0821 101.083 72.5031 102.07 71.6436C103.057 70.7842 103.795 69.6757 104.208 68.4338C104.621 67.192 104.693 65.8621 104.417 64.5828C104.141 63.3035 103.526 62.1217 102.638 61.1606C102.392 60.8503 102.055 60.6249 101.674 60.516C100.861 60.3505 100.182 61.1064 99.7003 61.7824L96.209 66.6543" fill="#263238"/>
<path d="M97.5345 68.0633C100.441 65.9954 102.301 61.9906 102.62 58.4394C102.94 54.8882 100.649 48.2194 99.129 44.9934C97.2778 41.0657 96.5133 46.6791 95.187 47.3666C94.3969 47.7745 93.9519 48.6672 93.8521 49.5515C93.7523 50.4357 93.9377 51.3228 94.1373 52.1928C95.2783 57.481 96.4192 62.7712 97.5602 68.0633" fill="#263238"/>
<path d="M83.4062 35.863C77.5902 33.9605 73.634 36.4049 71.8513 38.3959C70.0686 40.3868 69.2642 43.0738 68.9533 45.7265C68.6424 48.3792 68.7793 51.0604 68.6196 53.7131C68.5026 55.25 68.4969 56.7933 68.6024 58.3311C68.688 60.573 69.4867 64.4579 70.9471 66.1637C72.3504 67.8009 73.7994 69.2242 75.7961 70.0714C76.5092 70.3766 77.3449 70.6789 78.0295 70.3167C78.5287 70.0571 78.8025 69.5123 79.0392 69.0018C83.3314 59.7379 86.2358 49.8924 87.6591 39.7821" fill="#263238"/>
<path d="M90.4126 40.9373L80.5577 38.8779L78.193 39.5768C72.7736 40.5352 70.0809 47.1612 70.8083 51.5567C71.6155 56.4399 72.8049 62.3671 74.194 65.8185C77.0093 72.7726 82.7511 72.4132 82.7511 72.4132C82.7511 72.4132 83.0364 74.4098 83.4129 76.8315C83.5731 77.8686 83.9418 78.8625 84.4966 79.7534C85.0513 80.6442 85.7808 81.4134 86.6409 82.0147C87.501 82.616 88.4739 83.0369 89.5011 83.252C90.5283 83.4672 91.5883 83.472 92.6174 83.2664C94.6066 82.8686 96.3615 81.7089 97.5073 80.035C98.6531 78.361 99.0991 76.3054 98.75 74.3071L93.2792 42.9882C93.1442 42.3499 92.775 41.7854 92.2444 41.4058C91.7138 41.0261 91.0603 40.859 90.4126 40.9373Z" fill="#FFC3BD"/>
<path d="M74.359 56.3658C74.4125 56.6078 74.5585 56.8194 74.7658 56.9553C74.9731 57.0912 75.2253 57.1406 75.4686 57.0931C75.5887 57.0755 75.704 57.034 75.8077 56.971C75.9115 56.908 76.0015 56.8249 76.0725 56.7265C76.1435 56.628 76.1941 56.5164 76.2212 56.3981C76.2482 56.2798 76.2513 56.1573 76.2302 56.0377C76.176 55.7967 76.0304 55.586 75.8239 55.4503C75.6174 55.3146 75.3662 55.2644 75.1235 55.3104C75.0033 55.328 74.8879 55.3696 74.784 55.4325C74.6802 55.4954 74.5899 55.5785 74.5187 55.6769C74.4475 55.7753 74.3966 55.8869 74.3692 56.0052C74.3418 56.1235 74.3383 56.2461 74.359 56.3658Z" fill="#263238"/>
<path d="M73.1778 53.6988C73.3204 53.7929 73.9023 53.1112 74.8892 52.8859C75.8761 52.6606 76.7318 52.9857 76.8117 52.8403C76.8545 52.7747 76.6862 52.5835 76.3125 52.4238C75.8128 52.2253 75.264 52.1855 74.7409 52.3097C74.2228 52.4284 73.7555 52.708 73.4059 53.1084C73.1635 53.4164 73.1093 53.6589 73.1778 53.6988Z" fill="#263238"/>
<path d="M80.7248 60.4703C80.7248 60.4133 80.0716 60.4475 79.039 60.553C78.7766 60.5844 78.5256 60.5901 78.4429 60.4247C78.3622 60.1665 78.3622 59.8899 78.4429 59.6317C78.5399 58.9614 78.6425 58.2597 78.7481 57.521C79.156 54.5231 79.3899 52.0787 79.2672 52.0644C79.1446 52.0501 78.7167 54.469 78.3088 57.4668C78.2137 58.2065 78.1244 58.912 78.0407 59.5832C78.0093 59.8941 77.9209 60.2592 78.1377 60.6101C78.1945 60.693 78.2695 60.7618 78.357 60.8112C78.4445 60.8607 78.5422 60.8894 78.6425 60.8953C78.792 60.9013 78.9415 60.8879 79.0875 60.8554C80.1058 60.6671 80.7333 60.5274 80.7248 60.4703Z" fill="#263238"/>
<path d="M82.7559 72.4189C86.1678 71.6868 89.3092 70.0209 91.8292 67.6069C91.8292 67.6069 90.403 73.2061 83.0268 74.1987L82.7559 72.4189Z" fill="#FFC3BD"/>
<path d="M81.7561 62.524C81.8793 62.2222 82.0795 61.9579 82.3368 61.7577C82.5941 61.5575 82.8994 61.4283 83.2222 61.3831C83.4489 61.3372 83.6832 61.3454 83.9062 61.4068C84.1292 61.4683 84.3346 61.5813 84.5058 61.7368C84.6808 61.9087 84.8032 62.1268 84.8588 62.3658C84.9143 62.6047 84.9007 62.8545 84.8196 63.0859C84.7111 63.3301 84.5312 63.5357 84.3036 63.6757C84.076 63.8157 83.8114 63.8836 83.5446 63.8703C83.0273 63.8238 82.5281 63.6567 82.087 63.3826C81.9529 63.3247 81.8331 63.238 81.7362 63.1287C81.6996 63.0316 81.6826 62.9281 81.686 62.8244C81.6894 62.7206 81.7132 62.6186 81.7561 62.524Z" fill="#FFC3BD"/>
<path d="M83.8147 60.4817C83.6521 60.5103 83.9003 61.5913 83.1501 62.5725C82.3999 63.5537 81.2247 63.7135 81.2504 63.8561C81.2504 63.9274 81.5556 64.0044 82.0462 63.9074C82.6816 63.7691 83.2481 63.4117 83.6464 62.8977C84.0286 62.4041 84.2035 61.781 84.1341 61.1606C84.0714 60.6985 83.8974 60.4589 83.8147 60.4817Z" fill="#263238"/>
<path d="M72.8214 50.8636C73.0467 51.049 73.6771 50.6553 74.5014 50.4528C75.3258 50.2503 76.0617 50.2532 76.1672 49.9793C76.2129 49.8481 76.0503 49.6485 75.6937 49.503C75.2244 49.3409 74.7174 49.3222 74.2374 49.4492C73.7574 49.5761 73.326 49.8431 72.9982 50.2161C72.7729 50.5156 72.7187 50.7694 72.8214 50.8636Z" fill="#263238"/>
<path d="M85.119 54.3292C85.1676 54.5717 85.1197 54.8236 84.9854 55.0313C84.8512 55.2391 84.6412 55.3863 84.4002 55.4416C84.2833 55.4741 84.161 55.4829 84.0407 55.4674C83.9204 55.4518 83.8044 55.4123 83.6996 55.3511C83.5948 55.29 83.5033 55.2084 83.4306 55.1112C83.3579 55.0141 83.3055 54.9033 83.2763 54.7856C83.2277 54.543 83.2756 54.2911 83.4099 54.0834C83.5441 53.8757 83.7541 53.7285 83.9951 53.6731C84.112 53.6406 84.2343 53.6318 84.3546 53.6474C84.4749 53.6629 84.5909 53.7024 84.6957 53.7636C84.8005 53.8248 84.892 53.9063 84.9647 54.0035C85.0374 54.1006 85.0898 54.2114 85.119 54.3292Z" fill="#263238"/>
<path d="M86.5728 51.183C86.4816 51.3285 85.6715 50.9406 84.6703 51.1345C83.6691 51.3285 83.0245 51.9731 82.8933 51.8704C82.8305 51.8277 82.8933 51.5852 83.1785 51.3C83.5558 50.9168 84.0417 50.6589 84.5705 50.5612C85.092 50.4578 85.633 50.5248 86.1136 50.7523C86.4644 50.9178 86.6185 51.1146 86.5728 51.183Z" fill="#263238"/>
<path d="M85.563 48.0711C85.4318 48.3335 84.7073 48.228 83.8516 48.3763C82.9959 48.5246 82.3427 48.8241 82.1402 48.6188C82.046 48.5161 82.1117 48.2651 82.3798 47.9912C82.7433 47.6534 83.1989 47.4311 83.6889 47.3523C84.1789 47.2736 84.6813 47.3421 85.1323 47.5491C85.4774 47.7288 85.6087 47.9456 85.563 48.0711Z" fill="#263238"/>
<path d="M81.4785 37.911C83.6406 36.5561 87.2545 36.2366 89.525 37.3976C91.7955 38.5585 93.467 40.7091 94.374 43.1023C95.2811 45.4954 95.3124 49.2548 95.0928 51.7934C90.4577 47.609 85.5716 42.7029 81.0449 38.4016L81.4785 37.911Z" fill="#263238"/>
<path d="M79.3017 36.0256C66.2122 36.5076 70.8445 55.607 70.8445 55.607C70.8445 48.2651 79.4215 39.0491 79.4215 39.0491L81.3726 38.3502L79.3017 36.0256Z" fill="#263238"/>
<path d="M94.6859 55.4388C94.5633 54.8997 94.8913 53.4906 95.4047 53.2852C96.771 52.7347 99.3524 52.2584 100.208 55.8524C101.378 60.767 96.2005 60.9267 96.1606 60.7869C96.1206 60.6472 95.1109 57.2957 94.6859 55.4388Z" fill="#FFC3BD"/>
<path d="M96.5564 58.6905C96.5763 58.6676 96.6562 58.7275 96.8159 58.7618C97.0408 58.7989 97.2713 58.7489 97.4606 58.622C97.9341 58.3082 98.1765 57.3784 97.9883 56.4884C97.901 56.0639 97.7197 55.6643 97.4577 55.319C97.3748 55.1763 97.2586 55.0559 97.119 54.968C96.9795 54.88 96.8207 54.8272 96.6562 54.8141C96.5515 54.8113 96.4493 54.8456 96.3674 54.9108C96.2854 54.976 96.2292 55.068 96.2084 55.1706C96.1742 55.3218 96.2284 55.4131 96.2084 55.4273C96.1884 55.4416 96.0829 55.3703 96.0743 55.1592C96.0718 55.031 96.1142 54.9059 96.1941 54.8055C96.3051 54.6702 96.465 54.5841 96.6391 54.5659C96.8503 54.5587 97.0599 54.6055 97.2481 54.7018C97.4362 54.7982 97.5967 54.9409 97.7144 55.1164C98.0235 55.4925 98.2369 55.9378 98.3362 56.4143C98.5416 57.4126 98.2535 58.4594 97.5918 58.8359C97.4691 58.9057 97.3323 58.9468 97.1915 58.9562C97.0508 58.9655 96.9097 58.943 96.7789 58.8901C96.5935 58.816 96.5421 58.7019 96.5564 58.6905Z" fill="#FFC3BD"/>
<path d="M98.4017 42.5175C96.5248 39.34 93.4528 36.9868 90.0927 35.4637C88.29 34.6479 86.3362 34.0375 84.3595 34.1573C82.3828 34.2771 80.3804 35.2041 79.3536 36.8984L79.0684 37.3291C82.1346 41.8016 84.4165 45.6437 88.0533 49.6684C89.3911 51.1488 90.8515 56.7366 91.4476 58.6391C93.4899 65.1311 97.6372 67.3245 97.6372 67.3245C105.496 65.924 100.279 45.6951 98.4017 42.5175Z" fill="#263238"/>
<path d="M101.802 71.5689C101.777 71.5517 102.002 71.1952 102.23 70.5591C102.363 70.1893 102.458 69.8071 102.515 69.4182C102.571 68.9445 102.571 68.4657 102.515 67.992C102.4 67.1208 102.101 66.2839 101.64 65.5361C101.28 64.9656 100.992 64.6547 101.015 64.6348C101.093 64.6959 101.164 64.7658 101.226 64.843C101.41 65.0412 101.578 65.2539 101.728 65.4791C102.517 66.6434 102.844 68.0602 102.644 69.4524C102.582 69.8507 102.477 70.241 102.33 70.6162C102.275 70.7604 102.212 70.9013 102.142 71.0383C102.093 71.144 102.037 71.246 101.973 71.3435C101.926 71.4255 101.868 71.5011 101.802 71.5689Z" fill="white"/>
<path d="M102.208 60.864C102.199 60.8364 102.194 60.8075 102.194 60.7784L102.154 60.5274C102.154 60.4133 102.128 60.2735 102.102 60.1109L102.005 59.5405C101.772 58.3512 101.388 57.1963 100.864 56.1034C100.08 54.486 99.0762 52.9848 97.8809 51.6423C96.4022 50.01 94.7655 48.5281 92.9948 47.2182C91.1294 45.7921 89.2867 44.5427 87.6352 43.3476C86.1693 42.3032 84.7593 41.1826 83.4109 39.9904C82.5039 39.1798 81.6538 38.3077 80.8666 37.3804C80.5813 37.0496 80.3845 36.7872 80.2533 36.6046L80.0993 36.3964C80.0811 36.373 80.0649 36.3482 80.0508 36.3222C80.0739 36.3419 80.0949 36.3639 80.1135 36.3878C80.1535 36.4392 80.2077 36.5048 80.2761 36.5846C80.4159 36.7643 80.6327 37.0182 80.9122 37.3434C81.7119 38.2533 82.5693 39.1108 83.4793 39.9105C84.8376 41.0894 86.2542 42.1994 87.7236 43.2364C89.3723 44.4258 91.2235 45.678 93.0946 47.1013C94.8716 48.4173 96.5123 49.9079 97.9921 51.551C99.1898 52.9066 100.191 54.4237 100.967 56.0577C101.483 57.1621 101.852 58.3291 102.065 59.529C102.097 59.743 102.125 59.9312 102.148 60.0995C102.171 60.2678 102.177 60.4047 102.185 60.516C102.194 60.6272 102.199 60.7071 102.205 60.7755C102.21 60.8047 102.211 60.8345 102.208 60.864Z" fill="white"/>
<path d="M98.8608 44.9506C98.7441 44.7106 98.6047 44.4823 98.4443 44.2689C98.2384 44.0256 97.9993 43.8124 97.7341 43.6357C97.3775 43.4014 96.9945 43.21 96.5931 43.0652C95.7175 42.7201 94.5965 42.4947 93.4014 42.1382C92.2062 41.7816 90.8827 41.3538 89.5335 40.8318C87.2242 39.9415 84.9878 38.8724 82.8448 37.6343C82.0233 37.1551 81.3729 36.7472 80.9308 36.4563L80.4231 36.114C80.3619 36.077 80.3046 36.034 80.252 35.9856C80.3174 36.0146 80.3804 36.0489 80.4402 36.0883L80.9593 36.4078C81.4129 36.693 82.0718 37.0781 82.8961 37.5487C85.0483 38.7521 87.2836 39.8007 89.5849 40.6863C90.9341 41.2083 92.2404 41.6447 93.4413 42.0013C94.6421 42.3578 95.746 42.6003 96.6331 42.9625C97.0357 43.1165 97.4187 43.3175 97.774 43.5615C98.0416 43.7477 98.28 43.9727 98.4814 44.229C98.5532 44.319 98.6181 44.4143 98.6754 44.5142C98.7211 44.5876 98.7602 44.6649 98.7923 44.7452C98.8222 44.8112 98.8451 44.88 98.8608 44.9506Z" fill="#455A64"/>
<path d="M76.4963 69.9202L76.3993 69.886L76.1141 69.7719C75.752 69.6228 75.3987 69.4533 75.0559 69.2642C74.5169 68.9612 74.0028 68.616 73.5184 68.2316C72.8716 67.7235 72.279 67.15 71.75 66.5202C70.3633 64.8822 69.3918 62.9342 68.9176 60.8411C68.3677 58.2685 68.4836 55.5981 69.2542 53.0827C69.6397 51.7826 70.1748 50.5315 70.8486 49.3547C71.4869 48.2685 72.2008 47.2286 72.9851 46.2427C73.7238 45.2958 74.4597 44.4201 75.1386 43.5957C75.8175 42.7714 76.4336 41.9927 76.9727 41.2654C77.8339 40.1208 78.5648 38.8838 79.1519 37.5773C79.2488 37.3434 79.3458 37.1408 79.4114 36.9554C79.477 36.77 79.5284 36.6189 79.574 36.4905L79.6767 36.2053C79.6868 36.1717 79.7001 36.1392 79.7166 36.1083C79.7124 36.1435 79.7038 36.178 79.691 36.211L79.6025 36.4962C79.5626 36.6274 79.5113 36.7814 79.4542 36.9669C79.3972 37.1523 79.3002 37.3605 79.2061 37.5972C78.6354 38.9202 77.9127 40.1723 77.0525 41.3281C76.5163 42.064 75.9116 42.8484 75.227 43.6756C74.5424 44.5028 73.8237 45.387 73.0877 46.3283C72.3111 47.312 71.603 48.348 70.9684 49.4288C70.3019 50.6001 69.7726 51.8444 69.3911 53.1369C68.6361 55.6269 68.5242 58.2676 69.0659 60.8126C69.5287 62.8885 70.4824 64.8232 71.847 66.4546C72.763 67.5553 73.8633 68.4886 75.0987 69.2128C75.5436 69.4581 75.8916 69.6407 76.1398 69.7434L76.425 69.8717C76.4501 69.8858 76.4739 69.9021 76.4963 69.9202Z" fill="#455A64"/>
<path d="M102.499 59.4007C102.493 59.5202 102.475 59.6387 102.444 59.7544C102.405 59.9826 102.328 60.3077 102.225 60.7071C101.959 61.7527 101.576 62.765 101.084 63.7249C100.807 64.2512 100.487 64.7539 100.128 65.2281C99.8331 65.6126 99.5099 65.9749 99.1614 66.312C98.9293 66.5412 98.6845 66.7574 98.4283 66.9594C98.3413 67.0393 98.2457 67.1091 98.1431 67.1677C98.126 67.1477 98.5253 66.8282 99.0958 66.2378C99.428 65.8923 99.7394 65.5276 100.029 65.1453C100.376 64.6716 100.687 64.173 100.961 63.6536C101.448 62.7025 101.841 61.7061 102.134 60.6785C102.239 60.3049 102.328 59.9911 102.396 59.7401C102.418 59.6235 102.452 59.5097 102.499 59.4007Z" fill="#455A64"/>
<path d="M128.351 122.86L124.278 97.0005C124.278 97.0005 119.064 76.6518 114.865 74.0961C110.666 71.5404 99.6418 71.9368 99.6418 71.9368L98.7633 73.7937C98.1339 75.1286 97.1803 76.2848 95.9896 77.1568C94.7988 78.0287 93.4088 78.5888 91.9461 78.7859C90.4835 78.983 88.9948 78.8108 87.6157 78.2851C86.2366 77.7594 85.0111 76.8968 84.0508 75.7761L79.5212 76.8885C75.679 77.8139 72.3372 80.1758 70.1826 83.4889C70.1084 83.603 67.0878 87.6476 67.0165 87.7674C65.4391 90.3517 50.3387 108.356 50.3387 108.356C50.3387 108.356 39.3485 103.119 38.8779 103.193C38.4073 103.267 34.0859 108.578 34.0859 108.578C34.0859 108.578 47.6889 122.723 53.4506 122.053C59.2124 121.383 65.5447 111.87 65.5447 111.87L77.2907 100.597C78.9451 106.827 84.2989 122.894 84.2989 122.894L128.351 122.86Z" fill="#CE9E41"/>
<g opacity="0.3">
<path opacity="0.3" d="M62.097 112.395C60.9019 111.048 59.2218 110.25 57.5617 109.557C51.6688 107.092 45.4478 105.529 39.2553 103.975C39.072 103.909 38.8733 103.9 38.6848 103.949C38.2912 104.1 38.2741 104.645 38.3397 105.064L38.4024 105.481L38.1172 106.082C41.6947 110.574 46.2822 114.156 51.5062 116.539C52.9723 117.21 54.5354 117.794 56.1441 117.712C58.021 117.617 59.721 116.636 61.3354 115.678C61.9658 115.307 62.6561 114.848 62.7844 114.129C62.9014 113.493 62.5277 112.874 62.097 112.395Z" fill="black"/>
</g>
<path d="M74.682 88.375C74.7004 88.4373 74.7119 88.5013 74.7162 88.5661C74.7333 88.7087 74.759 88.8913 74.7875 89.1166C74.8161 89.342 74.8617 89.6472 74.913 89.9723C74.9644 90.2975 75.0271 90.6968 75.1042 91.1133C75.4065 92.8104 75.9599 95.1294 76.6073 97.6737C77.2548 100.218 77.8909 102.523 78.3017 104.2C78.507 105.039 78.661 105.717 78.7609 106.197C78.8065 106.422 78.8436 106.602 78.8693 106.741C78.887 106.804 78.8966 106.868 78.8978 106.932C78.8727 106.873 78.8536 106.811 78.8407 106.747C78.8065 106.61 78.7609 106.43 78.7038 106.211C78.5897 105.74 78.4186 105.07 78.199 104.231C77.7511 102.548 77.1379 100.238 76.4647 97.7165C75.7916 95.195 75.2781 92.8361 75.0015 91.1304C74.9302 90.7054 74.8703 90.3203 74.8303 89.9894C74.7904 89.6586 74.7448 89.3562 74.7305 89.1166C74.7162 88.877 74.6991 88.703 74.6877 88.5604C74.6795 88.499 74.6776 88.4368 74.682 88.375Z" fill="#263238"/>
<path d="M99.7686 107.306C99.6233 107.31 99.4781 107.3 99.335 107.275C99.1943 107.263 99.026 107.241 98.8301 107.206C98.6333 107.169 98.408 107.138 98.1655 107.078C97.5915 106.952 97.0264 106.788 96.4741 106.587C95.7973 106.339 95.1395 106.041 94.5059 105.697C93.8768 105.346 93.2735 104.95 92.7004 104.514C92.2356 104.152 91.7945 103.762 91.3798 103.344C91.2001 103.173 91.0517 102.999 90.9177 102.854C90.7836 102.708 90.6724 102.568 90.5868 102.463C90.4904 102.354 90.4044 102.237 90.3301 102.112C90.4387 102.209 90.5398 102.314 90.6324 102.426C90.7237 102.528 90.8378 102.657 90.9776 102.797C91.1173 102.936 91.2628 103.105 91.4539 103.27C91.8741 103.676 92.318 104.057 92.7831 104.411C93.9228 105.273 95.1814 105.966 96.5197 106.468C97.0651 106.673 97.6223 106.845 98.1883 106.984C98.4279 107.052 98.6504 107.089 98.8444 107.132C99.0383 107.175 99.2066 107.206 99.3435 107.226C99.4871 107.241 99.6293 107.268 99.7686 107.306Z" fill="#263238"/>
<path d="M99.7705 70.4051C100.444 69.6065 100.138 68.8991 99.7477 68.591C99.1031 68.0747 98.3215 68.2601 97.751 68.7251C95.9712 70.1513 93.9203 71.4063 92.1005 72.7783C90.2807 74.1503 87.8676 75.1571 85.7454 74.3214C85.2662 74.1331 84.8184 73.8536 84.3193 73.7053C84.0762 73.6143 83.8146 73.5839 83.5572 73.6167C83.2998 73.6495 83.0542 73.7445 82.8417 73.8935C82.4452 74.2244 82.3825 75.508 82.8218 75.779C83.6347 77.8926 85.5886 79.4642 87.7735 80.0575C89.9584 80.6508 92.3372 80.3256 94.4024 79.41C96.4675 78.4944 98.2559 77.014 99.7648 75.3283C100.308 74.7895 100.719 74.1325 100.966 73.4087C101.248 72.3904 99.7705 70.4051 99.7705 70.4051Z" fill="#CE9E41"/>
<path d="M100.333 69.7548C100.299 69.8135 100.259 69.8681 100.213 69.9174C100.127 70.0229 100.007 70.1769 99.842 70.3709C99.5169 70.7588 99.0263 71.3093 98.3845 71.9539C97.6334 72.7092 96.8267 73.4071 95.9714 74.0419C94.9226 74.8226 93.7816 75.4712 92.5742 75.9729C89.9843 77.0254 87.3686 77.1281 85.5888 76.7573C84.881 76.625 84.1929 76.4036 83.5408 76.0984C83.3624 76.0134 83.1891 75.9181 83.0216 75.8132C82.9608 75.7829 82.9026 75.7476 82.8477 75.7077C82.8477 75.6934 83.1015 75.8303 83.5636 76.0328C84.2191 76.3154 84.9055 76.5203 85.6087 76.6432C87.3715 76.9827 89.9586 76.8657 92.5172 75.8246C93.7131 75.3305 94.8458 74.6956 95.8915 73.9335C96.746 73.3067 97.5552 72.6204 98.3132 71.8798C98.9607 71.2494 99.4541 70.7103 99.7992 70.3338L100.19 69.9031C100.231 69.8479 100.279 69.798 100.333 69.7548Z" fill="#263238"/>
<path d="M99.8255 73.7024C99.8053 73.7459 99.7804 73.787 99.7513 73.8251C99.6857 73.9135 99.6087 74.0247 99.5146 74.156C99.3063 74.4412 98.9926 74.8491 98.5875 75.3397C96.472 77.888 93.9695 80.0883 91.1714 81.8602C90.6352 82.1968 90.1902 82.4592 89.8793 82.6246L89.5199 82.8186C89.4343 82.8614 89.3915 82.8813 89.3887 82.8756C89.4236 82.8441 89.4619 82.8163 89.5028 82.7929L89.8508 82.5761C90.1531 82.3936 90.5867 82.1198 91.1143 81.7718C93.8703 79.9586 96.3605 77.7708 98.5134 75.2712C98.927 74.792 99.2521 74.3984 99.4718 74.1303C99.5773 74.0048 99.6629 73.8992 99.7313 73.8137C99.7998 73.7281 99.8198 73.6996 99.8255 73.7024Z" fill="#263238"/>
<g opacity="0.3">
<path opacity="0.3" d="M108.738 92.5651C109.168 96.5898 109.308 100.383 109.744 104.405C109.801 104.959 109.856 105.546 109.593 106.04C109.208 106.761 108.307 106.995 107.508 107.161C105.352 107.603 103.121 108.27 100.965 108.712C104.279 108.647 107.691 108.27 111.005 108.207C111.262 108.207 112.009 108.162 112.009 108.162C112.009 108.162 111.815 107.115 111.761 106.864C110.66 101.872 109.836 97.5568 108.738 92.5651Z" fill="black"/>
</g>
<g opacity="0.3">
<path opacity="0.3" d="M77.4254 100.985C74.67 97.6138 73.7601 92.9616 74.6814 88.703C75.2804 93.2668 76.3928 97.2943 77.4254 100.985Z" fill="black"/>
</g>
<g opacity="0.3">
<path opacity="0.3" d="M86.1 101.989C87.0032 101.191 87.6704 100.161 88.0289 99.0104C88.3875 97.8598 88.4238 96.6329 88.1338 95.4631C87.8229 94.2794 87.1811 93.2012 86.9272 92.0032C86.6591 90.7425 86.8388 89.4361 86.8987 88.1497C86.9586 86.8632 86.8759 85.4941 86.1628 84.4188C85.7691 83.8255 85.1901 83.3263 85.0076 82.6389C84.825 81.9515 85.0561 81.3068 85.1017 80.6422C85.1374 80.027 85.0268 79.412 84.7789 78.8478C84.531 78.2835 84.1528 77.7861 83.6755 77.3963C83.3903 77.1709 82.9653 76.9884 82.6914 77.2251C82.6138 77.3131 82.5544 77.4157 82.5167 77.5268C82.479 77.638 82.4638 77.7555 82.4718 77.8726C82.1267 83.8626 81.8044 90.0237 83.8124 95.6685C84.5797 97.8277 85.6864 99.9014 85.9631 102.175" fill="black"/>
</g>
<g opacity="0.3">
<path opacity="0.3" d="M92.3743 76.0043C89.4849 77.1823 85.9394 77.3449 82.9102 75.7533L83.2296 76.2068C84.6244 77.6045 86.7152 78.1436 88.6833 78.0009C90.6515 77.8583 92.5283 77.1053 94.2911 76.2182C95.5491 75.6312 96.7139 74.8624 97.7481 73.9363C98.7888 73.0062 99.4986 71.7627 99.7705 70.3937C97.7054 72.744 95.2609 74.8263 92.3743 76.0043Z" fill="black"/>
</g>
<path d="M106.893 72.2221C106.893 72.2221 108.351 77.8127 108.453 82.927C108.556 88.0413 112.01 108.162 112.01 108.162L93.8436 109.066L92.6855 119.471C92.6855 119.471 113.277 123.941 119.213 123.633C125.148 123.325 127.587 118.716 126.871 111.87C126.871 111.87 122.65 86.3441 120.282 80.337C118.126 74.889 114.258 72.8211 106.893 72.2221Z" fill="#CE9E41"/>
<path d="M120.283 80.3285C120.283 80.3285 120.323 80.4255 120.391 80.6137L120.699 81.4694C120.941 82.2367 121.269 83.3777 121.649 84.8637C122.405 87.8331 123.335 92.1686 124.367 97.5454C124.883 100.235 125.428 103.182 125.99 106.353C126.264 107.939 126.549 109.578 126.846 111.268C126.88 111.479 126.926 111.693 126.949 111.91C126.971 112.127 126.983 112.341 127 112.56C127.017 112.78 127.04 112.997 127.043 113.216C127.046 113.436 127.043 113.656 127.043 113.878C127.057 114.775 126.998 115.672 126.869 116.559C126.823 116.782 126.78 117.007 126.735 117.23L126.683 117.575L126.586 117.908C126.518 118.128 126.458 118.35 126.387 118.57L126.121 119.218C125.746 120.088 125.212 120.881 124.547 121.557C123.848 122.228 123.025 122.755 122.122 123.108C121.196 123.442 120.227 123.639 119.244 123.696C117.262 123.756 115.251 123.516 113.254 123.262C111.258 123.008 109.193 122.692 107.136 122.332C102.127 121.477 97.2868 120.513 92.6917 119.534H92.6289V119.469C93.0339 115.849 93.4219 112.372 93.7927 109.066V109.009H93.8497L112.016 108.119L111.968 108.179C110.901 102.973 110.04 98.7662 109.444 95.8739C109.158 94.4277 108.922 93.3067 108.768 92.5395C108.691 92.1629 108.634 91.872 108.596 91.6837C108.559 91.4955 108.542 91.3985 108.542 91.3985C108.542 91.3985 108.568 91.4983 108.611 91.6837C108.653 91.8692 108.713 92.1687 108.796 92.5395C108.956 93.3039 109.193 94.4249 109.501 95.8682C110.105 98.7662 110.981 102.962 112.068 108.165V108.225H112.008L93.844 109.146L93.9068 109.086C93.5388 112.395 93.1537 115.872 92.7516 119.491L92.6974 119.412C97.2897 120.39 102.13 121.351 107.133 122.204C109.193 122.558 111.229 122.874 113.246 123.137C115.262 123.399 117.27 123.619 119.224 123.565C120.192 123.512 121.147 123.32 122.06 122.994C122.943 122.649 123.751 122.133 124.436 121.477C125.088 120.812 125.613 120.034 125.984 119.181C126.07 118.969 126.156 118.756 126.244 118.544C126.332 118.333 126.375 118.108 126.441 117.888L126.538 117.563L126.606 117.23C126.649 117.007 126.695 116.787 126.737 116.565C126.866 115.685 126.927 114.796 126.917 113.907C126.917 113.687 126.917 113.467 126.903 113.25C126.889 113.034 126.874 112.814 126.86 112.6L126.812 111.955C126.789 111.742 126.746 111.53 126.712 111.319C126.427 109.631 126.141 107.988 125.856 106.402C125.303 103.233 124.764 100.284 124.253 97.5938C123.232 92.2143 122.319 87.8787 121.583 84.9065C121.221 83.4204 120.893 82.2766 120.659 81.5065C120.531 81.1271 120.434 80.8362 120.374 80.6365C120.314 80.4369 120.283 80.3285 120.283 80.3285Z" fill="#263238"/>
<path d="M117.8 114.152C117.777 114.152 117.552 113.741 117.127 113.102C116.574 112.267 115.942 111.488 115.239 110.775C114.533 110.063 113.761 109.42 112.934 108.855C112.298 108.424 111.879 108.193 111.893 108.17C112 108.206 112.102 108.252 112.198 108.31C112.392 108.407 112.663 108.561 112.991 108.769C114.703 109.86 116.147 111.322 117.215 113.048C117.418 113.376 117.572 113.653 117.666 113.847C117.725 113.942 117.77 114.044 117.8 114.152Z" fill="#263238"/>
<path d="M111.967 75.3597C111.851 75.4792 111.727 75.5907 111.596 75.6934C111.445 75.8165 111.3 75.9479 111.163 76.087C111.003 76.2467 110.806 76.4179 110.621 76.6375L110.321 76.9712C110.216 77.0882 110.122 77.2194 110.016 77.3506C109.802 77.6102 109.605 77.9211 109.394 78.2263C108.506 79.6108 107.917 81.1651 107.663 82.7901C107.614 83.1666 107.557 83.5203 107.549 83.8569C107.549 84.0251 107.523 84.1877 107.523 84.3446C107.523 84.5015 107.523 84.6498 107.523 84.7924C107.523 85.0777 107.552 85.3372 107.566 85.5654C107.576 85.7566 107.597 85.9471 107.629 86.1359C107.659 86.3008 107.678 86.4676 107.686 86.6351C107.633 86.4762 107.595 86.313 107.572 86.1473C107.531 85.9591 107.501 85.7686 107.483 85.5768C107.449 85.3195 107.428 85.0605 107.42 84.801C107.42 84.6555 107.42 84.5158 107.406 84.3446C107.392 84.1735 107.406 84.0251 107.423 83.854C107.423 83.5146 107.48 83.1523 107.523 82.773C107.765 81.1238 108.362 79.547 109.275 78.1521C109.494 77.8384 109.694 77.5332 109.916 77.2765C110.025 77.1452 110.125 77.0112 110.23 76.8971L110.541 76.5662C110.735 76.3494 110.937 76.1811 111.111 76.0243C111.254 75.8882 111.406 75.7615 111.565 75.6449C111.691 75.5389 111.825 75.4435 111.967 75.3597Z" fill="#263238"/>
<path d="M85.6355 86.307C85.3332 85.4656 84.5973 84.801 84.4461 83.9225C84.3291 83.2379 84.5887 82.5505 84.6515 81.8602C84.7827 80.4026 84.0182 78.4174 83.4962 77.0511C82.9514 75.6249 81.879 74.9375 82.9457 73.7024L82.8488 73.1605C80.8521 72.8753 78.6872 74.7863 78.7071 76.8115C77.988 77.1137 77.3652 77.6066 76.906 78.2371C76.4468 78.8676 76.1687 79.6116 76.1017 80.3887C76.0348 81.1658 76.1815 81.9464 76.5261 82.6462C76.8707 83.3459 77.4 83.9382 78.0568 84.3589C77.8115 86.2414 77.5776 88.221 78.2935 89.978C79.0095 91.7351 81.0318 93.1156 82.8031 92.4339C84.0125 91.9718 84.7342 90.7425 85.2362 89.5502C85.6698 88.5205 86.0149 87.3567 85.6355 86.307Z" fill="#263238"/>
<path d="M82.5707 76.7516C81.2133 76.2606 79.7171 76.3241 78.4062 76.9285C78.5702 76.7905 78.7576 76.6833 78.9596 76.6119C79.4385 76.4145 79.9482 76.3026 80.4657 76.281C80.9823 76.2577 81.499 76.3262 81.9917 76.4835C82.1994 76.537 82.3956 76.6278 82.5707 76.7516Z" fill="#455A64"/>
<path d="M83.1368 85.1604C83.0839 85.2048 83.0242 85.2405 82.96 85.2659C82.7922 85.3493 82.6176 85.418 82.438 85.4713C81.8418 85.6489 81.216 85.7051 80.5977 85.6365C79.9793 85.5679 79.3811 85.376 78.8383 85.072C78.6736 84.9826 78.5179 84.8775 78.3734 84.7582C78.2707 84.6755 78.2193 84.6241 78.225 84.6156C78.2307 84.607 78.4732 84.7725 78.8868 84.9807C79.978 85.523 81.2259 85.6615 82.4095 85.3715C82.8601 85.2574 83.1254 85.1376 83.1368 85.1604Z" fill="#455A64"/>
<path d="M84.102 83.8939C84.0764 83.9082 83.8168 83.4433 83.3376 82.753C83.0466 82.3552 82.7333 81.9743 82.3992 81.612C81.9847 81.1726 81.5416 80.7609 81.0728 80.3798C80.5991 80.0063 80.1007 79.6651 79.581 79.3587C79.1528 79.113 78.711 78.8921 78.2575 78.6969C77.4817 78.366 76.974 78.2291 76.9825 78.2035C77.1059 78.2148 77.2275 78.2407 77.3448 78.2805C77.4589 78.309 77.5986 78.3489 77.7584 78.406C77.9181 78.463 78.1035 78.5172 78.2975 78.5999C78.7618 78.7817 79.2126 78.9962 79.6466 79.2417C80.1787 79.544 80.6869 79.8863 81.1669 80.2657C81.6412 80.6497 82.0865 81.0682 82.499 81.5179C82.8325 81.8889 83.1412 82.2815 83.4232 82.6931C83.5487 82.8671 83.6428 83.0325 83.7312 83.178C83.8196 83.3235 83.891 83.449 83.9451 83.5545C84.0085 83.6622 84.061 83.7759 84.102 83.8939Z" fill="#455A64"/>
<path d="M82.3705 75.5764C82.3335 75.5993 82.0368 75.1372 81.5291 74.7207C81.0214 74.3043 80.5165 74.0732 80.5336 74.0305C80.9419 74.1181 81.3186 74.3153 81.6232 74.6009C81.9575 74.851 82.2161 75.1886 82.3705 75.5764Z" fill="#455A64"/>
<path d="M84.3162 86.1216C84.3162 86.1416 83.9568 86.3356 83.3921 86.6921C82.66 87.1687 81.9743 87.7131 81.3441 88.3179C80.7189 88.9274 80.1544 89.5961 79.6583 90.3146C79.2761 90.8651 79.0736 91.2302 79.0508 91.2159C79.0796 91.122 79.1198 91.0319 79.1706 90.9478C79.2533 90.7795 79.3902 90.5399 79.5699 90.2547C80.0472 89.5123 80.608 88.8271 81.2414 88.2124C81.8752 87.5963 82.5788 87.0564 83.3379 86.6037C83.6231 86.4325 83.8713 86.3042 84.0424 86.2243C84.1278 86.176 84.2202 86.1413 84.3162 86.1216Z" fill="white"/>
<path d="M79.3086 84.1164C79.2982 84.0216 79.2982 83.926 79.3086 83.8312C79.3158 83.5666 79.3396 83.3027 79.3799 83.0411C79.6474 81.297 80.452 79.6798 81.6818 78.4145C81.866 78.2243 82.0622 78.0461 82.2694 77.8811C82.3405 77.8148 82.4201 77.7582 82.5061 77.7129C82.5232 77.7328 82.2209 77.9981 81.7588 78.4858C80.5899 79.7662 79.7999 81.3463 79.4769 83.0496C79.3543 83.7028 79.3343 84.1164 79.3086 84.1164Z" fill="white"/>
<path d="M83.2468 90.6797C83.1238 90.4569 83.0134 90.2274 82.9159 89.9923C82.3754 88.8941 81.5695 87.948 80.5712 87.2398C80.189 86.9545 79.9323 86.8233 79.9437 86.8033C80.1881 86.8844 80.4188 87.0017 80.6283 87.1513C81.1517 87.4884 81.6227 87.9007 82.0259 88.375C82.4302 88.8481 82.7619 89.3788 83.01 89.9495C83.1238 90.1802 83.2035 90.4262 83.2468 90.6797Z" fill="#455A64"/>
<path d="M85.8396 93.6547C85.329 92.8447 84.6074 92.0431 83.6547 91.9604L80.6255 92.9616C80.1836 93.5606 79.9125 94.2683 79.8412 95.0092C79.7699 95.7501 79.9009 96.4965 80.2204 97.1688C80.614 97.8691 81.0931 98.5178 81.6466 99.0999C82.1657 99.716 82.6649 100.383 82.856 101.165C83.0471 101.947 82.856 102.876 82.2142 103.35C82.9845 103.055 83.6402 102.521 84.0854 101.827C84.1766 102.471 84.0426 103.127 83.706 103.684C85.5772 103.059 86.8893 101.222 87.1916 99.2739C87.494 97.3257 86.895 95.3262 85.8396 93.6547Z" fill="#263238"/>
<path d="M85.4881 90.905C85.4465 90.7822 85.3757 90.6714 85.2818 90.5819C85.1879 90.4925 85.0737 90.4272 84.949 90.3916C84.5668 90.3089 84.2302 90.6284 83.9336 90.8851C83.396 91.3386 82.76 91.6604 82.0761 91.8248C81.3923 91.9892 80.6795 91.9917 79.9945 91.8321H79.9431C79.8049 91.9188 79.6913 92.0397 79.6134 92.1831C79.5354 92.3264 79.4957 92.4875 79.4982 92.6507C79.5461 92.9285 79.6869 93.1819 79.8975 93.3695C80.3752 93.8074 80.9953 94.0576 81.6431 94.074C82.286 94.0866 82.925 93.9712 83.5228 93.7346C84.1382 93.5389 84.6917 93.1859 85.1287 92.7106C85.3451 92.4695 85.4926 92.1747 85.5558 91.8571C85.6191 91.5394 85.5957 91.2106 85.4881 90.905Z" fill="#455A64"/>
<path d="M25.9707 84.7411L27.7135 95.2948L43.0906 110.096L56.1772 116.927L77.0851 111.12L77.5329 108.692L66.2118 101.031L53.4475 90.1064C53.4475 90.1064 49.2688 78.0181 47.8141 75.3825L25.9707 84.7411Z" fill="white"/>
<path d="M25.9707 84.7411C25.9707 84.7411 26.0962 84.6812 26.3501 84.5699L27.491 84.0793L31.8323 82.2053L47.8055 75.334L47.854 75.314L47.8769 75.3568C48.4245 76.4093 48.878 77.5389 49.3458 78.6998C49.8136 79.8607 50.2671 81.0644 50.7264 82.2995C51.6448 84.7715 52.5785 87.3672 53.5274 90.0864L53.5074 90.0579L66.2718 100.98L77.5928 108.63L77.6327 108.658V108.707C77.6042 108.852 77.5757 109.012 77.5471 109.172C77.4245 109.828 77.3018 110.484 77.182 111.131V111.177L77.1393 111.191L56.2314 116.996H56.2058H56.1801L43.0963 110.15L27.6878 95.3262C27.1373 91.9462 26.7095 89.3049 26.4157 87.5079C26.2731 86.6151 26.1618 85.9305 26.0877 85.4684C26.0534 85.2403 26.0249 85.0663 26.0078 84.9493C25.9907 84.8324 25.9821 84.7753 25.9821 84.7753L26.0163 84.9522C26.0363 85.0748 26.0677 85.2374 26.1076 85.477C26.1846 85.9419 26.3016 86.6179 26.4556 87.5221C26.7408 89.3134 27.1972 91.9433 27.7648 95.3119V95.2891C31.6326 98.9972 36.8924 104.049 43.1676 110.073H43.1533L56.2457 116.899H56.1943L77.0993 111.086L77.0451 111.143C77.1649 110.492 77.2876 109.839 77.4074 109.18C77.4388 109.023 77.4673 108.864 77.4958 108.715L77.5272 108.789L66.1748 101.088L53.4161 90.1577H53.4019V90.1406C52.4606 87.4233 51.5307 84.8267 50.6123 82.3508C50.1559 81.1167 49.6986 79.9168 49.2403 78.7511C48.7754 77.5931 48.3218 76.4692 47.7827 75.4196L47.8512 75.4424L31.8951 82.251L27.5224 84.1107L26.3814 84.5928L25.9707 84.7411Z" fill="#263238"/>
<path d="M53.4513 90.1035C53.3913 90.1481 53.3273 90.1873 53.2602 90.2205L52.6898 90.5314C52.1963 90.7995 51.4804 91.176 50.5876 91.6352C48.8048 92.5537 46.309 93.7802 43.5337 95.0381C40.7583 96.296 38.1798 97.34 36.3029 98.0474C35.3674 98.4011 34.6058 98.6806 34.0752 98.8603L33.462 99.0685C33.3927 99.0957 33.3211 99.1167 33.248 99.1313C33.3145 99.0965 33.3831 99.066 33.4534 99.04L34.0553 98.8061L36.2658 97.9504C38.1284 97.2173 40.687 96.1591 43.4738 94.9041C46.2605 93.649 48.7478 92.4339 50.5419 91.5411L52.6612 90.48L53.2317 90.1948C53.3016 90.157 53.3752 90.1264 53.4513 90.1035Z" fill="#263238"/>
<path d="M66.0163 100.971C66.0305 101.008 60.9106 103.079 54.5812 105.598C48.2518 108.116 43.109 110.121 43.0918 110.084C43.0747 110.047 48.1947 107.976 54.527 105.458C60.8592 102.939 66.002 100.931 66.0163 100.971Z" fill="#263238"/>
<path d="M29.7026 97.0861C29.7026 97.0861 30.698 96.7353 30.9034 96.1591C31.1088 95.5829 31.0688 95.1265 30.9034 94.9212C30.738 94.7158 27.8514 93.5178 27.5633 93.4351C27.2752 93.3524 24.7994 93.1499 24.6767 94.6331C24.6404 95.287 24.8432 95.9318 25.2472 96.4472C25.2472 96.4472 24.2973 98.2613 24.2973 98.7148C24.2973 99.1683 24.7509 99.87 24.7109 100.241C24.671 100.612 23.8552 101.519 24.1405 102.263C24.4257 103.008 24.7566 103.119 24.7566 103.664C24.7566 104.208 24.5512 104.614 24.7566 104.942C24.9619 105.27 26.2826 106.964 27.3237 107.169C28.3648 107.375 33.345 108.076 33.345 108.076L34.0866 108.573C34.0866 108.573 36.2744 109.231 37.4296 107.295C38.5848 105.358 38.3766 105.478 38.3766 105.478L34.6172 101.887C34.6172 101.887 35.0679 101.031 34.5402 100.563C34.2688 100.374 33.9591 100.248 33.6331 100.192C33.6331 100.192 33.964 98.9544 33.3479 98.5408C32.7318 98.1272 29.7026 97.0861 29.7026 97.0861Z" fill="#FFC3BD"/>
<path d="M25.5801 103.156C25.6204 103.135 25.6637 103.121 25.7084 103.113C25.794 103.09 25.9224 103.056 26.0849 103.022C26.4158 102.948 26.895 102.856 27.494 102.774C29.0582 102.558 30.6419 102.52 32.2147 102.66H32.2489L32.266 102.685C32.2965 102.723 32.3233 102.765 32.3459 102.808C32.403 102.932 32.4325 103.067 32.4325 103.203C32.4325 103.339 32.403 103.474 32.3459 103.598C32.2402 103.831 32.0699 104.029 31.8553 104.169C31.4579 104.4 31.0384 104.591 30.6031 104.739L28.5237 105.56L28.5522 105.515C28.5313 105.951 28.3482 106.364 28.0388 106.673C27.9583 106.753 27.8694 106.825 27.7735 106.887C27.7051 106.927 27.668 106.944 27.6652 106.938C27.7847 106.846 27.8972 106.745 28.0017 106.636C28.281 106.327 28.4417 105.928 28.4553 105.512V105.481H28.4866L30.5546 104.625C30.978 104.474 31.3858 104.283 31.7726 104.054C31.9651 103.928 32.1168 103.749 32.209 103.538C32.2569 103.434 32.2817 103.321 32.2817 103.206C32.2817 103.091 32.2569 102.978 32.209 102.874C32.1904 102.839 32.1694 102.806 32.1462 102.774L32.1976 102.802C30.6334 102.665 29.0592 102.688 27.4997 102.871C26.9036 102.942 26.4215 103.016 26.0906 103.073C25.9226 103.113 25.752 103.141 25.5801 103.156Z" fill="#FFC3BD"/>
<path d="M33.658 100.189C33.658 100.189 33.658 100.221 33.6267 100.275C33.5832 100.352 33.5227 100.417 33.4498 100.466C33.3344 100.547 33.2015 100.6 33.0619 100.62C32.8802 100.64 32.6965 100.633 32.5171 100.597C31.7356 100.452 30.6659 100.235 29.4822 99.9898C28.4496 99.773 27.5027 99.5705 26.7781 99.4193H26.8124L25.7085 99.8386C25.576 99.8998 25.4374 99.9467 25.2949 99.9784C25.4185 99.9012 25.5482 99.8345 25.6828 99.7787L26.7553 99.2995H26.7696H26.7896C27.5198 99.4422 28.4667 99.6333 29.5022 99.85C30.683 100.095 31.7527 100.329 32.5257 100.5C32.8183 100.59 33.1344 100.563 33.407 100.423C33.5046 100.362 33.5898 100.282 33.658 100.189Z" fill="#FFC3BD"/>
<path d="M34.618 101.887C34.618 101.887 34.618 101.921 34.5924 101.975C34.5527 102.054 34.5007 102.126 34.4383 102.189C34.1959 102.409 33.8843 102.539 33.5569 102.554C32.5173 102.626 31.4744 102.636 30.4336 102.583C29.8232 102.56 29.2413 102.506 28.7222 102.466C28.2595 102.423 27.7934 102.434 27.3331 102.497C27.0233 102.507 26.7214 102.597 26.4574 102.759C26.2777 102.882 26.1979 102.982 26.1722 102.971C26.1465 102.959 26.1722 102.942 26.2235 102.894C26.278 102.826 26.3402 102.764 26.4089 102.711C26.5185 102.624 26.642 102.557 26.774 102.511C26.9479 102.456 27.1264 102.416 27.3074 102.392C27.7728 102.313 28.246 102.292 28.7165 102.329C29.2442 102.363 29.8204 102.411 30.4279 102.434C31.6402 102.488 32.7469 102.486 33.537 102.451C33.8479 102.446 34.1484 102.339 34.3927 102.146C34.4783 102.069 34.554 101.982 34.618 101.887Z" fill="#FFC3BD"/>
<path d="M35.2589 104.226C34.837 104.039 34.4057 103.874 33.9668 103.732C33.228 103.535 32.5977 103.57 32.5977 103.524C33.0656 103.446 33.5448 103.469 34.0035 103.589C34.4622 103.71 34.8901 103.927 35.2589 104.226Z" fill="#FFC3BD"/>
<path d="M30.2728 97.2915C30.0319 97.2574 29.7943 97.203 29.5626 97.1289C29.129 97.0148 28.5272 96.8693 27.8512 96.7353C27.1752 96.6012 26.5705 96.5042 26.1398 96.45C25.8978 96.4299 25.6582 96.3879 25.4238 96.3245C25.6672 96.3027 25.9122 96.3094 26.154 96.3445C26.7393 96.3961 27.3212 96.4809 27.8968 96.5984C28.4749 96.7123 29.0462 96.858 29.6082 97.0348C29.8391 97.0939 30.0622 97.18 30.2728 97.2915Z" fill="#FFC3BD"/>
<path d="M91.0428 110.244C91.0428 110.244 86.3478 106.305 85.4493 106.165C84.5508 106.025 83.099 105.88 82.7539 106.165C82.4087 106.45 73.8374 108.732 73.8374 108.732C73.3685 109.006 73.0103 109.435 72.8248 109.945C72.7593 110.15 72.7755 110.373 72.87 110.567C72.9646 110.761 73.1302 110.911 73.3325 110.986C73.8917 111.196 74.502 111.23 75.081 111.083C74.9852 111.322 74.954 111.582 74.9905 111.836C75.0271 112.091 75.1301 112.332 75.2892 112.534C75.8397 113.225 77.554 112.82 77.554 112.82C77.554 112.82 76.878 114.548 78.5381 115.03C78.5381 115.03 77.9134 115.515 78.5381 116.277C79.1627 117.038 79.7988 117.811 81.0253 117.729C82.2518 117.646 84.6193 117.729 84.6193 117.729H89.0319C89.4091 117.55 89.8027 117.409 90.2071 117.307C90.6207 117.238 92.7742 117.712 92.7742 117.712L93.6128 110.444L91.0428 110.244Z" fill="#FFC3BD"/>
<path d="M83.7518 109.146C83.6407 109.185 83.5261 109.214 83.4095 109.231L82.4711 109.425C81.681 109.591 80.5943 109.848 79.3963 110.147C78.1983 110.447 77.1144 110.718 76.3214 110.88C75.9249 110.963 75.6026 111.026 75.3801 111.063C75.2652 111.09 75.1475 111.106 75.0293 111.108C75.1384 111.062 75.2522 111.028 75.3687 111.006L76.2986 110.777L79.362 110.002C80.56 109.702 81.6439 109.463 82.4511 109.323C82.8505 109.251 83.1728 109.2 83.3981 109.174C83.5145 109.151 83.6332 109.141 83.7518 109.146Z" fill="#FFC3BD"/>
<path d="M83.6572 111.87C83.3609 111.938 83.0594 111.981 82.7559 111.998C82.1997 112.061 81.4295 112.144 80.5824 112.264C79.7352 112.383 78.9765 112.523 78.426 112.637C78.1324 112.713 77.8342 112.769 77.5332 112.805C77.8137 112.687 78.1051 112.596 78.4032 112.535C79.115 112.357 79.8358 112.218 80.5624 112.118C81.4181 111.998 82.1854 111.93 82.7473 111.893C83.0493 111.858 83.3539 111.85 83.6572 111.87Z" fill="#FFC3BD"/>
<path d="M83.7524 114.853C83.5111 114.95 83.2607 115.021 83.0051 115.067C82.3983 115.217 81.7816 115.324 81.1596 115.387C80.53 115.439 79.8959 115.388 79.2828 115.236C79.0271 115.189 78.7793 115.107 78.5469 114.99C78.8021 115.025 79.0553 115.072 79.3056 115.133C79.9109 115.254 80.5302 115.29 81.1454 115.239C81.867 115.173 82.5145 115.05 82.9852 114.953C83.2373 114.896 83.4941 114.863 83.7524 114.853Z" fill="#FFC3BD"/>
<path d="M132.897 122.98H0.0195312V128.61H132.897V122.98Z" fill="#455A64"/>
<path d="M0.0199665 122.994H0.693124H2.68978L10.374 122.977L38.7294 122.94L132.903 122.891H133V128.727H132.903L0.0228189 128.639H0V128.61C0 126.677 -2.17831e-07 125.267 0.0142616 124.332C0.0285234 123.396 0.0142616 122.974 0.0142616 122.974C0.0142616 123.174 0.0142616 124.777 0.0399329 128.605L0.0142616 128.576L132.894 128.485L132.795 128.605V122.994L132.894 123.111L38.795 123.063L10.4168 123.028L2.71545 123.011H0.718795L0.0199665 122.994Z" fill="#263238"/>
<path d="M28.1694 123.063C28.1694 123.063 28.1694 123.085 28.1266 123.122C28.0838 123.16 28.0524 123.219 27.9868 123.294C27.7923 123.499 27.5671 123.673 27.3194 123.81C26.9195 124.024 26.485 124.166 26.0358 124.229C25.4424 124.311 24.8426 124.336 24.2445 124.303C23.5225 124.267 22.8033 124.187 22.091 124.064C21.2792 123.917 20.459 123.821 19.6351 123.779C17.8952 123.719 16.0012 124.158 14.1101 124.817C12.219 125.476 10.4448 126.22 8.75048 126.674C7.95174 126.897 7.13613 127.056 6.31171 127.147C5.59007 127.222 4.86269 127.222 4.14106 127.147C3.09438 127.05 2.07933 126.736 1.16034 126.226C0.824861 126.042 0.512663 125.819 0.230469 125.561C0.252753 125.572 0.27379 125.586 0.293221 125.601L0.47292 125.73C0.697195 125.891 0.932625 126.037 1.17745 126.166C2.09646 126.648 3.10363 126.939 4.13821 127.022C4.85136 127.094 5.57003 127.094 6.28318 127.022C7.101 126.927 7.90988 126.767 8.70199 126.542C10.382 126.083 12.1448 125.336 14.0502 124.674C15.9555 124.012 17.8666 123.57 19.6351 123.642C20.4641 123.688 21.2892 123.788 22.1052 123.941C22.8128 124.068 23.5271 124.154 24.2445 124.198C24.8353 124.236 25.4283 124.219 26.0158 124.146C26.4571 124.092 26.8856 123.962 27.2823 123.761C27.6146 123.579 27.9144 123.343 28.1694 123.063Z" fill="#263238"/>
<path d="M13.634 123.148C13.5082 123.269 13.3738 123.381 13.2318 123.482C12.8461 123.764 12.4399 124.016 12.0167 124.238C10.6033 124.967 9.04311 125.368 7.45294 125.41C5.85777 125.469 4.27101 125.153 2.82071 124.486C2.38006 124.288 1.99577 123.983 1.70258 123.599C1.62641 123.495 1.56498 123.38 1.52003 123.259C1.49151 123.176 1.4801 123.133 1.4858 123.131C1.56266 123.282 1.65037 123.427 1.74822 123.565C2.05334 123.92 2.43582 124.201 2.86635 124.386C4.30538 125.006 5.86425 125.298 7.43013 125.242C9.0034 125.2 10.5496 124.822 11.9654 124.135C12.3891 123.924 12.7997 123.688 13.1948 123.428C13.3339 123.323 13.4807 123.23 13.634 123.148Z" fill="#263238"/>
<path d="M44.8192 126.716C44.8192 126.716 44.8905 126.739 45.0246 126.788C45.2246 126.857 45.4296 126.91 45.6378 126.948C46.4315 127.084 47.2481 126.96 47.9653 126.594V126.665C47.1239 126.042 46.1252 125.665 45.0816 125.578C43.7597 125.45 42.4341 125.783 41.3307 126.523C41.2603 126.56 41.1985 126.612 41.1494 126.675C41.1003 126.738 41.0649 126.81 41.0455 126.888C41.0454 126.966 41.0691 127.043 41.1134 127.107C41.1577 127.172 41.2205 127.222 41.2937 127.25C41.4546 127.335 41.6278 127.395 41.8071 127.427L42.3776 127.549C43.1363 127.715 43.9235 127.877 44.7365 127.991C45.5657 128.12 46.4047 128.176 47.2437 128.157C47.6757 128.147 48.1065 128.107 48.533 128.037C48.7469 128.003 48.9608 127.963 49.1747 127.909C49.387 127.864 49.5943 127.798 49.7937 127.712C50.1045 127.59 50.3807 127.395 50.5981 127.141C50.6979 127.026 50.7648 126.885 50.7919 126.735C50.819 126.584 50.8052 126.429 50.7521 126.286C50.6203 125.997 50.3994 125.758 50.1217 125.604C49.8417 125.437 49.5466 125.297 49.2403 125.185C48.0545 124.753 46.8101 124.503 45.5494 124.443C41.9473 124.252 38.3876 125.294 35.4577 127.398C35.0498 127.701 34.7389 127.94 34.5393 128.117L34.3054 128.311L34.2227 128.374C34.2227 128.374 34.2455 128.345 34.294 128.3L34.5164 128.094C34.7104 127.909 35.0156 127.661 35.4178 127.35C36.5707 126.484 37.8402 125.786 39.1886 125.276C41.2147 124.514 43.3762 124.178 45.538 124.289C46.8153 124.343 48.0767 124.594 49.2774 125.034C49.5952 125.147 49.9009 125.291 50.1902 125.464C50.4979 125.636 50.742 125.902 50.8862 126.223C50.9496 126.393 50.9667 126.577 50.9356 126.756C50.9046 126.935 50.8264 127.103 50.7093 127.241C50.4729 127.512 50.1744 127.722 49.8393 127.852C49.6324 127.942 49.4163 128.01 49.1947 128.054C48.9779 128.111 48.7583 128.151 48.5387 128.188C48.1055 128.258 47.668 128.298 47.2294 128.308C46.3808 128.327 45.5321 128.27 44.6937 128.137C43.8722 128.02 43.0849 127.852 42.3234 127.686L41.7529 127.561C41.5537 127.527 41.3612 127.461 41.1824 127.367C41.0923 127.318 41.0136 127.251 40.9514 127.17C40.8839 127.085 40.8531 126.976 40.8658 126.868C40.8883 126.77 40.9311 126.678 40.9916 126.598C41.0521 126.518 41.1287 126.451 41.2166 126.403C42.3499 125.651 43.709 125.317 45.0616 125.456C46.1257 125.554 47.1407 125.949 47.991 126.597L48.0424 126.637L47.9825 126.668C47.2477 127.035 46.412 127.147 45.6064 126.987C45.3317 126.938 45.0663 126.846 44.8192 126.716Z" fill="#263238"/>
<path d="M61.9127 123.208C61.9741 123.294 62.0186 123.391 62.044 123.493C62.1317 123.769 62.1609 124.061 62.1295 124.349C62.0867 125.074 61.6275 126.026 60.8374 126.808C60.4752 127.186 60.0692 127.521 59.628 127.803C59.2615 128.03 58.87 128.214 58.4614 128.351C58.1817 128.441 57.8957 128.509 57.6057 128.556C57.5019 128.58 57.3953 128.589 57.2891 128.582C57.2891 128.553 57.734 128.491 58.4129 128.245C58.8062 128.095 59.1829 127.903 59.5367 127.675C59.9629 127.391 60.3561 127.061 60.709 126.691C61.482 125.929 61.9356 125.025 62.0069 124.332C62.0464 123.955 62.0145 123.573 61.9127 123.208Z" fill="#263238"/>
<path d="M85.7726 128.314C85.5802 128.112 85.3764 127.922 85.1622 127.743C84.5607 127.265 83.845 126.953 83.0857 126.836C82.5591 126.763 82.024 126.778 81.5026 126.882C80.8945 127.018 80.2711 127.073 79.6486 127.047C78.9668 126.985 78.3564 126.585 77.8031 126.169C77.2489 125.711 76.621 125.35 75.9462 125.102C74.6103 124.67 73.1753 124.649 71.8274 125.042C70.7329 125.359 69.7014 125.863 68.7782 126.531C68.156 126.977 67.566 127.466 67.0126 127.994L66.5591 128.414C66.5102 128.468 66.4557 128.517 66.3965 128.559C66.4385 128.499 66.4852 128.443 66.5363 128.391C66.6304 128.285 66.7758 128.131 66.967 127.937C67.507 127.39 68.0897 126.886 68.7098 126.431C69.6357 125.738 70.6766 125.214 71.7846 124.882C73.1641 124.475 74.6347 124.493 76.0032 124.937C76.6936 125.189 77.3352 125.559 77.9001 126.029C78.4506 126.448 79.0268 126.825 79.6657 126.885C80.2753 126.912 80.8859 126.861 81.4826 126.734C82.0174 126.634 82.5651 126.626 83.1028 126.708C83.8785 126.836 84.605 127.172 85.205 127.681C85.4263 127.86 85.6179 128.074 85.7726 128.314Z" fill="#263238"/>
<path d="M107.079 123.034C107.036 123.102 106.988 123.166 106.933 123.225C106.791 123.408 106.639 123.583 106.48 123.75C105.893 124.372 105.243 124.931 104.54 125.419C103.496 126.157 102.366 126.764 101.174 127.227C100.47 127.508 99.7439 127.733 99.0035 127.897C98.2077 128.085 97.3938 128.187 96.5762 128.2C94.9954 128.189 93.4314 127.875 91.9696 127.273C90.782 126.799 89.6572 126.182 88.6209 125.433C87.9256 124.935 87.2807 124.371 86.6956 123.747C86.4817 123.533 86.3448 123.345 86.2421 123.225C86.1887 123.165 86.1392 123.101 86.0938 123.034C86.1586 123.084 86.2171 123.141 86.2677 123.205C86.379 123.316 86.5245 123.49 86.7441 123.704C87.3413 124.309 87.9935 124.857 88.6922 125.342C89.7272 126.072 90.8468 126.675 92.0267 127.136C93.4714 127.722 95.0141 128.03 96.5733 128.043C97.3797 128.031 98.1827 127.935 98.9693 127.758C99.7026 127.597 100.422 127.377 101.12 127.102C102.303 126.647 103.429 126.056 104.474 125.339C105.177 124.858 105.832 124.312 106.431 123.707C106.651 123.502 106.793 123.316 106.905 123.205C106.957 123.142 107.015 123.085 107.079 123.034Z" fill="#263238"/>
<path d="M104.035 122.994C104.002 123.028 103.965 123.058 103.924 123.083C103.844 123.134 103.733 123.217 103.579 123.308C102.507 123.969 101.358 124.493 100.156 124.868C99.2684 125.153 98.3439 125.306 97.4119 125.322C95.7204 125.285 94.0576 124.878 92.5401 124.129C92.0842 123.91 91.6439 123.659 91.2223 123.379C91.0711 123.282 90.9627 123.197 90.8857 123.14C90.8462 123.113 90.8099 123.083 90.7773 123.048C90.943 123.133 91.103 123.228 91.2565 123.334C91.6889 123.591 92.1345 123.825 92.5915 124.035C94.102 124.745 95.7435 125.134 97.4119 125.176C98.3253 125.146 99.2298 124.988 100.099 124.706C100.816 124.492 101.518 124.228 102.198 123.915C102.769 123.647 103.234 123.408 103.545 123.234C103.703 123.144 103.867 123.064 104.035 122.994Z" fill="#263238"/>
<path d="M117.556 123.565C117.504 123.572 117.453 123.572 117.402 123.565L116.965 123.539L116.654 123.516H116.278C116.01 123.516 115.707 123.516 115.368 123.516L114.84 123.545L114.27 123.607C113.873 123.642 113.46 123.733 113.02 123.804C112.075 124.001 111.147 124.269 110.242 124.606C109.342 124.955 108.469 125.37 107.629 125.846C107.256 126.08 106.888 126.289 106.574 126.52L106.106 126.845L105.695 127.17C105.427 127.37 105.205 127.572 105.005 127.74L104.72 127.983C104.643 128.063 104.569 128.134 104.5 128.203L104.195 128.502C104.159 128.538 104.12 128.57 104.078 128.599C104.104 128.556 104.134 128.515 104.169 128.479L104.455 128.16L104.666 127.929L104.934 127.675C105.128 127.492 105.347 127.281 105.613 127.073L106.021 126.742L106.486 126.406C106.799 126.166 107.167 125.952 107.544 125.712C109.219 124.719 111.052 124.022 112.963 123.65C113.408 123.585 113.819 123.496 114.227 123.47L114.797 123.413L115.334 123.396C115.639 123.38 115.944 123.38 116.249 123.396H116.626L116.939 123.433L117.373 123.49C117.438 123.503 117.5 123.528 117.556 123.565Z" fill="#263238"/>
<path d="M88.1757 128.203C87.961 127.894 87.7164 127.607 87.4455 127.347C86.6736 126.668 85.7579 126.172 84.7671 125.898C84.0827 125.699 83.3849 125.55 82.6792 125.45C81.9148 125.333 81.0933 125.242 80.2347 125.096C79.3376 124.939 78.4515 124.723 77.582 124.452C76.6583 124.155 75.712 123.934 74.7525 123.79C72.8813 123.606 70.9929 123.859 69.236 124.529C68.47 124.809 67.7213 125.135 66.9941 125.504C66.3066 125.846 65.6763 126.183 65.1058 126.494C63.9648 127.122 63.0521 127.658 62.4246 128.029L61.7001 128.456L61.5118 128.565C61.47 128.591 61.4472 128.603 61.4434 128.599L61.5033 128.553L61.683 128.431C61.8427 128.322 62.0794 128.168 62.3903 127.974C63.0065 127.586 63.9078 127.039 65.0487 126.397C65.6192 126.078 66.2439 125.735 66.9313 125.387C67.6615 125.01 68.414 124.678 69.1847 124.392C70.9623 123.71 72.8751 123.454 74.7696 123.644C75.7373 123.789 76.6914 124.013 77.622 124.315C78.4848 124.588 79.3641 124.805 80.2547 124.965C81.1104 125.111 81.929 125.208 82.6935 125.333C83.4055 125.438 84.1091 125.594 84.7985 125.801C85.7987 126.09 86.7177 126.609 87.4826 127.315C87.7627 127.569 87.9971 127.869 88.1757 128.203Z" fill="#263238"/>
<path d="M58.2262 123.063C58.2396 123.183 58.2338 123.304 58.2091 123.422C58.1609 123.748 58.0728 124.067 57.9467 124.372C57.5385 125.404 56.8263 126.287 55.9044 126.905C54.9529 127.474 53.9369 127.928 52.878 128.257C52.473 128.385 52.1421 128.479 51.9111 128.542C51.7936 128.58 51.672 128.605 51.5488 128.616C51.6583 128.559 51.7742 128.515 51.894 128.485L52.8409 128.154C53.8773 127.8 54.8743 127.339 55.816 126.779C56.7091 126.174 57.4116 125.327 57.8411 124.338C58.0093 123.926 58.1383 123.499 58.2262 123.063Z" fill="#263238"/>
<path d="M27.3848 128.61C27.4825 128.5 27.5904 128.399 27.7071 128.308C27.921 128.12 28.2433 127.863 28.6541 127.558C29.7312 126.772 30.8637 126.064 32.0427 125.441C33.4232 124.708 34.7125 124.118 35.6481 123.702C36.1187 123.493 36.5038 123.331 36.7633 123.219C36.898 123.154 37.0383 123.102 37.1826 123.063C37.0595 123.146 36.9287 123.218 36.7919 123.277L35.6908 123.804C34.7667 124.246 33.4888 124.848 32.114 125.581C30.9406 126.202 29.8052 126.893 28.714 127.649C28.2975 127.934 27.9638 128.183 27.7385 128.357C27.6286 128.452 27.5102 128.537 27.3848 128.61Z" fill="#263238"/>
<path d="M33.643 123.294C33.643 123.311 33.3378 123.257 32.7873 123.294C32.0141 123.371 31.2623 123.592 30.571 123.947C29.6811 124.366 28.7455 125.062 27.6901 125.818C27.1386 126.222 26.5591 126.586 25.9559 126.908C25.2958 127.242 24.6002 127.501 23.8822 127.681C22.4895 127.998 21.0664 128.164 19.6379 128.174C18.3229 128.214 17.1449 128.188 16.1551 128.225C15.3743 128.248 14.5958 128.322 13.8248 128.448C13.5395 128.496 13.3427 128.536 13.2001 128.568C13.1284 128.588 13.0548 128.602 12.9805 128.608C13.0485 128.578 13.1192 128.555 13.1915 128.539C13.3313 128.496 13.5424 128.445 13.8134 128.388C14.5837 128.234 15.3646 128.138 16.1494 128.103C17.1421 128.049 18.3258 128.063 19.6322 128.017C21.0492 127.997 22.4603 127.829 23.8423 127.515C24.5483 127.34 25.2324 127.087 25.8817 126.759C26.4749 126.44 27.0465 126.083 27.5931 125.69C28.6485 124.942 29.5898 124.246 30.5111 123.833C31.2173 123.481 31.986 123.273 32.773 123.219C32.9871 123.209 33.2017 123.216 33.4148 123.239C33.4927 123.248 33.5693 123.267 33.643 123.294Z" fill="#263238"/>
<path d="M120.666 128.61C120.765 128.5 120.874 128.399 120.991 128.308C121.205 128.12 121.527 127.863 121.935 127.558C123.013 126.773 124.146 126.066 125.324 125.441C126.707 124.708 127.997 124.118 128.932 123.702C129.4 123.493 129.788 123.331 130.047 123.219C130.181 123.155 130.321 123.103 130.464 123.063C130.341 123.147 130.21 123.219 130.073 123.277L128.984 123.804C128.059 124.246 126.779 124.848 125.404 125.581C124.231 126.202 123.097 126.893 122.007 127.649C121.59 127.934 121.256 128.183 121.031 128.357C120.918 128.453 120.796 128.538 120.666 128.61Z" fill="#263238"/>
<path d="M126.928 123.294C126.928 123.311 126.62 123.257 126.072 123.294C125.298 123.37 124.546 123.592 123.853 123.947C122.966 124.366 122.028 125.062 120.975 125.818C120.424 126.222 119.844 126.586 119.241 126.908C118.581 127.242 117.885 127.501 117.167 127.681C115.775 127.998 114.352 128.164 112.923 128.174C111.608 128.214 110.427 128.188 109.437 128.225C108.658 128.248 107.88 128.322 107.11 128.448C106.839 128.496 106.628 128.536 106.485 128.568C106.414 128.588 106.34 128.601 106.266 128.608C106.333 128.578 106.404 128.555 106.477 128.539C106.616 128.496 106.825 128.445 107.099 128.388C107.869 128.233 108.65 128.138 109.435 128.103C110.427 128.049 111.608 128.063 112.917 128.017C114.333 127.998 115.744 127.829 117.125 127.515C117.831 127.341 118.515 127.088 119.164 126.759C119.757 126.441 120.329 126.084 120.875 125.69C121.928 124.942 122.872 124.246 123.791 123.833C124.498 123.482 125.268 123.274 126.055 123.219C126.269 123.209 126.484 123.216 126.697 123.239C126.776 123.249 126.853 123.267 126.928 123.294Z" fill="#263238"/>
<path d="M116.518 122.957C116.518 123 110.964 123.037 104.116 123.037C97.2673 123.037 91.7109 123 91.7109 122.957C91.7109 122.914 97.2645 122.877 104.116 122.877C110.967 122.877 116.518 122.914 116.518 122.957Z" fill="#263238"/>
<path d="M51.4119 47.5806C58.4323 46.4008 63.167 39.7531 61.9872 32.7327C60.8073 25.7123 54.1597 20.9776 47.1393 22.1575C40.1189 23.3373 35.3842 29.985 36.564 37.0054C37.7439 44.0258 44.3915 48.7605 51.4119 47.5806Z" fill="white"/>
<path d="M62.1815 45.2102C62.0534 45.2312 61.9268 45.2598 61.8021 45.2957C61.4709 45.4106 61.1824 45.6235 60.9749 45.9061C60.8334 46.0973 60.7359 46.3175 60.6897 46.5508C60.6373 46.8191 60.6651 47.0968 60.7696 47.3494C60.8741 47.6472 61.0674 47.9057 61.3234 48.0902C61.5793 48.2746 61.8857 48.3762 62.2012 48.3812C62.5167 48.3861 62.8262 48.2943 63.0878 48.118C63.3495 47.9416 63.5508 47.6894 63.6647 47.3951C63.7763 47.1457 63.8139 46.8694 63.7731 46.5993C63.7319 46.3643 63.6394 46.1412 63.5021 45.9461C63.3046 45.6564 63.0228 45.4343 62.6949 45.31C62.461 45.2273 62.3184 45.2244 62.3212 45.2102C62.3554 45.2064 62.3898 45.2064 62.4239 45.2102C62.4653 45.2114 62.5064 45.2171 62.5466 45.2273C62.6022 45.2338 62.6568 45.2472 62.7092 45.2672C63.0037 45.3615 63.2671 45.5338 63.4715 45.7658C63.6759 45.9979 63.8137 46.281 63.8701 46.585C63.9201 46.8741 63.8844 47.1716 63.7674 47.4407C63.6407 47.7373 63.4344 47.993 63.1712 48.1795C62.8933 48.3932 62.5513 48.5066 62.2008 48.5015C61.8502 48.4963 61.5117 48.3728 61.2402 48.151C60.9832 47.9548 60.7857 47.6912 60.6697 47.3894C60.561 47.1178 60.5342 46.8203 60.5927 46.5337C60.6469 46.2871 60.7561 46.056 60.9122 45.8577C61.135 45.5677 61.4449 45.3568 61.7964 45.2558C61.8505 45.2392 61.9058 45.2268 61.9618 45.2187C62.0026 45.2151 62.0437 45.2151 62.0845 45.2187C62.1444 45.2045 62.1815 45.2045 62.1815 45.2102Z" fill="#263238"/>
<path d="M62.1266 36.8528C62.1266 36.8528 62.1266 36.7814 62.1266 36.6445C62.1266 36.5076 62.1609 36.2965 62.1865 36.0284C62.198 35.8934 62.2122 35.7422 62.2293 35.5749C62.2293 35.4095 62.2293 35.2241 62.2293 35.0272C62.2293 34.8304 62.2293 34.6165 62.2293 34.3855C62.231 34.2682 62.2244 34.1509 62.2094 34.0346C62.2094 33.9148 62.1837 33.7893 62.1694 33.661C62.0571 32.4134 61.7561 31.19 61.2766 30.0328C60.6544 28.4949 59.74 27.0923 58.584 25.9025C58.4243 25.7371 58.2617 25.5717 58.0963 25.4062C57.9223 25.2465 57.734 25.0982 57.5515 24.9441L57.2662 24.7102C57.1767 24.6292 57.0814 24.5548 56.981 24.4878L56.3677 24.0656L56.054 23.8545L55.7202 23.6691L55.0414 23.2955C54.8075 23.1785 54.5593 23.0872 54.3169 22.9789C54.1971 22.9247 54.0744 22.8733 53.9489 22.822C53.889 22.7963 53.8263 22.7678 53.7635 22.745L53.5724 22.6822C53.053 22.502 52.5222 22.3562 51.9836 22.2458C51.6984 22.1945 51.436 22.126 51.1565 22.0861L50.3007 22.0005C50.1581 21.9862 50.0155 21.9634 49.87 21.9606H49.4336C49.1484 21.9606 48.846 21.9606 48.5522 21.9606C47.9543 21.9989 47.3596 22.078 46.7724 22.1973L46.3246 22.2857C46.2475 22.3028 46.1734 22.3143 46.0992 22.3342L45.8796 22.3998L44.9925 22.6851C44.7073 22.7906 44.422 22.9218 44.1225 23.0388C43.9799 23.1015 43.8373 23.1529 43.689 23.227L43.2697 23.4495C42.7023 23.7498 42.1554 24.0871 41.6324 24.4592L40.8708 25.0725L40.6797 25.2294C40.6198 25.2836 40.5628 25.3435 40.5029 25.4005L40.172 25.7285L39.8155 26.0765L39.496 26.4587L39.1737 26.841L39.0111 27.0321L38.8685 27.2403L38.298 28.0732L37.8045 28.966C36.5151 31.4472 36.0733 34.2823 36.5467 37.0382C36.6151 37.3747 36.6807 37.7056 36.7492 38.0393C36.8176 38.3731 36.946 38.684 37.0344 39.0063L37.1086 39.2459L37.2055 39.4798L37.3967 39.9419L37.5906 40.4011L37.8245 40.8404L38.0555 41.2768L38.1725 41.4935L38.3094 41.6989L38.8485 42.5147C39.2348 43.0272 39.655 43.5132 40.1064 43.9694L40.4401 44.3088C40.5485 44.4229 40.6797 44.5171 40.7967 44.6197C41.0391 44.8194 41.273 45.0305 41.5183 45.2187L42.2828 45.7436L42.4739 45.8719L42.6735 45.986L43.0729 46.2057C43.5971 46.4958 44.1402 46.7503 44.6987 46.9672C44.9839 47.0728 45.2692 47.1498 45.5373 47.2525L45.9537 47.3837C46.0935 47.4236 46.239 47.4436 46.3759 47.475L47.2173 47.6489C47.5026 47.6974 47.7878 47.7146 48.0559 47.7459C48.6016 47.8036 49.1505 47.8245 49.6989 47.8087H49.9014C49.9699 47.8087 50.0355 47.8087 50.1011 47.7916L50.5004 47.7516C50.7628 47.7203 51.0281 47.7088 51.2848 47.6661L52.0435 47.5149L52.4201 47.4379L52.7823 47.3323L53.4954 47.1156C53.6125 47.0813 53.7269 47.0384 53.8377 46.9872L54.1743 46.8503C54.3939 46.7562 54.6164 46.6706 54.8303 46.5651L55.4464 46.237C56.9067 45.4461 58.2006 44.3807 59.2572 43.0994C59.3741 42.9597 59.4939 42.8142 59.6023 42.6858L59.8875 42.258L60.1728 41.8472C60.2184 41.7788 60.2698 41.716 60.3097 41.6476C60.3496 41.5791 60.3867 41.5078 60.4238 41.4394L60.8602 40.6521C60.9914 40.4011 61.0855 40.1444 61.1939 39.9105L61.3422 39.5653C61.3927 39.4585 61.4347 39.3479 61.4677 39.2345L61.6617 38.6241C61.7188 38.4358 61.7815 38.2647 61.8243 38.1021C61.8671 37.9395 61.8899 37.7883 61.9184 37.6571C61.9755 37.3947 62.0183 37.1922 62.0496 37.0524L62.0981 36.847C62.0981 36.847 62.0981 36.9184 62.061 37.0553C62.024 37.1922 61.9954 37.3976 61.9441 37.6628C61.9156 37.7969 61.887 37.9481 61.8528 38.1078C61.8186 38.2675 61.753 38.4444 61.6959 38.6355C61.6389 38.8266 61.5733 39.0291 61.5077 39.2487C61.4746 39.3631 61.4327 39.4747 61.3822 39.5825C61.3365 39.6937 61.2852 39.8078 61.2367 39.9276C61.1312 40.1643 61.037 40.4211 60.9058 40.6778C60.7746 40.9345 60.6206 41.1912 60.4751 41.4679L60.3582 41.6761C60.3182 41.7474 60.2698 41.813 60.2241 41.8815L59.9389 42.2951L59.6536 42.7258C59.5424 42.8655 59.4226 43.011 59.3057 43.1422C58.2488 44.4327 56.9518 45.506 55.4863 46.3026L54.8645 46.6335C54.6506 46.7333 54.4281 46.8189 54.2028 46.9187L53.8662 47.0585C53.7546 47.1101 53.6393 47.1531 53.5211 47.1869L52.8023 47.4065L52.44 47.5149L52.0607 47.5919L51.2962 47.7459C51.0367 47.7916 50.7714 47.803 50.5061 47.8344L50.1068 47.8743C50.0383 47.8743 49.9727 47.8914 49.9043 47.8943H49.6989C49.1458 47.9125 48.592 47.8924 48.0417 47.8344C47.7564 47.803 47.4712 47.7859 47.186 47.7402L46.3303 47.5662C46.1905 47.5349 46.045 47.512 45.9053 47.4721L45.486 47.3409C45.2007 47.2496 44.9155 47.1698 44.6302 47.0557C44.0661 46.8368 43.5172 46.5805 42.9873 46.2884L42.5851 46.0659C42.5166 46.0288 42.4482 45.9946 42.3826 45.9546L42.1915 45.8234L41.4185 45.2929C41.1703 45.1046 40.9364 44.8936 40.6911 44.691C40.5713 44.5855 40.4401 44.4942 40.3289 44.3773L39.9952 44.035C39.5384 43.5757 39.1134 43.0858 38.723 42.5689L38.1782 41.7474L38.0413 41.5392L37.9215 41.3224L37.6876 40.8803L37.4509 40.4382L37.2569 39.9732L37.0629 39.5083L36.9659 39.2744L36.8918 39.032L36.6066 38.0536C36.5409 37.7199 36.4725 37.3833 36.404 37.0439C35.937 34.2694 36.3876 31.4183 37.6876 28.9232L38.1839 28.0218L38.7544 27.1661C38.8029 27.0977 38.8485 27.0264 38.8999 26.9579L39.0624 26.7639L39.3876 26.3789L39.7128 25.9938L40.0693 25.643L40.4259 25.295C40.4858 25.2351 40.5457 25.1752 40.6056 25.121L40.7995 24.9641L41.564 24.3451C42.0921 23.97 42.6448 23.6308 43.2183 23.3297L43.6433 23.1044C43.7831 23.0273 43.9286 22.9789 44.0797 22.9133C44.365 22.7963 44.6502 22.6651 44.9583 22.5596L45.8511 22.2743L46.0735 22.2087C46.1506 22.1888 46.2247 22.1773 46.3017 22.1602L46.7524 22.0718C47.3454 21.9525 47.9458 21.8734 48.5494 21.8351C48.8346 21.8179 49.1427 21.8351 49.4365 21.8351H49.8786C50.0241 21.8351 50.1638 21.8607 50.3122 21.875L51.1679 21.9634C51.4531 22.0034 51.7383 22.0747 52.0036 22.126C52.5452 22.238 53.0788 22.3857 53.6009 22.5681L53.7949 22.6309C53.8605 22.6537 53.9204 22.6822 53.9832 22.7079L54.354 22.8676C54.5964 22.976 54.8474 23.0701 55.0813 23.1899L55.763 23.5664L56.0996 23.7547C56.208 23.8232 56.3107 23.8973 56.4134 23.9686L57.0323 24.3936C57.1333 24.461 57.2287 24.5363 57.3176 24.619L57.6028 24.8557C57.7882 25.0126 57.9736 25.1609 58.1505 25.3206L58.6411 25.8227C59.8122 27.0268 60.7366 28.4482 61.3622 30.0071C61.8391 31.1703 62.1354 32.3996 62.2407 33.6524C62.2407 33.7836 62.2636 33.9063 62.275 34.0289C62.29 34.1462 62.2967 34.2644 62.2949 34.3826C62.2949 34.6108 62.2949 34.8247 62.2949 35.0244C62.2949 35.2241 62.2949 35.4066 62.2949 35.5749C62.2949 35.7432 62.2607 35.8915 62.2464 36.0284C62.2151 36.2965 62.1922 36.5019 62.178 36.6417C62.1637 36.7814 62.1266 36.8528 62.1266 36.8528Z" fill="#263238"/>
<path d="M45.9139 35.1014C45.9145 35.3514 45.8408 35.596 45.7023 35.8042C45.5638 36.0124 45.3667 36.1748 45.1358 36.2708C44.905 36.3669 44.6509 36.3923 44.4055 36.3439C44.1602 36.2955 43.9348 36.1754 43.7578 35.9988C43.5808 35.8222 43.4602 35.597 43.4112 35.3518C43.3622 35.1066 43.3871 34.8524 43.4826 34.6214C43.5782 34.3903 43.7401 34.1928 43.948 34.0538C44.1559 33.9148 44.4003 33.8407 44.6503 33.8407C44.9849 33.8407 45.3059 33.9734 45.5428 34.2097C45.7797 34.4461 45.9132 34.7668 45.9139 35.1014Z" fill="#263238"/>
<path d="M50.2752 35.1014C50.2758 35.3514 50.2022 35.596 50.0637 35.8042C49.9252 36.0124 49.728 36.1748 49.4972 36.2708C49.2663 36.3669 49.0122 36.3923 48.7669 36.3439C48.5216 36.2955 48.2962 36.1754 48.1192 35.9988C47.9422 35.8222 47.8215 35.597 47.7725 35.3518C47.7235 35.1066 47.7484 34.8524 47.844 34.6214C47.9395 34.3903 48.1015 34.1928 48.3093 34.0538C48.5172 33.9148 48.7616 33.8407 49.0116 33.8407C49.3463 33.8407 49.6672 33.9734 49.9041 34.2097C50.141 34.4461 50.2745 34.7668 50.2752 35.1014Z" fill="#263238"/>
<path d="M54.6366 35.1014C54.6371 35.3515 54.5634 35.5962 54.4248 35.8045C54.2862 36.0127 54.0889 36.1751 53.8578 36.2711C53.6268 36.3671 53.3725 36.3924 53.1272 36.3437C52.8818 36.295 52.6564 36.1746 52.4795 35.9977C52.3026 35.8208 52.1822 35.5954 52.1335 35.3501C52.0849 35.1047 52.1101 34.8504 52.2061 34.6194C52.3021 34.3884 52.4645 34.191 52.6727 34.0524C52.881 33.9138 53.1257 33.8401 53.3758 33.8406C53.7102 33.8406 54.0309 33.9735 54.2673 34.2099C54.5037 34.4463 54.6366 34.767 54.6366 35.1014Z" fill="#263238"/>
</svg>
