<svg width="133" height="147" viewBox="0 0 133 147" fill="none" xmlns="http://www.w3.org/2000/svg">
<path d="M123.273 38.5184V65.7934H57.541V41.6439H63.2429V48.5676H64.7115V44.6491H71.9623V50.8569H72.9218V36.2876H79.2253V40.2863H82.4558V45.2631H83.4338V42.1314H89.1635V51.4709H90.8388V43.8808H96.0779V38.1142H99.6415V34.8313H103.764V49.3945H105.149V43.3162H111.94V52.0171H112.878V44.9144H119.762V38.5184H123.273Z" fill="#EBEBEB"/>
<path d="M59.2069 43.8376H58.2412V42.514H59.2069V43.8376ZM60.8792 42.514H59.9135V43.8376H60.8792V42.514ZM62.5515 42.514H61.5858V43.8376H62.5515V42.514ZM59.2069 44.5071H58.2412V45.8308H59.2069V44.5071ZM60.8792 44.5071H59.9135V45.8308H60.8792V44.5071ZM62.5515 44.5071H61.5858V45.8308H62.5515V44.5071ZM59.2069 46.5003H58.2412V47.824H59.2069V46.5003ZM60.8792 46.5003H59.9135V47.824H60.8792V46.5003ZM62.5515 46.5003H61.5858V47.824H62.5515V46.5003ZM59.2069 48.4904H58.2412V49.8141H59.2069V48.4904ZM60.8792 48.4904H59.9135V49.8141H60.8792V48.4904ZM62.5515 48.4904H61.5858V49.8141H62.5515V48.4904ZM92.6097 44.8249H91.6439V45.9295H92.6097V44.8249ZM94.282 44.8249H93.3162V45.9295H94.2696L94.282 44.8249ZM95.9543 44.8249H94.9885V45.9295H95.9543V44.8249ZM92.6097 46.488H91.6439V47.5926H92.6097V46.488ZM94.282 46.488H93.3162V47.5926H94.2696L94.282 46.488ZM95.9543 46.488H94.9885V47.5926H95.9543V46.488ZM92.6097 48.151H91.6439V49.2556H92.6097V48.151ZM94.282 48.151H93.3162V49.2556H94.2696L94.282 48.151ZM95.9543 48.151H94.9885V49.2556H95.9543V48.151ZM92.6097 49.811H91.6439V50.9094H92.6097V49.811ZM94.282 49.811H93.3162V50.9094H94.2696L94.282 49.811ZM95.9543 49.811H94.9885V50.9094H95.9543V49.811ZM92.6097 51.5265H91.6439V52.631H92.6097V51.5265ZM94.282 51.5265H93.3162V52.631H94.2696L94.282 51.5265ZM95.9543 51.5265H94.9885V52.631H95.9543V51.5265ZM92.6097 53.2296H91.6439V54.3342H92.6097V53.2296ZM94.282 53.2296H93.3162V54.3342H94.2696L94.282 53.2296ZM95.9543 53.2296H94.9885V54.3342H95.9543V53.2296ZM92.6097 54.9204H91.6439V56.025H92.6097V54.9204ZM94.282 54.9204H93.3162V56.025H94.2696L94.282 54.9204ZM95.9543 54.9204H94.9885V56.025H95.9543V54.9204ZM92.6097 56.6236H91.6439V57.7282H92.6097V56.6236ZM94.282 56.6236H93.3162V57.7282H94.2696L94.282 56.6236ZM95.9543 56.6236H94.9885V57.7282H95.9543V56.6236ZM71.0889 45.4976H65.5351V46.3244H71.0889V45.4976ZM71.0889 47.1051H65.5351V47.932H71.0889V47.1051ZM71.0889 48.7095H65.5351V49.5395H71.0889V48.7095ZM71.0889 50.317H65.5351V51.147H71.0889V50.317ZM71.0889 51.9245H65.5351V52.7606H71.0889V51.9245ZM71.0889 53.532H65.5351V54.3589H71.0889V53.532ZM71.0889 55.1364H65.5351V55.9664H71.0889V55.1364ZM71.0889 56.7439H65.5351V57.5739H71.0889V56.7439ZM111.076 44.0937H105.97V44.9237H111.076V44.0937ZM111.076 45.7012H105.97V46.5312H111.076V45.7012ZM111.076 47.3087H105.97V48.1325H111.076V47.3087ZM111.076 48.9162H105.97V49.7431H111.076V48.9162ZM111.076 50.5206H105.97V51.3506H111.076V50.5206ZM111.076 52.1281H105.97V52.955H111.076V52.1281ZM111.076 53.7356H105.97V54.5625H111.076V53.7356ZM111.076 55.3431H105.97V56.1546H111.076V55.3431ZM111.076 56.8673H105.97V57.6973H111.076V56.8673ZM111.076 58.41H105.97V59.24H111.076V58.41ZM111.076 59.9373H105.97V60.7642H111.076V59.9373ZM111.076 61.4646H105.97V62.2915H111.076V61.4646ZM111.076 63.0073H105.97V63.8342H111.076V63.0073ZM119.332 46.0653H113.939V46.8953H119.332V46.0653ZM119.332 47.6728H113.939V48.5028H119.332V47.6728ZM119.332 49.2803H113.939V50.1072H119.332V49.2803ZM119.332 50.8878H113.939V51.7147H119.332V50.8878ZM119.332 52.4922H113.939V53.3222H119.332V52.4922ZM119.332 54.0997H113.939V54.9266H119.332V54.0997ZM119.332 55.7072H113.939V56.5341H119.332V55.7072ZM119.332 57.3147H113.939V58.1416H119.332V57.3147ZM119.332 58.7525H113.939V59.5485H119.332V58.7525ZM119.332 60.1903H113.939V61.0172H119.332V60.1903ZM119.332 61.6281H113.939V62.455H119.332V61.6281ZM86.8245 42.8873H85.109V43.6895H86.8245V42.8873ZM86.8245 44.43H85.109V45.2322H86.8245V44.43ZM86.8245 45.9727H85.109V46.7718H86.8245V45.9727ZM86.8245 47.5154H85.109V48.3145H86.8245V47.5154ZM86.8245 49.0581H85.109V49.8573H86.8245V49.0581ZM86.8245 50.6008H85.109V51.4H86.8245V50.6008ZM86.8245 52.1435H85.109V52.9427H86.8245V52.1435ZM86.8245 53.6863H85.109V54.4854H86.8245V53.6863ZM89.1602 42.8873H87.4447V43.6895H89.1602V42.8873ZM89.1602 44.43H87.4447V45.2322H89.1602V44.43ZM89.1602 45.9727H87.4447V46.7718H89.1602V45.9727ZM89.1602 47.5154H87.4447V48.3145H89.1602V47.5154ZM89.1602 49.0581H87.4447V49.8573H89.1602V49.0581ZM89.1602 50.6008H87.4447V51.4H89.1602V50.6008ZM89.1602 52.1435H87.4447V52.9427H89.1602V52.1435ZM89.1602 53.6863H87.4447V54.4854H89.1602V53.6863ZM75.6646 37.1268H73.8781V38.3888H75.6646V37.1268ZM78.3304 37.1268H76.5439V38.3888H78.3304V37.1268ZM75.6646 38.9781H73.8781V40.24H75.6646V38.9781ZM78.3304 38.9781H76.5439V40.24H78.3304V38.9781ZM75.6646 40.8293H73.8781V42.0882H75.6646V40.8293ZM78.3304 40.8293H76.5439V42.0882H78.3304V40.8293ZM75.6646 42.6806H73.8781V43.9425H75.6646V42.6806ZM78.3304 42.6806H76.5439V43.9425H78.3304V42.6806ZM75.6646 44.5318H73.8781V45.7938H75.6646V44.5318ZM78.3304 44.5318H76.5439V45.7938H78.3304V44.5318ZM75.6646 46.3831H73.8781V47.645H75.6646V46.3831ZM78.3304 46.3831H76.5439V47.645H78.3304V46.3831ZM75.6646 48.2343H73.8781V49.4963H75.6646V48.2343ZM78.3304 48.2343H76.5439V49.4963H78.3304V48.2343ZM75.6646 50.0856H73.8781V51.3444H75.6646V50.0856ZM78.3304 50.0856H76.5439V51.3444H78.3304V50.0856ZM81.6318 40.8293H79.8453V42.0882H81.6194L81.6318 40.8293ZM81.6318 42.6806H79.8453V43.9425H81.6194L81.6318 42.6806ZM81.6318 44.5318H79.8453V45.7938H81.6194L81.6318 44.5318ZM81.6318 46.3831H79.8453V47.645H81.6194L81.6318 46.3831ZM81.6318 48.2343H79.8453V49.4963H81.6194L81.6318 48.2343ZM81.6318 50.0856H79.8453V51.3444H81.6194L81.6318 50.0856ZM75.6646 51.9152H73.8781V53.1772H75.6646V51.9152ZM78.3304 51.9152H76.5439V53.1772H78.3304V51.9152ZM81.6318 51.9152H79.8453V53.1772H81.6194L81.6318 51.9152ZM75.6646 53.7449H73.8781V55.0068H75.6646V53.7449ZM78.3304 53.7449H76.5439V55.0068H78.3304V53.7449ZM81.6318 53.7449H79.8453V55.0068H81.6194L81.6318 53.7449ZM75.6646 55.5745H73.8781V56.8365H75.6646V55.5745ZM78.3304 55.5745H76.5439V56.8365H78.3304V55.5745ZM81.6318 55.5745H79.8453V56.8365H81.6194L81.6318 55.5745ZM75.6646 57.4073H73.8781V58.6661H75.6646V57.4073ZM78.3304 57.4073H76.5439V58.6661H78.3304V57.4073ZM81.6318 57.4073H79.8453V58.6661H81.6194L81.6318 57.4073ZM75.6646 59.24H73.8781V60.5019H75.6646V59.24ZM78.3304 59.24H76.5439V60.5019H78.3304V59.24ZM81.6318 59.24H79.8453V60.5019H81.6194L81.6318 59.24ZM97.7716 38.9194H96.8058V40.024H97.7716V38.9194ZM99.4439 38.9194H98.4781V40.024H99.4439V38.9194ZM97.7716 40.5825H96.8058V41.6871H97.7716V40.5825ZM99.4439 40.5825H98.4781V41.6871H99.4439V40.5825ZM97.7716 42.2424H96.8058V43.3501H97.7716V42.2424ZM99.4439 42.2424H98.4781V43.3501H99.4439V42.2424ZM97.7716 43.9055H96.8058V45.0101H97.7716V43.9055ZM99.4439 43.9055H98.4781V45.0101H99.4439V43.9055ZM97.7716 45.6086H96.8058V46.7132H97.7716V45.6086ZM99.4439 45.6086H98.4781V46.7132H99.4439V45.6086ZM97.7716 47.3118H96.8058V48.4164H97.7716V47.3118ZM99.4439 47.3118H98.4781V48.4164H99.4439V47.3118ZM97.7716 49.0149H96.8058V50.1195H97.7716V49.0149ZM99.4439 49.0149H98.4781V50.1195H99.4439V49.0149ZM97.7716 50.7181H96.8058V51.835H97.7716V50.7181ZM99.4439 50.7181H98.4781V51.835H99.4439V50.7181ZM97.7716 52.4521H96.8058V53.5567H97.7716V52.4521ZM99.4439 52.4521H98.4781V53.5567H99.4439V52.4521ZM97.7716 54.1738H96.8058V55.2783H97.7716V54.1738ZM99.4439 54.1738H98.4781V55.2783H99.4439V54.1738ZM97.7716 55.8954H96.8058V57H97.7716V55.8954ZM99.4439 55.8954H98.4781V57H99.4439V55.8954ZM97.7716 57.6171H96.8058V58.7217H97.7716V57.6171ZM99.4439 57.6171H98.4781V58.7217H99.4439V57.6171ZM121.332 39.1046H120.366V40.419H121.332V39.1046ZM123.004 39.1046H122.038V40.419H123.004V39.1046ZM121.332 41.0638H120.366V42.3659H121.332V41.0638ZM123.004 41.0638H122.038V42.3659H123.004V41.0638ZM121.332 43.0231H120.366V44.322H121.332V43.0231ZM123.004 43.0231H122.038V44.322H123.004V43.0231ZM121.332 44.9792H120.366V46.2813H121.332V44.9792ZM123.004 44.9792H122.038V46.2813H123.004V44.9792ZM121.332 46.9878H120.366V48.2868H121.332V46.9878ZM123.004 46.9878H122.038V48.2868H123.004V46.9878ZM121.332 48.9933H120.366V50.2923H121.332V48.9933ZM123.004 48.9933H122.038V50.2923H123.004V48.9933ZM121.332 50.9989H120.366V52.3009H121.332V50.9989ZM123.004 50.9989H122.038V52.3009H123.004V50.9989ZM121.332 53.0044H120.366V54.3033H121.332V53.0044ZM123.004 53.0044H122.038V54.3033H123.004V53.0044ZM121.332 55.0346H120.366V56.3335H121.332V55.0346ZM123.004 55.0346H122.038V56.3335H123.004V55.0346ZM121.332 57.0617H120.366V58.3637H121.332V57.0617ZM123.004 57.0617H122.038V58.3637H123.004V57.0617ZM121.332 59.0888H120.366V60.3909H121.332V59.0888ZM123.004 59.0888H122.038V60.3909H123.004V59.0888ZM121.332 61.1159H120.366V62.418H121.332V61.1159ZM123.004 61.1159H122.038V62.418H123.004V61.1159ZM101.348 38.9256H100.382V40.0302H101.348V38.9256ZM103.02 38.9256H102.054V40.0302H103.02V38.9256ZM101.348 37.2225H100.382V38.327H101.348V37.2225ZM103.02 37.2225H102.054V38.327H103.02V37.2225ZM101.348 35.5193H100.382V36.6239H101.348V35.5193ZM103.02 35.5193H102.054V36.6239H103.02V35.5193ZM101.348 40.5887H100.382V41.6932H101.348V40.5887ZM103.02 40.5887H102.054V41.6932H103.02V40.5887ZM101.348 42.2486H100.382V43.3563H101.348V42.2486ZM103.02 42.2486H102.054V43.3563H103.02V42.2486ZM101.348 43.9117H100.382V45.0162H101.348V43.9117ZM103.02 43.9117H102.054V45.0162H103.02V43.9117ZM101.348 45.6148H100.382V46.7194H101.348V45.6148ZM103.02 45.6148H102.054V46.7194H103.02V45.6148ZM101.348 47.318H100.382V48.4225H101.348V47.318ZM103.02 47.318H102.054V48.4225H103.02V47.318ZM101.348 49.0211H100.382V50.1257H101.348V49.0211ZM103.02 49.0211H102.054V50.1257H103.02V49.0211ZM101.348 50.7243H100.382V51.835H101.348V50.7243ZM103.02 50.7243H102.054V51.835H103.02V50.7243ZM101.348 52.4521H100.382V53.5567H101.348V52.4521ZM103.02 52.4521H102.054V53.5567H103.02V52.4521ZM101.348 54.1738H100.382V55.2783H101.348V54.1738ZM103.02 54.1738H102.054V55.2783H103.02V54.1738ZM101.348 55.8954H100.382V57H101.348V55.8954ZM103.02 55.8954H102.054V57H103.02V55.8954ZM101.348 57.6171H100.382V58.7217H101.348V57.6171ZM103.02 57.6171H102.054V58.7217H103.02V57.6171Z" fill="white"/>
<path d="M57.5406 65.7934H9.93262V41.6439H15.6345V48.5676H17.1031V44.6491H24.3539V50.8569H25.3134V36.2876H31.6138V40.2863H34.8474V45.2631H35.8254V42.1314H41.5551V51.4709H43.2274V43.8808H48.4695V38.1142H52.0301L56.1522 38.1327V49.3944H57.5406V65.7934Z" fill="#EBEBEB"/>
<path d="M11.5956 43.8376H10.6299V42.514H11.5956V43.8376ZM13.2679 42.514H12.3022V43.8376H13.2679V42.514ZM14.9402 42.514H13.9745V43.8376H14.9402V42.514ZM11.5956 44.5071H10.6299V45.8308H11.5956V44.5071ZM13.2679 44.5071H12.3022V45.8308H13.2679V44.5071ZM14.9402 44.5071H13.9745V45.8308H14.9402V44.5071ZM11.5956 46.5003H10.6299V47.824H11.5956V46.5003ZM13.2679 46.5003H12.3022V47.824H13.2679V46.5003ZM14.9402 46.5003H13.9745V47.824H14.9402V46.5003ZM11.5956 48.4904H10.6299V49.8141H11.5956V48.4904ZM13.2679 48.4904H12.3022V49.8141H13.2679V48.4904ZM14.9402 48.4904H13.9745V49.8141H14.9402V48.4904ZM44.9983 44.8249H44.0326V45.9295H44.9983V44.8249ZM46.6706 44.8249H45.7049V45.9295H46.6706V44.8249ZM48.3429 44.8249H47.371V45.9295H48.3368L48.3429 44.8249ZM44.9983 46.488H44.0326V47.5926H44.9983V46.488ZM46.6706 46.488H45.7049V47.5926H46.6706V46.488ZM48.3429 46.488H47.371V47.5926H48.3368L48.3429 46.488ZM44.9983 48.151H44.0326V49.2556H44.9983V48.151ZM46.6706 48.151H45.7049V49.2556H46.6706V48.151ZM48.3429 48.151H47.371V49.2556H48.3368L48.3429 48.151ZM44.9983 49.811H44.0326V50.9094H44.9983V49.811ZM46.6706 49.811H45.7049V50.9094H46.6706V49.811ZM48.3429 49.811H47.371V50.9094H48.3368L48.3429 49.811ZM44.9983 51.5265H44.0326V52.6311H44.9983V51.5265ZM46.6706 51.5265H45.7049V52.6311H46.6706V51.5265ZM48.3429 51.5265H47.371V52.6311H48.3368L48.3429 51.5265ZM44.9983 53.2296H44.0326V54.3342H44.9983V53.2296ZM46.6706 53.2296H45.7049V54.3342H46.6706V53.2296ZM48.3429 53.2296H47.371V54.3342H48.3368L48.3429 53.2296ZM44.9983 54.9204H44.0326V56.025H44.9983V54.9204ZM46.6706 54.9204H45.7049V56.025H46.6706V54.9204ZM48.3429 54.9204H47.371V56.025H48.3368L48.3429 54.9204ZM44.9983 56.6236H44.0326V57.7282H44.9983V56.6236ZM46.6706 56.6236H45.7049V57.7282H46.6706V56.6236ZM48.3429 56.6236H47.371V57.7282H48.3368L48.3429 56.6236ZM23.4806 45.4976H17.9269V46.3245H23.4806V45.4976ZM23.4806 47.1051H17.9269V47.932H23.4806V47.1051ZM23.4806 48.7095H17.9269V49.5395H23.4806V48.7095ZM23.4806 50.317H17.9269V51.147H23.4806V50.317ZM23.4806 51.9245H17.9269V52.7606H23.4806V51.9245ZM23.4806 53.532H17.9269V54.3589H23.4806V53.532ZM23.4806 55.1364H17.9269V55.9664H23.4806V55.1364ZM23.4806 56.7439H17.9269V57.5739H23.4806V56.7439ZM39.2163 42.8811H37.4977V43.6833H39.2132L39.2163 42.8811ZM39.2163 44.4238H37.4977V45.2261H39.2132L39.2163 44.4238ZM39.2163 45.9665H37.4977V46.7657H39.2132L39.2163 45.9665ZM39.2163 47.5093H37.4977V48.3084H39.2132L39.2163 47.5093ZM39.2163 49.052H37.4977V49.8511H39.2132L39.2163 49.052ZM39.2163 50.5947H37.4977V51.3938H39.2132L39.2163 50.5947ZM39.2163 52.1374H37.4977V52.9365H39.2132L39.2163 52.1374ZM39.2163 53.6801H37.4977V54.4792H39.2132L39.2163 53.6801ZM41.5489 42.8873H39.8334V43.6895H41.5489V42.8873ZM41.5489 44.43H39.8334V45.2322H41.5489V44.43ZM41.5489 45.9727H39.8334V46.7718H41.5489V45.9727ZM41.5489 47.5154H39.8334V48.3146H41.5489V47.5154ZM41.5489 49.0581H39.8334V49.8573H41.5489V49.0581ZM41.5489 50.6008H39.8334V51.4H41.5489V50.6008ZM41.5489 52.1436H39.8334V52.9427H41.5489V52.1436ZM41.5489 53.6863H39.8334V54.4854H41.5489V53.6863ZM28.0563 37.1268H26.2699V38.3888H28.0563V37.1268ZM30.719 37.1268H28.9326V38.3888H30.7098L30.719 37.1268ZM28.0563 38.9781H26.2699V40.24H28.0563V38.9781ZM30.719 38.9781H28.9326V40.24H30.7098L30.719 38.9781ZM28.0563 40.8293H26.2699V42.0882H28.0563V40.8293ZM30.719 40.8293H28.9326V42.0882H30.7098L30.719 40.8293ZM28.0563 42.6806H26.2699V43.9425H28.0563V42.6806ZM30.719 42.6806H28.9326V43.9425H30.7098L30.719 42.6806ZM28.0563 44.5318H26.2699V45.7938H28.0563V44.5318ZM30.719 44.5318H28.9326V45.7938H30.7098L30.719 44.5318ZM28.0563 46.3831H26.2699V47.645H28.0563V46.3831ZM30.719 46.3831H28.9326V47.645H30.7098L30.719 46.3831ZM28.0563 48.2343H26.2699V49.4963H28.0563V48.2343ZM30.719 48.2343H28.9326V49.4963H30.7098L30.719 48.2343ZM28.0563 50.0856H26.2699V51.3444H28.0563V50.0856ZM30.719 50.0856H28.9326V51.3444H30.7098L30.719 50.0856ZM34.0204 40.8293H32.234V42.0882H34.0204V40.8293ZM34.0204 42.6806H32.234V43.9425H34.0204V42.6806ZM34.0204 44.5318H32.234V45.7938H34.0204V44.5318ZM34.0204 46.3831H32.234V47.645H34.0204V46.3831ZM34.0204 48.2343H32.234V49.4963H34.0204V48.2343ZM34.0204 50.0856H32.234V51.3444H34.0204V50.0856ZM28.0563 51.9152H26.2699V53.1772H28.0563V51.9152ZM30.719 51.9152H28.9326V53.1772H30.7098L30.719 51.9152ZM34.0204 51.9152H32.234V53.1772H34.0204V51.9152ZM28.0563 53.7449H26.2699V55.0068H28.0563V53.7449ZM30.719 53.7449H28.9326V55.0068H30.7098L30.719 53.7449ZM34.0204 53.7449H32.234V55.0068H34.0204V53.7449ZM28.0563 55.5745H26.2699V56.8365H28.0563V55.5745ZM30.719 55.5745H28.9326V56.8365H30.7098L30.719 55.5745ZM34.0204 55.5745H32.234V56.8365H34.0204V55.5745ZM28.0563 57.4073H26.2699V58.6661H28.0563V57.4073ZM30.719 57.4073H28.9326V58.6661H30.7098L30.719 57.4073ZM34.0204 57.4073H32.234V58.6661H34.0204V57.4073ZM28.0563 59.24H26.2699V60.502H28.0563V59.24ZM30.719 59.24H28.9326V60.502H30.7098L30.719 59.24ZM34.0204 59.24H32.234V60.502H34.0204V59.24ZM50.1479 38.9256H49.1853V40.0302H50.1479V38.9256ZM51.8202 38.9256H50.8576V40.0302H51.8202V38.9256ZM50.1479 40.5887H49.1853V41.6932H50.1479V40.5887ZM51.8202 40.5887H50.8576V41.6932H51.8202V40.5887ZM50.1479 42.2486H49.1853V43.3563H50.1479V42.2486ZM51.8202 42.2486H50.8576V43.3563H51.8202V42.2486ZM50.1479 43.9117H49.1853V45.0162H50.1479V43.9117ZM51.8202 43.9117H50.8576V45.0162H51.8202V43.9117ZM50.1479 45.6148H49.1853V46.7194H50.1479V45.6148ZM51.8202 45.6148H50.8576V46.7194H51.8202V45.6148ZM50.1479 47.318H49.1853V48.4225H50.1479V47.318ZM51.8202 47.318H50.8576V48.4225H51.8202V47.318ZM50.1479 49.0211H49.1853V50.1257H50.1479V49.0211ZM51.8202 49.0211H50.8576V50.1257H51.8202V49.0211ZM50.1479 50.7243H49.1853V51.835H50.1479V50.7243ZM51.8202 50.7243H50.8576V51.835H51.8202V50.7243ZM50.1479 52.4521H49.1853V53.5567H50.1479V52.4521ZM51.8202 52.4521H50.8576V53.5567H51.8202V52.4521ZM50.1479 54.1676H49.1853V55.2722H50.1479V54.1676ZM51.8202 54.1676H50.8576V55.2722H51.8202V54.1676ZM50.1479 55.8893H49.1853V56.9938H50.1479V55.8893ZM51.8202 55.8893H50.8576V56.9938H51.8202V55.8893ZM50.1479 57.6109H49.1853V58.7155H50.1479V57.6109ZM51.8202 57.6109H50.8576V58.7155H51.8202V57.6109ZM53.7239 38.9256H52.7613V40.0302H53.7239V38.9256ZM55.3962 38.9256H54.4336V40.0302H55.3962V38.9256ZM53.7239 40.5887H52.7613V41.6932H53.7239V40.5887ZM55.3962 40.5887H54.4336V41.6932H55.3962V40.5887ZM53.7239 42.2486H52.7613V43.3563H53.7239V42.2486ZM55.3962 42.2486H54.4336V43.3563H55.3962V42.2486ZM53.7239 43.9117H52.7613V45.0162H53.7239V43.9117ZM55.3962 43.9117H54.4336V45.0162H55.3962V43.9117ZM53.7239 45.6148H52.7613V46.7194H53.7239V45.6148ZM55.3962 45.6148H54.4336V46.7194H55.3962V45.6148ZM53.7239 47.318H52.7613V48.4225H53.7239V47.318ZM55.3962 47.318H54.4336V48.4225H55.3962V47.318ZM53.7239 49.0211H52.7613V50.1257H53.7239V49.0211ZM55.3962 49.0211H54.4336V50.1257H55.3962V49.0211ZM53.7239 50.7243H52.7613V51.835H53.7239V50.7243ZM55.3962 50.7243H54.4336V51.835H55.3962V50.7243ZM53.7363 52.4521H52.7736V53.5567H53.7363V52.4521ZM55.4085 52.4521H54.4459V53.5567H55.4085V52.4521ZM53.7363 54.1738H52.7736V55.2783H53.7363V54.1738ZM55.4085 54.1738H54.4459V55.2783H55.4085V54.1738ZM53.7363 55.8954H52.7736V57H53.7363V55.8954ZM55.4085 55.8954H54.4459V57H55.4085V55.8954ZM53.7363 57.6171H52.7736V58.7217H53.7363V57.6171ZM55.4085 57.6171H54.4459V58.7217H55.4085V57.6171Z" fill="white"/>
<path d="M123.858 66.3797H9.14258V28.8888H123.858V66.3797ZM10.315 65.2103H122.689V30.0581H10.312L10.315 65.2103Z" fill="#DBDBDB"/>
<path d="M67.0864 30.0581H65.917V65.2072H67.0864V30.0581Z" fill="#DBDBDB"/>
<path d="M32.6262 97.78L31.8888 102.208L26.8873 129.214H26.082L29.7197 102.208L30.2566 97.78H32.6262Z" fill="#DBDBDB"/>
<path d="M30.2566 97.78H32.6262L31.8888 102.208H29.7197L30.2566 97.78Z" fill="#C7C7C7"/>
<path d="M48.3334 129.214H47.525L42.5235 102.208L41.7861 97.78H44.1588L44.6957 102.208L48.3334 129.214Z" fill="#DBDBDB"/>
<path d="M44.1588 97.78L44.6957 102.208H42.5235L41.7861 97.78H44.1588Z" fill="#C7C7C7"/>
<path d="M63.3313 129.214H62.526L57.5245 102.208L56.7871 97.78H59.1598L59.6967 102.208L63.3313 129.214Z" fill="#DBDBDB"/>
<path d="M59.6967 102.208H57.5245L56.7871 97.78H59.1598L59.6967 102.208Z" fill="#C7C7C7"/>
<path d="M62.0547 99.8595H25.4092V96.8883L39.1269 95.9997L43.7366 69.4034H60.657L62.0547 99.8595Z" fill="#DBDBDB"/>
<path d="M62.0542 99.8595H60.0579L58.7559 69.4034H60.6565L62.0542 99.8595Z" fill="#C7C7C7"/>
<path d="M40.5517 0H40.2432V15.9948H40.5517V0Z" fill="#C7C7C7"/>
<path d="M41.4869 14.7637H39.3086V17.121H41.4869V14.7637Z" fill="#DBDBDB"/>
<path d="M44.8565 24.6494H35.9551C36.134 21.2554 37.7508 15.822 40.4135 15.822C43.0762 15.822 44.6776 21.2554 44.8565 24.6494Z" fill="#DBDBDB"/>
<path d="M57.954 0H57.6455V15.9948H57.954V0Z" fill="#C7C7C7"/>
<path d="M58.8883 14.7637H56.71V17.121H58.8883V14.7637Z" fill="#DBDBDB"/>
<path d="M62.2577 24.6494H53.3408C53.5198 21.2554 55.1396 15.822 57.7992 15.822C60.4589 15.822 62.0787 21.2554 62.2577 24.6494Z" fill="#DBDBDB"/>
<path d="M75.3554 0H75.0469V15.9948H75.3554V0Z" fill="#C7C7C7"/>
<path d="M76.2906 14.7637H74.1123V17.121H76.2906V14.7637Z" fill="#DBDBDB"/>
<path d="M79.66 24.6494H70.7432C70.9252 21.2554 72.542 15.822 75.2016 15.822C77.8612 15.822 79.4811 21.2554 79.66 24.6494Z" fill="#DBDBDB"/>
<path d="M92.7578 0H92.4492V15.9948H92.7578V0Z" fill="#C7C7C7"/>
<path d="M93.692 14.7637H91.5137V17.121H93.692V14.7637Z" fill="#DBDBDB"/>
<path d="M97.0614 24.6494H88.1445C88.3266 21.2554 89.9433 15.822 92.603 15.822C95.2626 15.822 96.8824 21.2554 97.0614 24.6494Z" fill="#DBDBDB"/>
<path d="M68.2003 146.924C90.1823 146.924 108.002 144.361 108.002 141.198C108.002 138.035 90.1823 135.471 68.2003 135.471C46.2183 135.471 28.3984 138.035 28.3984 141.198C28.3984 144.361 46.2183 146.924 68.2003 146.924Z" fill="#EBEBEB"/>
<path d="M18.0867 141.371C27.6378 141.371 35.3805 139.889 35.3805 138.06C35.3805 136.232 27.6378 134.749 18.0867 134.749C8.53565 134.749 0.792969 136.232 0.792969 138.06C0.792969 139.889 8.53565 141.371 18.0867 141.371Z" fill="#EBEBEB"/>
<path d="M0 129.214L16.6242 129.14L33.2485 129.112L66.5 129.063L99.7515 129.112L116.376 129.14L133 129.214L116.376 129.291L99.7515 129.319L66.5 129.368L33.2485 129.319L16.6242 129.291L0 129.214Z" fill="#263238"/>
<path d="M112.346 82.2819H85.1201V132.3H112.346V82.2819Z" fill="#455A64"/>
<path d="M112.346 82.2819H85.1201V85.5432H112.346V82.2819Z" fill="#263238"/>
<path d="M124.034 79.6531H8.96289V82.285H124.034V79.6531Z" fill="#455A64"/>
<path d="M14.7698 82.2819L14.6834 85.5432L13.5356 132.3H11.4561V82.2819H14.7698Z" fill="#455A64"/>
<path d="M11.4561 82.2819H14.7698L14.6834 85.5432H11.4561V82.2819Z" fill="#263238"/>
<path d="M121.572 82.2819H112.347V132.3H121.572V82.2819Z" fill="#37474F"/>
<path d="M121.572 82.2819H112.347V85.5432H121.572V82.2819Z" fill="#263238"/>
<path d="M118.633 79.6038H105.959L103.743 70.4062H116.418L118.633 79.6038Z" fill="#A6A6A6"/>
<path d="M101.494 79.6038H114.166L116.381 70.4062H103.706L101.494 79.6038Z" fill="#EBEBEB"/>
<path d="M114.86 71.6403L114.552 72.9269L114.533 73.0041L114.225 74.3401L114.206 74.4203L113.898 75.7532L113.879 75.8334L113.57 77.1694L113.552 77.2496L113.243 78.5578H103.062L103.37 77.2496L103.389 77.1694L103.697 75.8334L103.719 75.7532L104.027 74.4203L104.046 74.3401L104.354 73.0041L104.376 72.9269L104.684 71.6403H114.86ZM106.085 71.6403L105.777 72.9269L105.758 73.0041L105.45 74.3401L105.431 74.4203L105.123 75.7532L105.104 75.8334L104.796 77.1694L104.777 77.2496L104.468 78.5578H104.552L104.86 77.2496L104.879 77.1694L105.187 75.8334L105.206 75.7532L105.514 74.4203L105.533 74.3401L105.841 73.0041L105.86 72.9269L106.169 71.6403H106.085ZM107.535 71.6403L107.227 72.9269L107.208 73.0041L106.9 74.3401L106.881 74.4203L106.573 75.7532L106.554 75.8334L106.246 77.1694L106.227 77.2496L105.919 78.5578H106.002L106.31 77.2496L106.332 77.1694L106.641 75.8334L106.659 75.7532L106.968 74.4203L106.989 74.3401L107.298 73.0041L107.316 72.9269L107.625 71.6403H107.535ZM108.989 71.6403L108.68 72.9269L108.662 73.0041L108.353 74.3401L108.335 74.4203L108.026 75.7532L108.007 75.8334L107.699 77.1694L107.68 77.2496L107.372 78.5578H107.452L107.761 77.2496L107.779 77.1694L108.088 75.8334L108.106 75.7532L108.415 74.4203L108.433 74.3401L108.742 73.0041L108.76 72.9269L109.069 71.6403H108.989ZM110.439 71.6403L110.13 72.9269L110.112 73.0041L109.803 74.3401L109.785 74.4203L109.476 75.7532L109.458 75.8334L109.149 77.1694L109.131 77.2496L108.822 78.5578H108.905L109.214 77.2496L109.232 77.1694L109.541 75.8334L109.562 75.7532L109.871 74.4203L109.89 74.3401L110.198 73.0041L110.217 72.9269L110.525 71.6403H110.439ZM111.892 71.6403L111.583 72.9269L111.565 73.0041L111.256 74.3401L111.235 74.4203L110.926 75.7532L110.908 75.8334L110.599 77.1694L110.581 77.2496L110.272 78.5578H110.312L110.621 77.2496L110.639 77.1694L110.948 75.8334L110.966 75.7532L111.275 74.4203L111.293 74.3401L111.602 73.0041L111.62 72.9269L111.929 71.6403H111.892ZM113.342 71.6403L113.034 72.9269L113.015 73.0041L112.707 74.3401L112.688 74.4203L112.379 75.7532L112.361 75.8334L112.052 77.1694L112.034 77.2496L111.725 78.5578H111.806L112.114 77.2496L112.133 77.1694L112.441 75.8334L112.46 75.7532L112.768 74.4203L112.787 74.3401L113.095 73.0041L113.114 72.9269L113.422 71.6403H113.342ZM104.367 72.9269L104.345 73.0041H114.527L114.545 72.9269H104.367ZM104.027 74.3401L104.009 74.4203H114.191L114.209 74.3401H104.027ZM103.688 75.7532L103.666 75.8334H113.848L113.867 75.7532H103.688ZM103.345 77.1694L103.327 77.2496H113.509L113.527 77.1694H103.345Z" fill="white"/>
<path d="M104.104 71.0356C104.057 71.0334 104.012 71.0216 103.97 71.0009C103.928 70.9802 103.891 70.951 103.86 70.9152C103.801 70.835 103.764 70.7406 103.753 70.6416C103.741 70.5425 103.756 70.4422 103.796 70.3506C103.882 70.0637 104.104 69.9433 104.255 69.9742C104.407 70.005 104.518 70.1254 104.493 70.4031C104.491 70.4238 104.482 70.4431 104.466 70.4569C104.451 70.4707 104.43 70.478 104.41 70.4771C104.389 70.4748 104.369 70.4646 104.356 70.4485C104.342 70.4325 104.335 70.4118 104.336 70.3907C104.336 70.2457 104.305 70.147 104.224 70.1315C104.144 70.1161 104.005 70.1994 103.947 70.3969C103.918 70.4632 103.906 70.5357 103.912 70.6079C103.918 70.68 103.941 70.7496 103.981 70.8103C103.996 70.8314 104.016 70.8483 104.039 70.8596C104.062 70.871 104.088 70.8763 104.113 70.8751C104.124 70.872 104.136 70.8712 104.147 70.873C104.159 70.8747 104.17 70.8788 104.179 70.8851C104.189 70.8914 104.197 70.8996 104.203 70.9093C104.209 70.9191 104.213 70.93 104.215 70.9414C104.216 70.9527 104.216 70.9643 104.212 70.9753C104.209 70.9864 104.203 70.9965 104.196 71.0052C104.188 71.0138 104.179 71.0207 104.168 71.0254C104.158 71.0301 104.147 71.0326 104.135 71.0325L104.104 71.0356Z" fill="#A6A6A6"/>
<path d="M105.068 71.0356C105.021 71.0334 104.975 71.0216 104.933 71.0009C104.891 70.9802 104.854 70.951 104.824 70.9152C104.765 70.8343 104.728 70.7394 104.717 70.6399C104.705 70.5404 104.72 70.4397 104.759 70.3475C104.848 70.0606 105.068 69.9403 105.219 69.9711C105.37 70.002 105.481 70.1223 105.459 70.4C105.457 70.421 105.447 70.4403 105.431 70.4541C105.415 70.4678 105.394 70.4749 105.373 70.474C105.363 70.4733 105.352 70.4704 105.343 70.4656C105.334 70.4608 105.326 70.4541 105.319 70.4461C105.312 70.438 105.307 70.4286 105.304 70.4186C105.302 70.4085 105.301 70.398 105.302 70.3876C105.302 70.2426 105.271 70.1439 105.191 70.1285C105.111 70.113 104.972 70.1963 104.913 70.3938C104.884 70.4599 104.871 70.5323 104.877 70.6044C104.882 70.6766 104.905 70.7462 104.944 70.8073C104.96 70.8283 104.98 70.8453 105.004 70.8565C105.028 70.8678 105.054 70.8732 105.08 70.872C105.091 70.8689 105.103 70.8681 105.114 70.8699C105.125 70.8716 105.136 70.8757 105.146 70.882C105.155 70.8883 105.164 70.8966 105.17 70.9063C105.176 70.916 105.18 70.9269 105.181 70.9383C105.183 70.9497 105.182 70.9612 105.179 70.9723C105.175 70.9833 105.17 70.9934 105.162 71.0021C105.155 71.0107 105.145 71.0176 105.135 71.0223C105.124 71.0271 105.113 71.0295 105.101 71.0294L105.068 71.0356Z" fill="#A6A6A6"/>
<path d="M106.057 71.0356C106.01 71.0334 105.964 71.0217 105.921 71.001C105.879 70.9803 105.841 70.9511 105.81 70.9152C105.752 70.8343 105.716 70.7399 105.706 70.641C105.695 70.5421 105.71 70.4421 105.749 70.3506C105.835 70.0637 106.057 69.9433 106.208 69.9742C106.359 70.005 106.471 70.1254 106.446 70.4031C106.448 70.4147 106.448 70.4267 106.445 70.4382C106.442 70.4497 106.437 70.4604 106.429 70.4696C106.422 70.4788 106.412 70.4862 106.401 70.4912C106.391 70.4963 106.379 70.4989 106.367 70.4989C106.355 70.4989 106.344 70.4963 106.333 70.4912C106.322 70.4862 106.313 70.4788 106.305 70.4696C106.298 70.4604 106.292 70.4497 106.289 70.4382C106.286 70.4267 106.286 70.4147 106.289 70.4031C106.289 70.258 106.258 70.1593 106.177 70.1439C106.097 70.1285 105.958 70.2118 105.9 70.4092C105.87 70.4753 105.858 70.5477 105.863 70.6198C105.869 70.692 105.892 70.7617 105.931 70.8227C105.946 70.8436 105.967 70.8603 105.991 70.8716C106.014 70.8829 106.04 70.8883 106.066 70.8875C106.077 70.8843 106.089 70.8836 106.1 70.8853C106.112 70.887 106.123 70.8911 106.132 70.8974C106.142 70.9037 106.15 70.912 106.156 70.9217C106.162 70.9314 106.166 70.9423 106.168 70.9537C106.169 70.9651 106.169 70.9767 106.165 70.9877C106.162 70.9987 106.156 71.0089 106.149 71.0175C106.141 71.0261 106.132 71.0331 106.121 71.0378C106.111 71.0425 106.099 71.0449 106.088 71.0448L106.057 71.0356Z" fill="#A6A6A6"/>
<path d="M107.033 71.0356C106.986 71.0334 106.94 71.0216 106.898 71.0009C106.856 70.9802 106.819 70.951 106.789 70.9152C106.73 70.8346 106.694 70.7403 106.682 70.6414C106.671 70.5425 106.685 70.4424 106.724 70.3506C106.81 70.0637 107.033 69.9433 107.184 69.9742C107.335 70.005 107.446 70.1254 107.424 70.4031C107.422 70.4241 107.412 70.4434 107.396 70.4571C107.38 70.4709 107.359 70.478 107.338 70.4771C107.328 70.4764 107.317 70.4735 107.308 70.4687C107.299 70.4639 107.291 70.4572 107.284 70.4491C107.277 70.4411 107.272 70.4317 107.269 70.4217C107.267 70.4116 107.266 70.4011 107.267 70.3907C107.267 70.2457 107.236 70.147 107.156 70.1315C107.076 70.1161 106.937 70.1994 106.875 70.3969C106.847 70.4634 106.835 70.5358 106.841 70.6078C106.847 70.6798 106.87 70.7493 106.909 70.8103C106.925 70.8314 106.945 70.8483 106.969 70.8596C106.993 70.8709 107.019 70.8763 107.045 70.8751C107.064 70.8752 107.083 70.8823 107.097 70.895C107.112 70.9078 107.121 70.9253 107.124 70.9444C107.127 70.9636 107.122 70.983 107.112 70.9992C107.101 71.0154 107.085 71.0272 107.066 71.0325L107.033 71.0356Z" fill="#A6A6A6"/>
<path d="M108.007 71.0356C107.96 71.0334 107.915 71.0216 107.873 71.0009C107.831 70.9802 107.793 70.951 107.763 70.9152C107.705 70.8346 107.669 70.7401 107.658 70.6411C107.647 70.5421 107.662 70.442 107.702 70.3506C107.788 70.0637 108.01 69.9433 108.161 69.9742C108.313 70.005 108.424 70.1254 108.399 70.4031C108.401 70.4147 108.401 70.4267 108.398 70.4382C108.395 70.4497 108.39 70.4604 108.382 70.4696C108.375 70.4788 108.365 70.4862 108.355 70.4912C108.344 70.4963 108.332 70.4989 108.32 70.4989C108.308 70.4989 108.297 70.4963 108.286 70.4912C108.275 70.4862 108.266 70.4788 108.258 70.4696C108.251 70.4604 108.245 70.4497 108.242 70.4382C108.24 70.4267 108.239 70.4147 108.242 70.4031C108.242 70.258 108.211 70.1593 108.13 70.1439C108.05 70.1285 107.911 70.2118 107.853 70.4092C107.823 70.4753 107.811 70.5477 107.816 70.6198C107.822 70.692 107.845 70.7617 107.884 70.8227C107.899 70.8436 107.92 70.8603 107.944 70.8716C107.967 70.8829 107.993 70.8883 108.019 70.8875C108.03 70.8843 108.042 70.8836 108.053 70.8853C108.065 70.887 108.076 70.8911 108.085 70.8974C108.095 70.9037 108.103 70.912 108.109 70.9217C108.115 70.9314 108.119 70.9423 108.121 70.9537C108.122 70.9651 108.122 70.9767 108.118 70.9877C108.115 70.9987 108.109 71.0089 108.102 71.0175C108.094 71.0261 108.085 71.0331 108.074 71.0378C108.064 71.0425 108.052 71.0449 108.041 71.0448L108.007 71.0356Z" fill="#A6A6A6"/>
<path d="M108.986 71.0356C108.939 71.0334 108.893 71.0216 108.852 71.0009C108.81 70.9802 108.772 70.951 108.742 70.9152C108.683 70.835 108.646 70.7406 108.635 70.6416C108.623 70.5425 108.638 70.4422 108.677 70.3506C108.764 70.0637 108.986 69.9433 109.137 69.9742C109.288 70.005 109.399 70.1254 109.378 70.4031C109.376 70.4241 109.365 70.4434 109.349 70.4571C109.333 70.4709 109.313 70.478 109.291 70.4771C109.27 70.4748 109.251 70.4646 109.237 70.4485C109.224 70.4325 109.216 70.4118 109.217 70.3907C109.217 70.2457 109.19 70.147 109.109 70.1315C109.029 70.1161 108.89 70.1994 108.829 70.3969C108.8 70.4632 108.788 70.5357 108.794 70.6079C108.8 70.68 108.823 70.7496 108.863 70.8103C108.878 70.8314 108.897 70.8483 108.921 70.8596C108.944 70.871 108.969 70.8763 108.995 70.8751C109.006 70.872 109.018 70.8712 109.029 70.873C109.041 70.8747 109.051 70.8788 109.061 70.8851C109.071 70.8914 109.079 70.8996 109.085 70.9093C109.091 70.9191 109.095 70.93 109.097 70.9414C109.098 70.9527 109.097 70.9643 109.094 70.9753C109.091 70.9864 109.085 70.9965 109.078 71.0052C109.07 71.0138 109.061 71.0207 109.05 71.0254C109.04 71.0301 109.028 71.0326 109.017 71.0325L108.986 71.0356Z" fill="#A6A6A6"/>
<path d="M109.96 71.0356C109.913 71.0334 109.868 71.0216 109.826 71.0009C109.784 70.9802 109.747 70.951 109.716 70.9152C109.658 70.8346 109.622 70.7401 109.611 70.6411C109.6 70.5421 109.615 70.442 109.655 70.3506C109.741 70.0637 109.963 69.9433 110.114 69.9742C110.266 70.005 110.377 70.1254 110.352 70.4031C110.354 70.4147 110.354 70.4267 110.351 70.4382C110.348 70.4497 110.343 70.4604 110.335 70.4696C110.328 70.4788 110.318 70.4862 110.308 70.4912C110.297 70.4963 110.285 70.4989 110.273 70.4989C110.261 70.4989 110.25 70.4963 110.239 70.4912C110.228 70.4862 110.219 70.4788 110.211 70.4696C110.204 70.4604 110.198 70.4497 110.196 70.4382C110.193 70.4267 110.192 70.4147 110.195 70.4031C110.195 70.258 110.164 70.1593 110.084 70.1439C110.003 70.1285 109.865 70.2118 109.806 70.4092C109.777 70.4753 109.764 70.5477 109.769 70.6198C109.775 70.692 109.798 70.7617 109.837 70.8227C109.852 70.8438 109.873 70.8607 109.897 70.872C109.92 70.8833 109.946 70.8886 109.973 70.8875C109.984 70.8843 109.995 70.8836 110.007 70.8853C110.018 70.887 110.029 70.8911 110.038 70.8974C110.048 70.9037 110.056 70.912 110.062 70.9217C110.068 70.9314 110.072 70.9423 110.074 70.9537C110.076 70.9651 110.075 70.9767 110.071 70.9877C110.068 70.9987 110.062 71.0089 110.055 71.0175C110.047 71.0261 110.038 71.0331 110.027 71.0378C110.017 71.0425 110.006 71.0449 109.994 71.0448L109.96 71.0356Z" fill="#A6A6A6"/>
<path d="M110.929 71.0356C110.882 71.0334 110.837 71.0216 110.795 71.0009C110.753 70.9802 110.716 70.951 110.685 70.9152C110.626 70.8347 110.588 70.7397 110.577 70.6401C110.566 70.5404 110.581 70.4395 110.621 70.3475C110.707 70.0606 110.929 69.9403 111.08 69.9711C111.232 70.002 111.343 70.1223 111.318 70.4C111.316 70.4207 111.307 70.44 111.291 70.4538C111.276 70.4676 111.255 70.4749 111.235 70.474C111.214 70.4717 111.194 70.4615 111.181 70.4454C111.167 70.4294 111.16 70.4087 111.161 70.3876C111.161 70.2426 111.13 70.1439 111.05 70.1285C110.969 70.113 110.83 70.1963 110.772 70.3938C110.743 70.4602 110.731 70.5327 110.737 70.6048C110.743 70.677 110.766 70.7465 110.806 70.8073C110.821 70.8283 110.841 70.8452 110.864 70.8566C110.887 70.8679 110.913 70.8732 110.938 70.872C110.95 70.8689 110.961 70.8681 110.972 70.8699C110.984 70.8716 110.995 70.8757 111.004 70.882C111.014 70.8883 111.022 70.8966 111.028 70.9063C111.034 70.916 111.038 70.9269 111.04 70.9383C111.042 70.9497 111.041 70.9612 111.037 70.9723C111.034 70.9833 111.028 70.9934 111.021 71.0021C111.013 71.0107 111.004 71.0176 110.993 71.0223C110.983 71.0271 110.972 71.0295 110.96 71.0294L110.929 71.0356Z" fill="#A6A6A6"/>
<path d="M111.913 71.0356C111.867 71.0334 111.821 71.0216 111.779 71.0009C111.737 70.9802 111.7 70.951 111.67 70.9152C111.611 70.8346 111.575 70.7403 111.563 70.6414C111.552 70.5425 111.566 70.4424 111.605 70.3506C111.694 70.0637 111.913 69.9433 112.065 69.9742C112.216 70.005 112.327 70.1254 112.305 70.4031C112.303 70.4241 112.293 70.4434 112.277 70.4571C112.261 70.4709 112.24 70.478 112.219 70.4771C112.198 70.4748 112.179 70.4644 112.166 70.4483C112.153 70.4322 112.146 70.4115 112.148 70.3907C112.148 70.2457 112.117 70.147 112.037 70.1315C111.957 70.1161 111.818 70.1994 111.759 70.3969C111.73 70.463 111.717 70.5354 111.723 70.6075C111.728 70.6796 111.751 70.7493 111.79 70.8103C111.806 70.8314 111.826 70.8483 111.85 70.8596C111.873 70.8709 111.9 70.8763 111.926 70.8751C111.937 70.872 111.948 70.8712 111.96 70.873C111.971 70.8747 111.982 70.8788 111.992 70.8851C112.001 70.8914 112.009 70.8996 112.016 70.9093C112.022 70.9191 112.026 70.93 112.027 70.9414C112.029 70.9527 112.028 70.9643 112.025 70.9753C112.021 70.9864 112.016 70.9965 112.008 71.0052C112 71.0138 111.991 71.0207 111.981 71.0254C111.97 71.0301 111.959 71.0326 111.947 71.0325L111.913 71.0356Z" fill="#A6A6A6"/>
<path d="M112.891 71.0356C112.844 71.0334 112.798 71.0217 112.755 71.001C112.713 70.9803 112.675 70.9511 112.644 70.9152C112.586 70.8343 112.55 70.7399 112.54 70.641C112.529 70.5421 112.544 70.4421 112.583 70.3506C112.669 70.0637 112.891 69.9433 113.042 69.9742C113.193 70.005 113.305 70.1254 113.28 70.4031C113.282 70.4147 113.282 70.4267 113.279 70.4382C113.276 70.4497 113.271 70.4604 113.263 70.4696C113.256 70.4788 113.246 70.4862 113.235 70.4912C113.225 70.4963 113.213 70.4989 113.201 70.4989C113.189 70.4989 113.178 70.4963 113.167 70.4912C113.156 70.4862 113.147 70.4788 113.139 70.4696C113.132 70.4604 113.126 70.4497 113.123 70.4382C113.12 70.4267 113.12 70.4147 113.122 70.4031C113.122 70.258 113.092 70.1593 113.011 70.1439C112.931 70.1285 112.792 70.2118 112.734 70.4092C112.704 70.4753 112.692 70.5477 112.697 70.6198C112.703 70.692 112.726 70.7617 112.765 70.8227C112.78 70.8436 112.801 70.8603 112.825 70.8716C112.848 70.8829 112.874 70.8883 112.9 70.8875C112.911 70.8843 112.923 70.8836 112.934 70.8853C112.946 70.887 112.957 70.8911 112.966 70.8974C112.976 70.9037 112.984 70.912 112.99 70.9217C112.996 70.9314 113 70.9423 113.002 70.9537C113.003 70.9651 113.003 70.9767 112.999 70.9877C112.996 70.9987 112.99 71.0089 112.983 71.0175C112.975 71.0261 112.966 71.0331 112.955 71.0378C112.945 71.0425 112.933 71.0449 112.922 71.0448L112.891 71.0356Z" fill="#A6A6A6"/>
<path d="M113.867 71.0356C113.82 71.0334 113.774 71.0216 113.732 71.0009C113.69 70.9802 113.653 70.951 113.623 70.9152C113.564 70.8346 113.528 70.7403 113.516 70.6414C113.505 70.5425 113.519 70.4424 113.558 70.3506C113.644 70.0637 113.867 69.9433 114.018 69.9742C114.169 70.005 114.28 70.1254 114.258 70.4031C114.256 70.4241 114.246 70.4434 114.23 70.4571C114.214 70.4709 114.193 70.478 114.172 70.4771C114.162 70.4764 114.151 70.4735 114.142 70.4687C114.133 70.4639 114.125 70.4572 114.118 70.4491C114.111 70.4411 114.106 70.4317 114.103 70.4217C114.101 70.4116 114.1 70.4011 114.101 70.3907C114.101 70.2457 114.07 70.147 113.99 70.1315C113.91 70.1161 113.771 70.1994 113.709 70.3969C113.681 70.4634 113.669 70.5358 113.675 70.6078C113.681 70.6798 113.704 70.7493 113.743 70.8103C113.759 70.8314 113.779 70.8483 113.803 70.8596C113.827 70.8709 113.853 70.8763 113.879 70.8751C113.9 70.8725 113.921 70.8781 113.937 70.8908C113.954 70.9035 113.965 70.9222 113.968 70.943C113.97 70.9637 113.964 70.9844 113.952 71.0009C113.939 71.0175 113.921 71.0287 113.9 71.0325L113.867 71.0356Z" fill="#A6A6A6"/>
<path d="M114.841 71.0356C114.794 71.0334 114.749 71.0216 114.707 71.0009C114.665 70.9802 114.627 70.951 114.597 70.9152C114.539 70.8346 114.502 70.7401 114.492 70.6411C114.481 70.5421 114.496 70.442 114.536 70.3506C114.622 70.0637 114.844 69.9433 114.995 69.9742C115.146 70.005 115.258 70.1254 115.233 70.4031C115.235 70.4147 115.235 70.4267 115.232 70.4382C115.229 70.4497 115.224 70.4604 115.216 70.4696C115.209 70.4788 115.199 70.4862 115.189 70.4912C115.178 70.4963 115.166 70.4989 115.154 70.4989C115.142 70.4989 115.131 70.4963 115.12 70.4912C115.109 70.4862 115.1 70.4788 115.092 70.4696C115.085 70.4604 115.079 70.4497 115.076 70.4382C115.073 70.4267 115.073 70.4147 115.076 70.4031C115.076 70.258 115.045 70.1593 114.964 70.1439C114.884 70.1285 114.745 70.2118 114.687 70.4092C114.657 70.4753 114.645 70.5477 114.65 70.6198C114.656 70.692 114.679 70.7617 114.718 70.8227C114.733 70.8436 114.754 70.8603 114.778 70.8716C114.801 70.8829 114.827 70.8883 114.853 70.8875C114.864 70.8843 114.876 70.8836 114.887 70.8853C114.899 70.887 114.91 70.8911 114.919 70.8974C114.929 70.9037 114.937 70.912 114.943 70.9217C114.949 70.9314 114.953 70.9423 114.955 70.9537C114.956 70.9651 114.956 70.9767 114.952 70.9877C114.949 70.9987 114.943 71.0089 114.936 71.0175C114.928 71.0261 114.919 71.0331 114.908 71.0378C114.898 71.0425 114.886 71.0449 114.875 71.0448L114.841 71.0356Z" fill="#A6A6A6"/>
<path d="M115.82 71.0356C115.773 71.0334 115.727 71.0216 115.686 71.0009C115.644 70.9802 115.606 70.951 115.576 70.9152C115.517 70.835 115.48 70.7406 115.469 70.6416C115.457 70.5425 115.472 70.4422 115.511 70.3506C115.598 70.0637 115.82 69.9433 115.971 69.9742C116.122 70.005 116.233 70.1254 116.212 70.4031C116.209 70.4241 116.199 70.4434 116.183 70.4571C116.167 70.4709 116.147 70.478 116.125 70.4771C116.104 70.4748 116.085 70.4646 116.071 70.4485C116.058 70.4325 116.05 70.4118 116.051 70.3907C116.051 70.2457 116.024 70.147 115.943 70.1315C115.863 70.1161 115.724 70.1994 115.663 70.3969C115.634 70.4632 115.622 70.5357 115.628 70.6079C115.633 70.68 115.657 70.7496 115.697 70.8103C115.711 70.8314 115.731 70.8483 115.755 70.8596C115.778 70.871 115.803 70.8763 115.829 70.8751C115.85 70.8725 115.871 70.8781 115.888 70.8908C115.905 70.9035 115.916 70.9222 115.919 70.943C115.92 70.9534 115.92 70.964 115.918 70.9742C115.915 70.9844 115.91 70.994 115.904 71.0024C115.898 71.0108 115.89 71.0178 115.881 71.023C115.871 71.0281 115.861 71.0314 115.851 71.0325L115.82 71.0356Z" fill="#A6A6A6"/>
<path d="M39.5954 78.925H23.7363V79.6377H39.5954V78.925Z" fill="#37474F"/>
<path d="M31.7183 78.925H23.7363V79.6377H31.7183V78.925Z" fill="#263238"/>
<path d="M30.8606 79.6377H15.4057L13.3848 69.1411H28.8396L30.8606 79.6377Z" fill="#37474F"/>
<path d="M23.0634 74.3894C23.0765 74.5092 23.064 74.6303 23.0267 74.7448C22.9894 74.8594 22.9282 74.9647 22.847 75.0537C22.7659 75.1427 22.6667 75.2134 22.5561 75.2611C22.4455 75.3089 22.3261 75.3325 22.2056 75.3305C21.9494 75.3258 21.7038 75.2275 21.515 75.0541C21.3263 74.8808 21.2076 74.6443 21.1813 74.3894C21.1704 74.2709 21.1846 74.1514 21.223 74.0388C21.2613 73.9261 21.323 73.8228 21.4039 73.7355C21.4848 73.6482 21.5831 73.5789 21.6925 73.5321C21.802 73.4853 21.92 73.462 22.039 73.4638C22.293 73.4674 22.5371 73.5633 22.7256 73.7336C22.9141 73.9039 23.0342 74.137 23.0634 74.3894Z" fill="white"/>
<path d="M88.5114 141.929C87.8017 142.158 67.6324 141.898 66.8734 141.399C66.5648 141.216 66.4476 138.273 66.3889 134.715C66.3889 134.678 66.3889 134.641 66.3889 134.604C66.3889 133.87 66.3673 133.114 66.3643 132.349C66.3643 132.244 66.3643 132.139 66.3643 132.04L67.3362 121.565L80.8287 121.701L79.4989 132.065L79.4834 132.475L79.4001 134.635V134.857C79.4001 134.857 87.0736 138.412 87.8542 139.047C88.6348 139.683 89.2179 141.71 88.5114 141.929Z" fill="#FFC3BD"/>
<path d="M88.5114 141.929C87.8017 142.158 67.6324 141.898 66.8734 141.399C66.5648 141.216 66.4476 138.273 66.3889 134.715C66.3889 134.678 66.3889 134.641 66.3889 134.604C66.3889 133.87 66.3673 133.114 66.3643 132.349C66.3643 132.244 66.3643 132.139 66.3643 132.04L79.505 132.077L79.4896 132.488L79.4063 134.648V134.87C79.4063 134.87 87.0798 138.424 87.8604 139.06C88.641 139.695 89.2179 141.71 88.5114 141.929Z" fill="#EBEBEB"/>
<path d="M88.511 141.929C88.1469 142.046 82.6672 142.034 77.3109 141.929C76.2341 141.908 75.1511 141.883 74.1422 141.855C70.3224 141.75 67.166 141.593 66.8729 141.402C66.5798 141.21 66.4502 138.359 66.3916 134.867C66.3916 134.817 66.3916 134.768 66.3916 134.719C66.3916 134.669 66.3916 134.641 66.3916 134.604H66.407L79.4059 134.629V134.851C79.4059 134.851 87.0824 138.403 87.8599 139.038C88.6375 139.674 89.2175 141.71 88.511 141.929Z" fill="#A6A6A6"/>
<path d="M88.2923 141.152C84.8984 141.025 71.1714 140.843 67.8021 140.963C67.7743 140.963 67.7743 140.982 67.8021 140.985C71.1683 141.183 84.8922 141.266 88.2923 141.207C88.3633 141.207 88.3633 141.155 88.2923 141.152Z" fill="#263238"/>
<path d="M80.8495 134.691C79.5135 134.422 77.8751 134.608 76.8384 135.545C76.7983 135.582 76.8384 135.638 76.8971 135.626C78.1806 135.231 79.5024 134.974 80.8402 134.857C80.8623 134.859 80.884 134.851 80.9005 134.836C80.917 134.822 80.9269 134.801 80.9282 134.779C80.9294 134.757 80.9218 134.735 80.907 134.718C80.8923 134.702 80.8716 134.692 80.8495 134.691Z" fill="#263238"/>
<path d="M81.8066 135.283C80.4737 135.018 78.8322 135.2 77.7955 136.141C77.7554 136.178 77.7956 136.234 77.8511 136.221C79.1362 135.824 80.4602 135.565 81.8004 135.45C81.8189 135.446 81.8354 135.435 81.8475 135.421C81.8596 135.406 81.8665 135.388 81.8672 135.369C81.8679 135.35 81.8623 135.331 81.8514 135.316C81.8404 135.3 81.8247 135.289 81.8066 135.283Z" fill="#263238"/>
<path d="M82.7665 135.879C81.4306 135.61 79.7922 135.795 78.7555 136.736C78.7154 136.773 78.7555 136.829 78.811 136.817C80.0939 136.419 81.4159 136.161 82.7542 136.048C82.7744 136.046 82.7932 136.037 82.8074 136.023C82.8215 136.008 82.8301 135.989 82.8315 135.969C82.833 135.948 82.8273 135.928 82.8154 135.912C82.8035 135.895 82.7862 135.884 82.7665 135.879Z" fill="#263238"/>
<path d="M77.2982 141.929C76.2214 141.908 75.1384 141.883 74.1295 141.855C70.3097 141.75 67.1533 141.593 66.8602 141.402C66.5671 141.21 66.4375 138.359 66.3789 134.867C66.3789 134.817 66.3789 134.768 66.3789 134.719C66.3789 134.669 66.3789 134.641 66.3789 134.604H66.3943C68.1808 135.857 74.4565 140.035 77.2982 141.929Z" fill="#263238"/>
<path d="M80.2856 134.678H65.7594C65.7594 134.678 68.6844 100.739 68.5703 100.159C68.4252 99.3998 67.5675 95.9657 66.4259 91.4795C66.068 90.0757 65.6823 88.57 65.2812 87.0088C64.1982 82.7879 63.0042 78.1752 61.9644 74.1611C60.4032 68.1476 59.1875 63.4763 59.1875 63.4763H71.4983C71.4983 63.4763 72.933 68.0242 74.7411 73.942C77.6877 83.5593 81.6247 96.7957 82.0134 100.014C82.6398 105.213 80.2856 134.678 80.2856 134.678Z" fill="#37474F"/>
<path d="M79.6439 132.201C77.4255 132.155 78.0611 132.136 75.8426 132.114C74.7566 132.114 67.6231 132.04 66.608 132.21C66.5864 132.21 66.5864 132.25 66.608 132.256C67.6231 132.423 74.7566 132.361 75.8426 132.349C78.0611 132.33 77.4255 132.312 79.6439 132.266C79.684 132.263 79.684 132.201 79.6439 132.201Z" fill="#263238"/>
<path d="M71.3039 98.0854C70.8287 95.9842 70.116 93.9263 69.4958 91.8652C68.237 87.6773 66.9709 83.4924 65.6977 79.3106C65.0621 77.2187 64.4234 75.1268 63.7816 73.0349C63.4546 71.9797 63.1306 70.9245 62.8005 69.8724C62.4703 68.8202 62.1093 67.8175 61.8193 66.7869C61.699 66.3642 61.6342 66.5957 61.7854 67.1325C62.0939 68.2186 62.4025 69.2923 62.711 70.3815C63.3281 72.5227 63.9575 74.662 64.5993 76.7991C65.8581 81.057 67.1283 85.3097 68.4098 89.5573L70.3351 95.9565C70.662 96.9678 70.9269 97.9982 71.128 99.0419C71.2991 100.136 71.3426 101.246 71.2576 102.349C71.1188 104.574 70.8596 106.792 70.6559 109.011C70.4523 111.229 70.2425 113.454 70.0389 115.675C69.6275 120.098 69.2212 124.52 68.8201 128.943C68.7708 129.501 68.7214 130.063 68.6782 130.624C68.6782 130.812 68.9466 130.797 68.9682 130.624C69.4465 126.252 69.8136 121.865 70.224 117.483C70.6343 113.102 71.0416 108.77 71.4582 104.411C71.56 103.318 71.6741 102.223 71.6772 101.121C71.6671 100.099 71.5419 99.0802 71.3039 98.0854Z" fill="#263238"/>
<path d="M70.0977 63.4763C69.243 70.0883 67.6139 82.4855 66.426 91.4795C63.6492 80.5818 59.1846 63.4763 59.1846 63.4763H70.0977Z" fill="#263238"/>
<path d="M73.1216 142.13C72.415 142.361 52.2457 142.173 51.4836 141.679C51.175 141.494 51.0454 138.554 50.9745 134.996C50.9745 134.959 50.9745 134.922 50.9745 134.885C50.9745 134.151 50.9467 133.398 50.9436 132.633C50.9436 132.525 50.9436 132.42 50.9436 132.324C50.8973 127.19 51.2522 121.862 51.2522 121.862L64.4361 121.948L64.069 132.315V132.725L63.9949 134.87V135.092C63.9949 135.092 71.6838 138.615 72.4644 139.251C73.245 139.887 73.8282 141.905 73.1216 142.13Z" fill="#FFC3BD"/>
<path d="M73.1213 142.13C72.4148 142.361 52.2454 142.173 51.4833 141.679C51.1748 141.494 51.0452 138.554 50.9742 134.996C50.9742 134.959 50.9742 134.922 50.9742 134.885C50.9742 134.151 50.9464 133.398 50.9434 132.633C50.9434 132.525 50.9434 132.42 50.9434 132.324H64.0842V132.735L64.0101 134.879V135.101C64.0101 135.101 71.699 138.625 72.4796 139.26C73.2602 139.896 73.8279 141.905 73.1213 142.13Z" fill="#EBEBEB"/>
<path d="M73.1208 142.13C72.4142 142.361 52.2448 142.173 51.4827 141.679C51.1742 141.494 51.0446 138.554 50.9736 134.996C50.9736 134.959 50.9736 134.922 50.9736 134.885L63.9879 134.861V135.083C63.9879 135.083 71.6768 138.606 72.4574 139.242C73.238 139.877 73.8273 141.905 73.1208 142.13Z" fill="#A6A6A6"/>
<path d="M72.9017 141.346C69.5077 141.232 55.7807 141.087 52.4115 141.232C52.3837 141.232 52.3837 141.253 52.4115 141.253C55.7776 141.442 69.4985 141.473 72.9017 141.402C72.9788 141.402 72.9788 141.349 72.9017 141.346Z" fill="#263238"/>
<path d="M65.4355 134.913C64.0995 134.651 62.4612 134.839 61.4245 135.783C61.3843 135.82 61.4244 135.876 61.48 135.863C62.7616 135.462 64.0825 135.199 65.4201 135.08C65.4422 135.082 65.4642 135.075 65.4812 135.061C65.4983 135.046 65.509 135.026 65.5111 135.004C65.5131 134.982 65.5063 134.96 65.4921 134.943C65.478 134.926 65.4576 134.915 65.4355 134.913Z" fill="#263238"/>
<path d="M66.3945 135.502C65.0585 135.24 63.4201 135.431 62.3834 136.375C62.3433 136.412 62.3834 136.468 62.439 136.453C63.722 136.054 65.0438 135.792 66.3821 135.672C66.4023 135.67 66.4212 135.661 66.4353 135.646C66.4494 135.632 66.458 135.613 66.4595 135.592C66.4609 135.572 66.4552 135.552 66.4434 135.535C66.4315 135.519 66.4142 135.507 66.3945 135.502Z" fill="#263238"/>
<path d="M67.3544 136.095C66.0185 135.832 64.3801 136.021 63.3434 136.965C63.3033 137.002 63.3434 137.057 63.3989 137.045C64.6813 136.643 66.0034 136.382 67.3421 136.264C67.3623 136.262 67.3811 136.253 67.3953 136.239C67.4094 136.224 67.418 136.205 67.4194 136.185C67.4209 136.164 67.4152 136.144 67.4033 136.128C67.3914 136.111 67.3741 136.1 67.3544 136.095Z" fill="#263238"/>
<path d="M71.0975 63.4763C71.0975 63.4763 70.8136 69.3664 69.4653 74.0315C69.3573 74.4172 69.2401 74.7967 69.1136 75.1608C67.8778 75.6594 66.6902 76.2698 65.5654 76.9842C65.5654 76.9842 65.4234 81.7234 65.2815 87.0088C65.1241 92.9173 64.973 99.5078 64.9946 100.893C65.118 106.138 64.3404 134.891 64.3404 134.891L49.8174 134.95C49.8174 134.95 52.4431 102.837 52.4246 100.921C52.3968 97.8355 53.128 84.2319 53.6927 74.3061C54.0382 68.1908 54.3098 63.4763 54.3098 63.4763H71.0975Z" fill="#37474F"/>
<path d="M63.8426 132.309C61.6242 132.272 62.2598 132.25 60.0414 132.238C58.9553 132.238 51.8219 132.201 50.8068 132.374C50.801 132.374 50.7955 132.376 50.7915 132.38C50.7874 132.384 50.7852 132.39 50.7852 132.395C50.7852 132.401 50.7874 132.406 50.7915 132.411C50.7955 132.415 50.801 132.417 50.8068 132.417C51.8219 132.583 58.9584 132.491 60.0445 132.475C62.2629 132.445 61.6242 132.429 63.8426 132.374C63.8828 132.364 63.8828 132.309 63.8426 132.309Z" fill="#263238"/>
<path d="M55.5433 65.5805C55.2749 73.6829 54.991 81.7882 54.6177 89.8844C54.2444 97.9805 53.763 106.135 53.075 114.244C52.6955 118.773 52.3376 125.145 51.8408 129.671C51.8408 129.702 51.884 129.714 51.8871 129.671C52.9454 121.649 53.5347 111.695 54.0469 103.605C54.5591 95.5153 54.9201 87.416 55.1947 79.3168C55.3489 74.7381 55.4693 70.1531 55.6081 65.5713C55.6451 65.5096 55.5433 65.5158 55.5433 65.5805Z" fill="#263238"/>
<path d="M69.7179 74.809C68.2737 75.4074 66.8841 76.13 65.5649 76.9688C65.5125 76.9997 65.5649 77.083 65.6081 77.0552C67.0089 76.3733 68.4405 75.7192 69.8012 74.9602C69.8132 74.9459 69.8206 74.9283 69.8224 74.9097C69.8242 74.8911 69.8203 74.8725 69.8113 74.8561C69.8023 74.8398 69.7886 74.8265 69.7719 74.8181C69.7552 74.8097 69.7364 74.8065 69.7179 74.809Z" fill="#263238"/>
<path d="M74.738 73.942L69.465 74.0315L61.9644 74.1611L53.6924 74.3061C54.0379 68.1908 54.3095 63.4763 54.3095 63.4763H71.4829C71.4829 63.4763 72.93 68.0242 74.738 73.942Z" fill="#263238"/>
<path d="M82.6305 33.8316L80.5448 42.9583C80.4553 43.2236 80.5941 43.4396 80.8533 43.4334L85.5339 43.3285C85.6765 43.3147 85.8122 43.2607 85.9253 43.1728C86.0384 43.0848 86.1241 42.9666 86.1726 42.8318L88.2583 33.7082C88.3509 33.4397 88.212 33.2269 87.9498 33.2299L83.2692 33.3348C83.1268 33.3493 82.9914 33.4036 82.8785 33.4915C82.7655 33.5793 82.6796 33.6972 82.6305 33.8316Z" fill="#A6A6A6"/>
<path d="M83.1883 33.8131L81.0994 42.9398C81.01 43.2082 81.1488 43.4211 81.408 43.4149L86.0886 43.3131C86.2311 43.2993 86.3669 43.2453 86.48 43.1574C86.593 43.0694 86.6788 42.9511 86.7272 42.8163L88.813 33.6897C88.9055 33.4212 88.7667 33.2083 88.5044 33.2145L83.8239 33.3163C83.6818 33.3307 83.5467 33.3849 83.4343 33.4728C83.3218 33.5608 83.2365 33.6787 83.1883 33.8131Z" fill="#DBDBDB"/>
<path d="M84.0836 34.5999C84.3034 34.5999 84.4816 34.4217 84.4816 34.2019C84.4816 33.982 84.3034 33.8038 84.0836 33.8038C83.8637 33.8038 83.6855 33.982 83.6855 34.2019C83.6855 34.4217 83.8637 34.5999 84.0836 34.5999Z" fill="#455A64"/>
<path d="M67.8419 47.9073C70.5663 53.5135 76.6138 60.7673 79.0759 60.7642C80.2484 60.7642 82.3434 61.0172 83.8614 59.6504C87.1782 56.6699 89.9057 51.0112 90.4364 47.7931C90.6246 46.6453 85.0277 44.2418 84.2162 45.1829C82.3218 47.3889 80.1435 51.6993 79.801 51.6777C78.5391 51.6005 73.5592 47.5617 70.0819 44.717C65.858 41.2644 66.7559 45.6642 67.8419 47.9073Z" fill="#FFC3BD"/>
<path d="M90.4952 41.8784C89.8781 39.5643 89.3628 39.0676 89.8781 36.8368C90.2175 35.3712 89.4276 34.5289 88.4064 35.7137C86.7402 37.6514 86.913 40.8047 87.2895 41.8846L90.4952 41.8784Z" fill="#FFC3BD"/>
<path d="M90.1766 48.7928C90.1766 48.7928 91.1701 45.5439 90.7536 43.0107C90.4666 41.2613 89.4145 37.5218 84.4779 35.6057C83.3085 35.1522 81.3153 35.3342 82.9598 36.772C84.1261 37.7933 85.1752 38.0864 85.7367 38.8022C85.7367 38.8022 83.2314 39.336 82.8241 40.527C82.4652 41.5687 82.1816 42.6349 81.9756 43.7173C82.1655 43.7992 82.3602 43.8692 82.5587 43.9271C82.5587 43.9271 82.2101 45.0564 83.0616 46.6361L90.1766 48.7928Z" fill="#FFC3BD"/>
<path d="M90.2144 41.3847C89.4955 40.7923 87.9559 39.5612 86.3453 38.9966C84.5558 38.3795 80.9428 37.6328 80.483 38.9596C80.1529 39.9315 81.5105 40.3295 81.5105 40.3295C81.5105 40.3295 79.9523 40.3295 79.8443 41.286C79.7456 42.1468 80.8132 42.3936 80.8132 42.3936C80.8132 42.3936 79.869 42.5633 79.9369 43.4087C80.014 44.4269 81.9794 43.9024 82.9483 44.8651C83.1612 45.081 90.2144 41.3847 90.2144 41.3847Z" fill="#FFC3BD"/>
<path d="M85.9936 40.9959C84.6154 40.3184 83.0633 40.0773 81.5445 40.3048C81.5074 40.3048 81.492 40.3449 81.529 40.3449C83.0379 40.3863 84.5361 40.6111 85.9906 41.0145C85.9906 41.0145 86.0029 41.0021 85.9936 40.9959Z" fill="#263238"/>
<path d="M85.3212 42.7824C84.6208 42.4739 82.5443 41.974 80.8381 42.3597C80.801 42.3597 80.7887 42.3998 80.8226 42.3998C82.3315 42.3629 83.8396 42.4975 85.3181 42.8009C85.3181 42.8009 85.3212 42.7886 85.3212 42.7824Z" fill="#263238"/>
<path d="M90.5193 50.1473C90.5193 50.1473 86.0701 59.2092 83.4228 60.286C80.7756 61.3628 79.1958 61.1499 78.2085 61.0141C77.8271 60.9294 77.4689 60.762 77.1594 60.5235C74.4628 58.6507 69.594 51.9646 67.5947 48.1973C66.1013 45.3649 66.2309 42.7824 68.4493 43.5692C69.1997 43.8794 69.8939 44.311 70.5042 44.8465C74.6078 48.1973 79.3624 51.3784 79.5846 51.258C79.8067 51.1377 82.0961 47.4105 82.0961 47.4105L90.5193 50.1473Z" fill="#37474F"/>
<path d="M77.1721 60.5235C74.4755 58.6507 69.6067 51.9646 67.6073 48.1973C66.114 45.3649 66.2436 42.7824 68.462 43.5692C69.6283 45.8092 74.6791 55.5375 77.1721 60.5235Z" fill="#263238"/>
<path d="M89.4118 51.8011C89.1032 51.6376 88.7731 51.5326 88.4553 51.3969C88.1375 51.2611 87.8135 51.1408 87.4896 51.0174C86.8725 50.787 86.2441 50.5618 85.6044 50.3417L83.7161 49.6752C83.0651 49.45 82.411 49.1877 81.7445 49.0149C81.7417 49.0139 81.7387 49.0135 81.7357 49.0136C81.7327 49.0138 81.7297 49.0145 81.727 49.0158C81.7243 49.0171 81.7218 49.0189 81.7198 49.0212C81.7178 49.0234 81.7162 49.026 81.7152 49.0288C81.7142 49.0317 81.7137 49.0347 81.7139 49.0377C81.714 49.0407 81.7148 49.0436 81.7161 49.0464C81.7174 49.0491 81.7192 49.0515 81.7214 49.0535C81.7236 49.0556 81.7262 49.0571 81.7291 49.0581C82.3462 49.3667 83.0188 49.5703 83.6636 49.8141L85.5704 50.533C86.206 50.7705 86.8447 51.005 87.4865 51.2303C87.795 51.3414 88.1036 51.4493 88.4368 51.5388C88.7534 51.6533 89.0757 51.7511 89.4025 51.8319C89.4303 51.8504 89.4334 51.8134 89.4118 51.8011Z" fill="#263238"/>
<path d="M73.5782 68.6042C73.2449 68.9344 52.7763 67.8514 52.6775 67.7187C52.4091 67.3577 58.4874 46.3738 63.2883 42.9274C64.3188 42.1869 68.1077 42.5109 68.6168 42.7423C69.1938 43.0015 70.7118 45.9172 71.3474 48.259C72.6186 52.9488 73.8682 68.3142 73.5782 68.6042Z" fill="#EBEBEB"/>
<path d="M66.7217 47.5494L67.7615 45.9203L68.9123 47.3241L68.5421 48.6416L67.3233 48.7311L66.7217 47.5494Z" fill="#CE9E41"/>
<path d="M67.3233 48.7311L66.0059 62.2977L68.3107 66.935L69.9089 61.9459L68.5421 48.6416L67.3233 48.7311Z" fill="#CE9E41"/>
<path d="M75.2966 73.3188C75.2966 73.3188 72.5999 73.183 68.9931 72.9886C68.7555 71.7082 68.2526 68.5827 68.2001 68.5827C68.16 68.6505 67.1573 71.6681 66.8302 72.8745C63.3283 72.6801 59.3635 72.4579 56.2411 72.2574C53.1186 72.0568 50.7922 71.8748 50.6719 71.7791C50.5515 71.6835 52.3226 67.5058 52.5231 66.8888C54.0658 62.0076 56.8026 52.3163 58.876 48.7187C59.7953 47.0795 60.85 45.5201 62.0293 44.0567C62.1496 43.9178 62.2576 43.7882 62.3625 43.671L63.1061 42.8256L68.6599 54.4298C68.6784 54.2077 69.4189 43.7111 69.4189 43.7111C70.9898 46.2658 72.136 49.0584 72.8128 51.98C74.047 57.4597 73.9514 65.4108 74.2661 69.2121C74.2692 69.2121 75.2966 73.2416 75.2966 73.3188Z" fill="#37474F"/>
<path d="M62.0262 44.0567L56.2411 72.2574C53.0908 72.0507 50.7922 71.8748 50.6719 71.7791C50.5515 71.6835 52.3226 67.5058 52.5231 66.8888C54.0658 62.0076 56.8026 52.3163 58.876 48.7187C59.7943 47.0796 60.848 45.5202 62.0262 44.0567Z" fill="#263238"/>
<path d="M68.6597 54.4298C68.6875 55.6116 68.6782 56.7902 68.6597 57.9719C68.6412 59.1536 68.6073 60.3322 68.5826 61.5109C68.5579 62.6895 68.4962 63.8681 68.4345 65.0468L68.3358 66.8147C68.2895 67.404 68.2555 67.9933 68.2031 68.5826C68.1846 67.9902 68.2031 67.4009 68.1846 66.8116V65.0406C68.1846 63.8589 68.237 62.6802 68.2617 61.5016C68.2864 60.323 68.3481 59.1444 68.4098 57.9657C68.4715 56.7871 68.5486 55.6085 68.6597 54.4298Z" fill="#263238"/>
<path d="M67.311 59.1752C67.6365 59.1752 67.9003 58.9114 67.9003 58.5859C67.9003 58.2604 67.6365 57.9966 67.311 57.9966C66.9855 57.9966 66.7217 58.2604 66.7217 58.5859C66.7217 58.9114 66.9855 59.1752 67.311 59.1752Z" fill="#263238"/>
<path d="M67.1079 62.5106C67.4333 62.5106 67.6972 62.2467 67.6972 61.9212C67.6972 61.5958 67.4333 61.3319 67.1079 61.3319C66.7824 61.3319 66.5186 61.5958 66.5186 61.9212C66.5186 62.2467 66.7824 62.5106 67.1079 62.5106Z" fill="#263238"/>
<path d="M66.9038 65.8428C67.2292 65.8428 67.4931 65.579 67.4931 65.2535C67.4931 64.928 67.2292 64.6642 66.9038 64.6642C66.5783 64.6642 66.3145 64.928 66.3145 65.2535C66.3145 65.579 66.5783 65.8428 66.9038 65.8428Z" fill="#263238"/>
<path d="M62.6859 85.1791H36.2871V101.174H62.6859V85.1791Z" fill="#CE9E41"/>
<path opacity="0.1" d="M62.6859 85.1791H36.2871V92.7106H62.6859V85.1791Z" fill="black"/>
<path d="M63.3125 82.828H35.6641V90.2917H63.3125V82.828Z" fill="#CE9E41"/>
<path d="M55.3092 78.5702V82.828H53.3068V80.406H45.6704V82.828H43.668V78.5702H55.3092Z" fill="#263238"/>
<path d="M41.2609 88.5114H39.459V92.0781H41.2609V88.5114Z" fill="#263238"/>
<path d="M59.5177 88.5114H57.7158V92.0781H59.5177V88.5114Z" fill="#263238"/>
<path d="M60.6034 44.6491C53.979 49.2062 49.1874 56.3459 48.7369 57.8547C47.6231 61.5047 45.96 67.944 45.704 70.835C45.6083 71.9026 53.8464 71.702 53.9852 70.5635C54.4141 66.9968 55.9475 59.2338 55.9876 59.1012C56.2622 58.1755 58.5979 54.0966 61.0014 49.6752C63.405 45.2538 63.3896 42.733 60.6034 44.6491Z" fill="#FFC3BD"/>
<path d="M53.3284 81.8284C53.0783 81.9033 52.8113 81.9 52.5631 81.819C52.315 81.7379 52.0975 81.5829 51.9399 81.3748C51.6597 81.7166 51.2691 81.9501 50.8354 82.0351C50.0609 82.1492 49.5457 80.986 49.5457 80.986C49.1805 81.2804 48.7356 81.4587 48.2683 81.4982C47.5154 81.5291 46.8305 80.4307 46.8305 80.4307C46.3446 80.5152 45.8445 80.4233 45.4204 80.1715C44.7108 79.7118 44.3591 77.4409 44.3714 76.1604C44.3837 74.88 45.6056 71.267 45.7784 70.5542H53.9856C53.9856 70.5542 55.5622 76.3024 55.3339 77.805C55.1426 79.0793 54.2725 81.5075 53.3284 81.8284Z" fill="#FFC3BD"/>
<path d="M52.0726 81.3193C52.6002 80.0234 52.7144 78.6411 52.9057 77.2712C52.9057 77.2403 52.8625 77.2342 52.8594 77.2712C52.6835 78.6349 52.2423 79.9493 52.0078 81.3069C52.0082 81.3145 52.0111 81.3218 52.0161 81.3275C52.0211 81.3332 52.0279 81.3371 52.0354 81.3385C52.0428 81.34 52.0506 81.3388 52.0573 81.3353C52.0641 81.3318 52.0695 81.3262 52.0726 81.3193Z" fill="#263238"/>
<path d="M49.6537 80.9583C49.7456 80.6527 49.7965 80.3362 49.8048 80.0172C49.8316 79.6819 49.8563 79.3456 49.8789 79.0083C49.9159 78.3336 49.9365 77.6569 49.9406 76.9781C49.9406 76.9503 49.8974 76.9411 49.8943 76.9781C49.8542 77.6507 49.8048 78.3233 49.737 78.9959C49.703 79.3323 49.666 79.6655 49.629 80.0018C49.571 80.315 49.5482 80.6338 49.5611 80.9521C49.5639 80.9618 49.5697 80.9704 49.5776 80.9768C49.5855 80.9831 49.5951 80.9869 49.6052 80.9876C49.6153 80.9882 49.6254 80.9858 49.6341 80.9806C49.6427 80.9753 49.6496 80.9675 49.6537 80.9583Z" fill="#263238"/>
<path d="M46.8301 80.4029C46.9107 80.1256 46.942 79.8363 46.9227 79.5482C46.9227 79.2397 46.935 78.9312 46.9597 78.6226C46.9875 78.0055 47.0183 77.3884 47.0677 76.7714C47.0659 76.7666 47.0628 76.7626 47.0586 76.7597C47.0545 76.7568 47.0496 76.7553 47.0445 76.7553C47.0395 76.7553 47.0346 76.7568 47.0304 76.7597C47.0263 76.7626 47.0231 76.7666 47.0214 76.7714C46.9659 77.3884 46.9042 78.0055 46.8548 78.6442C46.8301 78.9527 46.8085 79.2613 46.7869 79.5698C46.739 79.8475 46.739 80.1314 46.7869 80.4091C46.7869 80.4091 46.827 80.4152 46.8301 80.4029Z" fill="#263238"/>
<path d="M54.3773 70.6561L45.374 69.931C45.374 69.931 47.3579 60.2335 48.4317 57.614C49.5054 54.9945 56.3365 47.3303 60.3537 44.5257C64.1334 41.8907 64.0161 44.3189 62.2605 47.7715C60.5049 51.2241 56.3735 59.1197 56.1761 59.7429C55.9786 60.3662 54.3773 70.6561 54.3773 70.6561Z" fill="#37474F"/>
<path d="M54.2169 68.8048C53.8806 68.7277 53.5289 68.7153 53.1895 68.6691C52.8501 68.6228 52.5015 68.5888 52.1559 68.558C51.4925 68.4963 50.8261 68.4469 50.1596 68.4006L48.1634 68.2618C47.4784 68.2155 46.778 68.1353 46.09 68.1445C46.0591 68.1445 46.0529 68.1877 46.09 68.1908C46.7688 68.3111 47.4691 68.3451 48.1572 68.4099L50.1843 68.6012C50.8631 68.6629 51.5388 68.7215 52.2176 68.7678C52.5508 68.7925 52.884 68.8141 53.2173 68.8233C53.5505 68.8326 53.8899 68.8727 54.2262 68.8511C54.2478 68.8418 54.2416 68.8048 54.2169 68.8048Z" fill="#263238"/>
<path d="M63.0443 42.9367C62.853 43.5538 62.6463 44.1924 62.4488 44.8188C62.2514 45.4451 62.0323 46.0684 61.8318 46.6947L61.7423 46.5466C62.2113 46.5991 62.6679 46.6392 63.1461 46.6978L64.55 46.8582L64.7876 46.886L64.6457 47.0835C64.0502 47.9073 63.4609 48.7373 62.8469 49.5518L62.8222 49.3543C63.8033 50.1905 64.7968 51.0143 65.7626 51.8659C66.7283 52.7174 67.7064 53.5598 68.6598 54.4299C67.6313 53.6441 66.6203 52.844 65.6268 52.0294C64.6148 51.2272 63.6306 50.3972 62.634 49.5796L62.5291 49.4932L62.6093 49.379C63.2017 48.549 63.8126 47.7345 64.4204 46.9107L64.5161 47.1328L63.106 46.9601C62.637 46.9045 62.1804 46.8305 61.7053 46.7688L61.5664 46.7472L61.6158 46.6207C61.8503 46.0036 62.0786 45.3865 62.3162 44.7694C62.5537 44.1523 62.7975 43.5445 63.0443 42.9367Z" fill="#263238"/>
<path d="M69.2767 43.4365C69.4341 43.7173 69.5853 43.9981 69.7334 44.2819C69.8815 44.5658 70.0419 44.8435 70.1808 45.1304L71.0539 46.8397L71.1557 47.0403H70.9274L69.5452 46.9724L69.6655 46.7256C70.1561 47.284 70.6467 47.8394 71.128 48.4009L71.1866 48.4719L71.1527 48.5583C70.7577 49.5456 70.3535 50.533 69.9339 51.511C69.5143 52.4891 69.0947 53.4734 68.6504 54.4422C68.996 53.4322 69.357 52.4284 69.7334 51.4308C70.1098 50.4332 70.4903 49.4387 70.875 48.4472L70.8997 48.6015C70.4091 48.0461 69.9278 47.4815 69.4433 46.9199L69.2089 46.6484L69.5637 46.6762L70.9429 46.778L70.8164 46.9662L70.0327 45.2137C69.9 44.9237 69.7766 44.6275 69.6501 44.3344C69.5236 44.0413 69.3971 43.7327 69.2767 43.4365Z" fill="#263238"/>
<path d="M68.0429 45.4914C66.9321 45.8246 64.8958 44.2171 64.0473 42.8657C63.9917 42.7701 64.0781 41.755 64.1275 40.5115C64.1522 39.7587 64.1645 38.9195 64.1275 38.1512C64.1275 37.9938 64.6705 38.253 64.6705 38.253L65.6764 38.4351L69.0055 39.0521C68.7887 40.0282 68.6913 41.0269 68.7155 42.0265C68.7231 42.1308 68.7407 42.2341 68.768 42.335C68.767 42.3525 68.767 42.37 68.768 42.3875C68.913 42.9675 69.129 45.1705 68.0429 45.4914Z" fill="#FFC3BD"/>
<path d="M68.7701 42.3227C68.7692 42.3401 68.7692 42.3576 68.7701 42.3751C68.6074 42.4074 68.4423 42.4259 68.2765 42.4307C65.0337 42.5479 64.3857 38.4536 64.3857 38.4536L65.6693 38.435L68.9984 39.0521C68.7816 40.0282 68.6843 41.0269 68.7084 42.0265C68.7198 42.1269 68.7405 42.226 68.7701 42.3227Z" fill="#263238"/>
<path d="M63.1238 32.5141C62.7196 34.2543 63.9569 39.1169 65.2435 40.132C67.0947 41.6038 69.9981 41.5606 71.2045 39.3545C72.377 37.2163 70.6522 30.9097 69.2299 30.0026C67.1349 28.6697 63.7224 29.944 63.1238 32.5141Z" fill="#FFC3BD"/>
<path d="M68.0425 35.2046C68.0425 35.2046 68.0209 35.2262 68.024 35.2416C68.1165 35.5502 68.1659 35.9544 67.8975 36.1364C67.8975 36.1364 67.8975 36.158 67.8975 36.1549C68.2492 36.013 68.1782 35.4977 68.0425 35.2046Z" fill="#263238"/>
<path d="M67.6598 34.9362C67.1229 35.0257 67.3512 36.0963 67.8418 36.0099C68.3324 35.9235 68.1102 34.8652 67.6598 34.9362Z" fill="#263238"/>
<path d="M69.8936 34.8282C69.8936 34.8282 69.9213 34.8282 69.9244 34.8529C69.983 35.1861 70.1065 35.5594 70.4273 35.6057V35.6242C70.054 35.6489 69.8936 35.1552 69.8936 34.8282Z" fill="#263238"/>
<path d="M70.1162 34.424C70.6408 34.2728 70.903 35.3311 70.4248 35.47C69.9465 35.6088 69.6781 34.5567 70.1162 34.424Z" fill="#263238"/>
<path d="M67.1386 34.5351C67.2744 34.4672 67.3916 34.3839 67.5212 34.3037C67.6508 34.2234 67.7927 34.1556 67.8668 33.9951C67.8826 33.9469 67.8821 33.8947 67.8654 33.8468C67.8486 33.7988 67.8166 33.7577 67.7742 33.7298C67.6815 33.6874 67.5792 33.6705 67.4778 33.6808C67.3764 33.6911 67.2795 33.7283 67.1972 33.7884C67.0163 33.8896 66.8782 34.0529 66.8085 34.2481C66.798 34.292 66.7998 34.3378 66.8136 34.3807C66.8274 34.4236 66.8527 34.462 66.8867 34.4915C66.9207 34.5211 66.9621 34.5408 67.0066 34.5485C67.051 34.5561 67.0966 34.5515 67.1386 34.5351Z" fill="#263238"/>
<path d="M70.4184 33.7977C70.2689 33.7998 70.1195 33.7926 69.971 33.7761C69.812 33.791 69.6526 33.753 69.5174 33.6681C69.4803 33.6332 69.4559 33.587 69.448 33.5367C69.4402 33.4863 69.4494 33.4349 69.4742 33.3904C69.5358 33.3089 69.6181 33.2454 69.7125 33.2063C69.8068 33.1673 69.9099 33.1541 70.0111 33.1682C70.2198 33.1654 70.4221 33.2402 70.5788 33.378C70.612 33.4118 70.6349 33.4543 70.6446 33.5007C70.6543 33.547 70.6505 33.5952 70.6335 33.6394C70.6166 33.6837 70.5873 33.7221 70.5492 33.7502C70.511 33.7782 70.4656 33.7947 70.4184 33.7977Z" fill="#263238"/>
<path d="M62.8131 31.9588C63.3746 29.3886 67.4412 28.8271 68.6322 29.4688C69.2929 29.822 69.8068 30.3982 70.0823 31.0948C70.0823 31.0948 69.7398 30.4963 69.3048 30.558C68.8697 30.6197 68.953 31.1751 68.3977 31.4651C67.8423 31.7551 66.9938 31.2152 66.0188 31.5145C65.0438 31.8137 64.6705 32.7209 64.6427 33.5508C64.6149 34.3808 64.9513 37.4261 64.2941 37.676C63.6369 37.926 62.3595 34.0383 62.8131 31.9588Z" fill="#263238"/>
<path d="M64.451 36.4542C64.451 36.4542 63.1983 34.964 62.5103 35.4237C61.8222 35.8834 62.8651 38.1142 63.7444 38.3548C63.8545 38.3936 63.9713 38.4096 64.0877 38.402C64.2042 38.3944 64.3179 38.3633 64.422 38.3105C64.5261 38.2578 64.6184 38.1844 64.6934 38.095C64.7684 38.0056 64.8244 37.9019 64.8583 37.7902L64.451 36.4542Z" fill="#FFC3BD"/>
<path d="M62.8252 36.0562C62.8252 36.0562 62.8098 36.0747 62.8252 36.0809C63.4423 36.266 63.8033 36.7905 64.0594 37.3428C64.0199 37.2862 63.9686 37.2389 63.9089 37.2041C63.8493 37.1693 63.7828 37.148 63.7141 37.1415C63.6454 37.1351 63.5761 37.1437 63.5111 37.1667C63.446 37.1897 63.3867 37.2267 63.3374 37.2749C63.322 37.2749 63.3374 37.3119 63.3559 37.3058C63.4572 37.2637 63.569 37.2539 63.6761 37.2776C63.7832 37.3013 63.8804 37.3575 63.9545 37.4384C64.0738 37.5755 64.1773 37.7256 64.263 37.8858C64.297 37.9352 64.3895 37.8858 64.3648 37.8396C64.3402 37.0682 63.6459 36.0593 62.8252 36.0562Z" fill="#263238"/>
<path d="M68.8144 42.5078L67.6111 45.405L64.032 41.6809L62.9922 42.8503C62.9922 42.8503 66.4695 48.7496 66.5003 48.4812L67.7345 45.9851L69.4469 47.7499L69.3574 43.3655L68.8144 42.5078Z" fill="#EBEBEB"/>
<path d="M69.5114 45.5809C69.4744 44.8558 69.4559 44.1276 69.3818 43.4211C69.3818 43.3964 69.3386 43.3841 69.3325 43.4211C69.1782 44.1184 69.3325 46.886 69.3325 47.5494C69.2615 47.4722 67.7435 46.0067 67.728 46.0067C67.4627 46.4016 66.5617 48.2189 66.4939 48.3855C65.9447 47.4599 63.8373 44.0443 63.1863 43.1557C63.1678 43.131 63.1277 43.1557 63.1431 43.1804C63.6244 44.1677 66.4106 48.7527 66.4568 48.7342C66.9293 47.8773 67.3578 46.9968 67.7404 46.0961C67.9965 46.4047 69.5268 48.0831 69.533 47.9752C69.568 47.1772 69.5608 46.378 69.5114 45.5809Z" fill="#263238"/>
<path d="M7.34435 98.7087C8.49212 97.5856 9.97312 96.2403 11.7287 96.7124C13.3763 97.169 14.0089 98.9678 14.3051 100.47C14.6846 102.405 14.9808 104.358 15.2893 106.305C15.5978 108.252 15.9064 110.239 16.1748 112.21C16.3322 113.321 16.4834 114.435 16.6469 115.546L16.8783 117.215C16.9554 117.761 17.0449 118.307 17.0758 118.856C17.0758 119.032 16.8104 119.057 16.7672 118.89C16.5543 117.965 16.4587 116.999 16.3322 116.055C16.2057 115.111 16.0576 114.16 15.9187 113.216C15.6451 111.334 15.3644 109.453 15.0764 107.573C14.7884 105.693 14.4974 103.814 14.2032 101.936C13.9471 100.344 13.8268 98.3631 12.4168 97.3079C12.034 97.0451 11.5905 96.8845 11.1283 96.8413C10.6661 96.7981 10.2004 96.8738 9.77566 97.061C8.85003 97.4159 8.10336 98.0792 7.37829 98.7395C7.37385 98.7417 7.36886 98.7425 7.36397 98.7418C7.35908 98.7411 7.35451 98.7389 7.35085 98.7356C7.3472 98.7323 7.34462 98.7279 7.34346 98.7231C7.3423 98.7183 7.34261 98.7133 7.34435 98.7087Z" fill="#263238"/>
<path d="M8.91461 97.5609C8.91461 97.5609 11.2719 96.7155 12.4166 98.4248C13.5613 100.134 12.1975 104.494 1.5127 106.95C1.82674 103.612 2.69428 100.349 4.07976 97.2955C6.36914 92.3033 10.4481 94.1947 8.91461 97.5609Z" fill="#CE9E41"/>
<path d="M2.12686 106.237C2.28742 105.937 2.46673 105.648 2.66372 105.37C2.84267 105.095 3.02163 104.821 3.20367 104.549C3.34251 104.343 3.48136 104.139 3.62328 103.932C3.61284 103.881 3.60563 103.83 3.60169 103.778L3.56466 103.5C3.53998 103.3 3.50912 103.102 3.48136 102.902C3.45359 102.701 3.41965 102.504 3.37954 102.306C3.35476 102.096 3.30823 101.89 3.24069 101.689C3.24069 101.658 3.28389 101.643 3.28697 101.689C3.3098 101.809 3.34178 101.926 3.38262 102.041C3.40731 102.13 3.43199 102.223 3.45359 102.312C3.50604 102.513 3.55541 102.717 3.60169 102.93C3.64797 103.142 3.67882 103.309 3.70968 103.497C3.70968 103.59 3.74053 103.679 3.75287 103.772C3.94417 103.5 4.13546 103.232 4.33602 102.967C4.90373 102.22 5.5023 101.501 6.12556 100.807V100.788C6.07002 99.6651 6.09779 98.5544 5.85096 97.4498C5.85096 97.422 5.88798 97.4035 5.89415 97.4344C6.16846 98.4615 6.29929 99.5216 6.28292 100.585C6.50507 100.335 6.7303 100.088 6.95554 99.8441C7.478 99.2826 8.00869 98.7323 8.54761 98.1934C8.55234 98.1905 8.5579 98.1893 8.56341 98.1899C8.56891 98.1906 8.57403 98.1931 8.57795 98.197C8.58187 98.2009 8.58436 98.206 8.58501 98.2115C8.58566 98.217 8.58444 98.2226 8.58155 98.2273C7.68369 99.1962 6.82903 100.205 5.99597 101.233C6.64779 101.222 7.29969 101.246 7.94904 101.303C8.67103 101.359 9.39302 101.452 10.1088 101.55C10.1366 101.55 10.1273 101.603 10.1088 101.597C9.39271 101.495 8.67183 101.43 7.94904 101.402C7.25174 101.374 6.55752 101.402 5.8633 101.402C5.41283 101.958 4.96853 102.519 4.5304 103.087H4.62913C4.79266 103.087 4.95619 103.087 5.11971 103.087C5.44368 103.087 5.77074 103.118 6.09162 103.145C6.75472 103.198 7.41345 103.296 8.0632 103.439C8.06693 103.437 8.07094 103.437 8.07489 103.437C8.07884 103.438 8.08261 103.439 8.08588 103.441C8.08915 103.444 8.09182 103.447 8.09367 103.45C8.09551 103.454 8.09647 103.458 8.09647 103.462C8.09647 103.466 8.09551 103.47 8.09367 103.473C8.09182 103.477 8.08915 103.48 8.08588 103.482C8.08261 103.484 8.07884 103.486 8.07489 103.486C8.07094 103.487 8.06693 103.486 8.0632 103.485C7.40909 103.411 6.7519 103.352 6.09162 103.328C5.78308 103.328 5.47454 103.328 5.14748 103.328H4.64147C4.55024 103.338 4.45772 103.33 4.36996 103.303C4.08301 103.676 3.79607 104.046 3.51221 104.423C3.28389 104.731 3.06174 105.021 2.84267 105.324C2.62361 105.626 2.4138 105.975 2.16388 106.265C2.14537 106.286 2.11452 106.262 2.12686 106.237Z" fill="#263238"/>
<path d="M7.89305 99.986C8.27145 99.9366 8.65324 99.918 9.03465 99.9305C9.41416 99.9305 9.79675 99.9305 10.1763 99.9552C10.18 99.9538 10.184 99.9533 10.1879 99.9538C10.1919 99.9543 10.1957 99.9558 10.1989 99.9581C10.2022 99.9603 10.2049 99.9634 10.2067 99.9669C10.2086 99.9704 10.2095 99.9743 10.2095 99.9783C10.2095 99.9823 10.2086 99.9862 10.2067 99.9897C10.2049 99.9933 10.2022 99.9963 10.1989 99.9986C10.1957 100.001 10.1919 100.002 10.1879 100.003C10.184 100.003 10.18 100.003 10.1763 100.001C9.79058 99.9737 9.4049 99.9675 9.01922 99.9737C8.63355 99.9799 8.26947 100.014 7.89613 100.005C7.87762 100.005 7.87762 99.9891 7.89305 99.986Z" fill="#263238"/>
<path d="M4.53966 100.847C4.49646 100.483 4.45018 100.116 4.37305 99.7577C4.37305 99.7238 4.41624 99.7114 4.41933 99.7577C4.47487 100.119 4.54583 100.474 4.59828 100.835C4.62605 101.013 4.65073 101.192 4.67233 101.374C4.70367 101.542 4.71814 101.713 4.71553 101.884C4.71553 101.892 4.71228 101.9 4.70649 101.905C4.70071 101.911 4.69286 101.914 4.68467 101.914C4.67649 101.914 4.66864 101.911 4.66286 101.905C4.65707 101.9 4.65382 101.892 4.65382 101.884C4.61985 101.717 4.60126 101.548 4.59828 101.378C4.57977 101.202 4.56126 101.02 4.53966 100.847Z" fill="#263238"/>
<path d="M5.24313 96.805C5.3357 97.1598 5.42826 97.5208 5.49614 97.8818C5.52699 98.0638 5.55476 98.2489 5.58253 98.4341C5.61541 98.612 5.6268 98.7933 5.61647 98.974C5.61647 98.974 5.59179 98.9894 5.5887 98.974C5.54547 98.8062 5.51759 98.6347 5.5054 98.4618C5.48071 98.2829 5.45294 98.107 5.42209 97.9311C5.3573 97.5578 5.2925 97.1876 5.19685 96.8235C5.19068 96.7926 5.23696 96.7772 5.24313 96.805Z" fill="#263238"/>
<path d="M19.1454 118.462C19.2071 117.789 19.2719 117.119 19.3428 116.447C19.4817 115.117 19.6514 113.79 19.8242 112.463C19.9969 111.137 20.1697 109.819 20.3826 108.502C20.4623 107.891 20.5986 107.289 20.7899 106.703C20.8596 106.452 20.9855 106.22 21.1582 106.025C21.3309 105.83 21.5458 105.676 21.7865 105.577C23.0423 105.145 23.8907 106.447 24.3967 107.369C24.3967 107.397 24.3721 107.416 24.3566 107.391C24.0481 106.956 23.2119 105.728 22.2586 105.787C21.6199 105.824 21.1046 106.28 20.7992 107.879C20.0309 111.862 19.3397 119.946 19.2564 120.476C19.2132 120.757 19.0158 120.745 19.0127 120.442C19.0127 119.782 19.0898 119.122 19.1454 118.462Z" fill="#263238"/>
<path d="M24.0605 106.873C24.0605 106.873 22.9621 102.994 25.3872 104.935C29.4291 108.162 29.5741 115.182 29.5741 115.182C29.5741 115.182 22.379 111.01 21.4965 108.258C20.1667 104.158 24.0605 106.873 24.0605 106.873Z" fill="#CE9E41"/>
<path d="M22.6884 108.776C23.2531 108.891 23.8239 108.965 24.3916 109.048L25.2 109.162C25.382 109.187 25.5671 109.202 25.7523 109.227C25.2154 108.489 24.6754 107.755 24.1633 107.002C24.1447 106.974 24.1879 106.944 24.2126 106.968C24.6386 107.407 25.0393 107.87 25.4129 108.354C25.5178 108.045 25.6257 107.752 25.7214 107.453C25.8417 107.104 25.9744 106.759 26.0639 106.401C26.0639 106.373 26.1163 106.385 26.1071 106.401C26.0114 106.755 25.9405 107.12 25.8448 107.474C25.7592 107.819 25.6562 108.159 25.5363 108.493C25.8016 108.835 26.0515 109.184 26.2984 109.538C26.4218 109.187 26.5761 108.847 26.684 108.493C26.6867 108.487 26.6912 108.483 26.6967 108.481C26.7021 108.479 26.7082 108.479 26.7138 108.48C26.7194 108.482 26.7241 108.486 26.7272 108.491C26.7302 108.496 26.7313 108.502 26.7303 108.508C26.6007 108.9 26.5298 109.31 26.4218 109.705C26.5884 109.946 26.7519 110.186 26.9093 110.43C27.1993 110.878 27.4739 111.334 27.7393 111.794C27.7603 111.802 27.778 111.818 27.7897 111.837C27.8013 111.857 27.8064 111.879 27.8041 111.902C28.2576 112.689 28.6896 113.485 29.1154 114.287C29.1186 114.293 29.1195 114.299 29.1178 114.306C29.116 114.312 29.1118 114.318 29.1061 114.321C29.1004 114.324 29.0936 114.325 29.0872 114.323C29.0808 114.322 29.0754 114.317 29.0722 114.312C28.6464 113.519 28.1712 112.744 27.6776 111.985C27.6009 111.963 27.5224 111.948 27.4431 111.939L27.1931 111.886C27.008 111.846 26.8229 111.797 26.6409 111.751C26.2737 111.661 25.9158 111.575 25.5455 111.51C25.5147 111.51 25.527 111.461 25.5455 111.467C25.9806 111.547 26.4187 111.596 26.8568 111.649C27.0636 111.674 27.2703 111.698 27.4739 111.732H27.5048C27.2456 111.341 26.9833 110.953 26.718 110.566C26.4588 110.186 26.1904 109.813 25.9189 109.44C25.672 109.406 25.4252 109.341 25.1784 109.292L24.3422 109.131C23.7868 109.02 23.2345 108.897 22.673 108.804C22.6576 108.816 22.6699 108.77 22.6884 108.776Z" fill="#263238"/>
<path d="M27.0076 109.159C27.0416 109.057 27.0724 108.952 27.1064 108.85C27.1742 108.634 27.2236 108.418 27.2699 108.199C27.2699 108.169 27.3223 108.184 27.3162 108.215C27.2699 108.434 27.2174 108.65 27.1681 108.869C27.1223 109.088 27.0594 109.304 26.9799 109.514C26.9583 109.563 26.8811 109.545 26.8966 109.489C26.9367 109.378 26.9799 109.267 27.0076 109.159Z" fill="#263238"/>
<path d="M21.9661 107.879C22.2932 107.928 22.6233 107.949 22.9535 107.98C23.2836 108.011 23.6107 108.054 23.9408 108.104C23.9593 108.104 23.9593 108.135 23.9408 108.132C23.6076 108.11 23.2805 108.085 22.9504 108.042C22.6203 107.999 22.2963 107.949 21.9631 107.928C21.9322 107.925 21.9353 107.872 21.9661 107.879Z" fill="#263238"/>
<path d="M13.8601 113.543C13.9897 110.689 14.1686 107.838 14.4556 104.997C14.6006 103.581 14.7641 102.164 14.9585 100.757C15.1367 99.3714 15.4099 97.9992 15.7761 96.6507C16.0264 95.6072 16.4885 94.6263 17.1337 93.7689C17.4551 93.3475 17.879 93.0154 18.3651 92.8042C18.8512 92.593 19.3833 92.5098 19.9106 92.5625C21.1448 92.7168 22.163 93.5036 23.0361 94.3582C24.0111 95.3178 24.9059 96.3668 25.813 97.3943C26.0413 97.6534 26.2666 97.9126 26.4918 98.178C26.4938 98.1802 26.4954 98.1828 26.4964 98.1856C26.4974 98.1885 26.4979 98.1915 26.4977 98.1945C26.4976 98.1975 26.4969 98.2004 26.4956 98.2032C26.4943 98.2059 26.4925 98.2083 26.4903 98.2104C26.488 98.2124 26.4854 98.214 26.4826 98.215C26.4798 98.216 26.4767 98.2164 26.4737 98.2163C26.4707 98.2162 26.4678 98.2154 26.4651 98.2141C26.4623 98.2129 26.4599 98.211 26.4579 98.2088C25.5723 97.1937 24.656 96.2064 23.681 95.2653C22.7924 94.3922 21.8791 93.4388 20.648 93.0778C20.0769 92.895 19.4651 92.8811 18.8862 93.0377C18.4265 93.1844 18.0121 93.4468 17.6829 93.7998C17.0258 94.559 16.5603 95.4647 16.3254 96.4409C15.5571 99.0635 15.2825 101.816 14.9955 104.525C14.7086 107.234 14.5111 110.038 14.3785 112.803C14.2458 115.567 14.1316 118.357 13.8632 121.133C13.8323 121.476 13.7861 121.815 13.7429 122.158C13.7151 122.386 13.3572 122.386 13.3757 122.158C13.6009 119.288 13.7398 116.422 13.8601 113.543Z" fill="#263238"/>
<path d="M23.1843 94.6699C23.1843 94.6699 21.5552 91.6523 23.4928 90.6835C25.4305 89.7147 31.8667 96.913 33.7519 107.434C33.7519 107.434 23.3386 102.828 19.8027 98.2366C16.2668 93.6455 20.2624 92.6366 23.1843 94.6699Z" fill="#CE9E41"/>
<path d="M21.6545 97.1228C22.8269 97.1228 23.9932 97.0333 25.1626 97.0425C24.9435 96.7895 24.7245 96.5396 24.5023 96.2897C24.1715 95.9549 23.8623 95.5994 23.5767 95.2252C23.5767 95.2005 23.5952 95.1666 23.6199 95.1851C23.9355 95.4602 24.2314 95.7571 24.5054 96.0737C24.7985 96.3823 25.0885 96.6908 25.3786 96.9993C25.826 97.4838 26.2641 97.9743 26.7022 98.468C26.7022 98.4217 26.7022 98.3724 26.7022 98.3261C26.7022 98.1224 26.7022 97.9157 26.7022 97.709C26.7022 97.311 26.7022 96.916 26.7022 96.518C26.7022 95.7127 26.7022 94.9043 26.6405 94.1021C26.6405 94.0713 26.6868 94.0713 26.6899 94.1021C26.7454 94.9105 26.8287 95.7127 26.8688 96.5211C26.8873 96.9191 26.8966 97.3171 26.9028 97.7121C26.9028 97.9188 26.9028 98.1224 26.9028 98.3292C26.9028 98.4402 26.9028 98.5575 26.9028 98.6716L27.1095 98.903C28.0351 99.9706 28.9299 101.063 29.7938 102.195C29.7938 102.133 29.7938 102.072 29.8092 102.01C29.8092 101.887 29.837 101.763 29.8524 101.64C29.8802 101.371 29.9172 101.103 29.9573 100.835C29.9974 100.566 30.0345 100.335 30.0777 100.085C30.1209 99.8348 30.1949 99.517 30.2165 99.2332C30.2165 99.1992 30.269 99.2054 30.2628 99.2332C30.2145 99.5171 30.1815 99.8035 30.164 100.091C30.1394 100.35 30.1178 100.606 30.0931 100.862C30.0684 101.118 30.0468 101.381 30.019 101.637C30.019 101.76 29.9974 101.884 29.982 102.007C29.982 102.069 29.982 102.133 29.9604 102.195C29.9535 102.246 29.9367 102.296 29.911 102.34L30.3553 102.923C30.9447 103.704 31.5247 104.494 32.1048 105.284C32.1233 105.308 32.0893 105.342 32.0708 105.318C31.5216 104.602 30.9591 103.896 30.3831 103.201C29.9542 103.22 29.5192 103.201 29.0903 103.179C28.6614 103.158 28.1863 103.179 27.7358 103.179C27.7293 103.179 27.723 103.177 27.7184 103.172C27.7137 103.168 27.7111 103.161 27.7111 103.155C27.7111 103.148 27.7137 103.142 27.7184 103.137C27.723 103.133 27.7293 103.13 27.7358 103.13C28.1894 103.13 28.6399 103.13 29.0903 103.13C29.5408 103.13 29.9234 103.112 30.3245 103.13C29.8216 102.513 29.3125 101.896 28.8034 101.303L28.2418 100.674C28.068 100.697 27.8923 100.703 27.7173 100.693H27.1002C26.7146 100.693 26.3289 100.693 25.9463 100.693C25.1502 100.693 24.3542 100.656 23.5613 100.652C23.5547 100.652 23.5484 100.65 23.5438 100.645C23.5392 100.641 23.5366 100.634 23.5366 100.628C23.5366 100.621 23.5392 100.615 23.5438 100.61C23.5484 100.606 23.5547 100.603 23.5613 100.603C24.3573 100.603 25.1533 100.56 25.9494 100.538C26.335 100.538 26.7176 100.517 27.1033 100.514H27.7204C27.8376 100.514 27.958 100.514 28.0752 100.514C27.6402 99.9953 27.202 99.4738 26.7639 98.9709C26.7535 98.9639 26.745 98.9544 26.7392 98.9432C26.3134 98.4371 25.8856 97.9342 25.4557 97.4344C25.3971 97.3665 25.3354 97.3017 25.2767 97.2308C24.0642 97.2709 22.8516 97.1906 21.639 97.2122C21.6236 97.1721 21.6236 97.1228 21.6545 97.1228Z" fill="#263238"/>
<path d="M22.253 99.19H22.5368C22.5426 99.19 22.548 99.1923 22.5521 99.1963C22.5561 99.2004 22.5584 99.2058 22.5584 99.2116C22.5584 99.2173 22.5561 99.2228 22.5521 99.2269C22.548 99.2309 22.5426 99.2332 22.5368 99.2332H22.253C22.2491 99.231 22.2459 99.2279 22.2437 99.2241C22.2414 99.2203 22.2402 99.216 22.2402 99.2116C22.2402 99.2072 22.2414 99.2028 22.2437 99.199C22.2459 99.1952 22.2491 99.1921 22.253 99.19Z" fill="#263238"/>
<path d="M22.8853 99.1962L24.0084 99.1715L24.57 99.153C24.7441 99.1313 24.9203 99.1313 25.0945 99.153C25.113 99.153 25.0945 99.1838 25.0945 99.1869C24.922 99.2223 24.7457 99.2348 24.57 99.2239H24.0053C23.632 99.2239 23.2587 99.2239 22.8822 99.2239C22.8788 99.2279 22.8742 99.2307 22.869 99.2319C22.8639 99.233 22.8585 99.2325 22.8537 99.2304C22.8488 99.2283 22.8448 99.2247 22.8422 99.2202C22.8395 99.2156 22.8384 99.2103 22.839 99.2051C22.8396 99.1998 22.8418 99.1949 22.8454 99.1911C22.849 99.1872 22.8537 99.1846 22.8589 99.1836C22.8641 99.1826 22.8694 99.1833 22.8742 99.1855C22.8789 99.1878 22.8828 99.1915 22.8853 99.1962Z" fill="#263238"/>
<path d="M26.1562 102.707C26.9185 102.583 27.6888 102.514 28.461 102.501C28.461 102.501 28.461 102.516 28.461 102.519C27.6958 102.59 26.9183 102.633 26.1685 102.757C26.1377 102.76 26.1284 102.714 26.1562 102.707Z" fill="#263238"/>
<path d="M29.2878 99.3504C29.2878 99.2826 29.3032 99.2147 29.3125 99.1499C29.331 98.9987 29.3557 98.8413 29.3773 98.6994C29.4235 98.4125 29.4729 98.1255 29.5284 97.8417C29.5284 97.817 29.5778 97.8231 29.5747 97.8417C29.5377 98.1348 29.5068 98.431 29.4791 98.7241L29.442 99.1591C29.4461 99.2993 29.4263 99.4391 29.3834 99.5726C29.3791 99.5825 29.372 99.5909 29.3629 99.5968C29.3539 99.6028 29.3433 99.6059 29.3325 99.6059C29.3217 99.6059 29.3111 99.6028 29.3021 99.5968C29.293 99.5909 29.2859 99.5825 29.2816 99.5726C29.2689 99.4989 29.271 99.4233 29.2878 99.3504Z" fill="#263238"/>
<path d="M13.9654 90.7946C14.3356 90.1003 14.8108 89.184 15.7426 89.2519C16.5077 89.2981 16.8564 90.0818 17.0199 90.7298C17.5259 92.7353 17.563 94.8488 17.6617 96.9006C17.8715 101.242 18.0566 105.586 18.0844 109.933C18.0844 111.137 18.0844 112.34 18.0844 113.546C18.0844 114.753 18.0844 116.015 17.998 117.249C17.9941 117.27 17.9828 117.289 17.9662 117.303C17.9496 117.317 17.9286 117.325 17.907 117.325C17.8853 117.325 17.8644 117.317 17.8478 117.303C17.8311 117.289 17.8199 117.27 17.816 117.249C17.816 116.2 17.8468 115.148 17.8499 114.096C17.853 113.044 17.8499 112.047 17.8314 111.01C17.7964 108.933 17.7409 106.856 17.6648 104.781C17.5876 102.72 17.4982 100.656 17.4118 98.5945C17.3655 97.564 17.3223 96.5334 17.276 95.5091C17.2297 94.4847 17.1896 93.5128 17.0755 92.5193C17.0107 91.9639 16.9274 91.4055 16.8132 90.8594C16.7544 90.452 16.5883 90.0675 16.3319 89.7455C16.1543 89.5703 15.9201 89.4642 15.6713 89.4461C15.4225 89.428 15.1754 89.4991 14.9743 89.6468C14.5501 89.9518 14.2173 90.3668 14.0116 90.847C13.99 90.847 13.9499 90.8223 13.9654 90.7946Z" fill="#263238"/>
<path d="M14.2154 90.4613C14.2154 90.4613 14.9806 87.7616 13.2897 89.113C10.4758 91.3592 10.374 96.265 10.374 96.265C10.374 96.265 15.3786 93.3585 16.0018 91.4425C16.9275 88.5731 14.2154 90.4613 14.2154 90.4613Z" fill="#CE9E41"/>
<path d="M11.429 94.2472C11.4722 94.17 11.5216 94.0991 11.5709 94.025C11.5648 93.948 11.5648 93.8706 11.5709 93.7936C11.5709 93.6763 11.5709 93.5622 11.5709 93.4449C11.5709 93.2166 11.5709 92.9883 11.5463 92.76C11.5463 92.7291 11.5925 92.7322 11.5956 92.76C11.5956 92.9821 11.6172 93.2074 11.6234 93.4295V93.7658C11.6234 93.809 11.6234 93.8615 11.6234 93.9108C11.8178 93.6023 12.0214 93.2938 12.2405 93.0068L12.4256 92.7507C12.4503 92.4581 12.4503 92.164 12.4256 91.8714C12.4256 91.5628 12.4256 91.2543 12.4071 90.9272C12.4071 90.8964 12.4534 90.8995 12.4565 90.9272C12.4565 91.2543 12.4811 91.5783 12.4966 91.9053C12.5167 92.1382 12.5228 92.3721 12.5151 92.6057C13.0211 91.9454 13.5333 91.3283 14.0485 90.6897C14.0671 90.6681 14.1041 90.6897 14.0856 90.7205C13.7647 91.1319 13.4561 91.5433 13.1599 91.9547C13.7462 91.8158 14.3447 91.7387 14.9433 91.6461C14.9742 91.6461 14.9865 91.6863 14.9433 91.6924C14.3262 91.7881 13.6875 91.9454 13.0643 92.0843C12.8236 92.4237 12.5861 92.7631 12.3516 93.1025L12.0677 93.519H12.0955L12.2899 93.4943C12.4287 93.4758 12.5675 93.4665 12.7064 93.4542C12.9933 93.4326 13.2834 93.4172 13.5703 93.4018C13.6012 93.4018 13.6012 93.448 13.5703 93.448C13.2864 93.448 13.0026 93.4758 12.7187 93.5067L12.2713 93.5622L12.077 93.5838H12.0214C11.861 93.8214 11.6975 94.0559 11.5401 94.2934C11.2562 94.71 11.0032 95.1574 10.7039 95.5615C10.7 95.565 10.695 95.5671 10.6898 95.5675C10.6845 95.5679 10.6793 95.5667 10.6748 95.5639C10.6704 95.5612 10.6669 95.5571 10.6649 95.5522C10.6629 95.5473 10.6626 95.542 10.6638 95.5369C10.8927 95.0919 11.1482 94.6612 11.429 94.2472Z" fill="#263238"/>
<path d="M12.6723 91.1957V90.8871C12.6785 90.6656 12.6692 90.444 12.6445 90.2238C12.6445 90.2172 12.6471 90.2109 12.6518 90.2063C12.6564 90.2017 12.6627 90.1991 12.6692 90.1991C12.6758 90.1991 12.682 90.2017 12.6867 90.2063C12.6913 90.2109 12.6939 90.2172 12.6939 90.2238C12.6939 90.4428 12.7155 90.6619 12.7278 90.881C12.7278 90.9889 12.7278 91.1 12.7278 91.208C12.7278 91.2605 12.7278 91.3098 12.7278 91.3592C12.7372 91.4112 12.7372 91.4645 12.7278 91.5166C12.7278 91.5223 12.7256 91.5278 12.7215 91.5318C12.7175 91.5359 12.712 91.5382 12.7062 91.5382C12.7005 91.5382 12.695 91.5359 12.691 91.5318C12.6869 91.5278 12.6846 91.5223 12.6846 91.5166C12.677 91.4685 12.677 91.4196 12.6846 91.3715L12.6723 91.1957Z" fill="#263238"/>
<path d="M13.2928 92.3126C13.4779 92.2817 13.6692 92.2725 13.8574 92.2571C14.0456 92.2416 14.2678 92.22 14.4745 92.1953C14.4782 92.194 14.4822 92.1935 14.4862 92.194C14.4901 92.1945 14.4939 92.196 14.4972 92.1982C14.5004 92.2005 14.5031 92.2035 14.505 92.2071C14.5068 92.2106 14.5078 92.2145 14.5078 92.2185C14.5078 92.2225 14.5068 92.2264 14.505 92.2299C14.5031 92.2334 14.5004 92.2365 14.4972 92.2388C14.4939 92.241 14.4901 92.2425 14.4862 92.243C14.4822 92.2435 14.4782 92.243 14.4745 92.2416C14.0796 92.2663 13.6846 92.3373 13.2897 92.3527C13.2743 92.3527 13.2712 92.3188 13.2928 92.3126Z" fill="#263238"/>
<path d="M13.8485 105.213C14.9006 104.423 15.8448 103.287 17.261 103.232C18.4304 103.186 19.248 104.065 19.7293 105.043C19.9639 105.564 20.1548 106.104 20.3001 106.657C20.513 107.397 20.7105 108.138 20.8956 108.884C21.2618 110.353 21.5703 111.833 21.8212 113.324C21.9632 114.154 22.0958 114.99 22.2007 115.827C22.3353 116.674 22.4178 117.53 22.4476 118.387C22.4474 118.42 22.4352 118.452 22.4133 118.476C22.3914 118.5 22.3614 118.515 22.3289 118.519C22.2964 118.522 22.2638 118.514 22.2373 118.494C22.2108 118.475 22.1923 118.447 22.1853 118.415C22.0434 117.715 21.9848 116.993 21.8768 116.286C21.7688 115.58 21.667 114.864 21.5466 114.157C21.306 112.738 21.0262 111.327 20.7074 109.924C20.3989 108.601 20.1088 107.258 19.683 105.969C19.3745 105.043 18.8839 103.963 17.8873 103.633C16.3693 103.127 14.9901 104.414 13.8763 105.247C13.8578 105.259 13.8238 105.213 13.8485 105.213Z" fill="#263238"/>
<path d="M14.9375 104.451C14.9375 104.451 15.9063 101.674 14.5025 101.137C12.4013 100.322 6.89693 106.521 7.97682 116.018C7.97682 116.018 12.2285 113.676 15.3664 111.041C18.5043 108.406 19.3096 104.963 17.9273 104.074C16.545 103.186 14.9375 104.451 14.9375 104.451Z" fill="#CE9E41"/>
<path d="M8.60889 113.981C8.75571 113.65 8.9269 113.331 9.12107 113.025C9.30002 112.701 9.48206 112.377 9.67027 112.056C10.0374 111.439 10.3984 110.803 10.7749 110.183L10.9569 109.875C10.9569 109.838 10.9569 109.801 10.9353 109.764L10.8736 109.489C10.8242 109.282 10.7903 109.076 10.7502 108.872C10.6761 108.468 10.6052 108.054 10.4941 107.656C10.4941 107.626 10.5342 107.616 10.5434 107.656C10.6298 108.064 10.7563 108.462 10.8767 108.86C10.9353 109.057 11.0001 109.252 11.0495 109.449L11.105 109.653C11.5555 108.912 12.0306 108.175 12.5119 107.462C12.479 107.362 12.4623 107.258 12.4626 107.153C12.4626 107.015 12.4317 106.876 12.4132 106.737C12.3762 106.428 12.3422 106.12 12.296 105.811C12.2162 105.199 12.105 104.592 11.9627 103.991C11.9627 103.96 12.0029 103.954 12.009 103.991C12.1602 104.589 12.3176 105.188 12.441 105.793C12.4965 106.101 12.549 106.391 12.5891 106.691C12.6076 106.839 12.623 106.999 12.6384 107.141L12.657 107.277C12.8081 107.061 12.9655 106.845 13.1198 106.635C13.6073 105.996 14.1102 105.373 14.6193 104.753C14.6378 104.728 14.6779 104.753 14.6563 104.781C13.7862 105.893 12.9876 107.06 12.2651 108.273L11.8517 108.915H11.9905C12.1664 108.891 12.3484 108.881 12.5243 108.863C12.8822 108.828 13.2401 108.797 13.598 108.77C14.3169 108.715 15.0327 108.668 15.7578 108.594C15.7887 108.594 15.7979 108.638 15.7578 108.641C15.0327 108.724 14.3138 108.838 13.598 108.949L12.5335 109.091C12.2634 109.146 11.9885 109.174 11.7128 109.174C11.432 109.634 11.1482 110.1 10.8674 110.547C10.9291 110.547 10.9939 110.547 11.0587 110.547H12.0738C12.5366 110.547 12.9994 110.547 13.4592 110.547C13.49 110.547 13.4839 110.594 13.4592 110.594C12.9933 110.594 12.5335 110.625 12.0615 110.649L11.395 110.689L11.0649 110.714C10.9632 110.736 10.858 110.736 10.7563 110.714C10.5198 111.103 10.2802 111.492 10.0374 111.88C9.81837 112.238 9.59623 112.596 9.3679 112.951C9.15684 113.33 8.91648 113.692 8.649 114.034C8.63666 114.028 8.59963 114.012 8.60889 113.981Z" fill="#263238"/>
<path d="M10.6362 106.308C10.6786 106.613 10.7426 106.914 10.8275 107.209C10.9047 107.518 10.9941 107.826 11.0929 108.135C11.0958 108.139 11.0978 108.143 11.0986 108.148C11.0994 108.153 11.0991 108.158 11.0976 108.162C11.0962 108.167 11.0936 108.171 11.0902 108.175C11.0868 108.178 11.0826 108.181 11.078 108.182C11.0733 108.184 11.0684 108.184 11.0635 108.184C11.0587 108.183 11.0541 108.181 11.0502 108.178C11.0462 108.175 11.043 108.172 11.0407 108.167C11.0385 108.163 11.0373 108.158 11.0373 108.153C10.9417 107.845 10.8584 107.551 10.7843 107.249C10.7103 106.947 10.664 106.632 10.59 106.323C10.5807 106.283 10.6332 106.274 10.6362 106.308Z" fill="#263238"/>
<path d="M13.7616 108.162C13.8251 108.106 13.9077 108.075 13.993 108.076L14.3941 108.02C14.6409 107.987 14.8908 107.959 15.1407 107.931C15.6591 107.869 16.1774 107.82 16.6834 107.752C16.7143 107.752 16.7236 107.798 16.6834 107.801C16.1929 107.86 15.7085 107.934 15.221 107.999C14.9803 108.03 14.7427 108.064 14.5021 108.091L14.1565 108.132C14.0222 108.131 13.8888 108.153 13.7616 108.196C13.7616 108.209 13.74 108.178 13.7616 108.162Z" fill="#263238"/>
<path d="M10.6553 112.337C10.899 112.318 11.1459 112.309 11.3896 112.303H11.7599H11.9388C12.0158 112.311 12.0933 112.311 12.1702 112.303C12.2042 112.303 12.2103 112.355 12.1702 112.349C12.0984 112.343 12.0261 112.343 11.9542 112.349H11.7599L11.3896 112.371C11.1459 112.371 10.899 112.402 10.6522 112.402C10.6183 112.389 10.6152 112.34 10.6553 112.337Z" fill="#263238"/>
<path d="M9.14645 111.276C9.11868 111.137 9.09091 110.998 9.06622 110.859C9.01377 110.584 8.96441 110.31 8.91504 110.035C8.91504 110.007 8.95515 109.998 8.96132 110.035C9.02303 110.301 9.08165 110.569 9.14336 110.834C9.17113 110.967 9.20198 111.1 9.22975 111.235C9.22975 111.297 9.25444 111.359 9.26986 111.421C9.28918 111.483 9.29651 111.549 9.29146 111.615C9.29146 111.64 9.25444 111.658 9.23901 111.633C9.18554 111.521 9.15412 111.4 9.14645 111.276Z" fill="#263238"/>
<path d="M10.3311 119.461L10.4606 123.355L11.2659 138.057H24.3604L25.1627 123.355L25.2953 119.461H10.3311Z" fill="#37474F"/>
<path d="M10.3311 119.461L10.4606 123.355H25.1627L25.2953 119.461H10.3311Z" fill="#263238"/>
<path d="M8.61271 120.609H27.0049V116.681H8.61271V120.609Z" fill="#37474F"/>
</svg>
