<svg width="133" height="100" viewBox="0 0 133 100" fill="none" xmlns="http://www.w3.org/2000/svg">
<path d="M133 87.0884H0V87.1549H133V87.0884Z" fill="#EBEBEB"/>
<path d="M119.673 91.3683H110.863V91.4348H119.673V91.3683Z" fill="#EBEBEB"/>
<path d="M88.1045 92.0919H85.793V92.1584H88.1045V92.0919Z" fill="#EBEBEB"/>
<path d="M110.597 88.8999H105.492V88.9664H110.597V88.8999Z" fill="#EBEBEB"/>
<path d="M25.4436 89.3467H13.9551V89.4132H25.4436V89.3467Z" fill="#EBEBEB"/>
<path d="M29.4963 89.3467H27.8125V89.4132H29.4963V89.3467Z" fill="#EBEBEB"/>
<path d="M59.8896 90.4693H34.9707V90.5358H59.8896V90.4693Z" fill="#EBEBEB"/>
<path d="M63.0422 75.2248H11.6803C11.2779 75.2241 10.8923 75.0638 10.608 74.779C10.3237 74.4942 10.1641 74.1083 10.1641 73.7059V1.50556C10.1676 1.1055 10.3288 0.722982 10.6127 0.441086C10.8965 0.15919 11.2802 0.000685319 11.6803 0H63.0422C63.445 0 63.8314 0.160022 64.1162 0.444864C64.401 0.729705 64.5611 1.11603 64.5611 1.51886V73.7059C64.5611 74.1088 64.401 74.4951 64.1162 74.7799C63.8314 75.0648 63.445 75.2248 63.0422 75.2248ZM11.6803 0.0532002C11.2955 0.0539048 10.9268 0.207231 10.655 0.479525C10.3832 0.751819 10.2306 1.12083 10.2306 1.50556V73.7059C10.2306 74.0907 10.3832 74.4597 10.655 74.732C10.9268 75.0043 11.2955 75.1576 11.6803 75.1583H63.0422C63.4272 75.1576 63.7962 75.0044 64.0684 74.7321C64.3406 74.4599 64.4939 74.0909 64.4946 73.7059V1.50556C64.4939 1.12059 64.3406 0.751581 64.0684 0.479363C63.7962 0.207145 63.4272 0.0539034 63.0422 0.0532002H11.6803Z" fill="#EBEBEB"/>
<path d="M120.581 75.2248H69.2161C68.8135 75.2241 68.4276 75.0639 68.1429 74.7792C67.8582 74.4945 67.698 74.1086 67.6973 73.7059V1.50556C67.7015 1.10526 67.8633 0.722742 68.1476 0.44092C68.4319 0.159097 68.8158 0.000677845 69.2161 0H120.581C120.98 0.0013844 121.363 0.160198 121.647 0.44202C121.93 0.723841 122.091 1.10596 122.094 1.50556V73.7059C122.094 74.1078 121.935 74.4934 121.651 74.7781C121.368 75.0627 120.983 75.2234 120.581 75.2248ZM69.2161 0.0532002C68.8311 0.0539034 68.4621 0.207145 68.1899 0.479363C67.9177 0.751581 67.7645 1.12059 67.7638 1.50556V73.7059C67.7645 74.0909 67.9177 74.4599 68.1899 74.7321C68.4621 75.0044 68.8311 75.1576 69.2161 75.1583H120.581C120.966 75.1576 121.335 75.0044 121.607 74.7321C121.879 74.4599 122.032 74.0909 122.033 73.7059V1.50556C122.032 1.12059 121.879 0.751581 121.607 0.479363C121.335 0.207145 120.966 0.0539034 120.581 0.0532002H69.2161Z" fill="#EBEBEB"/>
<path d="M13.5393 87.0884H18.4922L18.4922 53.075H13.5393L13.5393 87.0884Z" fill="#E6E6E6"/>
<path d="M15.2814 87.0884H13.5391V80.6246H17.1114L15.2814 87.0884Z" fill="#F0F0F0"/>
<path d="M65.9201 87.0884H70.873V53.075H65.9201V87.0884Z" fill="#E6E6E6"/>
<path d="M13.5392 85.3222H67.4414V53.0723L13.5392 53.0723L13.5392 85.3222Z" fill="#F0F0F0"/>
<path d="M65.6992 87.0884H67.4415V80.6246H63.8691L65.6992 87.0884Z" fill="#F0F0F0"/>
<path d="M65.0981 82.5558H50.2234C50.0416 82.5551 49.8674 82.4825 49.7389 82.354C49.6103 82.2254 49.5378 82.0513 49.5371 81.8695V56.2962C49.5378 56.1147 49.6104 55.9408 49.7391 55.8127C49.8677 55.6846 50.0418 55.6126 50.2234 55.6126H65.0981C65.2794 55.6126 65.4533 55.6846 65.5815 55.8128C65.7097 55.9411 65.7817 56.1149 65.7817 56.2962V81.8695C65.7817 82.051 65.7098 82.2252 65.5817 82.3538C65.4535 82.4824 65.2797 82.5551 65.0981 82.5558ZM50.2234 55.8786C50.1683 55.8783 50.1137 55.8888 50.0628 55.9096C50.0118 55.9305 49.9654 55.9612 49.9264 56C49.8873 56.0388 49.8563 56.085 49.8352 56.1358C49.814 56.1867 49.8031 56.2412 49.8031 56.2962V81.8695C49.8031 81.9809 49.8474 82.0878 49.9262 82.1667C50.005 82.2455 50.1119 82.2898 50.2234 82.2898H65.0981C65.1532 82.2898 65.2077 82.2789 65.2585 82.2577C65.3094 82.2366 65.3555 82.2056 65.3944 82.1665C65.4332 82.1274 65.4639 82.0811 65.4847 82.0301C65.5055 81.9791 65.5161 81.9245 65.5157 81.8695V56.2962C65.5157 56.1855 65.4717 56.0793 65.3934 56.0009C65.3151 55.9226 65.2089 55.8786 65.0981 55.8786H50.2234Z" fill="white"/>
<path d="M47.9275 82.5558H33.0528C32.8712 82.5551 32.6973 82.4824 32.5692 82.3538C32.4411 82.2252 32.3691 82.051 32.3691 81.8695V56.2962C32.3691 56.1149 32.4412 55.9411 32.5694 55.8128C32.6976 55.6846 32.8715 55.6126 33.0528 55.6126H47.9275C48.109 55.6126 48.2832 55.6846 48.4118 55.8127C48.5404 55.9408 48.6131 56.1147 48.6138 56.2962V81.8695C48.6131 82.0513 48.5405 82.2254 48.412 82.354C48.2834 82.4825 48.1093 82.5551 47.9275 82.5558ZM33.0528 55.8786C32.942 55.8786 32.8358 55.9226 32.7575 56.0009C32.6791 56.0793 32.6351 56.1855 32.6351 56.2962V81.8695C32.6348 81.9245 32.6453 81.9791 32.6662 82.0301C32.687 82.0811 32.7177 82.1274 32.7565 82.1665C32.7953 82.2056 32.8415 82.2366 32.8923 82.2577C32.9432 82.2789 32.9977 82.2898 33.0528 82.2898H47.9275C48.0389 82.2898 48.1458 82.2455 48.2247 82.1667C48.3035 82.0878 48.3478 81.9809 48.3478 81.8695V56.2962C48.3478 56.2412 48.3369 56.1867 48.3157 56.1358C48.2946 56.085 48.2636 56.0388 48.2245 56C48.1854 55.9612 48.1391 55.9305 48.0881 55.9096C48.0371 55.8888 47.9825 55.8783 47.9275 55.8786H33.0528Z" fill="white"/>
<path d="M30.7576 82.5558H15.8828C15.7013 82.5551 15.5274 82.4824 15.3993 82.3538C15.2712 82.2252 15.1992 82.051 15.1992 81.8695V56.2962C15.1992 56.1149 15.2712 55.9411 15.3994 55.8128C15.5276 55.6846 15.7015 55.6126 15.8828 55.6126H30.7576C30.9391 55.6126 31.1133 55.6846 31.2419 55.8127C31.3705 55.9408 31.4431 56.1147 31.4438 56.2962V81.8695C31.4431 82.0513 31.3706 82.2254 31.2421 82.354C31.1135 82.4825 30.9394 82.5551 30.7576 82.5558ZM15.8828 55.8786C15.7721 55.8786 15.6659 55.9226 15.5875 56.0009C15.5092 56.0793 15.4652 56.1855 15.4652 56.2962V81.8695C15.4649 81.9245 15.4754 81.9791 15.4962 82.0301C15.5171 82.0811 15.5478 82.1274 15.5866 82.1665C15.6254 82.2056 15.6716 82.2366 15.7224 82.2577C15.7732 82.2789 15.8278 82.2898 15.8828 82.2898H30.7576C30.869 82.2898 30.9759 82.2455 31.0547 82.1667C31.1336 82.0878 31.1778 81.9809 31.1778 81.8695V56.2962C31.1778 56.2412 31.167 56.1867 31.1458 56.1358C31.1246 56.085 31.0936 56.0388 31.0546 56C31.0155 55.9612 30.9692 55.9305 30.9182 55.9096C30.8672 55.8888 30.8126 55.8783 30.7576 55.8786H15.8828Z" fill="white"/>
<path d="M82.9863 79.7734H110.408L110.408 6.88408H82.9863L82.9863 79.7734Z" fill="#E6E6E6"/>
<path d="M81.6351 79.7734H110.217L110.217 6.88408H81.6351L81.6351 79.7734Z" fill="#F0F0F0"/>
<path d="M82.9863 81.0316H110.408V79.7761H82.9863V81.0316Z" fill="#E6E6E6"/>
<path d="M79.3851 81.0316H107.967V79.7761H79.3851V81.0316Z" fill="#F0F0F0"/>
<path d="M108.328 77.8821V8.778L83.5289 8.778V77.8821H108.328Z" fill="#FAFAFA"/>
<path d="M89.1797 77.8821L92.2094 8.778H97.4496L94.4199 77.8821H89.1797Z" fill="white"/>
<path d="M107.464 29.5686C107.503 29.5686 107.54 29.5532 107.567 29.5257C107.595 29.4983 107.61 29.4611 107.61 29.4223V10.0043C107.61 9.96593 107.594 9.9294 107.566 9.90253C107.539 9.87567 107.502 9.86062 107.464 9.86063C107.426 9.86063 107.389 9.87576 107.362 9.9027C107.335 9.92964 107.32 9.96617 107.32 10.0043V29.4223C107.32 29.4606 107.335 29.4974 107.362 29.5248C107.389 29.5522 107.426 29.5679 107.464 29.5686Z" fill="#F0F0F0"/>
<path d="M95.5449 77.8821L98.5747 8.778H100.618L97.5905 77.8821H95.5449Z" fill="white"/>
<path d="M83.7715 77.8795V8.77533H83.5321V77.8795H83.7715Z" fill="#E6E6E6"/>
<path opacity="0.5" d="M81.1914 11.2465H109.052L109.228 9.51216H81.3643L81.1914 11.2465Z" fill="#E0E0E0"/>
<path opacity="0.5" d="M81.1914 14.0953H109.052L109.228 12.361H81.3643L81.1914 14.0953Z" fill="#E0E0E0"/>
<path opacity="0.5" d="M81.1914 16.9442H109.052L109.228 15.2125H81.3643L81.1914 16.9442Z" fill="#E0E0E0"/>
<path opacity="0.5" d="M81.1914 19.7957H109.052L109.228 18.0614H81.3643L81.1914 19.7957Z" fill="#E0E0E0"/>
<path opacity="0.5" d="M81.1914 22.6446H109.052L109.228 20.9102H81.3643L81.1914 22.6446Z" fill="#E0E0E0"/>
<path opacity="0.5" d="M81.1914 25.4934H109.052L109.228 23.7591H81.3643L81.1914 25.4934Z" fill="#E0E0E0"/>
<path d="M59.5579 7.71133H22.4961V28.4088H59.5579V7.71133Z" fill="#E6E6E6"/>
<path d="M59.2044 7.71133H22.1426V28.4088H59.2044V7.71133Z" fill="#F5F5F5"/>
<path d="M56.5469 25.7488V10.3713L24.8051 10.3713V25.7488H56.5469Z" fill="white"/>
<path d="M30.3984 25.7515L32.3589 10.3713H37.8917L35.9312 25.7515H30.3984Z" fill="#FAFAFA"/>
<path d="M37.373 25.7515L39.3335 10.3713H42.4829L40.5225 25.7515H37.373Z" fill="#FAFAFA"/>
<path d="M48.748 25.7515L50.7085 10.3713H53.8579L51.8975 25.7515H48.748Z" fill="#FAFAFA"/>
<path d="M25.1523 25.7488V10.3713H24.8039V25.7488H25.1523Z" fill="#E6E6E6"/>
<path d="M60.0099 38.4982H58.8848V51.8407H60.0099V38.4982Z" fill="#F5F5F5"/>
<path d="M59.8661 38.4822H59.5469V51.8248H59.8661V38.4822Z" fill="#FAFAFA"/>
<path d="M57.7045 51.3672H61.1812C61.3282 51.3672 61.4739 51.3962 61.6097 51.4525C61.7456 51.5088 61.869 51.5913 61.973 51.6952C62.077 51.7992 62.1595 51.9227 62.2158 52.0586C62.2721 52.1944 62.301 52.34 62.301 52.4871V53.1042H56.582V52.4871C56.582 52.34 56.611 52.1944 56.6673 52.0586C56.7236 51.9227 56.806 51.7992 56.91 51.6952C57.014 51.5913 57.1375 51.5088 57.2733 51.4525C57.4092 51.3962 57.5548 51.3672 57.7019 51.3672H57.7045Z" fill="#F0F0F0"/>
<path d="M61.0898 52.12V51.2103C61.0898 51.1104 61.0089 51.0294 60.909 51.0294H60.4754C60.3755 51.0294 60.2945 51.1104 60.2945 51.2103V52.12C60.2945 52.2199 60.3755 52.3009 60.4754 52.3009H60.909C61.0089 52.3009 61.0898 52.2199 61.0898 52.12Z" fill="#F0F0F0"/>
<path d="M65.9208 40.166H52.9746L53.0651 39.8521C53.4679 38.4708 54.308 37.2574 55.4591 36.3941C56.6101 35.5308 58.0102 35.0641 59.4491 35.0641C60.8879 35.0641 62.288 35.5308 63.4391 36.3941C64.5901 37.2574 65.4302 38.4708 65.8331 39.8521L65.9208 40.166Z" fill="#E0E0E0"/>
<path d="M21.9846 38.4982H20.8594V51.8407H21.9846V38.4982Z" fill="#F5F5F5"/>
<path d="M21.8446 38.4822H21.5254V51.8248H21.8446V38.4822Z" fill="#FAFAFA"/>
<path d="M19.6838 51.3673H23.1684C23.3154 51.3673 23.4611 51.3962 23.5969 51.4525C23.7328 51.5088 23.8562 51.5913 23.9602 51.6953C24.0642 51.7992 24.1467 51.9227 24.203 52.0586C24.2593 52.1944 24.2882 52.3401 24.2882 52.4871V53.1042H18.5586V52.4871C18.5586 52.3396 18.5877 52.1936 18.6443 52.0573C18.701 51.9211 18.7839 51.7974 18.8885 51.6934C18.993 51.5893 19.1171 51.5069 19.2536 51.451C19.3901 51.395 19.5363 51.3666 19.6838 51.3673Z" fill="#F0F0F0"/>
<path d="M23.0645 52.1227V51.213C23.0645 51.1131 22.9835 51.0321 22.8836 51.0321H22.45C22.3501 51.0321 22.2691 51.1131 22.2691 51.213V52.1227C22.2691 52.2226 22.3501 52.3036 22.45 52.3036H22.8836C22.9835 52.3036 23.0645 52.2226 23.0645 52.1227Z" fill="#F0F0F0"/>
<path d="M27.8981 40.166H14.9492L15.0423 39.8521C15.4452 38.4708 16.2852 37.2574 17.4363 36.3941C18.5874 35.5308 19.9875 35.0641 21.4263 35.0641C22.8652 35.0641 24.2652 35.5308 25.4163 36.3941C26.5674 37.2574 27.4074 38.4708 27.8103 39.8521L27.8981 40.166Z" fill="#E0E0E0"/>
<path d="M66.5005 99.101C94.9845 99.101 118.075 97.7528 118.075 96.0898C118.075 94.4268 94.9845 93.0787 66.5005 93.0787C38.0166 93.0787 14.9258 94.4268 14.9258 96.0898C14.9258 97.7528 38.0166 99.101 66.5005 99.101Z" fill="#F5F5F5"/>
<path d="M84.135 28.5844C83.7258 28.1736 83.4961 27.6174 83.4961 27.0376C83.4961 26.4578 83.7258 25.9016 84.135 25.4908L85.1724 24.4534C85.5832 24.0442 86.1394 23.8145 86.7192 23.8145C87.299 23.8145 87.8552 24.0442 88.266 24.4534C88.6737 24.8644 88.9025 25.4199 88.9025 25.9989C88.9025 26.5778 88.6737 27.1333 88.266 27.5443L87.2259 28.5844C86.8149 28.9921 86.2594 29.2209 85.6805 29.2209C85.1015 29.2209 84.546 28.9921 84.135 28.5844Z" fill="#CE9E41"/>
<path opacity="0.4" d="M84.135 28.5844C83.7258 28.1736 83.4961 27.6174 83.4961 27.0376C83.4961 26.4578 83.7258 25.9016 84.135 25.4908L85.1724 24.4534C85.5832 24.0442 86.1394 23.8145 86.7192 23.8145C87.299 23.8145 87.8552 24.0442 88.266 24.4534C88.6737 24.8644 88.9025 25.4199 88.9025 25.9989C88.9025 26.5778 88.6737 27.1333 88.266 27.5443L87.2259 28.5844C86.8149 28.9921 86.2594 29.2209 85.6805 29.2209C85.1015 29.2209 84.546 28.9921 84.135 28.5844Z" fill="white"/>
<path d="M85.5944 27.132C85.0662 26.6024 84.7695 25.885 84.7695 25.137C84.7695 24.389 85.0662 23.6716 85.5944 23.142L87.6267 21.1098C88.1562 20.5815 88.8737 20.2849 89.6217 20.2849C90.3696 20.2849 91.0871 20.5815 91.6167 21.1098C92.1455 21.639 92.4426 22.3566 92.4426 23.1048C92.4426 23.853 92.1455 24.5705 91.6167 25.0998L89.5791 27.132C89.0491 27.6573 88.333 27.9521 87.5868 27.9521C86.8405 27.9521 86.1244 27.6573 85.5944 27.132Z" fill="#CE9E41"/>
<path d="M88.4279 24.2884C87.5247 23.3899 86.3024 22.8854 85.0284 22.8854C83.7543 22.8854 82.5321 23.3899 81.6289 24.2884L88.4279 31.0901C89.326 30.1861 89.83 28.9635 89.83 27.6893C89.83 26.415 89.326 25.1924 88.4279 24.2884Z" fill="#CE9E41"/>
<path d="M91.1856 37.4767C91.0763 37.4767 90.9714 37.4333 90.8941 37.356C90.8168 37.2787 90.7733 37.1738 90.7733 37.0644C90.7733 36.9551 90.8168 36.8502 90.8941 36.7729C90.9714 36.6956 91.0763 36.6521 91.1856 36.6521C93.161 36.6521 95.0554 35.8674 96.4522 34.4707C97.8489 33.0739 98.6336 31.1795 98.6336 29.2041C98.6336 27.2288 97.8489 25.3344 96.4522 23.9376C95.0554 22.5408 93.161 21.7561 91.1856 21.7561C91.1289 21.7607 91.0718 21.7535 91.018 21.7349C90.9642 21.7163 90.9148 21.6868 90.8729 21.6482C90.8311 21.6096 90.7977 21.5627 90.7749 21.5106C90.752 21.4584 90.7402 21.4021 90.7402 21.3452C90.7402 21.2882 90.752 21.2319 90.7749 21.1798C90.7977 21.1276 90.8311 21.0808 90.8729 21.0421C90.9148 21.0035 90.9642 20.974 91.018 20.9554C91.0718 20.9369 91.1289 20.9296 91.1856 20.9342C92.2843 20.9145 93.3759 21.1139 94.3967 21.5207C95.4175 21.9275 96.3469 22.5336 97.1309 23.3036C97.9148 24.0737 98.5375 24.9921 98.9626 26.0054C99.3876 27.0188 99.6066 28.1066 99.6066 29.2055C99.6066 30.3043 99.3876 31.3922 98.9626 32.4055C98.5375 33.4188 97.9148 34.3373 97.1309 35.1073C96.3469 35.8773 95.4175 36.4834 94.3967 36.8902C93.3759 37.2971 92.2843 37.4964 91.1856 37.4767Z" fill="#CE9E41"/>
<path d="M101.215 93.4591L91.8042 48.7711L90.546 49.1142L95.4324 72.3094L88.136 93.4458H81.6429L81.6616 93.1559H80.2119L80.1055 94.7279H101.593L101.681 93.4458L101.215 93.4591ZM95.6292 73.2085L99.8852 93.4591H88.6281L95.6292 73.2085Z" fill="#CE9E41"/>
<path d="M54.3532 93.4591L44.9528 48.7844L43.6946 49.1275L48.5783 72.3227L41.282 93.4591H34.7809L34.8022 93.1692H33.3498L33.2461 94.7412H54.7309L54.8187 93.4591H54.3532ZM48.7672 73.2085L53.0232 93.4591H41.7608L48.7672 73.2085Z" fill="#CE9E41"/>
<path d="M96.0971 70.9635L94.8868 74.4667H48.1426L49.3502 70.9635H96.0971Z" fill="#CE9E41"/>
<path d="M94.2559 73.6049L94.8863 74.4667H48.1421L47.5117 73.6049H94.2559Z" fill="#CE9E41"/>
<path opacity="0.2" d="M94.2559 73.6049L94.8863 74.4667H48.1421L47.5117 73.6049H94.2559Z" fill="black"/>
<path d="M86.736 65.561H29.6417L28.8145 64.7364L102.313 33.4708L103.138 34.2954L86.736 65.561Z" fill="#CE9E41"/>
<path opacity="0.4" d="M86.736 65.561H29.6417L28.8145 64.7364L102.313 33.4708L103.138 34.2954L86.736 65.561Z" fill="black"/>
<path d="M38.4886 44.2882L36.9043 47.311L37.1399 47.4345L38.7242 44.4117L38.4886 44.2882Z" fill="#CE9E41"/>
<path d="M36.3841 48.3036L35.6309 49.7408L35.8665 49.8643L36.6197 48.4271L36.3841 48.3036Z" fill="#CE9E41"/>
<path d="M85.9087 64.7364H28.8145L45.2187 33.4708H102.313L85.9087 64.7364Z" fill="#CE9E41"/>
<path opacity="0.3" d="M80.1678 59.7223L39.7598 59.866L51.7138 37.506C61.2898 38.1923 75.6325 38.2561 91.3212 37.9449L80.1678 59.7223Z" fill="black"/>
<path d="M79.5855 59.866H39.5312L51.0384 37.9316C63.3755 38.3891 76.5877 38.0965 90.8187 37.7029C88.6136 43.2303 84.6129 51.2502 79.5855 59.866Z" fill="white"/>
<g opacity="0.6">
<path opacity="0.6" d="M46.5842 57.2804C50.349 57.2592 54.1138 57.2414 57.8786 57.2272L69.9949 57.1714L76.0783 57.1421C76.1026 57.1382 76.1248 57.1257 76.1407 57.107C76.1567 57.0882 76.1655 57.0644 76.1655 57.0397C76.1655 57.0151 76.1567 56.9912 76.1407 56.9725C76.1248 56.9537 76.1026 56.9412 76.0783 56.9373L64.7839 56.9905L52.6676 57.0437L46.5842 57.073C46.5567 57.073 46.5303 57.0839 46.5109 57.1033C46.4914 57.1228 46.4805 57.1492 46.4805 57.1767C46.4805 57.2042 46.4914 57.2306 46.5109 57.2501C46.5303 57.2695 46.5567 57.2804 46.5842 57.2804Z" fill="#CE9E41"/>
<path opacity="0.6" d="M75.581 57.4799C77.9946 52.887 80.4302 48.3047 82.8881 43.7331C83.5974 42.4172 84.3067 41.1014 85.0161 39.7856C85.0799 39.6686 84.9017 39.5648 84.8379 39.6792C82.3552 44.2491 79.9018 48.8314 77.4776 53.4261C76.7807 54.7437 76.0873 56.0604 75.3975 57.3762C75.3363 57.4932 75.5119 57.597 75.5757 57.4799H75.581Z" fill="#CE9E41"/>
<path opacity="0.6" d="M85.1386 39.8814C81.3561 39.9027 77.5745 39.9204 73.7937 39.9346L61.5338 39.9905L55.469 40.0197C55.4415 40.0197 55.4151 40.0306 55.3956 40.0501C55.3762 40.0696 55.3652 40.0959 55.3652 40.1235C55.3652 40.151 55.3762 40.1774 55.3956 40.1968C55.4151 40.2163 55.4415 40.2272 55.469 40.2272C59.2515 40.2059 63.0331 40.1882 66.8139 40.174L79.0738 40.1181L85.1386 40.0889C85.1661 40.0889 85.1925 40.0779 85.212 40.0585C85.2314 40.039 85.2424 40.0127 85.2424 39.9851C85.2424 39.9576 85.2314 39.9312 85.212 39.9118C85.1925 39.8923 85.1661 39.8814 85.1386 39.8814Z" fill="#CE9E41"/>
<path opacity="0.6" d="M56.185 39.509C53.7484 44.1533 51.2862 48.7862 48.7982 53.4075C48.0888 54.7322 47.3742 56.0551 46.6542 57.3762C46.5904 57.4933 46.7686 57.597 46.8324 57.4799C49.3364 52.8693 51.8191 48.2373 54.2804 43.5841C54.9791 42.2612 55.6761 40.9374 56.3712 39.6127C56.435 39.4957 56.2568 39.3919 56.193 39.509H56.185Z" fill="#CE9E41"/>
<path opacity="0.6" d="M60.2122 55.062L64.3698 46.8639L65.4897 44.6614C65.5508 44.5444 65.3726 44.438 65.3114 44.5577L61.0209 52.9899L60.0234 54.945C59.9648 55.0647 60.1431 55.1684 60.2016 55.0487L60.2122 55.062Z" fill="#CE9E41"/>
<path opacity="0.6" d="M50.3422 55.0966L52.7362 50.3884C52.7947 50.2687 52.6165 50.165 52.558 50.282L50.164 54.9929C50.1055 55.1126 50.2837 55.2163 50.3422 55.0966Z" fill="#CE9E41"/>
<path opacity="0.6" d="M73.9439 55.062C75.9363 51.4684 77.6945 47.7497 79.5831 44.1002C80.046 43.2064 80.5141 42.3126 81.0036 41.4402C81.0674 41.3231 80.8892 41.2194 80.8253 41.3364C78.833 44.9274 77.0721 48.6488 75.1861 52.2956C74.7233 53.192 74.2551 54.0831 73.7657 54.9556C73.7019 55.07 73.8774 55.1764 73.9439 55.0594V55.062Z" fill="#CE9E41"/>
<path opacity="0.6" d="M63.015 55.0354C64.8238 51.479 66.6513 47.9279 68.4547 44.3688L69.0665 43.1612L69.3964 42.5095L69.5586 42.1849C69.6039 42.0972 69.673 41.8524 69.7635 41.8046C69.8967 41.7859 70.0319 41.7859 70.1651 41.8046H70.6732H71.7611C73.3802 41.7886 74.9983 41.7753 76.6156 41.7647C78.2515 41.7647 79.8848 41.7514 81.5207 41.7806C81.545 41.7767 81.5671 41.7642 81.5831 41.7454C81.5991 41.7267 81.6078 41.7028 81.6078 41.6782C81.6078 41.6536 81.5991 41.6297 81.5831 41.611C81.5671 41.5922 81.545 41.5797 81.5207 41.5758C77.5759 41.5066 73.6284 41.5758 69.6863 41.621C69.6681 41.6208 69.6502 41.6253 69.6343 41.6342C69.6185 41.6431 69.6052 41.6559 69.5959 41.6716C67.3668 46.1111 65.0898 50.5267 62.8368 54.9529C62.7756 55.0726 62.9539 55.1764 63.015 55.0567V55.0354Z" fill="#CE9E41"/>
<path opacity="0.6" d="M73.961 54.9849C72.9901 51.487 71.833 48.0423 70.7211 44.5896C70.4073 43.6178 70.0952 42.6469 69.7848 41.6769C69.7449 41.5492 69.5454 41.6024 69.5853 41.7301C70.7105 45.2705 71.8915 48.795 72.9742 52.3488C73.2402 53.2426 73.5062 54.139 73.7722 55.0407C73.7807 55.0659 73.7985 55.0868 73.822 55.0991C73.8455 55.1115 73.8728 55.1144 73.8984 55.1073C73.9239 55.1001 73.9458 55.0834 73.9594 55.0607C73.973 55.0379 73.9774 55.0108 73.9717 54.9849H73.961Z" fill="#CE9E41"/>
<path opacity="0.6" d="M80.9485 41.5838C78.7514 43.4458 76.3946 45.095 74.0458 46.7495C71.5029 48.5397 68.9386 50.298 66.4409 52.1467C65.2067 53.059 63.9857 53.9927 62.8153 54.9849C62.7142 55.07 62.8605 55.2163 62.9616 55.1312C65.2013 53.2346 67.6007 51.5322 69.9973 49.8404C72.5217 48.0582 75.0726 46.3106 77.5624 44.4779C78.7647 43.5948 79.9564 42.6904 81.0948 41.7301C81.1959 41.6423 81.0496 41.4987 80.9485 41.5838Z" fill="#CE9E41"/>
<path opacity="0.6" d="M62.6302 55.0061C65.6732 55.0939 68.7162 55.1285 71.7593 55.1312C72.4934 55.1312 73.2303 55.1312 73.9644 55.1152C73.9887 55.1113 74.0109 55.0988 74.0268 55.08C74.0428 55.0613 74.0516 55.0374 74.0516 55.0128C74.0516 54.9881 74.0428 54.9643 74.0268 54.9455C74.0109 54.9268 73.9887 54.9143 73.9644 54.9104C70.9134 54.9689 67.8464 54.9104 64.8034 54.8519C64.0799 54.8359 63.3537 54.8226 62.6302 54.8013C62.6058 54.8052 62.5837 54.8177 62.5677 54.8365C62.5517 54.8552 62.543 54.8791 62.543 54.9037C62.543 54.9284 62.5517 54.9522 62.5677 54.971C62.5837 54.9897 62.6058 55.0022 62.6302 55.0061Z" fill="#CE9E41"/>
<path opacity="0.6" d="M58.4115 55.1312C60.3507 51.5215 62.1355 47.8374 64.0161 44.1932C64.479 43.2924 64.9489 42.3951 65.4259 41.5013C65.4871 41.3843 65.3089 41.2805 65.2477 41.3976C63.3086 45.0072 61.5237 48.6913 59.6431 52.3355C59.1803 53.2372 58.7148 54.1363 58.2333 55.0274C58.1721 55.1445 58.3503 55.2482 58.4115 55.1312Z" fill="#CE9E41"/>
<path opacity="0.6" d="M52.6828 55.0859C53.8958 52.7026 55.1105 50.3201 56.327 47.9385C56.9335 46.7469 57.54 45.5552 58.1465 44.3635C58.4444 43.781 58.7397 43.1957 59.0349 42.6132C59.1307 42.4217 59.277 41.9376 59.4845 41.8551C59.6607 41.8276 59.8402 41.8276 60.0165 41.8551H60.607C62.1498 41.8285 63.6952 41.7993 65.2407 41.8551C65.371 41.8551 65.371 41.653 65.2407 41.6476C63.2803 41.5865 61.3199 41.6476 59.3621 41.6769C59.3439 41.6766 59.326 41.6812 59.3101 41.6901C59.2943 41.6989 59.281 41.7118 59.2717 41.7274C57.0346 46.1616 54.7656 50.5826 52.5126 55.0088C52.4514 55.1258 52.6296 55.2323 52.6908 55.1126L52.6828 55.0859Z" fill="#CE9E41"/>
<path opacity="0.6" d="M58.4262 55.0806C58.8226 50.6411 59.046 46.1909 59.4556 41.754C59.4689 41.621 59.2641 41.621 59.2508 41.754C58.8412 46.1909 58.6177 50.6411 58.2188 55.0806C58.2188 55.211 58.4129 55.211 58.4262 55.0806Z" fill="#CE9E41"/>
<path opacity="0.6" d="M65.2701 41.6503C61.9717 45.2094 58.5457 48.6461 55.1967 52.1546C54.2834 53.1069 53.379 54.0672 52.4835 55.0354C52.3931 55.1312 52.5394 55.2775 52.6298 55.1791C55.9468 51.5881 59.3995 48.1221 62.7804 44.5896C63.667 43.6639 64.5457 42.7329 65.4164 41.7966C65.5069 41.7008 65.3606 41.5545 65.2701 41.6503Z" fill="#CE9E41"/>
<path opacity="0.6" d="M52.4279 55.062C54.3883 55.1578 56.3594 55.2429 58.3224 55.187C58.4554 55.187 58.4554 54.9769 58.3224 54.9822C56.3594 55.0354 54.3883 54.953 52.4279 54.8572C52.2949 54.8572 52.2949 55.0567 52.4279 55.062Z" fill="#CE9E41"/>
<path opacity="0.6" d="M55.5903 42.8446C55.5411 42.926 55.5085 43.0163 55.4944 43.1104C55.4802 43.2044 55.4848 43.3003 55.5079 43.3926C55.5327 43.4704 55.577 43.5406 55.6366 43.5965C55.6962 43.6524 55.7691 43.692 55.8484 43.7118C56.0431 43.7436 56.2424 43.7317 56.432 43.677C56.6215 43.6222 56.7965 43.526 56.9443 43.3952C57.0976 43.2833 57.2207 43.135 57.3025 42.9637C57.3842 42.7923 57.422 42.6033 57.4124 42.4137C57.3906 42.2578 57.3102 42.1161 57.1877 42.0173C57.0652 41.9185 56.9097 41.8701 56.7528 41.8817C56.5254 41.9076 56.3149 42.0143 56.1596 42.1823C56.0733 42.2619 55.9916 42.3462 55.9149 42.435C55.841 42.5091 55.7871 42.6005 55.7579 42.701C55.734 42.8313 55.9335 42.8872 55.9574 42.7569C55.9814 42.6265 56.1303 42.4908 56.2234 42.3977C56.3279 42.2803 56.4544 42.1845 56.5958 42.1158C56.6517 42.0908 56.7122 42.078 56.7733 42.0781C56.8345 42.0782 56.895 42.0912 56.9507 42.1163C57.0065 42.1415 57.0563 42.1781 57.0969 42.2239C57.1376 42.2696 57.168 42.3234 57.1863 42.3818C57.209 42.5207 57.1966 42.6631 57.1501 42.796C57.1036 42.9289 57.0247 43.048 56.9203 43.1425C56.6955 43.3767 56.3927 43.5205 56.0691 43.5469C56.0039 43.5561 55.9374 43.5485 55.8759 43.5248C55.8144 43.501 55.7601 43.4619 55.718 43.4112C55.685 43.34 55.6708 43.2615 55.6768 43.1832C55.6829 43.105 55.709 43.0296 55.7526 42.9643C55.8138 42.8473 55.6356 42.7436 55.5744 42.8606L55.5903 42.8446Z" fill="#CE9E41"/>
</g>
<path opacity="0.2" d="M102.313 33.4708L85.9167 64.7364H28.8145L45.2187 33.4708H61.5857L53.2439 37.2932H53.2253C48.9693 38.844 45.5671 41.2194 43.8275 44.1853C39.8375 50.9789 46.1071 58.2833 57.8191 60.523C69.5311 62.7627 82.2512 59.0493 86.2332 52.2557C87.0642 50.8974 87.4785 49.3251 87.4249 47.7337L88.2841 33.4548L102.313 33.4708Z" fill="black"/>
<path d="M50.5393 28.2199C49.8504 29.4356 49.1508 30.6964 48.4832 31.9439C47.8155 33.1915 47.1532 34.4497 46.6052 35.7052C46.4616 36.0191 46.3392 36.3303 46.2115 36.6415C46.1982 36.6708 46.2115 36.6415 46.2115 36.6415C46.2115 36.6415 46.2115 36.6628 46.1956 36.6841C46.1862 36.7636 46.1862 36.8439 46.1956 36.9235C46.2449 37.1825 46.3263 37.4345 46.4376 37.6736C46.56 37.9396 46.7036 38.2348 46.8659 38.5195C47.5816 39.7037 48.3761 40.8385 49.2439 41.9163L48.2065 43.0202C46.9719 42.1149 45.8597 41.0536 44.8975 39.8628C44.3395 39.1904 43.9078 38.4226 43.6233 37.5964C43.5391 37.326 43.4873 37.0465 43.4691 36.7639C43.4601 36.597 43.4654 36.4297 43.485 36.2638C43.4942 36.1744 43.5084 36.0856 43.5276 35.9978C43.5276 35.9526 43.5515 35.9047 43.5622 35.8595L43.5967 35.7398C43.7191 35.3727 43.8361 35.0003 43.9691 34.6438C44.4904 33.2461 45.0853 31.877 45.7513 30.5421C46.419 29.2121 47.1133 27.938 47.8793 26.6559L50.5393 28.2199Z" fill="#FFC3BD"/>
<path d="M48.8581 41.5652L50.2732 42.028L49.0842 44.0337C49.0842 44.0337 48.0415 43.5628 47.834 42.6079L48.8581 41.5652Z" fill="#FFC3BD"/>
<path d="M52.2107 42.8047L50.8302 44.3502L49.0879 44.0363L50.2769 42.0307L52.2107 42.8047Z" fill="#FFC3BD"/>
<path d="M58.808 18.886C58.7681 19.0429 58.808 19.1919 58.9224 19.2185C59.0368 19.2451 59.1405 19.1387 59.1884 18.9818C59.2363 18.8248 59.1884 18.6732 59.074 18.6466C58.9596 18.62 58.8479 18.7264 58.808 18.886Z" fill="#263238"/>
<path d="M58.8051 19.1893C58.8695 19.7189 59.0065 20.2371 59.2121 20.7294C59.0835 20.78 58.9453 20.8018 58.8074 20.793C58.6695 20.7843 58.5352 20.7453 58.4141 20.6789L58.8051 19.1893Z" fill="#ED847E"/>
<path d="M58.4559 17.8619C58.4388 17.8545 58.4243 17.8422 58.4141 17.8266C58.4039 17.811 58.3984 17.7928 58.3984 17.7741C58.3984 17.7555 58.4039 17.7373 58.4141 17.7217C58.4243 17.7061 58.4388 17.6938 58.4559 17.6864C58.5958 17.6273 58.7479 17.6027 58.8993 17.6148C59.0507 17.6268 59.1969 17.6751 59.3257 17.7555C59.3462 17.7709 59.36 17.7935 59.3644 17.8186C59.3688 17.8438 59.3636 17.8697 59.3497 17.8912C59.3348 17.9115 59.3125 17.9252 59.2876 17.9291C59.2627 17.9331 59.2372 17.9271 59.2167 17.9125C59.1134 17.8505 58.9968 17.8138 58.8766 17.8055C58.7564 17.7972 58.636 17.8174 58.5251 17.8646C58.5026 17.8729 58.4777 17.8719 58.4559 17.8619Z" fill="#263238"/>
<path d="M53.3845 19.5031C53.6745 20.9794 53.9644 23.6847 52.9297 24.6689C52.9297 24.6689 53.334 26.1691 56.0765 26.1691C59.0956 26.1691 57.5209 24.6689 57.5209 24.6689C55.8717 24.2778 55.9249 23.0542 56.1909 21.9078L53.3845 19.5031Z" fill="#FFC3BD"/>
<path d="M52.4244 25.4296C52.2834 24.6316 52.1265 23.7272 52.6478 23.4958C53.2197 23.2298 56.2255 23.2138 57.1964 23.8841C58.1673 24.5545 57.7284 26.0973 57.7284 26.0973L52.4244 25.4296Z" fill="#263238"/>
<path opacity="0.6" d="M52.4244 25.4296C52.2834 24.6316 52.1265 23.7272 52.6478 23.4958C53.2197 23.2298 56.2255 23.2138 57.1964 23.8841C58.1673 24.5545 57.7284 26.0973 57.7284 26.0973L52.4244 25.4296Z" fill="#CE9E41"/>
<path d="M42.7911 93.1426C42.8724 93.172 42.9588 93.1848 43.0451 93.1802C43.1315 93.1757 43.216 93.1538 43.2938 93.116C43.3244 93.0886 43.3455 93.0522 43.3541 93.012C43.3627 92.9719 43.3583 92.93 43.3417 92.8925C43.3322 92.8614 43.3161 92.8327 43.2946 92.8084C43.273 92.7841 43.2464 92.7647 43.2167 92.7515C42.9507 92.6212 42.3202 92.8766 42.2936 92.8899C42.2849 92.8933 42.2773 92.8991 42.2716 92.9066C42.266 92.9141 42.2626 92.9231 42.2617 92.9324C42.2617 92.9417 42.2644 92.9507 42.2697 92.9583C42.2749 92.9659 42.2823 92.9717 42.291 92.975C42.4508 93.0495 42.6186 93.1057 42.7911 93.1426ZM43.1209 92.8207L43.1768 92.8393C43.194 92.847 43.2093 92.8584 43.2217 92.8727C43.2341 92.8869 43.2433 92.9037 43.2486 92.9218C43.2752 93.0069 43.2486 93.0335 43.2326 93.0415C43.1236 93.1346 42.7219 93.0415 42.4346 92.9351C42.653 92.8506 42.8875 92.8161 43.1209 92.834V92.8207Z" fill="#CE9E41"/>
<path d="M42.2949 92.9803H42.3162C42.5449 92.9138 43.0344 92.568 43.0397 92.3392C43.0405 92.3033 43.0287 92.2682 43.0063 92.24C42.984 92.2119 42.9525 92.1924 42.9173 92.185C42.8827 92.1728 42.8459 92.1679 42.8093 92.1707C42.7726 92.1734 42.737 92.1837 42.7045 92.2009C42.4385 92.3392 42.2656 92.8978 42.2577 92.9218C42.2553 92.9302 42.2553 92.9391 42.2576 92.9476C42.26 92.956 42.2646 92.9637 42.271 92.9697C42.2779 92.9753 42.2861 92.9789 42.2949 92.9803ZM42.8641 92.2648H42.8854C42.9439 92.2834 42.9439 92.3126 42.9439 92.3259C42.9439 92.4616 42.6194 92.7329 42.3827 92.8446C42.4449 92.6223 42.5729 92.4238 42.7498 92.2754C42.788 92.2575 42.8314 92.2537 42.8721 92.2648H42.8641Z" fill="#CE9E41"/>
<path d="M57.6765 94.1321C57.9425 94.1321 58.1845 94.0948 58.2696 93.9805C58.2915 93.9498 58.3033 93.9131 58.3033 93.8754C58.3033 93.8377 58.2915 93.801 58.2696 93.7703C58.2534 93.7423 58.2315 93.718 58.2054 93.6987C58.1793 93.6795 58.1496 93.6659 58.118 93.6586C57.7829 93.5682 57.078 93.9698 57.054 93.9858C57.0452 93.9906 57.0382 93.9981 57.0339 94.0072C57.0296 94.0163 57.0283 94.0264 57.0301 94.0363C57.0318 94.0458 57.0363 94.0547 57.0429 94.0617C57.0495 94.0688 57.0579 94.0738 57.0673 94.0762C57.2685 94.1115 57.4722 94.1302 57.6765 94.1321ZM57.9957 93.7411C58.0266 93.7368 58.0579 93.7368 58.0888 93.7411C58.108 93.7453 58.1261 93.7534 58.1421 93.7648C58.1581 93.7763 58.1716 93.7908 58.1819 93.8076C58.2164 93.8661 58.2031 93.8953 58.1819 93.914C58.0861 94.0443 57.5754 94.047 57.2003 93.9938C57.4442 93.8599 57.7115 93.7741 57.9877 93.7411H57.9957Z" fill="#CE9E41"/>
<path d="M57.0679 94.0763H57.0865C57.3286 93.9672 57.8127 93.5443 57.7755 93.3022C57.7755 93.249 57.7276 93.1825 57.5973 93.1692C57.5496 93.1641 57.5015 93.1687 57.4557 93.1829C57.41 93.1971 57.3676 93.2205 57.3313 93.2516C57.0653 93.4618 57.02 94.0071 57.02 94.0284C57.0188 94.0369 57.0199 94.0456 57.0231 94.0535C57.0264 94.0615 57.0318 94.0684 57.0387 94.0736C57.048 94.0772 57.0581 94.0781 57.0679 94.0763ZM57.56 93.257H57.5866C57.6744 93.257 57.6797 93.2995 57.6824 93.3102C57.7037 93.4458 57.3765 93.789 57.1264 93.9406C57.1494 93.7108 57.2423 93.4936 57.3924 93.3181C57.4396 93.2791 57.4988 93.2575 57.56 93.257Z" fill="#CE9E41"/>
<path d="M54.8477 94.0283H56.8666L57.0661 89.3521H55.0498L54.8477 94.0283Z" fill="#FFC3BD"/>
<path d="M40.0508 92.443L42.0218 92.8712L44.0035 88.5168L42.0298 88.0886L40.0508 92.443Z" fill="#FFC3BD"/>
<path d="M42.2144 92.6718L39.996 92.1929C39.9569 92.1845 39.916 92.1896 39.8802 92.2075C39.8444 92.2254 39.8158 92.255 39.7992 92.2914L39.0304 93.9592C39.0119 94 39.0029 94.0445 39.004 94.0893C39.0051 94.1341 39.0163 94.1781 39.0367 94.218C39.0572 94.2579 39.0864 94.2926 39.1221 94.3197C39.1579 94.3467 39.1993 94.3653 39.2432 94.3741C40.0199 94.5284 40.4056 94.563 41.3712 94.7758C41.9724 94.9061 43.3263 95.236 44.1536 95.4142C44.9808 95.5924 45.2681 94.7971 44.9516 94.6508C43.5045 93.9884 42.9007 93.4059 42.507 92.8633C42.4364 92.7656 42.3322 92.6974 42.2144 92.6718Z" fill="#263238"/>
<path d="M56.8524 93.7943H54.6472C54.6072 93.7941 54.5684 93.8078 54.5374 93.833C54.5063 93.8582 54.485 93.8934 54.477 93.9326L54.078 95.7254C54.0679 95.7688 54.0678 95.8139 54.0777 95.8572C54.0876 95.9006 54.1073 95.9412 54.1353 95.9758C54.1632 96.0104 54.1987 96.0382 54.239 96.0571C54.2793 96.0759 54.3234 96.0853 54.3679 96.0845C55.1659 96.0712 56.3124 96.026 57.3125 96.026C58.4803 96.026 59.4884 96.0899 60.861 96.0899C61.6882 96.0899 61.925 95.252 61.5712 95.1748C59.9938 94.829 58.7037 94.7918 57.3391 93.9512C57.1943 93.8554 57.0259 93.8011 56.8524 93.7943Z" fill="#263238"/>
<path d="M60.8775 27.1081C61.5345 28.5897 62.2527 30.1112 63.0055 31.5662C63.3805 32.2951 63.7716 33.0133 64.1759 33.6942C64.5668 34.3673 64.9985 35.0157 65.4686 35.636L65.6389 35.8488C65.6814 35.8887 65.6389 35.8701 65.7054 35.918C65.8115 36.0109 65.9254 36.0946 66.0459 36.168C66.3652 36.3627 66.6946 36.5403 67.0327 36.7C67.7456 37.0432 68.5037 37.373 69.2724 37.6842C70.8073 38.3093 72.3873 38.9078 73.9567 39.5063L73.5737 40.9746C71.8708 40.7013 70.1837 40.3372 68.5197 39.884C67.6844 39.6446 66.8492 39.3999 66.006 39.086C65.5624 38.9222 65.1289 38.7321 64.7079 38.5168C64.4578 38.3872 64.2186 38.2377 63.9923 38.0699C63.848 37.9614 63.7128 37.8413 63.588 37.7108L63.3406 37.4448C62.7334 36.7583 62.1794 36.0265 61.6835 35.2556C61.1914 34.5135 60.7471 33.7554 60.3215 32.9893C59.4806 31.4643 58.7258 29.8933 58.0605 28.2838L60.8775 27.1081Z" fill="#FFC3BD"/>
<path d="M48.6903 25.1264C46.7991 25.56 43.623 34.9551 43.623 34.9551L46.714 35.9818C46.714 35.9818 49.8687 31.3082 50.9407 29.0658C52.0606 26.6958 50.6268 24.6822 48.6903 25.1264Z" fill="#CE9E41"/>
<path opacity="0.5" d="M48.6903 25.1264C46.7991 25.56 43.623 34.9551 43.623 34.9551L46.714 35.9818C46.714 35.9818 49.8687 31.3082 50.9407 29.0658C52.0606 26.6958 50.6268 24.6822 48.6903 25.1264Z" fill="black"/>
<path d="M47.2531 35.5217C47.2531 35.5217 44.2234 34.9444 43.5291 34.5135C43.2871 34.8646 42.9971 36.1361 43.194 36.5112C43.3908 36.8862 46.2131 37.4262 46.5961 37.2054C46.9792 36.9847 47.2531 35.5217 47.2531 35.5217Z" fill="#263238"/>
<path opacity="0.6" d="M47.2531 35.5217C47.2531 35.5217 44.2234 34.9444 43.5291 34.5135C43.2871 34.8646 42.9971 36.1361 43.194 36.5112C43.3908 36.8862 46.2131 37.4262 46.5961 37.2054C46.9792 36.9847 47.2531 35.5217 47.2531 35.5217Z" fill="#CE9E41"/>
<path opacity="0.3" d="M49.918 28.462C49.3408 29.0392 48.8167 30.6778 48.8008 32.7606C49.4684 31.6966 50.1574 30.5554 50.6388 29.643C50.4101 28.8211 50.1547 28.2332 49.918 28.462Z" fill="black"/>
<path d="M60.0017 25.2301C60.0017 25.2301 62.151 27.656 60.1214 42.6797H49.3245C49.25 41.0225 50.2901 32.9361 48.6914 25.1237C49.8852 24.8932 51.0927 24.7403 52.3063 24.6662C53.8355 24.5783 55.3684 24.5783 56.8975 24.6662C57.9453 24.7731 58.9832 24.9616 60.0017 25.2301Z" fill="#CE9E41"/>
<path opacity="0.5" d="M60.0017 25.2301C60.0017 25.2301 62.151 27.656 60.1214 42.6797H49.3245C49.25 41.0225 50.2901 32.9361 48.6914 25.1237C49.8852 24.8932 51.0927 24.7403 52.3063 24.6662C53.8355 24.5783 55.3684 24.5783 56.8975 24.6662C57.9453 24.7731 58.9832 24.9616 60.0017 25.2301Z" fill="black"/>
<path opacity="0.3" d="M58.4004 30.0288C58.6052 32.2206 59.9964 35.003 60.8103 36.2638C60.9167 34.8168 60.9726 33.5559 60.9886 32.4547L58.4004 30.0288Z" fill="black"/>
<path d="M57.3277 26.7942C56.0269 29.2547 62.8179 37.256 62.8179 37.256L65.1906 34.8487C65.1906 34.8487 62.1103 29.4622 61.3868 27.0735C60.4931 24.1209 58.3172 24.9215 57.3277 26.7942Z" fill="#CE9E41"/>
<path opacity="0.5" d="M57.3277 26.7942C56.0269 29.2547 62.8179 37.256 62.8179 37.256L65.1906 34.8487C65.1906 34.8487 62.1103 29.4622 61.3868 27.0735C60.4931 24.1209 58.3172 24.9215 57.3277 26.7942Z" fill="black"/>
<path d="M65.0949 34.3725C65.0949 34.3725 63.036 36.6681 62.3125 37.0325C62.4881 37.4209 63.4217 38.3333 63.85 38.3625C64.2782 38.3918 66.1934 36.2505 66.2014 35.8089C66.2094 35.3674 65.0949 34.3725 65.0949 34.3725Z" fill="#263238"/>
<path opacity="0.6" d="M65.0949 34.3725C65.0949 34.3725 63.036 36.6681 62.3125 37.0325C62.4881 37.4209 63.4217 38.3333 63.85 38.3625C64.2782 38.3918 66.1934 36.2505 66.2014 35.8089C66.2094 35.3674 65.0949 34.3725 65.0949 34.3725Z" fill="#CE9E41"/>
<path d="M73.4915 39.5329L75.4466 38.6897L76.0557 40.8177C76.0557 40.8177 74.5635 41.7939 73.3691 40.9401L73.4915 39.5329Z" fill="#FFC3BD"/>
<path d="M77.6277 39.6979C77.5969 39.7184 77.5593 39.7259 77.523 39.719C77.4867 39.712 77.4545 39.6911 77.4335 39.6606L75.263 36.442C75.2525 36.4269 75.2451 36.4098 75.2413 36.3918C75.2375 36.3738 75.2373 36.3552 75.2408 36.3371C75.2442 36.319 75.2513 36.3018 75.2615 36.2865C75.2717 36.2711 75.2849 36.258 75.3002 36.2478C75.3153 36.2373 75.3324 36.23 75.3504 36.2261C75.3684 36.2223 75.387 36.2222 75.4051 36.2256C75.4232 36.2291 75.4404 36.2361 75.4558 36.2463C75.4711 36.2566 75.4842 36.2697 75.4944 36.2851L77.6649 39.5037C77.6754 39.5188 77.6828 39.5359 77.6866 39.5539C77.6905 39.5719 77.6906 39.5905 77.6872 39.6086C77.6837 39.6267 77.6766 39.6439 77.6664 39.6592C77.6562 39.6745 77.6431 39.6877 77.6277 39.6979Z" fill="#263238"/>
<path d="M77.5068 38.8467L78.366 40.1181L76.0545 40.8097L75.4453 38.6871L77.5068 38.8467Z" fill="#FFC3BD"/>
<path opacity="0.2" d="M57.066 89.3547L56.965 91.7647H54.9434L55.0471 89.3547H57.066Z" fill="black"/>
<path opacity="0.2" d="M42.0312 88.0912L44.0049 88.5168L42.9835 90.7619L41.0098 90.3336L42.0312 88.0912Z" fill="black"/>
<path d="M53.6329 17.1996C53.2552 19.168 52.9333 20.3011 53.6568 21.546C54.7448 23.408 57.3622 23.142 58.3198 21.3306C59.1843 19.6973 59.6498 16.7554 57.958 15.4972C57.5851 15.2181 57.1471 15.0391 56.6855 14.977C56.2239 14.9149 55.7542 14.9718 55.3208 15.1424C54.8874 15.313 54.5048 15.5915 54.2094 15.9516C53.914 16.3116 53.7155 16.7412 53.6329 17.1996Z" fill="#FFC3BD"/>
<path d="M52.8574 16.226C54.2805 15.7605 56.9778 14.7577 57.9301 17.048C58.8823 19.3382 55.0041 21.7296 54.0172 21.7322C53.2245 21.7402 51.2934 16.758 52.8574 16.226Z" fill="#263238"/>
<path d="M55.82 17.1916C58.6076 18.7211 61.14 16.5213 60.0094 14.0342C58.879 11.5471 56.4078 11.9062 57.1765 13.1191C57.9453 14.3321 55.8199 12.494 54.3516 13.0606C53.3222 13.4569 54.6575 14.1033 54.7825 14.5715C54.9076 15.0396 52.088 15.0529 51.7129 15.7552C51.3378 16.4574 52.6918 17.9204 53.386 17.6917C54.0803 17.4629 55.3279 16.9176 55.82 17.1916Z" fill="#263238"/>
<path d="M56.6266 18.37C56.5346 18.8594 56.6076 19.3655 56.8341 19.809C57.1347 20.3889 57.656 20.216 57.8821 19.6654C58.0869 19.168 58.1747 18.2689 57.7225 17.8725C57.2703 17.4762 56.7436 17.7821 56.6266 18.37Z" fill="#FFC3BD"/>
<path d="M56.2909 42.6797C56.2909 42.6797 54.0006 58.1077 52.7424 63.8852C51.3645 70.216 44.0017 90.5038 44.0017 90.5038L40.3867 89.7218C40.3867 89.7218 45.9009 70.7267 46.6856 64.4518C47.5395 57.6502 49.3243 42.6717 49.3243 42.6717L56.2909 42.6797Z" fill="#263238"/>
<path d="M44.8671 89.2989C44.883 89.2989 44.1941 90.6049 44.1941 90.6049L40.127 89.7245L40.4701 88.5035L44.8671 89.2989Z" fill="#CE9E41"/>
<path opacity="0.3" d="M54.8444 48.1753C52.1844 48.694 52.4743 58.5732 52.7935 63.6538C53.557 60.0628 54.6768 53.1521 55.4402 48.2471C55.2553 48.1568 55.0454 48.1315 54.8444 48.1753Z" fill="black"/>
<path d="M60.115 42.6797C60.115 42.6797 60.381 57.7725 60.1735 63.9278C59.9501 70.3304 57.721 91.2965 57.721 91.2965H54.2949C54.2949 91.2965 54.1672 70.7055 54.0156 64.4172C53.8507 57.5624 53.0234 42.6797 53.0234 42.6797H60.115Z" fill="#263238"/>
<path d="M58.3743 89.9346C58.3903 89.9346 58.1802 91.355 58.1802 91.355H54.0199L53.9082 90.0889L58.3743 89.9346Z" fill="#CE9E41"/>
</svg>
