<svg width="133" height="101" viewBox="0 0 133 101" fill="none" xmlns="http://www.w3.org/2000/svg">
<path d="M133 88.3306H0V88.3971H133V88.3306Z" fill="#EBEBEB"/>
<path d="M119.674 92.6105H96.5586V92.677H119.674V92.6105Z" fill="#EBEBEB"/>
<path d="M97.4483 90.1421H95.1367V90.2086H97.4483V90.1421Z" fill="#EBEBEB"/>
<path d="M90.8975 93.3341H85.793V93.4006H90.8975V93.3341Z" fill="#EBEBEB"/>
<path d="M19.7007 90.589H13.9551V90.6555H19.7007V90.589Z" fill="#EBEBEB"/>
<path d="M29.4977 90.589H22.0684V90.6555H29.4977V90.589Z" fill="#EBEBEB"/>
<path d="M67.6997 91.6796H55.2402V91.7461H67.6997V91.6796Z" fill="#EBEBEB"/>
<path d="M63.0422 76.467H11.6803C11.2779 76.4663 10.8923 76.306 10.608 76.0212C10.3237 75.7365 10.1641 75.3505 10.1641 74.9482V2.74778C10.1676 2.34772 10.3288 1.9652 10.6127 1.6833C10.8965 1.40141 11.2802 1.2429 11.6803 1.24222H63.0422C63.445 1.24222 63.8314 1.40224 64.1162 1.68708C64.401 1.97192 64.5611 2.35825 64.5611 2.76108V74.9482C64.5611 75.351 64.401 75.7373 64.1162 76.0222C63.8314 76.307 63.445 76.467 63.0422 76.467ZM11.6803 1.29542C11.2955 1.29612 10.9268 1.44945 10.655 1.72174C10.3832 1.99404 10.2306 2.36305 10.2306 2.74778V74.9482C10.2306 75.3329 10.3832 75.7019 10.655 75.9742C10.9268 76.2465 11.2955 76.3998 11.6803 76.4005H63.0422C63.4272 76.3998 63.7962 76.2466 64.0684 75.9743C64.3406 75.7021 64.4939 75.3331 64.4946 74.9482V2.74778C64.4939 2.3628 64.3406 1.9938 64.0684 1.72158C63.7962 1.44936 63.4272 1.29612 63.0422 1.29542H11.6803Z" fill="#EBEBEB"/>
<path d="M120.581 76.467H69.2161C68.8135 76.4663 68.4276 76.3061 68.1429 76.0214C67.8582 75.7367 67.698 75.3508 67.6973 74.9482V2.74778C67.7015 2.34748 67.8633 1.96496 68.1476 1.68314C68.4319 1.40131 68.8158 1.2429 69.2161 1.24222H120.581C120.98 1.2436 121.363 1.40242 121.647 1.68424C121.93 1.96606 122.091 2.34818 122.094 2.74778V74.9482C122.094 75.3501 121.935 75.7356 121.651 76.0203C121.368 76.305 120.983 76.4656 120.581 76.467ZM69.2161 1.29542C68.8311 1.29612 68.4621 1.44936 68.1899 1.72158C67.9177 1.9938 67.7645 2.3628 67.7638 2.74778V74.9482C67.7645 75.3331 67.9177 75.7021 68.1899 75.9743C68.4621 76.2466 68.8311 76.3998 69.2161 76.4005H120.581C120.966 76.3998 121.335 76.2466 121.607 75.9743C121.879 75.7021 122.032 75.3331 122.033 74.9482V2.74778C122.032 2.3628 121.879 1.9938 121.607 1.72158C121.335 1.44936 120.966 1.29612 120.581 1.29542H69.2161Z" fill="#EBEBEB"/>
<path d="M30.4058 40.8922C39.0263 40.8922 46.0146 33.9039 46.0146 25.2833C46.0146 16.6628 39.0263 9.67442 30.4058 9.67442C21.7852 9.67442 14.7969 16.6628 14.7969 25.2833C14.7969 33.9039 21.7852 40.8922 30.4058 40.8922Z" fill="#FAFAFA"/>
<path d="M28.9455 20.7719H82.4594C82.4594 20.7719 81.0682 15.4519 76.4265 15.4519C71.7848 15.4519 75.5567 18.4072 71.9577 18.4072C68.3587 18.4072 66.5287 8.83121 55.096 8.83121C43.6633 8.83121 51.7071 16.0425 45.786 16.0425C39.8648 16.0425 22.1652 9.63453 28.9455 20.7719Z" fill="#F0F0F0"/>
<path d="M13.2486 6.33612H41.5802C41.5802 6.33612 40.8434 3.5112 38.3882 3.5112C35.933 3.5112 37.928 5.07794 36.0208 5.07794C34.1136 5.07794 33.1427 0 27.0912 0C21.0397 0 25.2957 3.8171 22.1622 3.8171C19.0287 3.8171 9.65756 0.44422 13.2486 6.33612Z" fill="#F5F5F5"/>
<path d="M109.059 9.67708H116.162C116.162 9.67708 115.491 8.44816 114.877 8.44816C114.262 8.44816 115.028 9.12912 114.552 9.12912C114.076 9.12912 112.956 6.91866 111.443 6.91866C109.929 6.91866 111.648 8.58116 110.863 8.58116C110.078 8.58116 107.15 7.11018 109.059 9.67708Z" fill="#F5F5F5"/>
<path d="M117.54 31.5237C116.091 31.5237 117.274 32.4467 116.144 32.4467C115.013 32.4467 114.45 29.4542 110.88 29.4542C107.371 29.4542 109.521 31.9998 107.839 32.0876H107.749C106.084 32.0876 105.238 27.6507 99.9472 27.6507C94.6565 27.6507 98.3805 30.9863 95.6407 30.9863C92.9009 30.9863 84.7134 28.0337 87.8522 33.1888H119.434C119.434 33.1888 118.99 31.5237 117.54 31.5237Z" fill="#F5F5F5"/>
<path d="M98.2814 40.1261H109.757V88.3306H89.9609V48.4439L98.2814 40.1261Z" fill="#E0E0E0"/>
<path d="M101.437 88.3306H118.072V48.4439H101.437V88.3306Z" fill="#EBEBEB"/>
<path d="M101.437 49.1009H118.072V48.4439H101.437V49.1009Z" fill="#E0E0E0"/>
<path d="M109.757 40.1261L118.075 48.4439H101.439L109.757 40.1261Z" fill="#EBEBEB"/>
<path d="M112.271 56.6766H115.293V53.6549H112.271V56.6766Z" fill="#E0E0E0"/>
<path d="M105.631 56.6766H108.652V53.6549H105.631V56.6766Z" fill="#E0E0E0"/>
<path d="M112.271 65.3402H115.293V62.3185H112.271V65.3402Z" fill="#E0E0E0"/>
<path d="M105.631 65.3402H108.652V62.3185H105.631V65.3402Z" fill="#E0E0E0"/>
<path d="M112.271 74.0012H115.293V70.9794H112.271V74.0012Z" fill="#E0E0E0"/>
<path d="M105.631 74.0012H108.652V70.9794H105.631V74.0012Z" fill="#E0E0E0"/>
<path d="M112.271 82.6622H115.293V79.6404H112.271V82.6622Z" fill="#E0E0E0"/>
<path d="M105.631 82.6622H108.652V79.6404H105.631V82.6622Z" fill="#E0E0E0"/>
<path d="M93.1298 46.2042H95.8457V40.7725H93.1298V46.2042Z" fill="#E0E0E0"/>
<path d="M75.9039 47.63H86.4907V88.3306H68.2324V55.3014L75.9039 47.63Z" fill="#E6E6E6"/>
<path d="M78.8185 88.3306H94.1641V55.3041H78.8185V88.3306Z" fill="#F5F5F5"/>
<path d="M78.8185 55.9079H94.1641V55.3014H78.8185V55.9079Z" fill="#E6E6E6"/>
<path d="M86.4905 47.63L94.1646 55.3014H78.8164L86.4905 47.63Z" fill="#F5F5F5"/>
<path d="M69.3492 60.2463H76.0417V88.3306H61.6777V67.9204L69.3492 60.2463Z" fill="#F0F0F0"/>
<path d="M76.0413 60.2463V67.9204V88.3306H68.3672V67.9204L76.0413 60.2463Z" fill="#FAFAFA"/>
<path d="M85.5755 65.8962H87.4082V61.994H85.5755V65.8962Z" fill="#E0E0E0"/>
<path d="M81.5227 65.8962H83.3555V61.994H81.5227V65.8962Z" fill="#E0E0E0"/>
<path d="M85.5755 73.3123H87.4082V69.41H85.5755V73.3123Z" fill="#E0E0E0"/>
<path d="M81.5227 73.3123H83.3555V69.41H81.5227V73.3123Z" fill="#E0E0E0"/>
<path d="M85.5755 80.7337H87.4082V76.8315H85.5755V80.7337Z" fill="#E0E0E0"/>
<path d="M89.6204 65.8962H91.4531V61.994H89.6204V65.8962Z" fill="#E0E0E0"/>
<path d="M89.6204 73.3123H91.4531V69.41H89.6204V73.3123Z" fill="#E0E0E0"/>
<path d="M89.6204 80.7337H91.4531V76.8315H89.6204V80.7337Z" fill="#E0E0E0"/>
<path d="M81.5227 80.7337H83.3555V76.8315H81.5227V80.7337Z" fill="#E0E0E0"/>
<path d="M72.0227 73.3123H73.8555V69.41H72.0227V73.3123Z" fill="#E0E0E0"/>
<path d="M72.0227 80.7337H73.8555V76.8315H72.0227V80.7337Z" fill="#E0E0E0"/>
<path d="M40.0878 48.4466H53.9438V88.3306H30.041V58.4907L40.0878 48.4466Z" fill="#E0E0E0"/>
<path d="M43.9039 88.3306H63.9922L63.9922 58.4934H43.9039V88.3306Z" fill="#EBEBEB"/>
<path d="M43.9039 59.2861H63.9922V58.4934H43.9039V59.2861Z" fill="#E0E0E0"/>
<path d="M53.9446 48.4466L63.9914 58.4907H43.9004L53.9446 48.4466Z" fill="#EBEBEB"/>
<path d="M56.9794 68.4338H60.6289V64.7843H56.9794V68.4338Z" fill="#E0E0E0"/>
<path d="M48.9618 68.4338H52.6113V64.7843H48.9618V68.4338Z" fill="#E0E0E0"/>
<path d="M56.9794 78.8956H60.6289V75.2461H56.9794V78.8956Z" fill="#E0E0E0"/>
<path d="M48.9618 78.8956H52.6113V75.2461H48.9618V78.8956Z" fill="#E0E0E0"/>
<path d="M51.7367 52.8595H56.1523V44.031H51.7367V52.8595Z" fill="#EBEBEB"/>
<path d="M17.0447 62.8319H28.7142V88.3306H8.58594V69.2531L17.0447 62.8319Z" fill="#EBEBEB"/>
<path d="M20.2582 88.3306H37.1758V69.2531H20.2582L20.2582 88.3306Z" fill="#F5F5F5"/>
<path d="M20.2582 69.7612H37.1758V69.2531H20.2582V69.7612Z" fill="#EBEBEB"/>
<path d="M28.7147 62.8319L37.1761 69.2531H20.2559L28.7147 62.8319Z" fill="#F5F5F5"/>
<path d="M33.0204 75.669H34.5605V72.3573H33.0204V75.669Z" fill="#E0E0E0"/>
<path d="M29.6376 75.669H31.1777V72.3573H29.6376V75.669Z" fill="#E0E0E0"/>
<path d="M33.0204 83.3777H34.5605V80.066H33.0204V83.3777Z" fill="#E0E0E0"/>
<path d="M29.6376 83.3777H31.1777V80.066H29.6376V83.3777Z" fill="#E0E0E0"/>
<path d="M26.2548 75.669H27.7949V72.3573H26.2548V75.669Z" fill="#E0E0E0"/>
<path d="M22.87 75.669H24.4102V72.3573H22.87V75.669Z" fill="#E0E0E0"/>
<path d="M26.2548 83.3777H27.7949V80.066H26.2548V83.3777Z" fill="#E0E0E0"/>
<path d="M22.87 83.3777H24.4102V80.066H22.87V83.3777Z" fill="#E0E0E0"/>
<path d="M15.1329 65.6541H18.8516V60.0096H15.1329V65.6541Z" fill="#EBEBEB"/>
<path d="M66.5005 100.343C94.9845 100.343 118.075 98.995 118.075 97.3321C118.075 95.6691 94.9845 94.3209 66.5005 94.3209C38.0166 94.3209 14.9258 95.6691 14.9258 97.3321C14.9258 98.995 38.0166 100.343 66.5005 100.343Z" fill="#F5F5F5"/>
<path d="M37.1373 22.9266C37.0841 23.8948 36.0573 24.6263 34.8443 24.5571C33.6314 24.488 32.6951 23.6474 32.7483 22.6792C32.8015 21.7109 33.8309 20.9794 35.0438 21.0486C36.2568 21.1178 37.1931 21.9583 37.1373 22.9266Z" fill="#263238"/>
<path d="M38.8369 24.9162C38.7678 25.7355 37.9245 26.3367 36.951 26.2462C35.9774 26.1558 35.2459 25.4482 35.3151 24.6156C35.3842 23.7831 36.2275 23.1952 37.1984 23.2856C38.1693 23.3761 38.9087 24.081 38.8369 24.9162Z" fill="#263238"/>
<path d="M38.417 16.0744C40.686 15.6355 42.4602 17.8167 42.6304 19.5324C42.8219 21.413 42.5506 22.6446 43.8966 23.2777C41.8085 24.3417 39.0261 23.7857 37.5605 22.0408C36.0948 20.2958 36.0735 16.5266 38.417 16.0744Z" fill="#263238"/>
<path d="M37.2724 90.0437C37.2724 90.0437 36.2723 90.3097 36.1659 91.7913C36.0595 93.2729 36.4744 97.3321 36.4744 97.3321H36.8468C36.8468 97.3321 36.7404 93.648 36.8867 92.9856C37.0011 94.9088 38.379 97.3321 40.2011 97.3321C40.8501 97.3321 39.4403 94.3901 39.2116 92.6026C38.9828 90.8151 38.911 90.1873 38.911 90.1873L37.2724 90.0437Z" fill="#263238"/>
<path d="M38.8753 88.8812L37.2793 90.0437C37.3644 92.036 38.0773 94.5869 39.0056 95.4142C39.0672 95.4593 39.141 95.4849 39.2172 95.4875C39.2935 95.4901 39.3689 95.4698 39.4334 95.429C39.498 95.3883 39.5488 95.329 39.5792 95.259C39.6097 95.189 39.6184 95.1115 39.6041 95.0365C39.15 93.0153 38.9058 90.9526 38.8753 88.8812Z" fill="#FFC3BD"/>
<path d="M49.8998 90.1873C49.8998 90.1873 49.1338 90.315 49.3067 91.7833C49.4796 93.2516 50.3919 97.3241 50.3919 97.3241H50.767C50.767 97.3241 50.2882 93.374 50.3095 92.7116C50.7909 94.6348 51.3974 97.3241 54.3979 97.3241C55.0469 97.3241 53.0679 94.3821 52.5093 92.5946C51.9507 90.8071 51.7485 90.1793 51.7485 90.1793L49.8998 90.1873Z" fill="#263238"/>
<path d="M51.4452 88.2242L50.1152 90.182C50.5781 92.1743 51.7432 94.5816 52.8364 95.4089C52.8923 95.4619 52.9649 95.4938 53.0417 95.4993C53.1185 95.5047 53.1949 95.4833 53.2577 95.4387C53.3205 95.3941 53.3659 95.3291 53.3861 95.2548C53.4063 95.1804 53.4 95.1014 53.3684 95.0312C52.5563 92.814 51.9133 90.5385 51.4452 88.2242Z" fill="#FFC3BD"/>
<path d="M44.4005 44.0895C44.4005 44.0895 47.5234 58.5014 48.0128 66.3058C49.2019 73.6315 51.7368 90.1873 51.7368 90.1873H49.8881C49.8881 90.1873 43.6611 78.9435 43.4403 67.0586C37.4021 52.8329 36.918 44.0975 36.918 44.0975L44.4005 44.0895Z" fill="#FFC3BD"/>
<path d="M42.3858 44.0975C42.3858 44.0975 40.6834 60.0814 39.9412 66.8937C39.1618 74.0464 38.7362 87.929 38.9118 90.1873H37.3158C37.3158 90.1873 32.9135 76.2117 34.9963 67.2102C32.0543 46.9703 36.0869 44.0975 36.0869 44.0975H42.3858Z" fill="#FFC3BD"/>
<path d="M52.466 30.3612L54.0274 29.7308L52.2026 28.1933C52.2026 28.1933 50.3406 28.8264 50.7503 30.1192L51.0163 30.2708C51.2355 30.394 51.4798 30.4662 51.7308 30.4818C51.9818 30.4975 52.2331 30.4563 52.466 30.3612Z" fill="#FFC3BD"/>
<path d="M54.3637 27.7172L53.8504 27.3794C53.6924 27.2767 53.5033 27.2331 53.3163 27.2565C53.1294 27.2799 52.9567 27.3686 52.8289 27.5071L52.2012 28.1933L54.0259 29.7308L54.6058 28.7972C54.7129 28.6208 54.7476 28.4098 54.7024 28.2084C54.6573 28.007 54.5359 27.831 54.3637 27.7172Z" fill="#FFC3BD"/>
<path d="M44.7748 29.9702L44.8493 30.1325L44.9397 30.3213C45.0036 30.4464 45.0647 30.5873 45.1339 30.7017C45.2696 30.9677 45.4159 31.2098 45.5701 31.4545C45.8764 31.9462 46.2159 32.4163 46.5863 32.8616C47.3112 33.7351 48.188 34.4705 49.1744 35.0322L49.3606 35.128L49.4537 35.1785H49.475C49.4601 35.1758 49.4448 35.1758 49.4298 35.1785C49.3424 35.1574 49.2512 35.1574 49.1638 35.1785C49.1006 35.1904 49.0407 35.2158 48.9882 35.253C48.9404 35.2982 49.0015 35.253 49.0494 35.2024C49.1156 35.1191 49.1744 35.0301 49.225 34.9364C49.4838 34.425 49.6948 33.8907 49.8554 33.3404C50.2198 32.1754 50.5204 30.9464 50.8024 29.7122V29.7042C50.836 29.5619 50.9207 29.437 51.0405 29.3531C51.1603 29.2693 51.3067 29.2324 51.4519 29.2494C51.5971 29.2665 51.7309 29.3364 51.828 29.4458C51.925 29.5551 51.9784 29.6963 51.9781 29.8425C51.9716 31.1631 51.855 32.4808 51.6296 33.782C51.5135 34.482 51.3209 35.167 51.0551 35.8249C50.9729 36.0218 50.8741 36.2113 50.7598 36.3915C50.6053 36.6431 50.4018 36.8611 50.1613 37.0325C49.978 37.1626 49.7697 37.2532 49.5495 37.2985C49.302 37.346 49.0468 37.3341 48.8047 37.2639L48.6478 37.2107L48.5919 37.1895L48.5626 37.1762L48.4376 37.1203L48.1902 37.0112C46.8952 36.3956 45.74 35.5211 44.7961 34.4417C44.3272 33.9184 43.9028 33.357 43.5273 32.7632C43.3499 32.4689 43.1726 32.1656 42.9953 31.8535C42.9128 31.6966 42.833 31.5423 42.7585 31.3774L42.6468 31.13C42.6096 31.0422 42.5803 30.9704 42.5324 30.8507C42.4295 30.5622 42.4412 30.2452 42.5649 29.965C42.6887 29.6848 42.9152 29.4627 43.1977 29.3445C43.4803 29.2262 43.7974 29.2208 44.0838 29.3292C44.3703 29.4377 44.6042 29.6519 44.7376 29.9277L44.7748 29.9702Z" fill="#FFC3BD"/>
<path d="M42.827 27.8688C44.8379 28.1348 45.9152 30.2868 46.4951 31.7285C46.3621 33.5054 43.9122 34.7104 43.9122 34.7104C43.9122 34.7104 42.1487 32.2711 41.7098 30.9225C41.2709 29.5739 41.6778 27.7119 42.827 27.8688Z" fill="#CE9E41"/>
<path opacity="0.2" d="M34.7215 65.2338C36.5088 65.395 38.3031 65.4634 40.0974 65.4387C40.1719 64.7391 40.257 63.981 40.3421 63.1803C38.3504 63.0942 36.3663 62.8792 34.4023 62.5366C34.4928 63.3958 34.5992 64.2842 34.7215 65.2338Z" fill="black"/>
<path opacity="0.2" d="M47.6744 62.7627C46.6237 63.1564 44.376 63.2947 41.9102 63.2335C42.1762 63.9251 42.4422 64.6327 42.7454 65.3615C44.8468 65.2471 46.7354 65.0157 47.8792 64.6593C47.8207 64.0475 47.7542 63.4144 47.6744 62.7627Z" fill="black"/>
<path d="M35.7364 43.9086C35.7364 43.9086 32.8104 46.0366 33.4036 52.5669C33.643 55.1844 33.8691 60.7571 33.8691 63.5873C37.641 64.4837 46.9989 64.9013 48.2836 63.6857C47.5122 58.2114 44.7352 45.7573 44.4719 44.0017C40.2744 43.483 35.7364 43.9086 35.7364 43.9086Z" fill="#CE9E41"/>
<path opacity="0.2" d="M40.2617 59.9724C40.3149 56.674 41.0065 52.1493 42.7967 49.4893C42.1157 52.8462 40.2617 59.9724 40.2617 59.9724Z" fill="black"/>
<path d="M45.5008 30.9358C45.5487 33.1064 47.3069 34.2448 45.3891 35.9153C45.3172 37.7773 45.2507 41.1422 44.7533 44.1986C44.1761 45.0258 39.8243 44.9593 35.2864 43.9751C35.8184 41.3577 35.4992 37.091 33.8181 31.255C33.7256 30.9357 33.7014 30.6006 33.747 30.2714C33.7925 29.9421 33.9068 29.6261 34.0824 29.3439C34.258 29.0617 34.4909 28.8196 34.7662 28.6333C35.0415 28.447 35.3528 28.3207 35.6801 28.2625C36.0498 28.196 36.4435 28.1348 36.8478 28.0869C38.2571 27.8796 39.6794 27.7729 41.1038 27.7677C41.564 27.7677 42.0428 27.7997 42.5003 27.8289C43.2988 27.8767 44.0502 28.2224 44.6058 28.7978C45.1615 29.3732 45.4809 30.1362 45.5008 30.9358Z" fill="#263238"/>
<path d="M36.9127 23.2723C37.2851 24.6183 37.74 27.1027 36.8516 28.0869C36.8516 28.0869 40.9267 29.9489 42.8632 32.7127C43.991 29.5021 41.0996 27.7677 41.0996 27.7677C39.5488 27.5177 39.5036 26.3845 39.6871 25.3019L36.9127 23.2723Z" fill="#FFC3BD"/>
<path opacity="0.2" d="M38.0396 24.0996L39.6808 25.3019C39.6339 25.5538 39.6089 25.8092 39.6063 26.0654C39.0185 26.0255 38.1699 25.4456 38.0635 24.8418C38.0091 24.5981 38.001 24.3463 38.0396 24.0996Z" fill="black"/>
<path d="M35.2845 20.873C35.9841 23.0542 36.2342 23.9932 37.6227 24.863C39.7108 26.1531 42.1872 24.8258 42.1447 22.469C42.1048 20.357 40.9663 17.149 38.6122 16.8032C36.2581 16.4574 34.5823 18.6892 35.2845 20.873Z" fill="#FFC3BD"/>
<path d="M35.6996 21.9902C36.7636 21.3731 37.5882 19.5005 37.6015 18.6386C38.4447 18.2902 39.6683 16.9176 39.8439 16.0371C40.1099 14.7603 37.9074 15.0104 37.9021 15.7339C35.8299 15.0609 32.0208 16.8591 32.864 19.4233C33.7072 21.9876 35.6996 21.9902 35.6996 21.9902Z" fill="#263238"/>
<path d="M40.9115 22.4211C40.0412 22.3878 39.1697 22.4216 38.3047 22.5222C38.5707 22.9718 39.0362 23.3202 40.0177 23.2271C40.9993 23.134 40.9115 22.4211 40.9115 22.4211Z" fill="white"/>
<path d="M38.6855 20.6443C38.7334 20.8252 38.8664 20.9475 38.9835 20.9103C39.1005 20.873 39.159 20.7081 39.1138 20.5272C39.0686 20.3464 38.9356 20.2267 38.8159 20.2612C38.6962 20.2958 38.6403 20.4661 38.6855 20.6443Z" fill="#263238"/>
<path d="M40.9157 20.1096C40.9609 20.2905 41.0939 20.4128 41.2136 20.3756C41.3333 20.3384 41.3892 20.1734 41.3439 19.9926C41.2987 19.8117 41.1631 19.692 41.046 19.7266C40.929 19.7611 40.8705 19.9287 40.9157 20.1096Z" fill="#263238"/>
<path d="M40.9941 19.7532L41.3958 19.5164C41.3958 19.5164 41.2601 19.9128 40.9941 19.7532Z" fill="#263238"/>
<path d="M40.2656 20.5698C40.531 20.9401 40.8461 21.2722 41.2019 21.5566C41.1269 21.6459 41.0333 21.7176 40.9276 21.7668C40.8219 21.816 40.7067 21.8414 40.5901 21.8413L40.2656 20.5698Z" fill="#630F0F"/>
<path d="M34.8873 22.61C35.0153 22.7728 35.1763 22.9066 35.3596 23.0029C35.543 23.0992 35.7446 23.1556 35.9513 23.1686C36.4833 23.1686 36.587 22.5781 36.3077 22.0647C36.0577 21.6019 35.4804 21.0406 35.0149 21.2667C34.5494 21.4928 34.5361 22.1817 34.8873 22.61Z" fill="#FFC3BD"/>
<path d="M35.7473 22.1126C35.8563 22.3227 35.8324 22.5488 35.6941 22.6206C35.5558 22.6925 35.3563 22.5781 35.2499 22.3706C35.1435 22.1631 35.1674 21.9344 35.3057 21.8625C35.444 21.7907 35.6462 21.9051 35.7473 22.1126Z" fill="#263238"/>
<path d="M37.5847 29.3132H37.5635C37.547 29.3077 37.5334 29.296 37.5254 29.2806C37.5175 29.2652 37.5158 29.2473 37.5209 29.2307C37.6491 28.8006 37.6554 28.3432 37.5389 27.9097C37.4224 27.4762 37.1878 27.0835 36.8612 26.7756C36.4569 26.3952 35.9781 26.342 35.4408 26.3154C35.2607 26.3147 35.0816 26.2887 34.9088 26.2382C34.7775 26.2028 34.6595 26.1298 34.5693 26.0282C34.479 25.9266 34.4204 25.8008 34.4007 25.6663C34.4132 25.3913 34.5336 25.1323 34.7359 24.9455C34.7932 24.8805 34.8465 24.8121 34.8955 24.7407C34.9513 24.6609 35.0232 24.5119 34.9513 24.4587C34.9292 24.4445 34.9031 24.4379 34.8769 24.4401C34.8099 24.4405 34.7432 24.4467 34.6774 24.4587C34.4725 24.4906 34.2172 24.5332 34.0922 24.3151C34.0597 24.2424 34.048 24.1622 34.0583 24.0834C34.0687 24.0045 34.1006 23.93 34.1507 23.8682C34.3354 23.5909 34.5822 23.3605 34.8715 23.1952C34.9301 23.158 34.9966 23.1234 35.0631 23.0888C35.2784 23.0053 35.4592 22.8516 35.5764 22.6526C35.591 22.6113 35.591 22.5662 35.5764 22.5249C35.5672 22.5049 35.5512 22.4889 35.5312 22.4797C35.5146 22.4736 35.5009 22.4614 35.493 22.4456C35.4851 22.4297 35.4835 22.4115 35.4887 22.3945C35.4952 22.3784 35.5076 22.3653 35.5234 22.3579C35.5392 22.3505 35.5572 22.3493 35.5738 22.3546C35.6012 22.3637 35.6264 22.3786 35.6475 22.3984C35.6687 22.4181 35.6853 22.4422 35.6961 22.469C35.7267 22.5431 35.7267 22.6263 35.6961 22.7004C35.5704 22.9305 35.368 23.1093 35.1242 23.2058C35.0604 23.2404 34.9966 23.2723 34.9407 23.3069C34.6686 23.4623 34.4356 23.678 34.2597 23.9373C34.2145 24.0118 34.148 24.1501 34.2039 24.2486C34.2597 24.347 34.438 24.3629 34.6534 24.3284C34.7286 24.3128 34.8054 24.3056 34.8822 24.3071C34.9339 24.3076 34.9845 24.3223 35.0285 24.3496C35.1721 24.456 35.1083 24.6582 35.0045 24.8151C34.9516 24.8899 34.8948 24.9618 34.8343 25.0306C34.6564 25.1932 34.5478 25.4179 34.5311 25.6584C34.5494 25.7661 34.5986 25.8662 34.6727 25.9465C34.7469 26.0267 34.8427 26.0838 34.9487 26.1106C35.1078 26.1566 35.2725 26.1807 35.4381 26.1824C35.9834 26.209 36.5021 26.2675 36.9437 26.6798C37.2887 27.0051 37.5366 27.4198 37.6597 27.8778C37.7828 28.3357 37.7761 28.8189 37.6406 29.2733C37.6356 29.2842 37.6278 29.2937 37.618 29.3007C37.6082 29.3077 37.5967 29.312 37.5847 29.3132Z" fill="#263238"/>
<path d="M38.0054 19.8915C38.0191 19.8855 38.0314 19.8768 38.0415 19.8658C38.0516 19.8548 38.0592 19.8418 38.0639 19.8277C38.1002 19.6954 38.1674 19.5736 38.2599 19.4724C38.3523 19.3711 38.4675 19.2932 38.5959 19.2451C38.6235 19.2365 38.6466 19.2176 38.6605 19.1923C38.6744 19.167 38.6779 19.1373 38.6704 19.1095C38.6664 19.0956 38.6598 19.0827 38.6508 19.0715C38.6418 19.0602 38.6307 19.0509 38.6181 19.044C38.6055 19.0371 38.5916 19.0327 38.5773 19.0311C38.563 19.0296 38.5486 19.0309 38.5348 19.035C38.3713 19.0929 38.224 19.189 38.1051 19.3153C37.9862 19.4416 37.8991 19.5945 37.8511 19.7612C37.8466 19.7749 37.8449 19.7895 37.8461 19.804C37.8472 19.8184 37.8513 19.8325 37.858 19.8454C37.8647 19.8583 37.8739 19.8697 37.885 19.879C37.8962 19.8883 37.9091 19.8952 37.923 19.8995C37.9365 19.9039 37.9508 19.9054 37.965 19.9041C37.9792 19.9027 37.993 19.8984 38.0054 19.8915Z" fill="#263238"/>
<path d="M41.4701 19.0642C41.4983 19.0633 41.5254 19.053 41.5472 19.035C41.567 19.0142 41.5781 18.9866 41.5781 18.9578C41.5781 18.9291 41.567 18.9015 41.5472 18.8807C41.432 18.7505 41.2876 18.6495 41.1257 18.5861C40.9638 18.5228 40.7892 18.4988 40.6162 18.5163C40.6002 18.5167 40.5845 18.5206 40.5702 18.5277C40.5559 18.5348 40.5432 18.5448 40.5331 18.5572C40.523 18.5695 40.5156 18.5839 40.5115 18.5994C40.5074 18.6148 40.5067 18.631 40.5094 18.6467C40.5121 18.6625 40.5181 18.6775 40.5271 18.6907C40.5361 18.7039 40.5478 18.7151 40.5615 18.7234C40.5751 18.7317 40.5904 18.737 40.6063 18.7389C40.6221 18.7408 40.6382 18.7392 40.6534 18.7344C40.7899 18.7211 40.9275 18.7407 41.0548 18.7916C41.1821 18.8425 41.2953 18.9232 41.3849 19.027C41.3955 19.0391 41.4086 19.0487 41.4233 19.0551C41.4381 19.0616 41.454 19.0647 41.4701 19.0642Z" fill="#263238"/>
<path d="M38.7676 20.2878L39.1692 20.0511C39.1692 20.0511 39.0336 20.4474 38.7676 20.2878Z" fill="#263238"/>
<path d="M40.0736 37.8172C39.9342 37.8024 39.8062 37.7332 39.7176 37.6247C39.6289 37.5161 39.5867 37.3769 39.6001 37.2373L40.2119 31.1486C40.2267 31.0092 40.2959 30.8813 40.4045 30.7926C40.513 30.7039 40.6522 30.6617 40.7918 30.6751C40.9317 30.6892 41.0603 30.7582 41.1495 30.8668C41.2387 30.9755 41.2813 31.115 41.2679 31.255L40.6535 37.3437C40.6387 37.4831 40.5695 37.6111 40.4609 37.6997C40.3523 37.7884 40.2131 37.8306 40.0736 37.8172Z" fill="#CE9E41"/>
<path opacity="0.7" d="M40.0736 37.8172C39.9342 37.8024 39.8062 37.7332 39.7176 37.6247C39.6289 37.5161 39.5867 37.3769 39.6001 37.2373L40.2119 31.1486C40.2267 31.0092 40.2959 30.8813 40.4045 30.7926C40.513 30.7039 40.6522 30.6617 40.7918 30.6751C40.9317 30.6892 41.0603 30.7582 41.1495 30.8668C41.2387 30.9755 41.2813 31.115 41.2679 31.255L40.6535 37.3437C40.6387 37.4831 40.5695 37.6111 40.4609 37.6997C40.3523 37.7884 40.2131 37.8306 40.0736 37.8172Z" fill="white"/>
<path d="M42.1689 30.9757C42.0785 31.8881 41.3709 32.5717 40.6128 32.4866C39.8547 32.4015 39.2961 31.6088 39.3866 30.6964C39.477 29.784 40.1846 29.1004 40.9453 29.1829C41.7061 29.2653 42.262 30.0633 42.1689 30.9757Z" fill="#CE9E41"/>
<path d="M41.9989 31.3209L39.0442 31.0224C38.9163 31.0095 38.802 31.1028 38.7891 31.2307L38.5771 33.3296C38.5642 33.4576 38.6574 33.5718 38.7854 33.5847L41.7401 33.8832C41.8681 33.8961 41.9823 33.8028 41.9952 33.6748L42.2072 31.576C42.2202 31.448 42.1269 31.3338 41.9989 31.3209Z" fill="white"/>
<path d="M39.5841 32.7207L39.6612 32.4547L39.4085 32.4307L39.4378 32.1434L39.749 32.1754L39.8607 31.8109L40.156 31.8402L40.0442 32.2046L40.273 32.2286L40.3847 31.8641L40.6773 31.8934L40.5656 32.2578H40.7119L40.6826 32.5451L40.4805 32.5238L40.4007 32.7898L40.6667 32.8138L40.6374 33.101L40.3262 33.0691L40.2171 33.4282L39.9192 33.399L40.0309 33.0399L39.8022 33.0159L39.6905 33.375L39.3979 33.3458L39.5069 32.9867H39.3633L39.3925 32.6994L39.5841 32.7207ZM39.8767 32.7499L40.1054 32.7712L40.1852 32.5052L39.9565 32.4839L39.8767 32.7499Z" fill="#263238"/>
<path d="M41.8646 32.0158L41.7103 33.5665L41.282 33.524L41.3831 32.5079C41.3152 32.5499 41.2441 32.5864 41.1703 32.6169C41.0835 32.646 40.9946 32.6682 40.9043 32.6834L40.9415 32.3376C41.0657 32.3149 41.1846 32.2698 41.2927 32.2046C41.379 32.1466 41.4517 32.0703 41.5055 31.9812L41.8646 32.0158Z" fill="#263238"/>
<path d="M38.4131 35.7345L40.0862 34.5667L40.8177 36.7878C40.8177 36.7878 39.4106 37.3358 38.328 37.0538L38.1285 36.8064C38.0247 36.3064 38.054 36.0882 38.4131 35.7345Z" fill="#FFC3BD"/>
<path d="M41.6101 34.9817L41.7937 35.9765C41.8193 36.1202 41.79 36.2682 41.7117 36.3914C41.6334 36.5145 41.5117 36.6038 41.3707 36.6415L40.8174 36.7878L40.0859 34.5667L41.0036 34.5055C41.1455 34.4968 41.2857 34.5404 41.3975 34.6282C41.5093 34.716 41.585 34.8418 41.6101 34.9817Z" fill="#FFC3BD"/>
<path d="M36.4197 31.0076C36.1537 31.5396 35.8504 32.1035 35.5898 32.6621C35.3291 33.2207 35.0578 33.79 34.8343 34.3592C34.6109 34.9285 34.3954 35.503 34.2172 36.0696C34.0447 36.6062 33.9262 37.1587 33.8634 37.7188C33.8634 37.8491 33.8475 37.9848 33.8448 38.0885C33.8427 38.049 33.8365 38.0098 33.8262 37.9715C33.8149 37.9189 33.797 37.868 33.773 37.8199C33.7205 37.7164 33.646 37.6256 33.5549 37.5539C33.4731 37.4799 33.3713 37.4318 33.2623 37.4156C33.2117 37.4156 33.3181 37.4315 33.4165 37.4156C33.5408 37.4041 33.6642 37.3855 33.7863 37.3597C34.3716 37.2238 34.9481 37.0523 35.5126 36.8463C36.6937 36.434 37.8933 35.9579 39.077 35.4897C39.2137 35.435 39.3658 35.4328 39.504 35.4836C39.6422 35.5344 39.7566 35.6345 39.8254 35.7647C39.8941 35.8949 39.9122 36.0459 39.8762 36.1887C39.8402 36.3314 39.7526 36.4558 39.6303 36.5378C38.5364 37.2793 37.3945 37.9476 36.2122 38.5381C35.5941 38.8543 34.9519 39.1211 34.2917 39.3361C34.1024 39.3964 33.9096 39.4453 33.7145 39.4824C33.4519 39.5354 33.1825 39.5462 32.9165 39.5143C32.6468 39.4772 32.3922 39.3678 32.1796 39.1978C32.0251 39.0695 31.9006 38.9087 31.8152 38.7269C31.7767 38.6411 31.7456 38.5521 31.7221 38.4609C31.7052 38.3829 31.6937 38.3038 31.6875 38.2242C31.6742 38.0167 31.6663 37.8199 31.6716 37.6257C31.6988 36.8966 31.8086 36.1729 31.9988 35.4684C32.1699 34.8034 32.3795 34.1488 32.6265 33.508C33.0995 32.2458 33.6695 31.022 34.3316 29.8479C34.4862 29.575 34.7417 29.3737 35.0432 29.2873C35.3447 29.2008 35.668 29.2362 35.9437 29.3857C36.2194 29.5352 36.4254 29.787 36.5174 30.0868C36.6094 30.3866 36.58 30.7106 36.4356 30.989L36.4197 31.0076Z" fill="#FFC3BD"/>
<path d="M35.5921 28.2811C34.1424 28.5471 33.496 29.8505 32.4453 32.452C32.7752 34.2023 35.3447 35.128 35.3447 35.128C35.3447 35.128 36.8237 32.5052 37.111 31.1167C37.3982 29.7282 37.0657 28.0071 35.5921 28.2811Z" fill="#CE9E41"/>
<path d="M101.355 42.161H98.9612C98.8348 42.161 98.7324 42.2634 98.7324 42.3898V46.3665C98.7324 46.4928 98.8348 46.5952 98.9612 46.5952H101.355C101.482 46.5952 101.584 46.4928 101.584 46.3665V42.3898C101.584 42.2634 101.482 42.161 101.355 42.161Z" fill="#263238"/>
<path d="M101.784 43.2995C101.784 43.3521 101.768 43.4035 101.739 43.4473C101.71 43.491 101.668 43.5251 101.62 43.5453C101.571 43.5654 101.518 43.5707 101.466 43.5604C101.414 43.5501 101.367 43.5248 101.33 43.4876C101.293 43.4504 101.267 43.403 101.257 43.3514C101.247 43.2998 101.252 43.2463 101.272 43.1977C101.292 43.1491 101.326 43.1076 101.37 43.0783C101.414 43.0491 101.465 43.0335 101.518 43.0335C101.589 43.0335 101.656 43.0615 101.706 43.1114C101.756 43.1613 101.784 43.229 101.784 43.2995Z" fill="#263238"/>
<path d="M101.784 44.0682C101.784 44.1209 101.768 44.1723 101.739 44.216C101.71 44.2598 101.668 44.2939 101.62 44.314C101.571 44.3341 101.518 44.3394 101.466 44.3291C101.414 44.3189 101.367 44.2935 101.33 44.2563C101.293 44.2191 101.267 44.1717 101.257 44.1201C101.247 44.0685 101.252 44.0151 101.272 43.9665C101.292 43.9178 101.326 43.8763 101.37 43.8471C101.414 43.8178 101.465 43.8022 101.518 43.8022C101.589 43.8022 101.656 43.8303 101.706 43.8802C101.756 43.93 101.784 43.9977 101.784 44.0682Z" fill="#263238"/>
<path d="M101.518 56.9506C101.068 59.8766 100.494 64.3986 101.395 67.6545C102.459 70.8757 102.603 72.3494 102.193 74.1236L97.0064 74.9801C95.171 72.9239 93.7293 70.8731 92.9313 68.2822C90.7395 61.1587 89.8457 44.1534 89.8457 44.1534L94.9635 44.0682L100.619 44.3342C100.619 44.3342 102.643 49.6223 101.518 56.9506Z" fill="#263238"/>
<path opacity="0.2" d="M91.1172 58.5706C91.4204 60.9832 91.7822 63.3586 92.2078 65.3988C94.3358 61.5631 95.0088 54.5752 95.0088 54.5752L91.1172 58.5706Z" fill="black"/>
<path d="M106.092 92.6425C103.669 87.5513 105.191 77.6773 102.422 74.9801L97.2559 76.3101C101.036 83.8485 103.576 93.092 102.94 93.1346L106.092 92.6425Z" fill="#FFC3BD"/>
<path d="M102.795 93.4831C102.47 91.3285 101.244 87.2932 101.199 86.982C101.106 86.309 104.944 85.9366 105.019 86.3942C105.266 87.9423 105.708 92.0387 106.639 93.5123C105.96 94.2518 102.795 93.4831 102.795 93.4831Z" fill="#263238"/>
<path d="M102.627 72.8707L103.866 76.1931C103.88 76.227 103.886 76.2634 103.884 76.2998C103.883 76.3363 103.874 76.3721 103.859 76.4051C103.843 76.438 103.821 76.4673 103.793 76.4913C103.766 76.5152 103.733 76.5332 103.699 76.5442C101.566 76.5117 99.4529 76.9456 97.5061 77.8157C97.4286 77.8274 97.3496 77.8099 97.2842 77.7667C97.2189 77.7234 97.1719 77.6575 97.1523 77.5816L96.2027 74.3045C96.1861 74.2538 96.1851 74.1994 96.1998 74.1482C96.2145 74.0969 96.2442 74.0513 96.2852 74.0172C97.1593 73.3952 98.149 72.9543 99.196 72.7204C100.243 72.4866 101.326 72.4644 102.382 72.6553C102.438 72.6676 102.489 72.6939 102.532 72.7315C102.575 72.7692 102.607 72.8171 102.627 72.8707Z" fill="#263238"/>
<path opacity="0.2" d="M102.627 72.8707L103.866 76.1931C103.88 76.227 103.886 76.2634 103.884 76.2998C103.883 76.3363 103.874 76.3721 103.859 76.4051C103.843 76.438 103.821 76.4673 103.793 76.4913C103.766 76.5152 103.733 76.5332 103.699 76.5442C101.566 76.5117 99.4529 76.9456 97.5061 77.8157C97.4286 77.8274 97.3496 77.8099 97.2842 77.7667C97.2189 77.7234 97.1719 77.6575 97.1523 77.5816L96.2027 74.3045C96.1861 74.2538 96.1851 74.1994 96.1998 74.1482C96.2145 74.0969 96.2442 74.0513 96.2852 74.0172C97.1593 73.3952 98.149 72.9543 99.196 72.7204C100.243 72.4866 101.326 72.4644 102.382 72.6553C102.438 72.6676 102.489 72.6939 102.532 72.7315C102.575 72.7692 102.607 72.8171 102.627 72.8707Z" fill="white"/>
<path d="M106.346 92.1291L108.192 95.2839C108.228 95.3341 108.251 95.3929 108.258 95.4547C108.265 95.5164 108.256 95.5789 108.231 95.6359C108.206 95.6929 108.167 95.7424 108.117 95.7796C108.067 95.8168 108.009 95.8403 107.947 95.8478C106.474 96.1005 105.519 96.2122 104.085 96.4357C102.406 96.7017 101.88 97.3241 99.4617 97.3241C98.2568 97.3241 97.7487 96.1351 98.2089 95.9941C100.422 95.2759 101.169 94.4566 101.733 92.8925C101.733 92.8925 100.736 91.9935 101.055 91.2593C101.454 90.3416 102.241 91.4216 102.704 92.0812C103.167 92.7409 102.864 92.7436 102.864 92.7436C102.864 92.7436 105.319 91.4721 106.346 92.1291Z" fill="#CE9E41"/>
<path d="M100.89 93.1984C100.727 93.2109 100.562 93.1859 100.41 93.1256C100.257 93.0652 100.121 92.971 100.01 92.85C99.8289 92.6212 99.9087 92.4829 99.9699 92.4217C100.257 92.1557 101.438 92.3925 101.944 92.8314C101.957 92.8422 101.967 92.8562 101.973 92.872C101.979 92.8879 101.981 92.905 101.978 92.9218C101.975 92.939 101.967 92.9551 101.956 92.9686C101.945 92.9821 101.931 92.9925 101.914 92.9989C101.586 93.1217 101.24 93.1891 100.89 93.1984ZM100.385 92.5068C100.292 92.4983 100.199 92.5197 100.119 92.568C100.084 92.5999 100.148 92.6877 100.177 92.725C100.518 93.1506 101.316 92.9777 101.675 92.8713C101.281 92.6459 100.838 92.5207 100.385 92.5068Z" fill="#CE9E41"/>
<path d="M100.357 94.1614C100.303 94.1608 100.25 94.1537 100.198 94.1401C99.9635 94.0736 99.9635 93.9166 99.9741 93.8528C100.038 93.4485 101.238 92.7888 101.881 92.8074C101.9 92.8073 101.918 92.8125 101.933 92.8224C101.949 92.8323 101.961 92.8465 101.969 92.8633C101.978 92.8791 101.983 92.8969 101.983 92.9152C101.983 92.9334 101.978 92.9512 101.969 92.967C101.86 93.0974 101.035 94.1614 100.357 94.1614ZM101.658 93.0229C101.054 93.124 100.206 93.6613 100.171 93.8847C100.171 93.8847 100.171 93.922 100.253 93.9459C100.666 94.0762 101.315 93.4272 101.658 93.0122V93.0229Z" fill="#CE9E41"/>
<path d="M90.2193 14.9705C90.2033 15.17 90.0836 15.3216 89.9533 15.3083C89.823 15.295 89.7298 15.1274 89.7485 14.9279C89.7671 14.7284 89.8815 14.5795 90.0145 14.5901C90.1475 14.6008 90.2353 14.7737 90.2193 14.9705Z" fill="#263238"/>
<path d="M90.4618 15.1301C90.4618 15.1301 90.0309 16.2234 89.4883 16.7261C90.2278 17.1331 90.4645 16.9735 90.4645 16.9735L90.4618 15.1301Z" fill="#FF5652"/>
<path d="M90.1144 13.324C90.1332 13.3278 90.1526 13.3271 90.1711 13.322C90.1896 13.3169 90.2066 13.3076 90.2208 13.2947C90.3231 13.1901 90.4489 13.1115 90.5876 13.0652C90.7264 13.0189 90.8742 13.0064 91.0188 13.0287C91.0488 13.0351 91.08 13.0295 91.1059 13.013C91.1318 12.9966 91.1502 12.9707 91.1571 12.9409C91.1635 12.9103 91.1576 12.8783 91.1407 12.852C91.1238 12.8256 91.0972 12.8069 91.0667 12.7999C90.8839 12.772 90.6971 12.7881 90.5217 12.8468C90.3464 12.9056 90.1876 13.0053 90.0586 13.1378C90.0475 13.1484 90.0386 13.1612 90.0326 13.1754C90.0266 13.1896 90.0234 13.2048 90.0234 13.2202C90.0234 13.2356 90.0266 13.2509 90.0326 13.265C90.0386 13.2792 90.0475 13.292 90.0586 13.3027C90.0748 13.315 90.0941 13.3223 90.1144 13.324Z" fill="#263238"/>
<path d="M96.0431 16.9602L92.242 18.9579C92.5585 20.1416 92.6649 21.2321 91.6861 21.9264C91.5203 22.0446 91.3646 22.1763 91.2206 22.3201C90.8535 22.6819 90.2497 23.6501 91.9441 23.6075C93.4762 23.5676 95.1361 23.2857 95.9474 22.6154C96.0994 22.4714 96.2031 22.284 96.2446 22.0788C96.286 21.8735 96.263 21.6605 96.1788 21.4689C95.6229 19.9686 95.7745 18.3274 96.0431 16.9602Z" fill="#FFC3BD"/>
<path d="M96.9971 14.7923C96.6433 17.2129 96.5609 18.6493 95.2255 19.7878C93.2172 21.4981 90.3019 20.1043 89.9242 17.6199C89.581 15.3828 90.2141 11.7971 92.6826 11.047C93.2287 10.8816 93.8079 10.8573 94.366 10.9765C94.9241 11.0957 95.4428 11.3544 95.8738 11.7285C96.3047 12.1026 96.6338 12.5799 96.8303 13.1157C97.0267 13.6514 97.0841 14.2283 96.9971 14.7923Z" fill="#FFC3BD"/>
<path d="M93.0834 16.1382C91.389 16.367 90.9554 15.5397 90.8942 14.6832C90.833 13.8267 91.7108 13.0633 91.7108 13.0633C91.7108 13.0633 90.2478 12.9489 89.8488 11.6402C89.4498 10.3315 89.9739 9.5707 91.3491 9.09988C92.5195 8.69822 94.7831 8.90038 94.4294 9.717C95.6157 9.717 97.4165 9.80744 97.7411 10.6852C98.0656 11.563 97.6639 12.0871 97.6639 12.0871C97.6639 12.0871 99.3876 12.3052 99.1562 13.7203C99.0498 14.3826 98.68 14.9678 98.156 15.1434C98.4034 15.6142 98.1321 17.1677 97.0441 17.447C97.1559 18.2636 96.7781 19.6016 94.9826 19.7558C93.1871 19.9101 91.5459 18.7424 93.0834 16.1382Z" fill="#263238"/>
<path opacity="0.5" d="M93.0834 16.1382C91.389 16.367 90.9554 15.5397 90.8942 14.6832C90.833 13.8267 91.7108 13.0633 91.7108 13.0633C91.7108 13.0633 90.2478 12.9489 89.8488 11.6402C89.4498 10.3315 89.9739 9.5707 91.3491 9.09988C92.5195 8.69822 94.7831 8.90038 94.4294 9.717C95.6157 9.717 97.4165 9.80744 97.7411 10.6852C98.0656 11.563 97.6639 12.0871 97.6639 12.0871C97.6639 12.0871 99.3876 12.3052 99.1562 13.7203C99.0498 14.3826 98.68 14.9678 98.156 15.1434C98.4034 15.6142 98.1321 17.1677 97.0441 17.447C97.1559 18.2636 96.7781 19.6016 94.9826 19.7558C93.1871 19.9101 91.5459 18.7424 93.0834 16.1382Z" fill="white"/>
<path d="M94.0781 15.9201C93.9616 16.4651 93.6359 16.9427 93.1711 17.2501C92.5593 17.6385 92.0592 17.1118 92.0645 16.3989C92.0645 15.7579 92.3917 14.7843 93.0833 14.6859C93.7749 14.5875 94.2191 15.2418 94.0781 15.9201Z" fill="#FFC3BD"/>
<path d="M94.8759 56.9506C93.615 59.8766 90.7635 64.3986 90.7555 67.6545C90.9337 70.8757 90.6571 72.3494 89.75 74.1236L83.9645 74.214C82.701 72.1578 82.193 70.8731 82.1158 68.2822C81.9084 61.1587 86.7682 44.1534 86.7682 44.1534L91.9073 44.0629L97.4933 44.3289C97.4933 44.3289 98.0466 49.6223 94.8759 56.9506Z" fill="#263238"/>
<path d="M83.3439 55.8786C82.905 57.19 82.4475 59.6612 82.2187 60.8582C81.99 62.0552 83.8147 62.6324 85.5464 62.6803C87.278 62.7281 88.507 62.1483 88.8714 60.2863C89.2358 58.4243 89.571 56.9719 89.4034 56.3574C89.2358 55.743 83.9477 54.0831 83.3439 55.8786Z" fill="#263238"/>
<path opacity="0.1" d="M83.3439 55.8786C82.905 57.19 82.4475 59.6612 82.2187 60.8582C81.99 62.0552 83.8147 62.6324 85.5464 62.6803C87.278 62.7281 88.507 62.1483 88.8714 60.2863C89.2358 58.4243 89.571 56.9719 89.4034 56.3574C89.2358 55.743 83.9477 54.0831 83.3439 55.8786Z" fill="white"/>
<path d="M83.2749 55.0993C82.969 55.4717 82.7855 56.2085 82.6871 56.5676C82.5887 56.9267 84.5863 57.2831 86.3978 57.4667C88.2092 57.6502 89.4408 57.589 89.6031 57.0304C89.7653 56.4718 89.9383 56.0489 89.7042 55.8388C89.4701 55.6286 83.6952 54.5886 83.2749 55.0993Z" fill="#263238"/>
<path opacity="0.2" d="M83.2749 55.0993C82.969 55.4717 82.7855 56.2085 82.6871 56.5676C82.5887 56.9267 84.5863 57.2831 86.3978 57.4667C88.2092 57.6502 89.4408 57.589 89.6031 57.0304C89.7653 56.4718 89.9383 56.0489 89.7042 55.8388C89.4701 55.6286 83.6952 54.5886 83.2749 55.0993Z" fill="white"/>
<path d="M88.8447 93.8289C88.8287 88.4025 91.1695 80.2043 89.7331 74.9801H84.0859C85.7671 82.5185 86.2884 93.8448 85.6819 93.7783L88.8447 93.8289Z" fill="#FFC3BD"/>
<path d="M85.4355 93.1772C85.9489 91.0013 85.4356 86.6974 85.5473 86.3862C85.7893 85.7079 89.8352 86.2106 89.7394 86.6761C89.4176 88.2375 88.9175 93.1186 88.9813 94.7785C87.9865 95.3238 85.4355 93.1772 85.4355 93.1772Z" fill="#263238"/>
<path d="M97.4041 21.5088C94.11 21.4795 90.8262 21.8819 87.6366 22.7058C87.3453 22.782 87.0777 22.93 86.8584 23.1363C86.639 23.3427 86.4749 23.6007 86.3811 23.8868C85.3942 26.9245 85.7826 32.4653 86.7615 44.1507C88.1048 45.6802 94.8532 46.2787 100.687 44.3662C100.828 42.6132 100.399 35.0562 101.447 26.1292C101.516 25.5545 101.462 24.9718 101.291 24.419C101.12 23.8661 100.834 23.3554 100.453 22.9198C100.072 22.4843 99.6038 22.1336 99.0785 21.8905C98.5533 21.6475 97.9828 21.5174 97.4041 21.5088Z" fill="#CE9E41"/>
<path opacity="0.2" d="M85.8105 29.4196C85.8105 30.4836 85.8611 31.7125 85.9329 33.0904C87.3427 31.6833 88.6807 29.1855 88.9281 28.196C87.8417 28.4717 86.7944 28.8828 85.8105 29.4196Z" fill="black"/>
<path d="M89.3194 93.366L89.6439 96.7868C89.6487 96.8525 89.6398 96.9185 89.6179 96.9806C89.596 97.0428 89.5614 97.0997 89.5165 97.1479C89.4716 97.1961 89.4171 97.2345 89.3567 97.2607C89.2962 97.2869 89.231 97.3003 89.1651 97.3002C87.6702 97.3002 86.7232 97.2496 85.2788 97.2283C83.5871 97.2017 82.5257 97.356 80.544 97.3241C79.347 97.3055 79.1635 96.1351 79.6662 95.9941C82.0815 95.2759 83.4248 94.7838 84.6484 93.3341C84.6484 93.3341 84.1164 92.2701 84.7362 91.6078C85.5182 90.7725 85.7763 91.9695 85.9172 92.6984C86.0582 93.4272 85.7763 93.3793 85.7763 93.3793C85.7763 93.3793 88.6491 92.5441 89.3194 93.366Z" fill="#CE9E41"/>
<path d="M84.296 93.5442C83.8544 93.5442 83.2958 93.4485 83.0591 93.0122C82.9181 92.7462 83.0192 92.6345 83.091 92.5866C83.4235 92.3632 84.5434 92.8021 84.969 93.3208C84.9799 93.3339 84.9872 93.3497 84.99 93.3665C84.9928 93.3834 84.9911 93.4006 84.9849 93.4166C84.9797 93.4331 84.97 93.4478 84.9568 93.4591C84.9436 93.4704 84.9276 93.4778 84.9105 93.4804C84.7081 93.5212 84.5024 93.5426 84.296 93.5442ZM83.3357 92.7276C83.2895 92.7236 83.2431 92.7339 83.2027 92.7569C83.1628 92.7835 83.2027 92.8819 83.2347 92.9218C83.5007 93.4006 84.3146 93.3634 84.6844 93.3181C84.3016 92.9946 83.8331 92.7895 83.3357 92.7276Z" fill="#CE9E41"/>
<path d="M83.3037 94.3795C83.2119 94.3791 83.1212 94.3591 83.0377 94.321C82.8196 94.2172 82.8436 94.055 82.8648 94.0018C82.9952 93.6134 84.3039 93.1612 84.9237 93.2915C84.9414 93.2957 84.9577 93.3046 84.9708 93.3172C84.9839 93.3298 84.9934 93.3458 84.9982 93.3634C85.0031 93.3806 85.0033 93.3989 84.9986 93.4163C84.9939 93.4336 84.9846 93.4494 84.9716 93.4618C84.8545 93.5682 83.9634 94.3795 83.3037 94.3795ZM84.6524 93.4671C84.0406 93.4671 83.1149 93.8501 83.0431 94.0656C83.0431 94.0656 83.0298 94.1002 83.1149 94.1401C83.5032 94.3263 84.248 93.8076 84.655 93.4671H84.6524Z" fill="#CE9E41"/>
<path d="M84.5742 22.9345L85.5903 21.8014C85.6447 21.7398 85.6741 21.6601 85.6728 21.5779V17.6518C85.6736 17.5697 85.6442 17.4902 85.5903 17.4283L84.5742 16.2978C84.5492 16.2686 84.5182 16.2452 84.4833 16.2291C84.4484 16.2131 84.4105 16.2047 84.372 16.2047H78.6823C78.6439 16.2047 78.6059 16.2131 78.571 16.2291C78.5361 16.2452 78.5051 16.2686 78.4801 16.2978L77.464 17.4283C77.4094 17.49 77.3791 17.5694 77.3789 17.6518V21.5779C77.3786 21.6604 77.4089 21.74 77.464 21.8014L78.4801 22.9345C78.5051 22.9637 78.5361 22.9872 78.571 23.0033C78.6059 23.0193 78.6439 23.0276 78.6823 23.0276H84.372C84.4103 23.0267 84.4479 23.0179 84.4827 23.0019C84.5175 22.9859 84.5486 22.963 84.5742 22.9345Z" fill="#263238"/>
<path d="M85.4499 22.9718L86.7028 22.0408C86.8429 21.9309 86.9559 21.7903 87.0329 21.6298C87.11 21.4693 87.149 21.2932 87.147 21.1151V18.1146C87.1486 17.9399 87.1106 17.7671 87.036 17.6091C86.9614 17.4511 86.852 17.312 86.7161 17.2022L85.4633 16.2712C85.4172 16.2367 85.3612 16.218 85.3037 16.218H79.5847C79.5462 16.218 79.5083 16.2264 79.4734 16.2424C79.4385 16.2585 79.4075 16.282 79.3825 16.3111L78.3664 17.4416C78.3117 17.5033 78.2814 17.5827 78.2813 17.6651V21.5912C78.2809 21.6737 78.3113 21.7533 78.3664 21.8147L79.3825 22.9478C79.4075 22.977 79.4385 23.0005 79.4734 23.0166C79.5083 23.0326 79.5462 23.0409 79.5847 23.0409H85.3037C85.3584 23.0336 85.4095 23.0095 85.4499 22.9718Z" fill="black"/>
<path d="M84.123 19.6149C84.123 21.1231 85.2216 22.344 86.5782 22.344C87.9348 22.344 88.4908 21.1231 88.4908 19.6149C88.4908 18.1066 87.9322 16.8857 86.5782 16.8857C85.2243 16.8857 84.123 18.1066 84.123 19.6149Z" fill="#263238"/>
<path d="M95.1171 24.9162H95.8592L98.4101 24.5944C98.5946 24.561 98.7606 24.4616 98.8771 24.3147C98.9936 24.1679 99.0527 23.9836 99.0432 23.7964V21.9344C99.0512 21.7772 98.9967 21.6232 98.8915 21.5061C98.7863 21.389 98.6391 21.3182 98.482 21.3093H95.1171C95.0507 21.3153 94.9891 21.3459 94.9443 21.3952C94.8994 21.4444 94.8747 21.5087 94.875 21.5753V24.6502C94.8747 24.7168 94.8994 24.7811 94.9443 24.8303C94.9891 24.8796 95.0507 24.9102 95.1171 24.9162Z" fill="black"/>
<path d="M94.1616 24.9242H95.606C95.747 24.9242 95.8613 24.8099 95.8613 24.6689V21.5833C95.8613 21.4422 95.747 21.3279 95.606 21.3279H94.1616C94.0206 21.3279 93.9062 21.4422 93.9062 21.5833V24.6689C93.9062 24.8099 94.0206 24.9242 94.1616 24.9242Z" fill="#263238"/>
<path d="M93.9043 23.9187L96.9606 24.3098V22.4744H93.9043V23.9187Z" fill="black"/>
<path d="M90.4194 23.5862H92.0633L99.9475 22.8308C100.342 22.7749 100.702 22.5732 100.955 22.2655C101.209 21.9579 101.338 21.5664 101.317 21.1683V17.3086C101.317 16.3883 100.647 15.6408 99.8198 15.6408H90.4194C90.2705 15.6498 90.1311 15.717 90.0315 15.8281C89.9319 15.9392 89.8801 16.085 89.8874 16.234V22.9957C89.8808 23.1443 89.9329 23.2894 90.0325 23.3999C90.132 23.5104 90.271 23.5773 90.4194 23.5862Z" fill="#263238"/>
<path d="M88.3059 23.5889H91.5032C91.8132 23.5889 92.0645 23.3376 92.0645 23.0276V16.2021C92.0645 15.8921 91.8132 15.6408 91.5032 15.6408H88.3059C87.9959 15.6408 87.7446 15.8921 87.7446 16.2021V23.0276C87.7446 23.3376 87.9959 23.5889 88.3059 23.5889Z" fill="black"/>
<path d="M89.861 17.2022H88.8449C88.7814 17.2022 88.7205 17.177 88.6756 17.1321C88.6307 17.0872 88.6055 17.0263 88.6055 16.9628C88.6062 16.8998 88.6317 16.8396 88.6765 16.7953C88.7213 16.751 88.7818 16.7261 88.8449 16.7261H89.853C89.916 16.7261 89.9765 16.751 90.0214 16.7953C90.0662 16.8396 90.0917 16.8998 90.0924 16.9628C90.0924 17.025 90.0683 17.0847 90.0251 17.1294C89.982 17.174 89.9231 17.2002 89.861 17.2022Z" fill="#263238"/>
<path d="M89.861 18.0002H88.8449C88.7814 18.0002 88.7205 17.975 88.6756 17.9301C88.6307 17.8852 88.6055 17.8243 88.6055 17.7608C88.6062 17.6978 88.6317 17.6376 88.6765 17.5933C88.7213 17.549 88.7818 17.5241 88.8449 17.5241H89.853C89.916 17.5241 89.9765 17.549 90.0214 17.5933C90.0662 17.6376 90.0917 17.6978 90.0924 17.7608C90.0924 17.823 90.0683 17.8827 90.0251 17.9274C89.982 17.972 89.9231 17.9982 89.861 18.0002Z" fill="#263238"/>
<path d="M89.861 18.7983H88.8449C88.7814 18.7983 88.7205 18.773 88.6756 18.7281C88.6307 18.6832 88.6055 18.6223 88.6055 18.5589C88.6062 18.4958 88.6317 18.4356 88.6765 18.3913C88.7213 18.347 88.7818 18.3221 88.8449 18.3221H89.853C89.916 18.3221 89.9765 18.347 90.0214 18.3913C90.0662 18.4356 90.0917 18.4958 90.0924 18.5589C90.0924 18.621 90.0683 18.6807 90.0251 18.7254C89.982 18.77 89.9231 18.7962 89.861 18.7983Z" fill="#263238"/>
<path d="M89.861 19.5962H88.8449C88.7814 19.5962 88.7205 19.571 88.6756 19.5261C88.6307 19.4812 88.6055 19.4203 88.6055 19.3568C88.6062 19.2938 88.6317 19.2336 88.6765 19.1893C88.7213 19.145 88.7818 19.1201 88.8449 19.1201H89.853C89.916 19.1201 89.9765 19.145 90.0214 19.1893C90.0662 19.2336 90.0917 19.2938 90.0924 19.3568C90.0924 19.419 90.0683 19.4787 90.0251 19.5234C89.982 19.568 89.9231 19.5942 89.861 19.5962Z" fill="#263238"/>
<path d="M89.861 20.3942H88.8449C88.7814 20.3942 88.7205 20.369 88.6756 20.3241C88.6307 20.2792 88.6055 20.2183 88.6055 20.1548C88.6062 20.0918 88.6317 20.0316 88.6765 19.9873C88.7213 19.943 88.7818 19.9181 88.8449 19.9181H89.853C89.916 19.9181 89.9765 19.943 90.0214 19.9873C90.0662 20.0316 90.0917 20.0918 90.0924 20.1548C90.0924 20.217 90.0683 20.2767 90.0251 20.3214C89.982 20.366 89.9231 20.3922 89.861 20.3942Z" fill="#263238"/>
<path d="M89.861 21.1922H88.8449C88.7814 21.1922 88.7205 21.167 88.6756 21.1221C88.6307 21.0772 88.6055 21.0163 88.6055 20.9529C88.6062 20.8898 88.6317 20.8296 88.6765 20.7853C88.7213 20.741 88.7818 20.7161 88.8449 20.7161H89.853C89.916 20.7161 89.9765 20.741 90.0214 20.7853C90.0662 20.8296 90.0917 20.8898 90.0924 20.9529C90.0924 21.015 90.0683 21.0747 90.0251 21.1194C89.982 21.164 89.9231 21.1902 89.861 21.1922Z" fill="#263238"/>
<path d="M91.6855 13.4091H93.0421L93.7976 15.6408H92.4383L91.6855 13.4091Z" fill="#263238"/>
<path d="M93.0792 14.2204L82.7982 14.787C82.5582 14.7878 82.3271 14.6954 82.1539 14.5291C81.9807 14.3628 81.8789 14.1358 81.8699 13.8959C81.8374 13.6581 81.8981 13.417 82.0395 13.2231C82.1808 13.0292 82.3917 12.8976 82.628 12.8558L92.8504 11.6162C92.9734 11.6083 93.0968 11.6252 93.2132 11.6659C93.3296 11.7066 93.4366 11.7703 93.5279 11.8532C93.6193 11.9361 93.693 12.0364 93.7447 12.1484C93.7965 12.2603 93.8252 12.3814 93.8293 12.5047L93.8878 13.1697C93.9061 13.2921 93.8995 13.417 93.8684 13.5368C93.8373 13.6566 93.7824 13.7689 93.7069 13.867C93.6314 13.9651 93.5369 14.0469 93.429 14.1077C93.3212 14.1684 93.2022 14.2067 93.0792 14.2204Z" fill="black"/>
<path d="M88.9061 27.6614C88.3076 28.3636 87.7065 28.9914 87.084 29.6271C86.4616 30.2628 85.8152 30.872 85.1316 31.4652C84.4361 32.082 83.7023 32.6542 82.9344 33.1782C82.5103 33.4702 82.0658 33.7315 81.6044 33.9602C81.3364 34.0917 81.0601 34.2055 80.7772 34.3007C80.4056 34.4277 80.0177 34.5002 79.6254 34.5162H79.5828C79.2682 34.5282 78.9568 34.4488 78.6864 34.2874C78.4094 34.1234 78.1643 33.9108 77.9629 33.6597C77.7962 33.4455 77.6601 33.2091 77.5586 32.9574C77.416 32.5929 77.3342 32.2074 77.3165 31.8163C77.2974 31.2573 77.3465 30.6982 77.4628 30.1511C77.659 29.2364 77.9358 28.341 78.2901 27.4752C78.6252 26.6399 78.9923 25.8366 79.3913 25.0546C79.7903 24.2725 80.2079 23.5144 80.6894 22.759C80.8157 22.5636 81.0081 22.4202 81.2315 22.355C81.4549 22.2899 81.6942 22.3074 81.9058 22.4043C82.1173 22.5012 82.2869 22.671 82.3835 22.8827C82.48 23.0943 82.4972 23.3337 82.4317 23.557V23.5809C82.1923 24.3789 81.9396 25.1769 81.7108 25.9749C81.4821 26.7729 81.2613 27.5709 81.0778 28.3556C80.8929 29.1036 80.7605 29.8635 80.6814 30.6299C80.6489 30.9229 80.6543 31.2188 80.6974 31.5104C80.716 31.6035 80.7479 31.662 80.7373 31.6061C80.7217 31.5505 80.6945 31.4989 80.6575 31.4545C80.5934 31.3662 80.512 31.292 80.4181 31.2364L79.4791 31.0103C79.4286 31.0103 79.4791 30.9943 79.5775 30.9491C79.6951 30.8921 79.8096 30.8291 79.9207 30.7603C80.2148 30.5779 80.4989 30.3799 80.7719 30.1671C81.3597 29.7042 81.9556 29.1669 82.5461 28.6136C83.1366 28.0604 83.7165 27.4725 84.291 26.8793C84.8656 26.2861 85.4455 25.669 85.9908 25.0918L86.0121 25.0705C86.3549 24.6871 86.8361 24.4556 87.3496 24.4269C87.8632 24.3982 88.3671 24.5747 88.7505 24.9176C89.134 25.2604 89.3655 25.7416 89.3942 26.2551C89.4228 26.7687 89.2463 27.2726 88.9035 27.656L88.9061 27.6614Z" fill="#FFC3BD"/>
<path d="M87.2489 22.8601C85.1795 23.9666 83.618 25.9084 82.4609 27.9566C82.8786 29.2441 85.214 32.0823 85.214 32.0823C85.214 32.0823 88.7093 30.3958 89.6296 27.5257C90.5793 24.5385 87.4484 24.0305 87.2489 22.8601Z" fill="#CE9E41"/>
<path d="M81.873 24.8498L83.6632 23.1101L81.0564 21.6311C81.0564 21.6311 79.6253 23.4054 80.4446 24.3178L81.873 24.8498Z" fill="#FFC3BD"/>
<path d="M83.7214 20.5139L82.7266 20.1495C82.5318 20.0767 82.3173 20.0762 82.1221 20.1479C81.9269 20.2196 81.7639 20.3589 81.6626 20.5405L81.0508 21.6311L83.6576 23.1101L84.2268 21.6418C84.2686 21.5346 84.2887 21.4202 84.2858 21.3052C84.283 21.1903 84.2573 21.077 84.2103 20.972C84.1633 20.8671 84.0958 20.7725 84.0119 20.6939C83.928 20.6152 83.8292 20.5541 83.7214 20.5139Z" fill="#FFC3BD"/>
<path d="M90.1265 73.2351L90.5814 76.8394C90.5887 76.8768 90.5879 76.9153 90.579 76.9524C90.5701 76.9894 90.5534 77.0241 90.5299 77.0541C90.5064 77.0841 90.4768 77.1088 90.443 77.1263C90.4092 77.1439 90.3721 77.154 90.334 77.156C88.2967 76.7765 86.2009 76.8492 84.1947 77.3688C84.1208 77.3652 84.0507 77.3349 83.9973 77.2835C83.944 77.2322 83.9111 77.1632 83.9048 77.0895L83.5244 73.7272C83.514 73.6735 83.5204 73.6178 83.5427 73.5678C83.5651 73.5178 83.6024 73.476 83.6494 73.4479C84.6038 72.9313 85.6563 72.6215 86.7383 72.5385C87.8203 72.4556 88.9077 72.6014 89.9297 72.9665C89.9834 72.9898 90.0299 73.0269 90.0645 73.0741C90.0991 73.1214 90.1205 73.1769 90.1265 73.2351Z" fill="#263238"/>
<path opacity="0.2" d="M90.1265 73.2351L90.5814 76.8394C90.5887 76.8768 90.5879 76.9153 90.579 76.9524C90.5701 76.9894 90.5534 77.0241 90.5299 77.0541C90.5064 77.0841 90.4768 77.1088 90.443 77.1263C90.4092 77.1439 90.3721 77.154 90.334 77.156C88.2967 76.7765 86.2009 76.8492 84.1947 77.3688C84.1208 77.3652 84.0507 77.3349 83.9973 77.2835C83.944 77.2322 83.9111 77.1632 83.9048 77.0895L83.5244 73.7272C83.514 73.6735 83.5204 73.6178 83.5427 73.5678C83.5651 73.5178 83.6024 73.476 83.6494 73.4479C84.6038 72.9313 85.6563 72.6215 86.7383 72.5385C87.8203 72.4556 88.9077 72.6014 89.9297 72.9665C89.9834 72.9898 90.0299 73.0269 90.0645 73.0741C90.0991 73.1214 90.1205 73.1769 90.1265 73.2351Z" fill="white"/>
</svg>
