<svg width="133" height="143" viewBox="0 0 133 143" fill="none" xmlns="http://www.w3.org/2000/svg">
<path d="M4.39225 62.6812C3.73666 60.9201 3.61813 59.0041 4.05166 57.1756C4.48518 55.3471 5.45127 53.6883 6.82772 52.409C8.20417 51.1297 9.92913 50.2874 11.7844 49.9886C13.6396 49.6899 15.5418 49.9481 17.2503 50.7306C18.9588 51.5131 20.3968 52.7847 21.3825 54.3846C22.3681 55.9846 22.8571 57.8409 22.7875 59.7188C22.7179 61.5966 22.093 63.4117 20.9917 64.9343C19.8904 66.4569 18.3622 67.6187 16.6005 68.2726C14.24 69.1489 11.6283 69.0521 9.3391 68.0036C7.04994 66.9552 5.27066 65.0408 4.39225 62.6812Z" fill="#EBEBEB"/>
<path d="M18.2448 59.9886C17.1541 63.0316 13.9636 65.1313 13.9636 65.1313C13.9636 65.1313 10.3604 63.8211 8.61779 61.1154C7.15031 58.8552 7.59907 56.179 9.40721 55.3929C11.995 54.2661 13.2331 58.8618 13.2331 58.8618C13.2331 58.8618 13.374 54.1056 16.1583 54.6035C18.0974 54.9507 19.1522 57.4402 18.2448 59.9886Z" fill="white"/>
<path d="M121.649 88.9221C120.762 89.3738 119.807 89.6801 118.823 89.8295C116.46 90.1954 114.047 89.6572 112.064 88.3223C110.081 86.9873 108.674 84.9538 108.124 82.6275C107.574 80.3011 107.921 77.8529 109.097 75.7713C110.272 73.6898 112.189 72.1279 114.465 71.3973C116.741 70.6668 119.209 70.8212 121.377 71.8299C123.544 72.8385 125.251 74.6272 126.158 76.839C127.065 79.0509 127.104 81.5233 126.268 83.763C125.433 86.0026 123.783 87.8449 121.649 88.9221Z" fill="#EBEBEB"/>
<path d="M120.34 79.6128C120.29 80.1824 120.073 80.7244 119.715 81.1703C119.357 81.6162 118.875 81.946 118.33 82.1178C117.784 82.2896 117.2 82.2957 116.651 82.1355C116.103 81.9752 115.614 81.6557 115.247 81.2175C114.88 80.7792 114.651 80.2419 114.589 79.6735C114.527 79.1051 114.636 78.5312 114.901 78.0245C115.165 77.5178 115.574 77.101 116.076 76.8268C116.578 76.5527 117.15 76.4336 117.719 76.4846C118.481 76.5529 119.185 76.9205 119.676 77.507C120.167 78.0934 120.406 78.8507 120.34 79.6128Z" fill="white"/>
<path d="M121.751 87.7331L121.649 88.9221C120.762 89.3738 119.807 89.6801 118.823 89.8295C117.578 90.0251 116.307 89.9696 115.085 89.6664C113.863 89.3632 112.713 88.8183 111.705 88.0639L111.806 86.8782C111.862 86.225 112.047 85.5892 112.348 85.0072C112.65 84.4252 113.064 83.9084 113.565 83.4862C114.067 83.064 114.647 82.7447 115.272 82.5466C115.897 82.3485 116.554 82.2755 117.208 82.3316C117.861 82.3877 118.497 82.572 119.079 82.8738C119.661 83.1756 120.177 83.5891 120.6 84.0907C121.022 84.5923 121.341 85.1721 121.539 85.7971C121.737 86.422 121.81 87.0799 121.754 87.7331H121.751Z" fill="white"/>
<path d="M117.06 23.2852C122.361 21.0273 124.828 14.8996 122.57 9.5985C120.312 4.29739 114.184 1.83033 108.883 4.08816C103.582 6.346 101.115 12.4737 103.373 17.7748C105.631 23.0759 111.758 25.543 117.06 23.2852Z" fill="#EBEBEB"/>
<path fill-rule="evenodd" clip-rule="evenodd" d="M111.544 17.8314C111.269 17.6578 111.029 17.4055 110.659 17.4416C110.518 17.4416 110.548 17.3368 110.548 17.2614C110.548 15.8693 110.548 14.4837 110.548 13.0916C110.548 12.9933 110.548 12.9081 110.666 12.8524C111.727 12.3185 112.186 11.2638 112.838 10.3662C113.171 9.91891 113.411 9.40914 113.543 8.86723C113.675 8.32532 113.697 7.76236 113.607 7.21182C113.562 6.90063 113.709 6.75978 113.991 6.69427C114.132 6.64669 114.286 6.64549 114.428 6.69084C114.571 6.73618 114.695 6.82573 114.783 6.94649C115.089 7.51424 115.294 8.13034 115.389 8.76774C115.452 9.29184 115.262 9.80611 115.196 10.3269C115.147 10.7102 115.059 11.0869 114.986 11.4734C115.078 11.5389 115.186 11.5062 115.288 11.5062H118.809C119.304 11.5062 119.546 11.647 119.615 11.9746C119.652 12.1769 119.623 12.3859 119.531 12.5698C119.438 12.7537 119.289 12.9024 119.104 12.9933C119.015 13.0359 118.855 12.9933 118.845 13.1341C118.835 13.275 118.999 13.2586 119.081 13.3176C119.504 13.6091 119.425 14.2085 118.934 14.5558C118.816 14.6409 118.586 14.6016 118.58 14.7752C118.573 14.9488 118.793 14.9128 118.891 15.0078C119.219 15.3354 119.061 15.9905 118.563 16.2361C118.493 16.2584 118.424 16.2846 118.357 16.3148C118.298 16.3541 118.242 16.3999 118.357 16.4785C118.865 16.8421 118.855 17.3466 118.357 17.7167L118.203 17.8248C118.018 17.9378 117.8 17.9862 117.584 17.9624C115.743 17.9624 113.902 17.9624 112.061 17.9624C111.971 17.9781 111.878 17.9746 111.789 17.952C111.699 17.9294 111.616 17.8883 111.544 17.8314Z" fill="white"/>
<path fill-rule="evenodd" clip-rule="evenodd" d="M106.313 15.3812C106.313 14.4968 106.313 13.6157 106.313 12.7312C106.313 12.5544 106.329 12.4659 106.549 12.4659C107.626 12.4659 108.701 12.4659 109.779 12.4659C109.991 12.4659 110.024 12.5347 110.021 12.7214C110.021 14.5012 110.021 16.2787 110.021 18.0541C110.021 18.2801 109.959 18.3424 109.733 18.3391C108.689 18.326 107.645 18.326 106.601 18.3391C106.339 18.3391 106.303 18.2507 106.306 18.0115C106.319 17.15 106.313 16.2656 106.313 15.3812Z" fill="white"/>
<path d="M21.7332 111.681C22.2802 115.176 20.3148 118.868 20.3148 118.868C20.3148 118.868 16.1744 119.484 13.0659 117.793C10.4585 116.401 9.50527 113.571 10.8155 111.871C12.7219 109.434 16.312 113.214 16.312 113.214C16.312 113.214 13.9634 108.56 16.9049 107.587C18.9587 106.902 21.2975 108.766 21.7332 111.681Z" fill="#EBEBEB"/>
<path d="M28.9594 103.076C27.3937 105.156 24.4358 106.024 24.4358 106.024C24.4358 106.024 21.9856 104.16 21.2781 101.654C20.6885 99.5646 21.6745 97.6091 23.2435 97.4387C25.5069 97.1898 25.3595 101.022 25.3595 101.022C25.3595 101.022 26.6043 97.3962 28.6351 98.4444C30.0502 99.1617 30.2631 101.333 28.9594 103.076Z" fill="#EBEBEB"/>
<path d="M66.5017 142.809C95.1611 142.809 118.394 139.699 118.394 135.862C118.394 132.025 95.1611 128.914 66.5017 128.914C37.8424 128.914 14.6094 132.025 14.6094 135.862C14.6094 139.699 37.8424 142.809 66.5017 142.809Z" fill="#EBEBEB"/>
<path d="M0 129.884L16.627 129.805L33.2508 129.776L66.5016 129.72L99.7525 129.776L116.376 129.805L133 129.884L116.376 129.962L99.7525 129.992L66.5016 130.048L33.2508 129.992L16.627 129.962L0 129.884Z" fill="#263238"/>
<path d="M94.184 8.27966H38.826C38.0833 8.28609 37.3491 8.4388 36.6654 8.72908C35.9817 9.01937 35.3619 9.44153 34.8414 9.97144C34.3209 10.5014 33.91 11.1286 33.632 11.8174C33.354 12.5062 33.2145 13.2431 33.2214 13.9858V127.977C33.2083 129.477 33.7914 130.921 34.8424 131.991C35.8934 133.061 37.3262 133.67 38.826 133.684H94.184C95.6846 133.671 97.1187 133.062 98.1709 131.992C99.2231 130.922 99.8074 129.478 99.7951 127.977V13.9858C99.8016 13.2426 99.6616 12.5055 99.3831 11.8164C99.1045 11.1274 98.693 10.5 98.1719 9.97009C97.6508 9.44018 97.0304 9.01814 96.3461 8.72809C95.6619 8.43804 94.9272 8.28566 94.184 8.27966ZM96.2902 124.456C96.2902 127.457 94.0431 129.884 91.2752 129.884H41.7348C38.9538 129.884 36.71 127.457 36.71 124.456V18.3063C36.71 12.194 38.9538 11.8959 41.7348 11.8959H51.6566C52.2331 11.8959 52.7048 12.5511 52.7048 13.3634V13.7139C52.7048 15.6171 53.7465 15.6236 55.0272 15.6236H77.9566C79.2668 15.6236 80.279 15.6236 80.279 13.7139V13.3634C80.279 12.5511 80.7441 11.8959 81.3337 11.8959H91.2589C94.0268 11.8959 96.2738 12.7083 96.2738 18.3063L96.2902 124.456Z" fill="#263238"/>
<path d="M69.6301 13.2455H63.3704C63.2679 13.2455 63.1696 13.2048 63.0971 13.1323C63.0246 13.0598 62.9839 12.9615 62.9839 12.859C62.9839 12.7565 63.0246 12.6581 63.0971 12.5857C63.1696 12.5132 63.2679 12.4724 63.3704 12.4724H69.6301C69.7326 12.4724 69.831 12.5132 69.9034 12.5857C69.9759 12.6581 70.0166 12.7565 70.0166 12.859C70.0166 12.9615 69.9759 13.0598 69.9034 13.1323C69.831 13.2048 69.7326 13.2455 69.6301 13.2455Z" fill="white"/>
<path d="M96.2902 18.3063V124.456C96.2902 127.457 94.0431 129.884 91.2752 129.884H41.7348C38.9538 129.884 36.71 127.457 36.71 124.456V18.3063C36.71 12.194 38.9538 11.896 41.7348 11.896H51.6566C52.2331 11.896 52.7048 12.5511 52.7048 13.3634V13.7139C52.7048 15.6171 53.7465 15.6236 55.0272 15.6236H77.9566C79.2668 15.6236 80.279 15.6236 80.279 13.7139V13.3634C80.279 12.5511 80.7441 11.896 81.3337 11.896H91.2589C94.0431 11.9091 96.2902 12.7083 96.2902 18.3063Z" fill="white"/>
<path d="M96.29 18.3063V26.2268H36.6934V18.3063C36.6934 12.194 38.9535 11.9091 41.7313 11.9091H51.6564C52.2329 11.9091 52.7046 12.5642 52.7046 13.3765V13.727C52.7046 15.6302 53.7462 15.6367 55.0237 15.6367H77.9662C79.2568 15.6367 80.2919 15.6367 80.2919 13.727V13.3634C80.2919 12.5511 80.757 11.896 81.3433 11.896H91.2652C94.0429 11.9091 96.29 12.7083 96.29 18.3063Z" fill="#CE9E41"/>
<path d="M42.3537 22.3615L40.5947 20.7106L42.3537 19.0597L42.6256 19.3513L41.1778 20.7106L42.6256 22.07L42.3537 22.3615Z" fill="white"/>
<path d="M90.8853 22.4762H89.7061V22.0635C89.7057 22.0451 89.7003 22.0271 89.6905 22.0115C89.6807 21.9959 89.6668 21.9833 89.6504 21.975C89.6046 21.9521 89.562 21.9259 89.5194 21.8997C89.5036 21.8901 89.4854 21.8851 89.467 21.8851C89.4485 21.8851 89.4304 21.8901 89.4146 21.8997L89.0608 22.1028L88.4712 21.084L88.8282 20.8777C88.8439 20.8684 88.8565 20.8548 88.8646 20.8385C88.8727 20.8223 88.876 20.804 88.8741 20.786C88.8724 20.7609 88.8724 20.7357 88.8741 20.7106C88.8725 20.6855 88.8725 20.6604 88.8741 20.6353C88.876 20.6172 88.8727 20.599 88.8646 20.5827C88.8565 20.5665 88.8439 20.5529 88.8282 20.5436L88.4712 20.3372L89.0608 19.3185L89.4146 19.5216C89.4304 19.5311 89.4485 19.5361 89.467 19.5361C89.4854 19.5361 89.5036 19.5311 89.5194 19.5216C89.562 19.4954 89.6046 19.4692 89.6504 19.4462C89.6668 19.4379 89.6807 19.4253 89.6905 19.4097C89.7003 19.3942 89.7057 19.3762 89.7061 19.3578V18.9451H90.8853V19.3545C90.8857 19.3729 90.8911 19.3909 90.9009 19.4065C90.9107 19.422 90.9246 19.4347 90.941 19.443L91.072 19.5183C91.0879 19.5278 91.106 19.5329 91.1244 19.5329C91.1429 19.5329 91.161 19.5278 91.1768 19.5183L91.5306 19.3152L92.117 20.3339L91.7632 20.5403C91.7472 20.5495 91.7342 20.5629 91.7255 20.5791C91.7168 20.5953 91.7128 20.6137 91.7141 20.632C91.7157 20.6571 91.7157 20.6823 91.7141 20.7074V20.7794C91.711 20.798 91.7138 20.8172 91.722 20.8342C91.7302 20.8512 91.7434 20.8652 91.7599 20.8744L92.1137 21.0808L91.5273 22.0995L91.1703 21.8964C91.1551 21.8868 91.1375 21.8817 91.1195 21.8817C91.1016 21.8817 91.0839 21.8868 91.0688 21.8964L90.9377 21.9717C90.9213 21.9801 90.9074 21.9927 90.8976 22.0082C90.8878 22.0238 90.8824 22.0418 90.882 22.0602L90.8853 22.4762ZM89.9518 22.2305H90.6397V22.0635C90.6396 22 90.6571 21.9377 90.69 21.8834C90.7229 21.8291 90.7701 21.7849 90.8264 21.7555C90.8652 21.738 90.9025 21.7172 90.9377 21.6933C90.9912 21.6581 91.0538 21.6393 91.1179 21.6393C91.1819 21.6393 91.2446 21.6581 91.2981 21.6933L91.4389 21.7752L91.7828 21.179L91.6387 21.0972C91.5813 21.0655 91.5347 21.0174 91.5049 20.959C91.4751 20.9006 91.4635 20.8346 91.4717 20.7696V20.6451C91.4638 20.5797 91.4759 20.5135 91.5063 20.455C91.5367 20.3966 91.584 20.3487 91.642 20.3176L91.7828 20.2357L91.4389 19.6395L91.2981 19.7214C91.2446 19.7566 91.1819 19.7754 91.1179 19.7754C91.0538 19.7754 90.9912 19.7566 90.9377 19.7214C90.9032 19.6982 90.867 19.6774 90.8296 19.6592C90.7725 19.6305 90.7244 19.5866 90.6909 19.5322C90.6573 19.4778 90.6396 19.4152 90.6397 19.3512V19.1875H89.9518V19.3512C89.9518 19.4152 89.9341 19.4778 89.9005 19.5322C89.867 19.5866 89.8189 19.6305 89.7618 19.6592C89.724 19.6767 89.6878 19.6975 89.6537 19.7214C89.6002 19.7566 89.5376 19.7754 89.4735 19.7754C89.4095 19.7754 89.3468 19.7566 89.2934 19.7214L89.1525 19.6395L88.825 20.2357L88.9658 20.3176C89.0238 20.3487 89.0711 20.3966 89.1015 20.455C89.1319 20.5135 89.144 20.5797 89.1361 20.6451C89.1318 20.6865 89.1318 20.7282 89.1361 20.7696C89.144 20.835 89.1319 20.9012 89.1015 20.9597C89.0711 21.0181 89.0238 21.066 88.9658 21.0972L88.825 21.179L89.1525 21.7752L89.2934 21.6933C89.3468 21.6581 89.4095 21.6393 89.4735 21.6393C89.5376 21.6393 89.6002 21.6581 89.6537 21.6933C89.6883 21.7165 89.7244 21.7373 89.7618 21.7555C89.8189 21.7842 89.867 21.8281 89.9005 21.8825C89.9341 21.9369 89.9518 21.9996 89.9518 22.0635V22.2305ZM90.2957 21.595C90.1199 21.5957 89.9478 21.5441 89.8013 21.4468C89.6548 21.3495 89.5405 21.2109 89.4729 21.0486C89.4053 20.8862 89.3875 20.7075 89.4216 20.535C89.4558 20.3625 89.5404 20.204 89.6647 20.0797C89.7891 19.9553 89.9476 19.8707 90.1201 19.8366C90.2926 19.8024 90.4713 19.8203 90.6337 19.8879C90.796 19.9555 90.9346 20.0697 91.0319 20.2162C91.1292 20.3627 91.1808 20.5348 91.1801 20.7106C91.1793 20.9449 91.0858 21.1694 90.9201 21.335C90.7545 21.5007 90.53 21.5942 90.2957 21.595ZM90.2957 20.0686C90.1655 20.0653 90.0373 20.101 89.9274 20.171C89.8175 20.2409 89.731 20.3421 89.6789 20.4615C89.6268 20.5809 89.6115 20.7131 89.6349 20.8412C89.6583 20.9693 89.7193 21.0876 89.8103 21.1809C89.9012 21.2741 90.0179 21.3382 90.1454 21.3648C90.2729 21.3914 90.4054 21.3795 90.5261 21.3304C90.6468 21.2813 90.7501 21.1974 90.8228 21.0893C90.8955 20.9813 90.9344 20.854 90.9345 20.7237C90.9345 20.5528 90.8677 20.3886 90.7484 20.2662C90.6291 20.1438 90.4666 20.0729 90.2957 20.0686Z" fill="white"/>
<path d="M49.9434 14.2806L49.8484 14.3756C49.8287 14.3756 49.8124 14.4116 49.7927 14.4313C49.6724 14.3086 49.5286 14.2114 49.3699 14.1455C49.2112 14.0797 49.0408 14.0465 48.869 14.048C48.697 14.0457 48.5264 14.0785 48.3676 14.1444C48.2088 14.2103 48.0651 14.3079 47.9453 14.4313L47.8928 14.3756L47.7979 14.2806L47.9191 14.1758C48.005 14.1041 48.0996 14.0436 48.2008 13.9956C48.3176 13.9367 48.4422 13.8947 48.5709 13.8711C48.6331 13.8711 48.6954 13.8711 48.7576 13.8449H48.9214H49.0459C49.1578 13.8596 49.2677 13.8871 49.3734 13.9268C49.4539 13.9562 49.5317 13.9923 49.606 14.0349C49.6837 14.0794 49.7572 14.131 49.8255 14.1889L49.927 14.2806H49.9434Z" fill="white"/>
<path d="M48.2469 14.7326C48.1977 14.6802 48.1486 14.6311 48.0962 14.5819C48.1973 14.4802 48.3175 14.3995 48.4498 14.3444C48.5822 14.2893 48.7242 14.261 48.8676 14.261C49.011 14.261 49.153 14.2893 49.2854 14.3444C49.4177 14.3995 49.5379 14.4802 49.639 14.5819L49.4883 14.7326C49.3237 14.568 49.1004 14.4755 48.8676 14.4755C48.6348 14.4755 48.4115 14.568 48.2469 14.7326Z" fill="white"/>
<path d="M49.3373 14.8833L49.1867 15.034C49.1445 14.9902 49.0934 14.9558 49.037 14.9332C48.9805 14.9107 48.9199 14.9003 48.8591 14.903C48.7984 14.9011 48.738 14.9118 48.6817 14.9344C48.6253 14.9569 48.5742 14.9908 48.5315 15.034L48.3809 14.8833C48.4421 14.8178 48.5162 14.7657 48.5985 14.73C48.6807 14.6943 48.7694 14.6759 48.8591 14.6759C48.9488 14.6759 49.0375 14.6943 49.1197 14.73C49.202 14.7657 49.2761 14.8178 49.3373 14.8833Z" fill="white"/>
<path d="M49.0035 15.1847C49.0035 15.2203 48.9893 15.2544 48.9642 15.2796C48.939 15.3048 48.9048 15.319 48.8692 15.319C48.8496 15.322 48.8295 15.3208 48.8104 15.3154C48.7913 15.3099 48.7736 15.3004 48.7585 15.2875C48.7435 15.2746 48.7314 15.2586 48.723 15.2405C48.7147 15.2225 48.7104 15.2029 48.7104 15.183C48.7104 15.1632 48.7147 15.1436 48.723 15.1255C48.7314 15.1075 48.7435 15.0915 48.7585 15.0785C48.7736 15.0656 48.7913 15.0561 48.8104 15.0507C48.8295 15.0453 48.8496 15.044 48.8692 15.0471C48.8871 15.0471 48.9048 15.0507 48.9214 15.0576C48.9379 15.0646 48.9528 15.0748 48.9653 15.0876C48.9778 15.1004 48.9877 15.1156 48.9942 15.1323C49.0008 15.1489 49.0039 15.1668 49.0035 15.1847Z" fill="white"/>
<path d="M40.5918 14.5689C40.5918 14.4905 40.615 14.4138 40.6586 14.3487C40.7021 14.2835 40.7641 14.2327 40.8365 14.2027C40.9089 14.1727 40.9886 14.1648 41.0655 14.1801C41.1424 14.1954 41.213 14.2332 41.2684 14.2886C41.3238 14.344 41.3616 14.4146 41.3769 14.4915C41.3922 14.5684 41.3843 14.6481 41.3543 14.7205C41.3243 14.793 41.2735 14.8549 41.2083 14.8984C41.1432 14.942 41.0665 14.9652 40.9881 14.9652C40.883 14.9652 40.7822 14.9234 40.7079 14.8491C40.6336 14.7748 40.5918 14.674 40.5918 14.5689Z" fill="white"/>
<path d="M41.8364 14.5689C41.8364 14.4905 41.8597 14.4138 41.9032 14.3487C41.9468 14.2835 42.0087 14.2327 42.0811 14.2027C42.1535 14.1727 42.2332 14.1648 42.3101 14.1801C42.387 14.1954 42.4576 14.2332 42.513 14.2886C42.5685 14.344 42.6062 14.4146 42.6215 14.4915C42.6368 14.5684 42.629 14.6481 42.599 14.7205C42.569 14.793 42.5182 14.8549 42.453 14.8984C42.3878 14.942 42.3112 14.9652 42.2328 14.9652C42.1807 14.9652 42.1292 14.9549 42.0811 14.935C42.033 14.9151 41.9893 14.8859 41.9525 14.8491C41.9157 14.8123 41.8865 14.7686 41.8666 14.7205C41.8467 14.6724 41.8364 14.6209 41.8364 14.5689Z" fill="white"/>
<path d="M43.0811 14.5689C43.0811 14.4903 43.1044 14.4136 43.1481 14.3483C43.1918 14.2831 43.2539 14.2323 43.3265 14.2024C43.3991 14.1725 43.479 14.1648 43.556 14.1804C43.6329 14.1959 43.7035 14.234 43.7588 14.2898C43.8141 14.3455 43.8516 14.4165 43.8665 14.4936C43.8815 14.5707 43.8732 14.6504 43.8426 14.7228C43.8121 14.7952 43.7608 14.8568 43.6952 14.9C43.6296 14.9432 43.5527 14.9659 43.4741 14.9652C43.4222 14.9652 43.3709 14.9549 43.323 14.935C43.2751 14.915 43.2316 14.8858 43.195 14.8489C43.1585 14.8121 43.1296 14.7683 43.11 14.7203C43.0905 14.6722 43.0806 14.6207 43.0811 14.5689Z" fill="white"/>
<path d="M44.3257 14.5689C44.3257 14.4903 44.349 14.4136 44.3927 14.3483C44.4364 14.2831 44.4985 14.2323 44.5711 14.2024C44.6437 14.1725 44.7236 14.1648 44.8006 14.1804C44.8776 14.1959 44.9482 14.234 45.0035 14.2898C45.0588 14.3455 45.0963 14.4165 45.1112 14.4936C45.1261 14.5707 45.1178 14.6504 45.0873 14.7228C45.0568 14.7952 45.0055 14.8568 44.9399 14.9C44.8742 14.9432 44.7973 14.9659 44.7188 14.9652C44.6669 14.9652 44.6155 14.9549 44.5676 14.935C44.5197 14.915 44.4762 14.8858 44.4397 14.8489C44.4031 14.8121 44.3742 14.7683 44.3547 14.7203C44.3351 14.6722 44.3253 14.6207 44.3257 14.5689Z" fill="white"/>
<path d="M45.5674 14.5689C45.5674 14.4905 45.5906 14.4138 45.6342 14.3487C45.6777 14.2835 45.7396 14.2327 45.8121 14.2027C45.8845 14.1727 45.9642 14.1648 46.0411 14.1801C46.1179 14.1954 46.1886 14.2332 46.244 14.2886C46.2994 14.344 46.3372 14.4146 46.3525 14.4915C46.3678 14.5684 46.3599 14.6481 46.3299 14.7205C46.2999 14.793 46.2491 14.8549 46.1839 14.8984C46.1188 14.942 46.0421 14.9652 45.9637 14.9652C45.8586 14.9652 45.7578 14.9234 45.6835 14.8491C45.6091 14.7748 45.5674 14.674 45.5674 14.5689Z" fill="white"/>
<path d="M91.8221 15.4303H88.6055V13.9432H91.8221V15.4303ZM88.7692 15.2666H91.6583V14.107H88.7758L88.7692 15.2666Z" fill="white"/>
<path d="M90.9475 14.1954H88.874V15.1781H90.9475V14.1954Z" fill="white"/>
<path d="M92.1073 14.2904H91.8223V15.0864H92.1073V14.2904Z" fill="white"/>
<path d="M45.7604 123.395H45.3084V125.475H44.4633V124.413H42.963V125.475H42.1179V123.395H41.6626L43.7131 121.279L45.7604 123.395Z" fill="#EBEBEB"/>
<path d="M91.341 121.279H86.4014V121.983H91.341V121.279Z" fill="#EBEBEB"/>
<path d="M91.341 123.025H86.4014V123.729H91.341V123.025Z" fill="#EBEBEB"/>
<path d="M91.341 124.771H86.4014V125.475H91.341V124.771Z" fill="#EBEBEB"/>
<path d="M45.6654 36.6465C45.3692 36.8315 45.0451 36.9675 44.7056 37.0494C43.8914 37.2492 43.0319 37.1346 42.2984 36.7286C41.565 36.3225 41.0116 35.6549 40.7487 34.8589C40.4857 34.0628 40.5326 33.1969 40.8799 32.4339C41.2272 31.6709 41.8494 31.0669 42.6224 30.7424C43.3954 30.4179 44.2623 30.3968 45.0502 30.6833C45.8381 30.9697 46.489 31.5427 46.873 32.2879C47.2571 33.0331 47.3461 33.8957 47.1222 34.7036C46.8984 35.5115 46.3782 36.2053 45.6654 36.6465Z" fill="#DBDBDB"/>
<path d="M44.9286 33.4397C44.9286 33.6399 44.8693 33.8356 44.7581 34.002C44.6468 34.1685 44.4888 34.2982 44.3038 34.3748C44.1189 34.4514 43.9153 34.4715 43.719 34.4324C43.5227 34.3933 43.3423 34.297 43.2008 34.1554C43.0592 34.0138 42.9628 33.8335 42.9237 33.6372C42.8847 33.4408 42.9047 33.2373 42.9813 33.0523C43.0579 32.8674 43.1877 32.7093 43.3541 32.5981C43.5206 32.4869 43.7163 32.4275 43.9165 32.4275C44.1849 32.4275 44.4424 32.5342 44.6322 32.724C44.822 32.9138 44.9286 33.1712 44.9286 33.4397Z" fill="white"/>
<path d="M45.6657 36.2305V36.6465C45.3695 36.8315 45.0454 36.9675 44.7059 37.0494C44.2778 37.1544 43.833 37.1728 43.3976 37.1036C42.9623 37.0345 42.5451 36.8791 42.1706 36.6465V36.2305C42.1604 35.9947 42.198 35.7592 42.2812 35.5383C42.3644 35.3173 42.4915 35.1156 42.6548 34.945C42.8181 34.7745 43.0142 34.6389 43.2313 34.5462C43.4484 34.4535 43.682 34.4057 43.9181 34.4057C44.1542 34.4057 44.3878 34.4535 44.605 34.5462C44.8221 34.6389 45.0182 34.7745 45.1815 34.945C45.3447 35.1156 45.4718 35.3173 45.555 35.5383C45.6382 35.7592 45.6759 35.9947 45.6657 36.2305Z" fill="white"/>
<path d="M72.5422 30.6849H51.4111V32.4275H72.5422V30.6849Z" fill="#EBEBEB"/>
<path d="M69.8561 33.5904H51.4111V34.7434H69.8561V33.5904Z" fill="#EBEBEB"/>
<path d="M81.9104 35.8145H51.4111V36.9675H81.9104V35.8145Z" fill="#EBEBEB"/>
<path d="M36.7066 81.6142L96.2803 81.6142V39.8959L36.7066 39.8959L36.7066 81.6142Z" fill="#EBEBEB"/>
<path d="M43.6709 51.757C43.6709 52.7333 43.9604 53.6877 44.5028 54.4995C45.0452 55.3112 45.8162 55.9439 46.7182 56.3176C47.6202 56.6912 48.6127 56.7889 49.5703 56.5985C50.5279 56.408 51.4074 55.9379 52.0978 55.2475C52.7881 54.5571 53.2583 53.6776 53.4488 52.72C53.6392 51.7624 53.5415 50.7699 53.1679 49.8679C52.7942 48.9659 52.1615 48.1949 51.3498 47.6525C50.538 47.1101 49.5836 46.8206 48.6073 46.8206C47.2981 46.8206 46.0425 47.3407 45.1167 48.2664C44.191 49.1922 43.6709 50.4478 43.6709 51.757Z" fill="#DBDBDB"/>
<path d="M63.1606 72.5408H96.2903L79.7255 50.0897L63.1606 72.5408Z" fill="#C7C7C7"/>
<path d="M50.1758 72.6489H77.5272L63.8515 58.0265L50.1758 72.6489Z" fill="#DBDBDB"/>
<path d="M96.2837 72.6292H36.71V81.6175H96.2837V72.6292Z" fill="#DBDBDB"/>
<path d="M45.6653 103.626C45.3683 103.809 45.0444 103.944 44.7056 104.026C44.0674 104.181 43.3976 104.143 42.7809 103.917C42.1642 103.692 41.6283 103.288 41.2408 102.758C40.8533 102.228 40.6318 101.594 40.604 100.938C40.5763 100.282 40.7437 99.6326 41.0851 99.0716C41.4264 98.5106 41.9265 98.0634 42.5219 97.7864C43.1174 97.5095 43.7816 97.4153 44.4306 97.5158C45.0795 97.6162 45.6842 97.9068 46.1681 98.3507C46.652 98.7947 46.9934 99.3722 47.1492 100.01C47.3144 100.692 47.2599 101.409 46.9934 102.059C46.7269 102.708 46.2621 103.257 45.6653 103.626Z" fill="#DBDBDB"/>
<path d="M44.9286 100.406C44.9286 100.607 44.8693 100.802 44.7581 100.969C44.6468 101.135 44.4888 101.265 44.3038 101.342C44.1189 101.418 43.9153 101.438 43.719 101.399C43.5227 101.36 43.3423 101.264 43.2008 101.122C43.0592 100.981 42.9628 100.8 42.9237 100.604C42.8847 100.408 42.9047 100.204 42.9813 100.019C43.0579 99.8342 43.1877 99.6761 43.3541 99.5649C43.5206 99.4537 43.7163 99.3943 43.9165 99.3943C44.1849 99.3943 44.4424 99.5009 44.6322 99.6908C44.822 99.8806 44.9286 100.138 44.9286 100.406Z" fill="white"/>
<path d="M45.6657 103.197V103.626C45.3686 103.809 45.0447 103.944 44.7059 104.026C44.2778 104.132 43.8329 104.151 43.3974 104.081C42.962 104.012 42.5448 103.856 42.1706 103.623V103.207C42.1604 102.971 42.198 102.736 42.2812 102.515C42.3644 102.294 42.4915 102.092 42.6548 101.922C42.8181 101.751 43.0142 101.615 43.2313 101.523C43.4484 101.43 43.682 101.382 43.9181 101.382C44.1542 101.382 44.3878 101.43 44.605 101.523C44.8221 101.615 45.0182 101.751 45.1815 101.922C45.3447 102.092 45.4718 102.294 45.555 102.515C45.6382 102.736 45.6759 102.971 45.6657 103.207V103.197Z" fill="white"/>
<path d="M78.589 97.6517H51.4111V99.3943H78.589V97.6517Z" fill="#EBEBEB"/>
<path d="M86.1032 100.557H51.4111V101.71H86.1032V100.557Z" fill="#EBEBEB"/>
<path d="M63.2296 102.781H51.4111V103.934H63.2296V102.781Z" fill="#EBEBEB"/>
<path d="M96.2837 106.866H36.71V117.056H96.2837V106.866Z" fill="#EBEBEB"/>
<path d="M53.2516 117.056H43.9619C44.3059 116.1 44.9366 115.274 45.7679 114.689C46.5992 114.105 47.5906 113.791 48.6067 113.791C49.6229 113.791 50.6142 114.105 51.4455 114.689C52.2768 115.274 52.9075 116.1 53.2516 117.056Z" fill="#DBDBDB"/>
<path d="M42.6257 88.0082C43.7148 88.0082 44.5977 87.1254 44.5977 86.0363C44.5977 84.9472 43.7148 84.0644 42.6257 84.0644C41.5367 84.0644 40.6538 84.9472 40.6538 86.0363C40.6538 87.1254 41.5367 88.0082 42.6257 88.0082Z" fill="#EBEBEB"/>
<path fill-rule="evenodd" clip-rule="evenodd" d="M42.3575 86.8225C42.3051 86.7897 42.2593 86.7406 42.1905 86.7471C42.1217 86.7537 42.1708 86.7308 42.1708 86.7144C42.1708 86.4523 42.1708 86.1903 42.1708 85.9282C42.1691 85.9191 42.1705 85.9097 42.1746 85.9015C42.1787 85.8932 42.1855 85.8865 42.1937 85.8824C42.3936 85.7808 42.482 85.581 42.6065 85.4107C42.6691 85.326 42.714 85.2296 42.7388 85.1272C42.7635 85.0248 42.7676 84.9185 42.7506 84.8145C42.7506 84.7556 42.7703 84.7294 42.8227 84.7163C42.8497 84.7074 42.8789 84.7074 42.906 84.7162C42.9331 84.7251 42.9567 84.7423 42.9733 84.7654C43.0309 84.8726 43.0697 84.989 43.088 85.1093C43.0857 85.2085 43.0736 85.3073 43.052 85.4041C43.052 85.4762 43.0257 85.5483 43.0126 85.6203C43.029 85.6203 43.0487 85.6203 43.0683 85.6203H43.7235C43.8184 85.6203 43.8643 85.6465 43.8774 85.7088C43.8848 85.7473 43.8791 85.7872 43.8614 85.8222C43.8436 85.8572 43.8146 85.8853 43.7791 85.902C43.7628 85.902 43.7333 85.902 43.73 85.9282C43.7267 85.9544 43.7595 85.9512 43.7759 85.9643C43.8545 86.0167 43.8414 86.1313 43.7464 86.1968C43.7267 86.2132 43.6809 86.1968 43.6809 86.2394C43.6809 86.282 43.7202 86.2656 43.7398 86.282C43.7541 86.3006 43.7639 86.3223 43.7684 86.3453C43.7728 86.3684 43.7718 86.3921 43.7654 86.4147C43.7591 86.4373 43.7475 86.4581 43.7317 86.4754C43.7159 86.4928 43.6962 86.5062 43.6743 86.5146C43.6607 86.5186 43.6475 86.5241 43.635 86.531C43.635 86.531 43.6154 86.531 43.635 86.5604C43.6572 86.5712 43.6758 86.5879 43.6889 86.6088C43.702 86.6296 43.7089 86.6537 43.7089 86.6784C43.7089 86.703 43.702 86.7271 43.6889 86.7479C43.6758 86.7688 43.6572 86.7855 43.635 86.7963L43.6088 86.8159C43.5734 86.8373 43.532 86.8465 43.4909 86.8421H42.446C42.4151 86.8463 42.3837 86.8393 42.3575 86.8225Z" fill="white"/>
<path fill-rule="evenodd" clip-rule="evenodd" d="M41.3682 86.3606V85.8594C41.3682 85.8234 41.3682 85.807 41.414 85.807H42.0233C42.0626 85.807 42.0691 85.807 42.0691 85.8562V86.8651C42.0691 86.9076 42.0691 86.9207 42.0167 86.9175H41.4238C41.3747 86.9175 41.3682 86.9011 41.3682 86.8552C41.3714 86.6914 41.3682 86.5277 41.3682 86.3606Z" fill="white"/>
<path d="M44.8528 86.5047C44.7621 86.1274 44.7851 85.7317 44.9189 85.3674C45.0527 85.0031 45.2914 84.6866 45.6049 84.4577C45.9183 84.2289 46.2925 84.098 46.6803 84.0815C47.068 84.0651 47.452 84.1638 47.7837 84.3652C48.1154 84.5666 48.3801 84.8617 48.5444 85.2133C48.7086 85.5649 48.7651 85.9573 48.7067 86.341C48.6483 86.7247 48.4776 87.0824 48.2161 87.3692C47.9546 87.656 47.6141 87.859 47.2375 87.9526C46.9858 88.0151 46.7242 88.0272 46.4679 87.9881C46.2115 87.9491 45.9654 87.8597 45.7437 87.7251C45.5221 87.5905 45.3292 87.4134 45.1763 87.204C45.0234 86.9945 44.9135 86.7569 44.8528 86.5047Z" fill="#CE9E41"/>
<path d="M47.7748 86.2853C47.5351 86.6914 47.1868 87.0227 46.7692 87.2418C46.3502 87.0233 46.0008 86.692 45.7603 86.2853C45.5146 85.7841 45.6719 85.2404 46.0617 85.1224C46.6251 84.9521 46.7692 85.9315 46.7692 85.9315C46.7692 85.9315 46.9133 84.9488 47.4734 85.1224C47.8665 85.2404 48.0237 85.7841 47.7748 86.2853Z" fill="white"/>
<path d="M79.7285 85.7808H51.7383V86.9207H79.7285V85.7808Z" fill="#EBEBEB"/>
<path d="M36.7065 92.5777L44.1553 92.5188L51.6008 92.4958L66.495 92.4565L81.3893 92.4958L88.8348 92.5188L96.2835 92.5777L88.8348 92.6367L81.3893 92.6596L66.495 92.7022L51.6008 92.6596L44.1553 92.6367L36.7065 92.5777Z" fill="#EBEBEB"/>
<path d="M25.1092 71.9837L5.01123 77.3426L10.3702 97.4406L30.4682 92.0817L25.1092 71.9837Z" fill="#455A64"/>
<path d="M16.437 87.3367L13.7444 88.0541C13.4627 87.0026 13.1974 86.0101 12.9189 84.9619L15.5624 84.2577C15.51 84.0185 15.4772 83.8318 15.4313 83.6484C15.2315 82.8295 14.9826 82.0106 14.8417 81.195C14.5371 79.3737 15.2905 77.8309 16.984 77.1201C18.0387 76.6746 19.2049 76.4977 20.3481 76.1931C20.6068 77.1528 20.8394 78.0274 21.1014 79.0068C20.692 79.1149 20.2825 79.2165 19.8796 79.3344C19.5139 79.421 19.1574 79.5427 18.8151 79.698C18.5889 79.7956 18.4047 79.9703 18.2955 80.1912C18.1863 80.412 18.1591 80.6644 18.2189 80.9034C18.3958 81.7027 18.6316 82.4888 18.874 83.347L21.9466 82.5249C22.0841 83.5731 22.225 84.5426 22.3298 85.5155C22.3298 85.6105 22.1365 85.7874 22.0022 85.8431C21.2652 86.0625 20.5217 86.2492 19.7093 86.4622C20.4168 89.1252 21.1145 91.7425 21.8254 94.4023L18.5497 95.2736C17.852 92.6334 17.151 90.0162 16.437 87.3367Z" fill="white"/>
<path d="M124.366 95.7742L103.612 93.7173L101.555 114.472L122.309 116.528L124.366 95.7742Z" fill="#CE9E41"/>
<path d="M121.021 101.661C121.218 99.5843 120.038 98.1102 117.995 97.8875C115.156 97.5752 112.306 97.2924 109.445 97.0391C107.427 96.8622 105.989 98.0677 105.76 100.076C105.6 101.497 105.475 102.922 105.334 104.334C105.193 105.746 105.049 107.118 104.922 108.51C104.728 110.636 105.904 112.114 107.991 112.353C110.808 112.661 113.627 112.94 116.448 113.191C118.512 113.371 119.97 112.146 120.183 110.096C120.477 107.285 120.757 104.474 121.021 101.661ZM118.817 109.994C118.673 111.304 117.893 111.96 116.579 111.842C113.758 111.58 110.939 111.3 108.122 111.003C106.812 110.866 106.156 110.07 106.281 108.763C106.549 105.924 106.831 103.079 107.126 100.23C107.26 98.9193 108.063 98.2642 109.367 98.3723C112.188 98.6322 115.007 98.9106 117.824 99.2076C119.134 99.3484 119.79 100.164 119.662 101.464C119.537 102.886 119.387 104.308 119.246 105.723C119.105 107.138 118.974 108.566 118.817 109.988V109.994Z" fill="white"/>
<path d="M113.376 101.111C112.589 101.029 111.796 101.182 111.095 101.551C110.395 101.919 109.82 102.487 109.442 103.182C109.063 103.877 108.899 104.668 108.97 105.456C109.04 106.244 109.342 106.994 109.838 107.611C110.334 108.227 111.001 108.684 111.755 108.922C112.51 109.16 113.318 109.17 114.078 108.95C114.838 108.73 115.516 108.29 116.026 107.685C116.537 107.081 116.857 106.339 116.947 105.552C117.007 105.026 116.962 104.492 116.815 103.983C116.668 103.474 116.421 102.999 116.089 102.586C115.757 102.173 115.346 101.83 114.88 101.576C114.415 101.323 113.903 101.165 113.376 101.111ZM112.665 107.75C111.978 107.662 111.351 107.313 110.913 106.776C110.475 106.24 110.259 105.556 110.31 104.865C110.345 104.515 110.448 104.175 110.614 103.866C110.78 103.556 111.005 103.282 111.277 103.059C111.548 102.836 111.861 102.669 112.198 102.567C112.534 102.465 112.887 102.431 113.237 102.465C113.587 102.5 113.926 102.603 114.236 102.769C114.546 102.935 114.82 103.16 115.043 103.432C115.266 103.703 115.433 104.016 115.535 104.353C115.636 104.689 115.671 105.042 115.636 105.392C115.549 106.096 115.189 106.738 114.633 107.179C114.078 107.62 113.371 107.825 112.665 107.75Z" fill="white"/>
<path d="M118.561 101.527C118.55 101.647 118.514 101.763 118.453 101.867C118.393 101.972 118.311 102.062 118.213 102.132C118.114 102.201 118.002 102.249 117.884 102.271C117.765 102.293 117.643 102.29 117.526 102.26C117.399 102.255 117.274 102.22 117.161 102.159C117.049 102.098 116.952 102.012 116.878 101.908C116.804 101.804 116.754 101.684 116.733 101.558C116.712 101.431 116.72 101.302 116.757 101.179C116.855 100.626 117.245 100.403 117.805 100.426C118.362 100.577 118.663 100.934 118.561 101.527Z" fill="white"/>
<path d="M121.602 50.4369L106.99 45.2365L101.789 59.8488L116.402 65.0491L121.602 50.4369Z" fill="#455A64"/>
<path d="M104.849 56.785C105.996 57.2527 107.27 57.3071 108.452 56.939C107.253 56.0545 106.864 55.4518 106.939 54.6198L107.856 54.895C106.942 54.1121 106.572 53.1786 106.903 51.9862L107.745 52.5595C107.208 50.9904 107.348 49.9717 108.243 49.2838C108.584 50.196 109.109 51.0284 109.785 51.7293C110.461 52.4303 111.274 52.9849 112.173 53.3587C112.219 53.2048 112.249 53.0868 112.285 52.9722C112.402 52.5045 112.661 52.0846 113.026 51.7702C113.392 51.4557 113.846 51.2623 114.325 51.2165C114.804 51.1442 115.294 51.2211 115.728 51.4368C116.161 51.6524 116.518 51.9964 116.749 52.4219C116.79 52.5117 116.857 52.5872 116.941 52.6386C117.025 52.69 117.123 52.715 117.221 52.7101C117.634 52.7101 118.043 52.7101 118.492 52.7101C118.161 53.1133 117.71 53.4003 117.205 53.529C117.206 53.5541 117.206 53.5793 117.205 53.6044L118.42 53.7125L118.449 53.7747C118.06 53.9614 117.673 54.1645 117.274 54.3283C117.177 54.3593 117.088 54.4125 117.016 54.4835C116.943 54.5546 116.888 54.6416 116.854 54.7377C116.284 56.3758 115.118 57.7397 113.589 58.5588C112.06 59.3779 110.279 59.5924 108.6 59.1598C107.211 58.8202 105.96 58.0648 105.013 56.9947C104.96 56.9193 104.905 56.8472 104.849 56.785Z" fill="white"/>
<path d="M114.407 20.6367L101.62 24.9004L105.883 37.6875L118.67 33.4238L114.407 20.6367Z" fill="#CE9E41"/>
<path d="M106.956 35.4935C106.913 34.691 106.867 33.9474 106.844 33.2006C106.844 33.0903 106.82 32.9813 106.776 32.8804C106.731 32.7796 106.666 32.6889 106.585 32.6142C106.069 32.0724 105.681 31.4212 105.451 30.709C105.22 29.9967 105.153 29.2417 105.254 28.5C105.356 27.7583 105.623 27.0489 106.035 26.4245C106.448 25.8001 106.997 25.2767 107.639 24.8931C108.282 24.5095 109.003 24.2756 109.749 24.2087C110.494 24.1419 111.245 24.2438 111.946 24.5069C112.647 24.77 113.28 25.1876 113.797 25.7286C114.314 26.2696 114.703 26.9202 114.935 27.632C115.278 28.8261 115.167 30.1048 114.622 31.2215C114.078 32.3382 113.139 33.2137 111.987 33.6788C111.194 33.9846 110.339 34.0969 109.494 34.0064C109.332 33.9966 109.171 34.0366 109.032 34.121C108.348 34.5698 107.683 35.0087 106.956 35.4935ZM107.732 33.9965C108.158 33.7214 108.515 33.4757 108.888 33.2563C109.021 33.1842 109.173 33.1545 109.324 33.1711C110.015 33.2895 110.724 33.2424 111.394 33.0335C113.844 32.2637 115.05 29.3484 113.795 27.1374C113.435 26.412 112.857 25.8172 112.142 25.4361C111.428 25.0549 110.612 24.9065 109.809 25.0115C108.979 25.0551 108.185 25.3589 107.538 25.8799C106.891 26.401 106.425 27.1126 106.205 27.9137C105.668 29.5941 106.127 31.055 107.424 32.2572C107.542 32.3765 107.617 32.5323 107.637 32.6994C107.699 33.1089 107.706 33.5281 107.732 33.9834V33.9965Z" fill="white"/>
<path d="M107.447 27.9039C107.624 27.3634 108.086 27.3044 108.469 27.7074C108.62 27.8646 108.663 27.9203 108.82 28.107C108.931 28.2027 109.003 28.335 109.025 28.4798C109.047 28.6247 109.016 28.7724 108.938 28.8964C108.816 29.1028 108.879 29.224 109.052 29.3648C109.582 29.7806 110.22 30.0354 110.89 30.0986C110.932 30.1098 110.977 30.1124 111.02 30.1062C111.063 30.1 111.105 30.0852 111.143 30.0626C111.18 30.04 111.213 30.0101 111.239 29.9746C111.265 29.9391 111.283 29.8989 111.293 29.8562C111.542 29.224 111.552 29.2272 112.23 29.3059L112.462 29.3353C112.571 29.3327 112.678 29.3607 112.772 29.4162C112.866 29.4717 112.942 29.5524 112.992 29.6491C113.041 29.7458 113.063 29.8546 113.054 29.9631C113.045 30.0715 113.006 30.1752 112.94 30.2623C112.826 30.4879 112.653 30.6781 112.439 30.8126C112.225 30.9471 111.978 31.0207 111.725 31.0256C110.411 31.1012 109.118 30.6618 108.122 29.8005C107.788 29.5678 107.537 29.2352 107.405 28.8505C107.328 28.5374 107.343 28.2089 107.447 27.9039Z" fill="white"/>
<path d="M62.7017 79.9928C62.7017 79.9928 60.3859 87.3302 57.4607 96.8819C54.2113 107.498 50.2085 120.843 47.8042 129.881H69.6853C70.0522 128.426 70.4518 126.854 70.8744 125.183L72.7218 117.977C74.471 111.167 76.3971 103.721 78.0775 97.2455C80.5964 87.5399 82.5618 80.0027 82.5618 80.0027L62.7017 79.9928Z" fill="#455A64"/>
<path d="M78.3198 85.319C77.8481 86.9994 77.2552 88.6503 76.7344 90.311C76.2136 91.9718 75.6764 93.7144 75.1523 95.4177C74.1128 98.7916 73.0821 102.167 72.0601 105.543C70.0095 112.293 67.9655 119.047 65.9281 125.806C65.5187 127.165 65.0895 128.521 64.667 129.881H65.3221C66.1061 127.277 66.89 124.672 67.674 122.065C69.7311 115.206 71.7806 108.343 73.8224 101.478C74.8443 98.0295 75.8609 94.5781 76.872 91.1234C77.3797 89.3775 77.8546 87.6283 78.3624 85.8824C78.6211 85.0111 78.5098 84.6278 78.3198 85.319Z" fill="#263238"/>
<path d="M64.9585 79.9928C66.3375 90.6615 68.9646 110.669 70.8808 125.196C75.3651 107.61 82.5682 79.9928 82.5682 79.9928H64.9585Z" fill="#263238"/>
<path d="M72.7251 117.967C72.8332 121.983 72.9413 126.186 73.0265 129.881H93.1322C92.7228 120.748 92.0185 107.859 91.4289 97.4683C90.8721 87.5988 90.4135 79.9928 90.4135 79.9928H63.3438C63.3438 79.9928 63.8023 89.4921 65.9642 97.0261C66.1379 97.6484 66.3278 98.261 66.5342 98.8473C68.5284 99.6541 70.4449 100.641 72.26 101.795C72.26 101.795 72.5024 109.437 72.7251 117.967Z" fill="#455A64"/>
<path d="M89.9581 129.881H90.2856C90.1524 127.461 90.0301 125.042 89.9188 122.625C89.3357 109.555 88.8771 96.4757 88.4447 83.4027C88.4447 83.2979 88.281 83.2881 88.2842 83.4027C88.5037 90.7958 88.697 98.1922 88.9394 105.585C89.2211 113.669 89.5606 121.768 89.9581 129.881Z" fill="#263238"/>
<path d="M65.5711 98.2806C67.9025 99.2549 70.1449 100.43 72.2731 101.792C72.2881 101.803 72.2986 101.819 72.3028 101.838C72.307 101.856 72.3045 101.875 72.2958 101.892C72.2871 101.908 72.2728 101.921 72.2554 101.928C72.238 101.935 72.2187 101.936 72.201 101.93C69.9408 100.829 67.6315 99.771 65.4336 98.5525C65.4033 98.5312 65.3817 98.4997 65.3728 98.4638C65.3638 98.4279 65.368 98.39 65.3848 98.357C65.4015 98.324 65.4295 98.2981 65.4637 98.2841C65.4979 98.2701 65.5361 98.2688 65.5711 98.2806Z" fill="#263238"/>
<path d="M64.1691 87.7659C64.3558 88.7715 64.5982 89.7673 64.8242 90.7663C65.0273 91.7032 65.1747 92.6596 65.4237 93.5834C65.6239 94.4813 66.0788 95.3025 66.7339 95.9484C67.1008 96.2759 67.507 96.6035 67.9 96.9049C68.1097 97.0719 68.339 97.2324 68.5552 97.406C68.5257 97.275 68.5028 97.1374 68.4798 97.0031C68.411 96.6199 68.3488 96.2399 68.2833 95.8599C68.1424 95.0115 68.0049 94.1632 67.8771 93.3148C67.6216 91.6475 67.3858 89.9638 67.0386 88.3129C67.0386 88.3005 67.0427 88.2884 67.0504 88.2786C67.058 88.2688 67.0687 88.2619 67.0807 88.2589C67.0928 88.2559 67.1055 88.257 67.1168 88.262C67.1282 88.2671 67.1375 88.2757 67.1434 88.2867C67.5594 89.9245 68.018 91.5427 68.3783 93.2001C68.5552 94.0092 69.1906 98.0055 69.2168 98.2872C69.2431 98.5689 69.2692 98.8702 69.2824 99.165C69.32 99.463 69.32 99.7646 69.2824 100.063C69.266 100.135 69.1775 100.122 69.1448 100.063C69.0243 99.7848 68.9385 99.4933 68.8893 99.1945C68.8172 98.9095 68.7517 98.6213 68.7026 98.3297C68.6829 98.2249 68.6698 98.1201 68.6534 98.0022C68.2604 97.7631 67.8935 97.4486 67.5266 97.18C67.1598 96.9114 66.7274 96.6133 66.3507 96.2989C65.6587 95.7127 65.1588 94.9321 64.916 94.0583C64.6749 93.1166 64.5181 92.1552 64.4475 91.1856C64.3198 90.0523 64.2281 88.9091 64.0676 87.779C64.0545 87.7266 64.156 87.6971 64.1691 87.7659Z" fill="#263238"/>
<path d="M67.7526 53.588C66.4096 64.2928 64.0643 82.2464 60.2678 83.6975C59.6127 83.9498 56.8153 84.5033 54.9056 82.3545C51.6857 78.7317 46.1171 66.5071 44.5547 62.5731C43.8635 60.8304 55.2299 55.144 56.2028 56.8964C57.5654 59.3499 58.9969 63.0448 59.2655 62.9203C59.7208 62.7139 60.4938 58.1575 63.5238 51.757C67.3071 43.8038 68.2538 49.6082 67.7526 53.588Z" fill="#FFC3BD"/>
<path d="M41.2596 58.3475C42.3799 60.7518 46.5923 64.771 47.9812 65.3508C49.3701 65.9306 56.4421 58.9994 56.262 57.4631C56.0818 55.9268 51.6761 48.1309 49.262 46.9287C46.8478 45.7266 40.1033 55.858 41.2596 58.3475Z" fill="#FFC3BD"/>
<path d="M55.7475 56.0055C55.7475 56.0055 55.5149 52.5628 56.3305 49.6376C57.0184 47.1777 58.3188 43.6007 57.0086 43.1814C54.3226 42.3199 51.0863 51.2394 51.0863 51.2394C51.0863 51.2394 50.287 55.4027 52.8747 56.4804C53.3508 56.6737 53.8711 56.7316 54.3781 56.6478C54.885 56.564 55.3589 56.3417 55.7475 56.0055Z" fill="#FFC3BD"/>
<path d="M48.5475 58.8487L44.561 58.1477L46.5952 46.6012L51.6397 47.4888L48.5475 58.8487Z" fill="#CE9E41"/>
<path d="M51.64 47.4888L50.4608 51.8225L48.5478 58.852L44.5581 58.1477L46.5955 46.6012L51.64 47.4888Z" fill="#CE9E41"/>
<path opacity="0.1" d="M51.6401 47.4888L50.4609 51.8225L45.8193 51.0036L46.5957 46.6012L51.6401 47.4888Z" fill="black"/>
<path d="M52.6442 44.5141L46.3667 43.4072L45.526 48.175L51.8035 49.2819L52.6442 44.5141Z" fill="#CE9E41"/>
<path d="M57.1628 43.5057L52.2002 43.1323L53.5596 35.4149L58.3485 36.7645L57.1628 43.5057Z" fill="#CE9E41"/>
<path d="M51.3187 33.4463L49.3141 44.8356L40.958 44.3737L20.6982 48.0195L25.52 20.6681L43.3098 31.0256L51.3187 33.4463Z" fill="#CE9E41"/>
<path d="M27.0822 35.0513C28.4204 27.4617 27.5281 20.9605 25.0891 20.5305C22.6501 20.1004 19.588 25.9043 18.2498 33.4939C16.9115 41.0835 17.8039 47.5847 20.2429 48.0147C22.6819 48.4448 25.7439 42.6409 27.0822 35.0513Z" fill="#CE9E41"/>
<path opacity="0.2" d="M26.097 34.6336C27.2851 27.8956 26.6292 22.1479 24.632 21.7958C22.6348 21.4436 20.0527 26.6204 18.8646 33.3583C17.6765 40.0963 18.3324 45.844 20.3296 46.1961C22.3267 46.5483 24.9089 41.3716 26.097 34.6336Z" fill="black"/>
<path d="M25.507 34.5108C25.3465 35.4084 25.1794 36.2764 24.96 37.1084C24.5023 37.3626 23.9821 37.4819 23.4595 37.4526C22.9368 37.4234 22.4332 37.2467 22.0068 36.943C21.5805 36.6393 21.2488 36.2211 21.0503 35.7368C20.8518 35.2524 20.7945 34.7218 20.8851 34.2062L21.1111 32.9156C21.2007 32.4014 21.4338 31.9231 21.7835 31.5357C22.1333 31.1483 22.5855 30.8677 23.0878 30.7263C23.5902 30.5849 24.1224 30.5884 24.6228 30.7364C25.1233 30.8844 25.5718 31.1709 25.9164 31.5628C25.8214 32.5258 25.6839 33.5281 25.507 34.5108Z" fill="#CE9E41"/>
<path d="M53.6151 46.2441L44.0176 45.5235L46.6479 30.5997L55.9146 33.2039L53.6151 46.2441Z" fill="#CE9E41"/>
<path opacity="0.2" d="M53.6151 46.2441L44.0176 45.5235L46.6479 30.5997L55.9146 33.2039L53.6151 46.2441Z" fill="black"/>
<path opacity="0.2" d="M26.4699 22.7677C26.9738 23.6896 27.3068 24.695 27.4526 25.7354C27.6179 26.771 27.7001 27.8182 27.6983 28.8669C27.6983 29.391 27.6819 29.9151 27.6655 30.436C27.6491 30.9568 27.5967 31.4809 27.541 32.0017C27.4854 32.5225 27.4297 33.0434 27.3511 33.5609C27.2724 34.0784 27.1971 34.596 27.1054 35.1103C26.7456 37.1749 26.1974 39.2023 25.4676 41.1669C25.0981 42.1488 24.6421 43.0959 24.1049 43.997C23.5834 44.9103 22.8745 45.7029 22.0249 46.3227C22.837 45.6662 23.5059 44.8502 23.9903 43.925C24.4978 43.0188 24.9242 42.0695 25.2645 41.0883C25.9509 39.1257 26.4692 37.1083 26.8139 35.0579C27.2036 33.016 27.4227 30.9452 27.469 28.8669C27.4975 27.8281 27.4438 26.7887 27.3085 25.7584C27.2038 24.7205 26.9201 23.7087 26.4699 22.7677Z" fill="black"/>
<path d="M16.4927 20.3929C17.0594 20.8417 17.6064 21.3199 18.1305 21.7982C18.6546 22.2764 19.1983 22.7808 19.7224 23.2656C20.2465 23.7504 20.7608 24.268 21.2653 24.7888L22.0154 25.5684C22.2578 25.837 22.51 26.099 22.7458 26.3742C22.4576 26.1515 22.1857 25.9156 21.904 25.6863L21.0884 24.969C20.5479 24.494 20.0205 23.9863 19.4964 23.5015C18.9723 23.0167 18.458 22.4991 17.9569 21.9783C17.4557 21.4575 16.9676 20.9399 16.4927 20.3929Z" fill="#263238"/>
<path d="M20.5216 41.5272C19.7322 41.7336 18.9329 41.9039 18.1369 42.0677C17.341 42.2315 16.5384 42.3952 15.7359 42.523C14.9334 42.6507 14.1308 42.7949 13.3218 42.9062L12.1098 43.07C11.7069 43.1126 11.3007 43.165 10.8945 43.1978C11.2876 43.093 11.6872 43.0078 12.0836 42.9095L13.2792 42.6573C14.0752 42.487 14.8777 42.3297 15.6802 42.202C16.4827 42.0742 17.2853 41.9301 18.0943 41.822C18.9034 41.7139 19.7092 41.5993 20.5216 41.5272Z" fill="#263238"/>
<path d="M5.51904 38.6872C6.71464 38.5955 7.91025 38.5366 9.12223 38.4842C10.3342 38.4318 11.5134 38.3957 12.709 38.3662C13.9046 38.3368 15.1035 38.3204 16.3122 38.3237H18.1073C18.7067 38.3237 19.3061 38.3237 19.9056 38.3662C19.3061 38.4154 18.71 38.4449 18.1105 38.4842L16.3155 38.5726C15.1199 38.6283 13.9243 38.6578 12.7123 38.6905C11.5003 38.7233 10.3178 38.7331 9.10912 38.7298C7.90042 38.7266 6.71792 38.7298 5.51904 38.6872Z" fill="#263238"/>
<path d="M9.80713 20.632C10.8291 21.2872 11.8315 21.975 12.8305 22.6662C13.8296 23.3573 14.8188 24.0616 15.8048 24.7691C16.7908 25.4767 17.7702 26.1973 18.7332 26.9343L20.181 28.0382C20.656 28.4182 21.1375 28.7851 21.6092 29.1716C21.0949 28.844 20.5937 28.5165 20.086 28.1692L18.5858 27.1374C17.5835 26.4495 16.5975 25.742 15.6115 25.0345C14.6256 24.3269 13.6462 23.603 12.6831 22.8693C11.7201 22.1355 10.7505 21.4084 9.80713 20.632Z" fill="#263238"/>
<path d="M20.361 33.7509C18.9722 33.5609 17.5866 33.3349 16.2043 33.0958C14.8219 32.8567 13.4429 32.6044 12.0639 32.362C10.6848 32.1196 9.30907 31.8347 7.93659 31.5497L5.87622 31.1206C5.19489 30.9633 4.50701 30.8192 3.82568 30.6522C4.52012 30.7472 5.21455 30.8585 5.9057 30.9601L7.98244 31.2876C9.36476 31.5169 10.7438 31.779 12.1228 32.0214C13.5019 32.2638 14.8776 32.5487 16.2501 32.8337C17.6226 33.1187 19.0049 33.4266 20.361 33.7509Z" fill="#263238"/>
<path d="M52.6225 49.5263C52.4685 50.9217 50.9093 49.9456 50.9093 49.9456C50.9093 49.9456 52.8157 51.8913 52.1016 53.2736C51.4105 54.6002 49.5696 53.3522 49.4353 53.2736C49.5368 53.3784 51.2401 55.2128 50.3819 56.5263C49.5237 57.8398 47.8532 56.3199 47.7614 56.2184C47.8237 56.3461 48.636 58.0494 47.7614 58.8978C46.2481 60.3555 44.0567 56.0546 42.4189 55.5993C42.4189 55.5993 41.3281 58.2853 41.279 58.3574C41.279 58.3574 39.1105 54.312 39.8508 52.1337C39.953 51.8157 40.1606 51.5421 40.4393 51.3581C40.7181 51.174 41.0512 51.0906 41.3838 51.1215C41.3838 51.1215 40.542 49.8964 41.184 48.8286C41.5116 48.2881 42.6777 48.3372 42.6777 48.3372C42.6777 48.3372 42.0422 47.3251 42.6777 46.4243C43.1788 45.7036 44.2631 45.8641 44.2631 45.8641C44.2631 45.8641 44.1026 44.6129 44.856 44.0396C46.3464 42.8932 52.9435 46.5356 52.6225 49.5263Z" fill="#FFC3BD"/>
<path d="M44.4171 45.8707C44.4136 45.8692 44.4106 45.8666 44.4085 45.8634C44.4064 45.8602 44.4053 45.8565 44.4053 45.8527C44.4053 45.8488 44.4064 45.8451 44.4085 45.8419C44.4106 45.8387 44.4136 45.8362 44.4171 45.8347C46.8803 46.4898 49.3796 47.99 50.9912 49.9881C51.0437 50.0537 50.9585 50.1683 50.8864 50.1061C48.9455 48.3896 46.7665 46.9631 44.4171 45.8707Z" fill="#263238"/>
<path d="M42.632 48.311C42.6058 48.311 42.632 48.2553 42.655 48.2652C45.187 48.9662 47.9549 50.7219 49.5338 53.2408C49.5862 53.3293 49.5501 53.4603 49.4781 53.3653C48.3087 51.7701 44.8562 49.3035 42.632 48.311Z" fill="#263238"/>
<path d="M47.7975 56.4215C46.1826 54.063 43.9748 52.458 41.4722 51.1379C41.4395 51.1379 41.4722 51.0757 41.4984 51.0855C42.8971 51.413 44.4072 52.3957 45.5143 53.29C46.5588 54.0901 47.3744 55.1508 47.8793 56.3658C47.899 56.4149 47.8302 56.4575 47.7975 56.4215Z" fill="#263238"/>
<path d="M50.9587 49.9423C51.0209 50.0209 50.8375 50.0274 50.8964 50.1061C51.1552 50.4336 52.5179 52.6217 51.9217 53.3162C51.4435 53.873 50.3625 53.6142 49.9891 53.3522L49.0424 52.6971L49.6976 53.6437C49.9899 54.0621 50.2113 54.5258 50.3527 55.0162C50.4338 55.2392 50.4667 55.4768 50.4492 55.7133C50.4317 55.9499 50.3642 56.1801 50.2511 56.3887C50.1444 56.5818 49.9745 56.7324 49.77 56.8153C49.5655 56.8982 49.3387 56.9083 49.1276 56.844C48.6588 56.689 48.2364 56.4186 47.8992 56.0579L46.9395 55.0752L47.5258 56.3003C47.6906 56.6407 47.8117 57.0006 47.8861 57.3714C47.9694 57.7199 47.9501 58.0851 47.8305 58.4229C47.7672 58.5717 47.6639 58.7001 47.5321 58.7938C47.4002 58.8875 47.245 58.9428 47.0836 58.9535C46.721 58.923 46.3745 58.7901 46.0845 58.5703C45.448 58.101 44.849 57.583 44.2928 57.0209C44.0045 56.7457 43.713 56.4706 43.4084 56.2085C43.1168 55.9296 42.7697 55.7153 42.3896 55.5796C42.7471 55.7534 43.0674 55.9948 43.333 56.2904C43.6147 56.5721 43.8801 56.8669 44.1487 57.1617C44.6765 57.7745 45.261 58.3361 45.8946 58.8389C46.233 59.1192 46.6466 59.2936 47.0836 59.34C47.3232 59.3384 47.5573 59.2673 47.7573 59.1353C47.9573 59.0033 48.1147 58.8162 48.2104 58.5965C48.3782 58.1808 48.417 57.7242 48.3218 57.2862C48.2476 56.8718 48.1198 56.4688 47.9418 56.0873L47.5684 56.3428C47.9592 56.7781 48.4573 57.1034 49.013 57.2862C49.324 57.3784 49.6574 57.3599 49.9563 57.2338C50.2444 57.0998 50.4861 56.8832 50.6508 56.6114C50.7938 56.347 50.8792 56.0553 50.9012 55.7555C50.9232 55.4556 50.8814 55.1546 50.7785 54.8721C50.6111 54.3346 50.3554 53.8287 50.0218 53.3751L49.7336 53.6634C50.2249 53.9909 51.3976 54.4004 52.2493 53.6306C53.2221 52.4842 51.3321 50.3124 50.9587 49.9423Z" fill="#263238"/>
<path d="M50.9092 49.9456C51.18 50.0484 51.465 50.1092 51.7543 50.1257C51.87 50.1353 51.9862 50.114 52.0909 50.0639C52.1957 50.0138 52.2853 49.9368 52.3505 49.8407C52.4617 49.6098 52.5038 49.3515 52.4717 49.0972C52.452 48.8155 52.416 48.5207 52.3668 48.216C52.5615 48.462 52.7012 48.7468 52.7763 49.0513C52.8269 49.2159 52.8445 49.3889 52.8282 49.5603C52.8119 49.7317 52.762 49.8983 52.6813 50.0504C52.5764 50.21 52.424 50.3326 52.2456 50.4009C52.0758 50.4586 51.8934 50.4688 51.7183 50.4304C51.4039 50.3589 51.1205 50.189 50.9092 49.9456Z" fill="#263238"/>
<path d="M43.6704 66.4318L56.0948 56.4575C56.0948 56.4575 59.1051 62.6812 59.282 62.655C59.4589 62.6288 61.4308 54.3709 64.6999 49.2249C67.969 44.0789 68.7551 49.6639 68.0607 53.9091C67.3662 58.1543 64.0972 81.683 61.1589 83.8384C58.2207 85.9938 55.4594 83.2946 54.2801 82.1515C52.6325 80.5562 43.6704 66.4318 43.6704 66.4318Z" fill="#CE9E41"/>
<path d="M46.0615 67.5553C46.4513 67.1557 50.3558 64.1093 51.2173 63.4673L53.8116 61.5413C54.7026 60.8861 55.5837 60.1622 56.5271 59.5759C56.5312 59.5727 56.5359 59.5703 56.5409 59.5688C56.5459 59.5674 56.5511 59.567 56.5563 59.5676C56.5615 59.5682 56.5665 59.5699 56.571 59.5724C56.5756 59.5749 56.5796 59.5783 56.5828 59.5824C56.586 59.5865 56.5884 59.5912 56.5898 59.5962C56.5912 59.6012 56.5917 59.6065 56.591 59.6116C56.5904 59.6168 56.5888 59.6218 56.5863 59.6263C56.5837 59.6309 56.5803 59.6349 56.5762 59.6381C55.7573 60.3915 54.8336 61.0466 53.9557 61.7312C53.0779 62.4158 52.2295 63.0873 51.3647 63.7588C50.5 64.4303 46.5692 67.362 46.0975 67.6208C46.0582 67.6405 46.0353 67.5946 46.0615 67.5553Z" fill="#263238"/>
<path d="M59.2949 62.6386C59.6225 63.3723 59.95 64.1257 60.2252 64.8791C60.5003 65.6325 60.7755 66.4023 61.0212 67.172C61.2668 67.9418 61.4896 68.7214 61.6763 69.5108C61.8718 70.2975 62.0217 71.0948 62.1251 71.8988C62.0039 71.509 61.9056 71.1192 61.7975 70.7359C61.6894 70.3527 61.5682 69.9629 61.447 69.5763L60.7264 67.2834L60.0057 64.9905L59.6225 63.8047C59.5111 63.4149 59.3899 63.0284 59.2949 62.6386Z" fill="#263238"/>
<path d="M59.3411 88.267C59.8783 88.8009 92.913 87.0518 93.08 86.8389C93.5157 86.2558 81.7005 51.0986 73.9569 45.5366C72.2929 44.341 67.8184 45.9427 66.6687 47.0958C65.948 47.8197 64.3757 52.3892 63.3537 56.1659C61.2901 63.7326 58.8727 87.7986 59.3411 88.267Z" fill="white"/>
<path d="M67.3401 45.6119C66.0298 46.5946 65.0275 51.6096 68.0214 52.2876C71.0153 52.9657 73.793 48.239 74.2025 46.7191C74.612 45.1992 70.1735 43.509 67.3401 45.6119Z" fill="#CE9E41"/>
<path d="M68.2375 51.5997C70.0947 51.8389 72.915 48.7434 73.9075 46.3588C73.9763 46.195 73.58 44.5997 73.1673 42.6344C72.9281 41.442 72.6923 40.1089 72.5613 38.874L65.0273 41.5632C65.0273 41.5632 66.0592 44.0691 66.2721 46.2212C66.2885 46.3911 66.2885 46.5622 66.2721 46.7322C66.2721 46.7551 66.2721 46.7846 66.2721 46.8173C66.2098 47.8033 66.4424 51.3705 68.2375 51.5997Z" fill="#FFC3BD"/>
<path d="M72.2043 39.0115C72.1257 40.5773 71.5328 46.2179 67.0648 46.7879C66.7998 46.8212 66.5326 46.8343 66.2656 46.8272C66.2603 46.799 66.2603 46.7701 66.2656 46.742C66.2787 46.5719 66.2787 46.4011 66.2656 46.231C66.0494 44.0822 65.0176 41.5763 65.0176 41.5763L72.2043 39.0115Z" fill="#263238"/>
<path d="M72.6891 29.6433C73.7864 32.3096 73.092 40.3742 71.3101 42.3297C68.7223 45.1632 64.1037 45.8478 61.611 42.6573C59.187 39.5618 60.2778 29.0635 62.3054 27.2619C65.2895 24.5726 71.0644 25.706 72.6891 29.6433Z" fill="#FFC3BD"/>
<path d="M65.5647 35.2151C65.5647 35.1954 65.6073 35.2446 65.604 35.2675C65.5417 35.8113 65.5647 36.4402 66.0396 36.6596C66.0396 36.6596 66.0396 36.6957 66.0396 36.6924C65.4402 36.5581 65.4206 35.7195 65.5647 35.2151Z" fill="#263238"/>
<path d="M66.0984 34.6877C66.9762 34.6877 66.9042 36.45 66.0984 36.4467C65.2926 36.4435 65.3614 34.6844 66.0984 34.6877Z" fill="#263238"/>
<path d="M62.5148 35.1037C62.5148 35.0841 62.4722 35.1299 62.4722 35.1496C62.4722 35.6966 62.3674 36.319 61.8662 36.4795V36.5122C62.4755 36.4533 62.5967 35.6213 62.5148 35.1037Z" fill="#263238"/>
<path d="M62.0533 34.5108C61.1787 34.4093 61.0378 36.1486 61.8469 36.26C62.656 36.3714 62.7837 34.6026 62.0533 34.5108Z" fill="#263238"/>
<path d="M66.8293 33.9114C66.6004 33.835 66.3762 33.7453 66.1578 33.6428C65.9085 33.5815 65.6864 33.4399 65.5256 33.2399C65.4873 33.1669 65.4743 33.0833 65.4885 33.0021C65.5027 32.921 65.5434 32.8468 65.6042 32.7911C65.7408 32.6996 65.8993 32.6462 66.0634 32.6364C66.2275 32.6266 66.3913 32.6608 66.5377 32.7354C66.8579 32.8411 67.1274 33.0617 67.2944 33.3545C67.3286 33.4235 67.342 33.5008 67.3329 33.5772C67.3239 33.6536 67.2928 33.7257 67.2435 33.7847C67.1942 33.8438 67.1288 33.8872 67.0552 33.9097C66.9817 33.9321 66.9032 33.9328 66.8293 33.9114Z" fill="#263238"/>
<path d="M61.4109 33.6002C61.6533 33.5707 61.876 33.502 62.1152 33.4495C62.3721 33.4315 62.6155 33.3276 62.8063 33.1547C62.8563 33.09 62.8833 33.0105 62.8833 32.9287C62.8833 32.8469 62.8563 32.7675 62.8063 32.7027C62.6869 32.5888 62.5391 32.509 62.3784 32.4716C62.2177 32.4341 62.0499 32.4404 61.8924 32.4898C61.5599 32.5401 61.2577 32.7116 61.044 32.9713C60.9995 33.0339 60.9741 33.1081 60.9706 33.1848C60.9672 33.2616 60.9859 33.3377 61.0247 33.4041C61.0634 33.4704 61.1204 33.5242 61.1889 33.559C61.2574 33.5938 61.3345 33.6081 61.4109 33.6002Z" fill="#263238"/>
<path d="M66.2623 40.3185C66.128 40.4397 65.9904 40.61 65.7906 40.6166C65.5879 40.6058 65.3901 40.551 65.2108 40.4561C65.2073 40.4553 65.2036 40.4554 65.2002 40.4565C65.1968 40.4576 65.1937 40.4596 65.1914 40.4623C65.189 40.465 65.1874 40.4683 65.1868 40.4718C65.1862 40.4753 65.1866 40.479 65.1879 40.4823C65.2597 40.5941 65.361 40.6839 65.4807 40.7417C65.6003 40.7995 65.7337 40.8231 65.8659 40.8099C65.9782 40.7863 66.0808 40.7297 66.1608 40.6474C66.2407 40.5652 66.2943 40.4609 66.3147 40.348C66.3245 40.312 66.2819 40.2989 66.2623 40.3185Z" fill="#263238"/>
<path d="M65.7577 38.661C65.6113 38.8712 65.4226 39.0486 65.2038 39.1817C64.9849 39.3148 64.7407 39.4008 64.4867 39.4341C64.2695 39.4655 64.0489 39.4655 63.8316 39.4341C63.7885 39.4312 63.7458 39.4247 63.7039 39.4144L63.5859 39.3915C63.5567 39.3849 63.5306 39.3688 63.5116 39.3457C63.4926 39.3225 63.4819 39.2937 63.4811 39.2638C63.4795 39.2452 63.4795 39.2266 63.4811 39.2081V39.1589C63.4811 38.7397 63.5565 38.1042 63.5565 38.1042C63.3992 38.173 62.6033 38.494 62.6229 38.2745C62.8096 36.4631 63.0127 34.4519 63.5794 32.706C63.5958 32.647 63.6875 32.6634 63.6777 32.706C63.5696 34.4552 63.1536 36.1683 63.0225 37.9208C63.305 37.8035 63.6029 37.7274 63.907 37.6947C63.9659 37.7144 63.7563 38.9198 63.7694 39.1098C63.7687 39.1163 63.7687 39.1229 63.7694 39.1295C64.4704 39.2507 65.0108 39.0574 65.7118 38.6152C65.7511 38.5824 65.7937 38.6185 65.7577 38.661Z" fill="#263238"/>
<path d="M64.1299 39.3325C64.3711 39.6199 64.6826 39.8399 65.034 39.9713C65.2289 40.0337 65.4385 40.0337 65.6334 39.9713C66.0592 39.837 66.0494 39.4406 65.961 39.1065C65.9076 38.9284 65.834 38.7569 65.7415 38.5955C65.2973 39.0078 64.7323 39.2662 64.1299 39.3325Z" fill="#263238"/>
<path d="M65.0337 39.9713C65.2286 40.0337 65.4382 40.0337 65.6331 39.9713C66.059 39.837 66.0491 39.4407 65.9607 39.1065C65.731 39.1242 65.5141 39.2193 65.3457 39.3765C65.1772 39.5336 65.0672 39.7434 65.0337 39.9713Z" fill="#F392B9"/>
<path d="M72.8626 36.3321C73.0591 35.6278 74.8771 28.0349 74.6773 27.2062C74.4939 26.4528 73.6684 26.7607 73.6586 26.7181C73.6488 26.6756 73.6193 25.9877 73.1934 25.7354C73.0482 25.6724 72.8916 25.6399 72.7332 25.6399C72.5749 25.6399 72.4182 25.6724 72.273 25.7354C72.273 25.7354 72.1452 25.0115 71.6899 24.815C71.5375 24.7667 71.375 24.7592 71.2187 24.7931C71.0624 24.827 70.9177 24.9012 70.799 25.0083C70.7571 24.8159 70.669 24.6366 70.5423 24.486C70.4156 24.3353 70.2541 24.2177 70.0718 24.1435C69.9092 24.0964 69.7358 24.1028 69.5771 24.1618C69.4185 24.2208 69.283 24.3292 69.1906 24.4711C69.1906 24.4711 68.9974 23.7799 68.5355 23.6456C68.0736 23.5113 67.6511 24.0256 67.6511 24.0256C67.5828 23.8513 67.469 23.6985 67.3215 23.5833C67.1739 23.468 66.9982 23.3945 66.8125 23.3705C66.6321 23.3828 66.4594 23.4485 66.3165 23.5594C66.1735 23.6702 66.0668 23.8211 66.01 23.9928C66.01 23.9928 65.6824 23.3836 65.1256 23.3672C64.5687 23.3508 64.3984 24.0223 64.3984 24.0223C64.3984 24.0223 64.1757 23.4196 63.6647 23.4589C63.1537 23.4982 63.0357 24.2123 63.0357 24.2123C63.0357 24.2123 62.7508 23.5572 62.1481 23.7439C61.2276 24.042 61.113 28.4444 60.9033 30.3574C60.9033 30.3574 61.1588 29.4435 61.5584 29.4107C61.9581 29.3779 62.2398 29.997 62.9702 30.1608C64.0086 30.3901 65.7381 29.1781 67.1696 29.4762C68.601 29.7743 69.5903 31.2352 70.0914 33.407C70.6385 35.9259 72.3975 38.0026 72.8626 36.3321Z" fill="#263238"/>
<path d="M65.9055 37.9109C65.3179 37.8034 64.7971 37.467 64.4574 36.9756C64.1178 36.4842 63.9871 35.8781 64.0941 35.2904C64.1693 34.8775 64.3588 34.4939 64.6412 34.1833C64.9235 33.8727 65.2873 33.6475 65.6912 33.5334C66.0951 33.4192 66.523 33.4206 66.9261 33.5374C67.3293 33.6543 67.6916 33.8818 67.9718 34.1943C68.2521 34.5067 68.4391 34.8915 68.5116 35.305C68.5841 35.7184 68.5392 36.1439 68.382 36.5331C68.2248 36.9222 67.9615 37.2595 67.6222 37.5066C67.2828 37.7536 66.881 37.9005 66.4624 37.9306C66.2766 37.9467 66.0896 37.9401 65.9055 37.9109ZM64.3889 35.356C64.3205 35.7347 64.3659 36.1252 64.5195 36.478C64.673 36.8309 64.9278 37.1304 65.2515 37.3385C65.5752 37.5466 65.9534 37.654 66.3382 37.6472C66.723 37.6403 67.0971 37.5195 67.4132 37.3001C67.7293 37.0806 67.9733 36.7723 68.1142 36.4142C68.2551 36.0561 68.2867 35.6643 68.2049 35.2882C68.1231 34.9122 67.9316 34.5688 67.6547 34.3016C67.3778 34.0344 67.0278 33.8553 66.6491 33.7869C66.4904 33.7572 66.3285 33.7484 66.1675 33.7607C65.7357 33.7904 65.3262 33.9635 65.004 34.2525C64.6817 34.5415 64.4652 34.9299 64.3889 35.356Z" fill="#CE9E41"/>
<path d="M61.1685 37.6751C60.248 37.6325 59.547 36.5909 59.6027 35.3559C59.6192 34.7961 59.8105 34.2555 60.1497 33.8099C60.2837 33.6099 60.4671 33.4479 60.682 33.3395C60.897 33.2312 61.1363 33.1801 61.3767 33.1913C61.6172 33.2025 61.8507 33.2756 62.0547 33.4034C62.2586 33.5313 62.4261 33.7097 62.5409 33.9212C62.8371 34.3959 62.9769 34.9516 62.9406 35.5099C62.8882 36.6826 62.1708 37.6129 61.3028 37.6751H61.1685ZM60.3823 33.9966C60.0834 34.3928 59.9161 34.8728 59.9041 35.369C59.8549 36.4402 60.4282 37.3344 61.1816 37.377C61.9349 37.4196 62.5934 36.5679 62.6425 35.4968C62.6736 35.0014 62.5512 34.5084 62.292 34.085C62.1957 33.9189 62.061 33.7784 61.8991 33.6752C61.7372 33.572 61.5529 33.5092 61.3617 33.4921H61.2602C61.0868 33.5104 60.9191 33.5647 60.7679 33.6516C60.6168 33.7385 60.4854 33.856 60.3823 33.9966Z" fill="#CE9E41"/>
<path d="M64.156 35.5656L64.359 35.3428C64.0315 35.0415 63.265 34.6222 62.6885 35.1823L62.8981 35.3953C63.4124 34.8941 64.1265 35.5361 64.156 35.5656Z" fill="#CE9E41"/>
<path d="M74.1205 36.604L74.3957 36.4795C74.3367 36.3517 73.8028 35.2315 73.1411 35.0939C72.4794 34.9563 68.4832 35.1529 68.3096 35.1627V35.4608C69.4659 35.4051 72.5679 35.2872 73.0625 35.3854C73.5571 35.4837 73.9797 36.296 74.1205 36.604Z" fill="#CE9E41"/>
<path d="M71.0874 36.0536C71.0874 36.0536 72.6925 33.3513 73.9045 33.9048C75.1164 34.4584 74.0453 38.2811 72.7154 38.8936C72.5503 38.9841 72.3686 39.0401 72.1812 39.0583C71.9939 39.0765 71.8047 39.0566 71.6253 38.9996C71.4459 38.9427 71.2799 38.8499 71.1373 38.727C70.9948 38.604 70.8786 38.4535 70.7959 38.2843L71.0874 36.0536Z" fill="#FFC3BD"/>
<path d="M73.557 34.9924C73.5605 34.9939 73.5635 34.9964 73.5656 34.9996C73.5677 35.0028 73.5688 35.0065 73.5688 35.0104C73.5688 35.0142 73.5677 35.0179 73.5656 35.0211C73.5635 35.0243 73.5605 35.0269 73.557 35.0284C72.6268 35.4902 72.1878 36.4173 71.9028 37.3672C72.1616 36.9905 72.535 36.7645 73.0362 37.0691C73.041 37.073 73.0445 37.0783 73.0461 37.0843C73.0478 37.0903 73.0475 37.0966 73.0453 37.1024C73.0431 37.1082 73.0392 37.1132 73.034 37.1166C73.0289 37.12 73.0227 37.1218 73.0166 37.1215C72.8437 37.0813 72.6626 37.0952 72.498 37.1615C72.3333 37.2277 72.193 37.343 72.0961 37.4917C71.9366 37.7419 71.8048 38.0088 71.703 38.2876C71.6637 38.3761 71.5065 38.3433 71.5294 38.2418C71.5308 38.2342 71.5308 38.2264 71.5294 38.2188C71.4312 36.997 72.2533 35.2151 73.557 34.9924Z" fill="#263238"/>
<path d="M78.6211 47.836C89.3094 55.1865 97.0235 66.7102 97.7671 69.1276C99.5654 75.0237 102.248 85.4074 102.661 90.0719C102.815 91.7981 89.5223 91.4771 89.2996 89.6395C88.6084 83.881 86.1321 71.355 86.0698 71.1421C85.6276 69.6255 81.8541 63.0644 77.9758 55.9268C74.0974 48.7893 74.1138 44.7406 78.6211 47.836Z" fill="#FFC3BD"/>
<path d="M90.3542 107.832C91.7103 108.297 92.5914 107.099 92.5914 107.099C93.0433 107.652 93.675 108.03 94.3766 108.166C95.6246 108.35 96.4566 106.473 96.4566 106.473C97.0465 106.948 97.7653 107.236 98.5203 107.298C99.7323 107.351 100.839 105.579 100.839 105.579C101.623 105.713 102.429 105.564 103.113 105.159C104.262 104.419 104.829 100.754 104.809 98.6901C104.79 96.6264 102.802 90.7958 102.536 89.6428H89.2928C89.2928 89.6428 86.7477 98.9161 87.1178 101.34C87.4257 103.394 88.831 107.311 90.3542 107.832Z" fill="#FFC3BD"/>
<path d="M92.379 107.01C91.5306 104.917 91.3439 102.69 91.0327 100.475C91.0327 100.465 91.0368 100.455 91.0442 100.447C91.0516 100.44 91.0616 100.436 91.072 100.436C91.0824 100.436 91.0924 100.44 91.0998 100.447C91.1072 100.455 91.1113 100.465 91.1113 100.475C91.393 102.68 92.1104 104.802 92.4838 106.99C92.4825 107.002 92.4775 107.014 92.4693 107.022C92.4612 107.031 92.4505 107.037 92.4387 107.039C92.4269 107.041 92.4148 107.04 92.404 107.035C92.3933 107.029 92.3845 107.021 92.379 107.01Z" fill="#263238"/>
<path d="M96.2835 106.43C96.1371 105.936 96.0556 105.425 96.0411 104.91C95.9909 104.367 95.9516 103.821 95.9232 103.273C95.8609 102.182 95.8216 101.091 95.8184 99.997C95.8184 99.9479 95.8904 99.9348 95.8937 99.997C95.9592 101.085 96.0378 102.169 96.1459 103.25C96.2016 103.793 96.2606 104.334 96.3228 104.888C96.416 105.394 96.4522 105.909 96.4309 106.424C96.426 106.439 96.4166 106.453 96.4038 106.462C96.391 106.472 96.3756 106.478 96.3595 106.478C96.3434 106.479 96.3275 106.475 96.3139 106.466C96.3003 106.458 96.2897 106.445 96.2835 106.43Z" fill="#263238"/>
<path d="M100.836 105.533C100.71 105.084 100.661 104.616 100.692 104.151C100.673 103.656 100.653 103.168 100.63 102.66C100.584 101.677 100.535 100.675 100.453 99.6826C100.453 99.6721 100.457 99.6622 100.465 99.6548C100.472 99.6474 100.482 99.6433 100.492 99.6433C100.503 99.6433 100.513 99.6474 100.52 99.6548C100.528 99.6622 100.532 99.6721 100.532 99.6826C100.617 100.688 100.718 101.694 100.8 102.703L100.908 104.187C100.981 104.635 100.973 105.093 100.886 105.539C100.883 105.544 100.879 105.548 100.874 105.551C100.87 105.553 100.864 105.554 100.859 105.554C100.853 105.553 100.848 105.551 100.844 105.547C100.84 105.543 100.837 105.538 100.836 105.533Z" fill="#263238"/>
<path d="M88.6609 89.8L103.188 88.6273C103.188 88.6273 99.988 72.9797 98.2519 68.7509C96.5159 64.5221 87.8715 54.0892 78.857 47.9048C72.725 43.7022 73.105 47.2857 75.9384 52.8543C78.7718 58.4229 85.4377 71.1683 85.7653 72.1805C86.0928 73.1926 88.6609 89.8 88.6609 89.8Z" fill="#CE9E41"/>
<path d="M88.9166 86.8028C89.4603 86.6751 94.3901 86.223 95.4678 86.1477L98.6878 85.925C99.7982 85.8496 100.925 85.7219 102.039 85.735C102.045 85.7332 102.051 85.7329 102.057 85.7339C102.063 85.735 102.069 85.7375 102.073 85.7411C102.078 85.7448 102.082 85.7495 102.085 85.755C102.088 85.7605 102.089 85.7665 102.089 85.7726C102.089 85.7788 102.088 85.7848 102.085 85.7903C102.082 85.7958 102.078 85.8005 102.073 85.8042C102.069 85.8078 102.063 85.8103 102.057 85.8114C102.051 85.8124 102.045 85.8121 102.039 85.8103C100.945 86.0036 99.8113 86.0593 98.7074 86.1641L95.4318 86.472C94.3377 86.5703 89.4538 86.9109 88.9133 86.8749C88.8707 86.8716 88.8805 86.8127 88.9166 86.8028Z" fill="#263238"/>
</svg>
