<svg width="133" height="100" viewBox="0 0 133 100" fill="none" xmlns="http://www.w3.org/2000/svg">
<path d="M133 87.0884H0V87.1549H133V87.0884Z" fill="#EBEBEB"/>
<path d="M119.673 91.3683H110.864V91.4348H119.673V91.3683Z" fill="#EBEBEB"/>
<path d="M88.1045 92.0919H85.793V92.1584H88.1045V92.0919Z" fill="#EBEBEB"/>
<path d="M110.597 88.8999H105.493V88.9664H110.597V88.8999Z" fill="#EBEBEB"/>
<path d="M25.4429 89.3467H13.9543V89.4132H25.4429V89.3467Z" fill="#EBEBEB"/>
<path d="M29.4968 89.3467H27.813V89.4132H29.4968V89.3467Z" fill="#EBEBEB"/>
<path d="M59.8901 90.4693H34.9712V90.5358H59.8901V90.4693Z" fill="#EBEBEB"/>
<path d="M63.042 75.2248H11.68C11.2777 75.2241 10.892 75.0638 10.6077 74.779C10.3235 74.4942 10.1638 74.1083 10.1638 73.7059V1.50556C10.1673 1.1055 10.3285 0.722982 10.6124 0.441086C10.8963 0.15919 11.2799 0.000685319 11.68 0H63.042C63.4448 0 63.8311 0.160022 64.116 0.444864C64.4008 0.729705 64.5608 1.11603 64.5608 1.51886V73.7059C64.5608 74.1088 64.4008 74.4951 64.116 74.7799C63.8311 75.0648 63.4448 75.2248 63.042 75.2248ZM11.68 0.0532002C11.2953 0.0539048 10.9266 0.207231 10.6548 0.479525C10.383 0.751819 10.2303 1.12083 10.2303 1.50556V73.7059C10.2303 74.0907 10.383 74.4597 10.6548 74.732C10.9266 75.0043 11.2953 75.1576 11.68 75.1583H63.042C63.4269 75.1576 63.7959 75.0044 64.0682 74.7321C64.3404 74.4599 64.4936 74.0909 64.4943 73.7059V1.50556C64.4936 1.12059 64.3404 0.751581 64.0682 0.479363C63.7959 0.207145 63.4269 0.0539034 63.042 0.0532002H11.68Z" fill="#EBEBEB"/>
<path d="M120.58 75.2248H69.2159C68.8133 75.2241 68.4274 75.0639 68.1427 74.7792C67.858 74.4945 67.6977 74.1086 67.697 73.7059V1.50556C67.7012 1.10526 67.863 0.722742 68.1473 0.44092C68.4316 0.159097 68.8156 0.000677845 69.2159 0H120.58C120.98 0.0013844 121.363 0.160198 121.646 0.44202C121.93 0.723841 122.091 1.10596 122.094 1.50556V73.7059C122.094 74.1078 121.935 74.4934 121.651 74.7781C121.367 75.0627 120.982 75.2234 120.58 75.2248ZM69.2159 0.0532002C68.8309 0.0539034 68.4619 0.207145 68.1897 0.479363C67.9175 0.751581 67.7642 1.12059 67.7635 1.50556V73.7059C67.7642 74.0909 67.9175 74.4599 68.1897 74.7321C68.4619 75.0044 68.8309 75.1576 69.2159 75.1583H120.58C120.965 75.1576 121.334 75.0044 121.607 74.7321C121.879 74.4599 122.032 74.0909 122.033 73.7059V1.50556C122.032 1.12059 121.879 0.751581 121.607 0.479363C121.334 0.207145 120.965 0.0539034 120.58 0.0532002H69.2159Z" fill="#EBEBEB"/>
<path d="M118.075 43.9778H39.6048L28.5286 57.1022V87.0884H30.9226L34.6785 71.5726L38.4184 87.0325V87.0884H40.8124V59.584H105.823V87.0884H108.217L111.973 71.5726L115.713 87.0325V87.0884H118.107V43.9778H118.075ZM30.9146 76.8953V59.584H31.7684L33.4389 66.5L30.9146 76.8953ZM34.6705 61.4061L34.2289 59.584H35.1121L34.6705 61.4061ZM38.4105 76.8341L35.9101 66.5L37.5726 59.584H38.4105V76.8341ZM108.193 76.89V58.1715L108.589 57.7007L110.717 66.4787L108.193 76.89ZM110.499 55.4317L114.561 50.6198L111.949 61.4008L110.499 55.4317ZM115.689 76.8341L113.178 66.5L115.689 56.126V76.8341Z" fill="#EBEBEB"/>
<path d="M106.977 20.8704C106.661 20.5521 106.265 20.3236 105.831 20.2084C105.397 20.0932 104.94 20.0954 104.507 20.2147C104.074 20.3341 103.681 20.5663 103.367 20.8876C103.053 21.2089 102.83 21.6078 102.721 22.0434C100.729 21.8227 98.1594 22.8734 96.0713 24.9694L102.878 31.7764C104.969 29.6856 106.022 27.1161 105.804 25.1264C106.241 25.0189 106.641 24.7969 106.963 24.4833C107.286 24.1697 107.519 23.7758 107.638 23.3422C107.758 22.9086 107.76 22.451 107.643 22.0166C107.527 21.5821 107.297 21.1864 106.977 20.8704Z" fill="#EBEBEB"/>
<path d="M105.389 47.0235C105.342 47.023 105.296 47.0101 105.256 46.9862C105.196 46.9507 105.152 46.8928 105.134 46.825C105.116 46.7573 105.125 46.6852 105.16 46.6245L113.582 32.0583L105.94 22.1737C105.918 22.1462 105.902 22.1146 105.892 22.0808C105.883 22.047 105.88 22.0117 105.884 21.9768C105.888 21.9419 105.899 21.9082 105.917 21.8777C105.934 21.8471 105.957 21.8203 105.985 21.7987C106.013 21.777 106.044 21.7611 106.078 21.7518C106.112 21.7424 106.148 21.7399 106.182 21.7444C106.217 21.7488 106.251 21.7602 106.281 21.7777C106.312 21.7952 106.339 21.8187 106.36 21.8466L114.114 31.8748C114.146 31.9163 114.166 31.9666 114.169 32.0192C114.173 32.0717 114.161 32.1242 114.135 32.17L105.623 46.8905C105.6 46.9315 105.565 46.9654 105.524 46.9888C105.483 47.0121 105.436 47.0241 105.389 47.0235Z" fill="#EBEBEB"/>
<path d="M104.208 47.4065C104.162 47.4068 104.116 47.3949 104.075 47.3719C104.045 47.3546 104.018 47.3313 103.996 47.3036C103.975 47.2758 103.959 47.2441 103.95 47.2102C103.941 47.1763 103.939 47.141 103.943 47.1062C103.948 47.0714 103.959 47.0379 103.977 47.0075L112.401 32.452L104.756 22.5568C104.732 22.5295 104.714 22.4975 104.703 22.463C104.692 22.4284 104.688 22.3919 104.691 22.3558C104.695 22.3196 104.706 22.2846 104.723 22.2528C104.741 22.2211 104.765 22.1932 104.794 22.171C104.822 22.1488 104.855 22.1327 104.891 22.1238C104.926 22.1148 104.962 22.1132 104.998 22.1189C105.034 22.1246 105.068 22.1377 105.099 22.1572C105.13 22.1767 105.156 22.2022 105.176 22.2323L112.93 32.2605C112.962 32.3023 112.981 32.3527 112.984 32.4053C112.988 32.4578 112.975 32.5102 112.949 32.5557L104.437 47.2735C104.414 47.3137 104.38 47.3471 104.34 47.3705C104.3 47.3938 104.255 47.4062 104.208 47.4065Z" fill="#EBEBEB"/>
<path d="M114.433 32.2738C114.433 32.5279 114.358 32.7763 114.217 32.9876C114.076 33.1988 113.875 33.3635 113.64 33.4608C113.405 33.558 113.147 33.5834 112.898 33.5339C112.649 33.4843 112.42 33.3619 112.24 33.1823C112.06 33.0026 111.938 32.7737 111.888 32.5244C111.839 32.2752 111.864 32.0169 111.962 31.7821C112.059 31.5474 112.223 31.3467 112.435 31.2055C112.646 31.0643 112.894 30.989 113.149 30.989C113.489 30.9897 113.815 31.1253 114.056 31.3661C114.297 31.6069 114.433 31.9333 114.433 32.2738Z" fill="#EBEBEB"/>
<path d="M116.569 43.4245H39.2564C39.1921 43.4246 39.1286 43.4388 39.0703 43.4659C39.0119 43.4929 38.9602 43.5324 38.9186 43.5814L28.5898 55.8174C28.5356 55.8818 28.5008 55.9603 28.4897 56.0437C28.4786 56.1271 28.4915 56.212 28.527 56.2883C28.5625 56.3646 28.6191 56.4292 28.6901 56.4744C28.7611 56.5197 28.8435 56.5437 28.9276 56.5436H106.241C106.305 56.5438 106.369 56.5299 106.427 56.5028C106.485 56.4756 106.537 56.436 106.578 56.3867L116.907 44.1507C116.961 44.0863 116.996 44.0078 117.007 43.9244C117.018 43.841 117.005 43.7561 116.97 43.6798C116.934 43.6035 116.878 43.5389 116.807 43.4937C116.736 43.4485 116.653 43.4245 116.569 43.4245Z" fill="#F5F5F5"/>
<path d="M65.1355 54.123L73.1394 44.6375H111.465L103.461 54.123H65.1355Z" fill="white"/>
<path d="M33.8325 55.3652L41.8365 45.8823H80.1617L72.1578 55.3652H33.8325Z" fill="#FAFAFA"/>
<path d="M44.9538 73.2723H57.0302C57.0968 73.2724 57.1627 73.2868 57.2232 73.3146C57.2838 73.3424 57.3376 73.3829 57.381 73.4334C57.4245 73.4839 57.4565 73.5432 57.4749 73.6072C57.4933 73.6712 57.4977 73.7385 57.4877 73.8043L55.6843 86.7C55.6689 86.8098 55.6144 86.9103 55.5308 86.9831C55.4473 87.056 55.3402 87.0962 55.2294 87.0964H46.744C46.6332 87.0962 46.5261 87.056 46.4426 86.9831C46.359 86.9103 46.3045 86.8098 46.2891 86.7L44.4883 73.8043C44.4778 73.7377 44.482 73.6696 44.5007 73.6048C44.5194 73.54 44.5521 73.4801 44.5965 73.4294C44.6409 73.3786 44.696 73.3382 44.7577 73.3111C44.8195 73.284 44.8864 73.2707 44.9538 73.2723Z" fill="#EBEBEB"/>
<path d="M45.4858 73.0489L47.667 71.0513C47.7126 71.0087 47.7708 70.9823 47.8328 70.9761C47.8948 70.9698 47.9571 70.9841 48.0102 71.0167L50.3111 72.4398C50.3575 72.4697 50.4115 72.4856 50.4667 72.4856C50.5219 72.4856 50.5759 72.4697 50.6223 72.4398L52.0161 71.4742C52.0583 71.4441 52.1079 71.4263 52.1595 71.4225C52.2111 71.4188 52.2627 71.4293 52.3087 71.4529L53.7106 72.1764C53.7439 72.1952 53.7808 72.2066 53.8189 72.2098C53.857 72.213 53.8954 72.208 53.9313 72.1951L54.9953 71.8386C55.0443 71.8217 55.0969 71.8185 55.1475 71.8293C55.1981 71.8401 55.2448 71.8644 55.2826 71.8998L56.5142 73.0596C56.5558 73.0986 56.5846 73.1492 56.5971 73.2048C56.6096 73.2604 56.605 73.3185 56.5841 73.3715C56.5632 73.4245 56.5268 73.47 56.4798 73.5022C56.4327 73.5343 56.377 73.5515 56.32 73.5517H45.68C45.6206 73.5541 45.562 73.5379 45.5123 73.5052C45.4626 73.4726 45.4243 73.4253 45.4029 73.3698C45.3815 73.3144 45.378 73.2536 45.3928 73.196C45.4077 73.1385 45.4402 73.087 45.4858 73.0489Z" fill="#FAFAFA"/>
<path d="M73.2379 8.20079H22.6101V34.8886H73.2379V8.20079Z" fill="#F0F0F0"/>
<path d="M73.2404 34.8912H73.9932V8.20344H73.2404V34.8912Z" fill="#E6E6E6"/>
<path d="M70.889 10.5522H24.9587V32.5424H70.889V10.5522Z" fill="#FAFAFA"/>
<path d="M36.8623 32.5398H29.4436L36.1867 10.5522H43.6054L36.8623 32.5398Z" fill="white"/>
<path d="M42.967 32.5398H39.2563L45.9994 10.5522H49.7101L42.967 32.5398Z" fill="white"/>
<path d="M66.5 99.101C94.984 99.101 118.075 97.7528 118.075 96.0898C118.075 94.4268 94.984 93.0787 66.5 93.0787C38.0161 93.0787 14.9253 94.4268 14.9253 96.0898C14.9253 97.7528 38.0161 99.101 66.5 99.101Z" fill="#F5F5F5"/>
<path d="M84.5484 95.9143H85.4448L73.9642 19.2052H73.0678L81.5133 75.6424H37.4637L45.9119 19.2052H45.0128L33.5322 95.9143H34.4313L37.3573 76.3686H81.6224L84.5484 95.9143Z" fill="#263238"/>
<path opacity="0.6" d="M84.5484 95.9143H85.4448L73.9642 19.2052H73.0678L81.5133 75.6424H37.4637L45.9119 19.2052H45.0128L33.5322 95.9143H34.4313L37.3573 76.3686H81.6224L84.5484 95.9143Z" fill="white"/>
<path d="M94.715 68.3247H48.4842L35.8625 6.59413H82.0907L94.715 68.3247Z" fill="#263238"/>
<path d="M96.9973 67.0799H50.7692L38.1475 5.34926H84.3756L96.9973 67.0799Z" fill="#CE9E41"/>
<path opacity="0.2" d="M96.9973 67.0799H50.7692L38.1475 5.34926H84.3756L96.9973 67.0799Z" fill="white"/>
<path d="M49.8033 67.0799H50.7689L38.1472 5.34926H37.179L49.8033 67.0799Z" fill="#CE9E41"/>
<path d="M92.3182 64.3188H54.6499L42.1213 6.55956H79.7896L92.3182 64.3188Z" fill="#E0E0E0"/>
<path d="M92.7784 63.6804H55.1101L42.1213 6.55956H79.7896L92.7784 63.6804Z" fill="white"/>
<path d="M86.9158 56.6873H57.7915L47.8484 12.9489H76.9727L86.9158 56.6873ZM58.1878 56.1872H86.2907L76.5737 13.449H48.4735L58.1878 56.1872Z" fill="#CE9E41"/>
<path d="M82.6199 38.4024H82.4763C80.6808 38.4024 78.8853 36.9421 78.4863 35.1439L78.4543 35.0056H81.8565L82.6199 38.4024ZM78.7363 35.2344C79.1672 36.8304 80.7366 38.1018 82.3406 38.1604L81.6703 35.2344H78.7363Z" fill="#CE9E41"/>
<path d="M74.6265 53.5564H74.4802C72.682 53.5564 70.8865 52.0934 70.4902 50.2979L70.4583 50.1596H73.8604L74.6265 53.5564ZM70.7402 50.3857C71.1711 51.9817 72.7405 53.2532 74.3419 53.325L73.6822 50.3857H70.7402Z" fill="#CE9E41"/>
<path d="M60.2653 27.0495H56.8631L56.8419 26.9618C56.733 26.558 56.7182 26.1347 56.7984 25.7243C56.8786 25.3139 57.0518 24.9274 57.3047 24.5944C57.559 24.2878 57.8802 24.0436 58.2435 23.8804C58.6068 23.7172 59.0027 23.6393 59.4008 23.6527H59.4912L60.2653 27.0495ZM57.044 26.8234H59.97L59.3183 23.8815C58.968 23.879 58.6215 23.9546 58.304 24.1028C57.9866 24.2509 57.7061 24.4679 57.4829 24.738C57.2598 25.0314 57.1047 25.3707 57.0288 25.7313C56.9529 26.092 56.9581 26.465 57.044 26.8234Z" fill="#CE9E41"/>
<path d="M79.8961 26.8234H51.2852V27.0495H79.8961V26.8234Z" fill="#CE9E41"/>
<g opacity="0.3">
<path opacity="0.3" d="M55.5836 43.0734H54.9797V43.2995H55.5836V43.0734Z" fill="#CE9E41"/>
<path opacity="0.3" d="M81.7951 43.2995H80.5981V43.0734H81.7898L81.7951 43.2995ZM79.4011 43.2995H78.2095V43.0734H79.4011V43.2995ZM77.0071 43.2995H75.8367V43.0734H77.0284L77.0071 43.2995ZM74.6264 43.2995H73.4348V43.0734H74.6264V43.2995ZM72.2324 43.2995H71.0408V43.0734H72.2324V43.2995ZM69.8384 43.2995H68.6468V43.0734H69.8384V43.2995ZM67.4444 43.2995H66.2528V43.0734H67.4444V43.2995ZM65.0504 43.2995H63.8588V43.0734H65.0504V43.2995ZM62.6564 43.2995H61.4648V43.0734H62.6564V43.2995ZM60.2624 43.2995H59.1585V43.0734H60.3476L60.2624 43.2995ZM57.8684 43.2995H56.6768V43.0734H57.8684V43.2995Z" fill="#CE9E41"/>
<path opacity="0.3" d="M83.5906 43.0734H82.9868V43.2995H83.5906V43.0734Z" fill="#CE9E41"/>
</g>
<g opacity="0.3">
<path opacity="0.3" d="M50.1307 19.0908H49.5269V19.3169H50.1307V19.0908Z" fill="#CE9E41"/>
<path opacity="0.3" d="M67.9422 19.3169H66.6707V19.0908H67.9422V19.3169ZM65.3993 19.3169H64.1251V19.0908H65.3993V19.3169ZM62.8536 19.3169H61.5822V19.0908H62.8536V19.3169ZM60.308 19.3169H59.0365V19.0908H60.308V19.3169ZM57.7651 19.3169H56.4909V19.0908H57.7651V19.3169ZM55.2194 19.3169H53.948V19.0908H55.2194V19.3169ZM52.6738 19.3169H51.4023V19.0908H52.6685L52.6738 19.3169Z" fill="#CE9E41"/>
<path opacity="0.3" d="M69.8201 19.0908H69.2163V19.3169H69.8201V19.0908Z" fill="#CE9E41"/>
</g>
<path d="M65.3955 26.9116L65.175 26.9617L66.4566 32.598L66.6771 32.5479L65.3955 26.9116Z" fill="#CE9E41"/>
<path d="M69.913 46.7708H55.7698V46.5447H69.631L67.8542 38.7349L68.0749 38.6844L69.913 46.7708Z" fill="#CE9E41"/>
<path d="M69.9273 19.1791L69.7068 19.2293L71.4649 26.9614L71.6854 26.9112L69.9273 19.1791Z" fill="#CE9E41"/>
<path d="M75.0547 56.4612L72.8523 46.7708H69.772V46.5447H73.0331L75.2755 56.4106L75.0547 56.4612Z" fill="#CE9E41"/>
<path opacity="0.3" d="M54.3309 22.4717C51.3597 22.4717 48.3911 20.0537 47.7155 17.0825C47.3803 15.6089 47.649 14.2257 48.4762 13.1936C48.8936 12.6891 49.4212 12.2872 50.0185 12.0188C50.6157 11.7504 51.2666 11.6226 51.9209 11.6455C54.8921 11.6455 57.8607 14.0607 58.5363 17.032C58.8715 18.5083 58.6028 19.8888 57.7782 20.9235C57.3598 21.4275 56.8316 21.829 56.2341 22.0973C55.6365 22.3656 54.9855 22.4937 54.3309 22.4717ZM51.9209 11.8716C51.3004 11.8493 50.6831 11.9697 50.1164 12.2233C49.5497 12.4769 49.0486 12.8571 48.6518 13.3346C47.8697 14.3134 47.617 15.6275 47.9362 17.032C48.5906 19.9074 51.4581 22.2456 54.3202 22.2456C54.9406 22.2672 55.5578 22.1466 56.1244 21.893C56.691 21.6394 57.1921 21.2596 57.5894 20.7826C58.3714 19.8037 58.6241 18.4896 58.3049 17.0825C57.6612 14.2097 54.7964 11.8716 51.9209 11.8716Z" fill="#CE9E41"/>
<path opacity="0.3" d="M87.3812 51.9711H60.5844L54.0168 23.0941L54.2376 23.0436L60.7653 51.745H87.0966L78.3372 13.2255L78.558 13.175L87.3812 51.9711Z" fill="#CE9E41"/>
<path opacity="0.3" d="M71.0644 12.0125L69.4829 14.058L69.6618 14.1963L71.2433 12.1508L71.0644 12.0125Z" fill="#CE9E41"/>
<path opacity="0.3" d="M72.2667 12.0032L70.6855 14.0489L70.8644 14.1872L72.4456 12.1414L72.2667 12.0032Z" fill="#CE9E41"/>
<path opacity="0.3" d="M66.1529 45.545L64.5757 47.5875L64.7543 47.7254L66.3315 45.6829L66.1529 45.545Z" fill="#CE9E41"/>
<path opacity="0.3" d="M67.5395 45.5716L65.958 47.6171L66.1369 47.7554L67.7184 45.7099L67.5395 45.5716Z" fill="#CE9E41"/>
<path d="M63.8669 68.3248H85.796L90.06 65.7339H68.1283L63.8669 68.3248Z" fill="#263238"/>
<path opacity="0.2" d="M49.8033 67.0799H57.9163L58.1584 5.34926H37.179L49.8033 67.0799Z" fill="#CE9E41"/>
<path d="M51.7373 7.37086H47.7473C47.4967 7.36981 47.2541 7.28249 47.0604 7.12359C46.8666 6.96469 46.7334 6.74391 46.6833 6.49838L46.4439 5.32C46.4116 5.16192 46.4148 4.99865 46.4533 4.84196C46.4917 4.68527 46.5645 4.53907 46.6663 4.41388C46.768 4.2887 46.8963 4.18765 47.0419 4.11803C47.1874 4.04841 47.3466 4.01195 47.5079 4.01128H51.4979C51.7485 4.01233 51.9911 4.09964 52.1849 4.25854C52.3786 4.41744 52.5118 4.63822 52.5619 4.88376L52.8013 6.05948C52.834 6.21774 52.8312 6.3813 52.7929 6.53832C52.7547 6.69535 52.682 6.84191 52.5802 6.96741C52.4784 7.0929 52.3499 7.19421 52.2042 7.26398C52.0584 7.33376 51.8989 7.37026 51.7373 7.37086Z" fill="#263238"/>
<path d="M75.0415 7.37086H71.0515C70.8009 7.36981 70.5583 7.28249 70.3646 7.12359C70.1708 6.96469 70.0376 6.74391 69.9875 6.49838L69.7481 5.32C69.7158 5.16192 69.719 4.99865 69.7575 4.84196C69.7959 4.68527 69.8687 4.53907 69.9705 4.41388C70.0722 4.2887 70.2005 4.18765 70.3461 4.11803C70.4916 4.04841 70.6508 4.01195 70.8121 4.01128H74.8021C75.0527 4.01233 75.2953 4.09964 75.4891 4.25854C75.6828 4.41744 75.816 4.63822 75.8661 4.88376L76.1055 6.05948C76.1382 6.21774 76.1354 6.3813 76.0971 6.53832C76.0589 6.69535 75.9862 6.84191 75.8844 6.96741C75.7826 7.0929 75.6541 7.19421 75.5084 7.26398C75.3626 7.33376 75.2031 7.37026 75.0415 7.37086Z" fill="#263238"/>
<path d="M82.1913 22.5222L57.8364 28.0949L56.8149 25.4482L81.1699 19.8755L82.1913 22.5222Z" fill="#263238"/>
<path opacity="0.2" d="M82.1912 22.5222L57.8363 28.0949L57.4905 27.2012L81.8454 21.6285L82.1912 22.5222Z" fill="white"/>
<path d="M67.1836 28.4088C66.1674 28.3131 65.6354 26.4883 65.6354 26.4883L65.1221 25.4243C65.0384 25.2501 65.0192 25.0518 65.0679 24.8648C65.1166 24.6778 65.23 24.5141 65.3881 24.4029L66.2047 23.8283C66.2934 23.7658 66.3937 23.7217 66.4997 23.6984C66.6057 23.6751 66.7153 23.6732 66.822 23.6928C66.9287 23.7124 67.0305 23.753 67.1214 23.8123C67.2122 23.8717 67.2903 23.9485 67.3511 24.0384L68.0002 25.004C68.1167 25.177 68.1947 25.3729 68.2289 25.5786L68.3646 26.4138C68.422 26.7642 68.3787 27.1238 68.2398 27.4506C68.1009 27.7774 67.8721 28.058 67.5799 28.2599L67.5001 28.3157C67.4084 28.382 67.2966 28.4149 67.1836 28.4088Z" fill="#FFC3BD"/>
<path d="M77.5018 26.2968C76.4963 26.1239 76.1053 24.2645 76.1053 24.2645L75.677 23.1686C75.6062 22.989 75.6016 22.79 75.664 22.6073C75.7264 22.4246 75.8517 22.27 76.0175 22.1711L76.8793 21.6604C76.9725 21.6049 77.0757 21.5685 77.1831 21.5534C77.2905 21.5383 77.3998 21.5449 77.5046 21.5726C77.6094 21.6004 77.7076 21.6488 77.7935 21.715C77.8793 21.7813 77.9511 21.864 78.0045 21.9583L78.5791 22.9718C78.6813 23.1523 78.743 23.3529 78.76 23.5596L78.8318 24.4029C78.8642 24.7571 78.7945 25.1131 78.6309 25.429C78.4674 25.7448 78.2168 26.0072 77.9088 26.1851L77.8263 26.2329C77.7286 26.2906 77.6141 26.3131 77.5018 26.2968Z" fill="#FFC3BD"/>
<path d="M76.6852 47.0049C74.585 50.2433 72.8237 53.6893 71.4291 57.2884C70.8107 58.9485 70.789 60.7719 71.3679 62.4462C74.2513 70.873 76.374 81.4678 76.374 81.4678L78.6004 80.6299C78.6004 80.6299 80.4119 68.6466 76.9113 61.7625C82.4681 56.4425 87.6045 50.1277 87.6045 50.1277L76.6852 47.0049Z" fill="#FFC3BD"/>
<path opacity="0.2" d="M72.6951 54.264C72.2695 55.195 71.8493 56.1792 71.4662 57.19C70.8223 58.875 70.7857 60.7317 71.3625 62.4408C71.9184 64.0634 72.4451 65.7658 72.9345 67.4576C73.2325 63.1723 73.3761 57.8763 72.6951 54.264Z" fill="black"/>
<path d="M76.4351 81.279C76.3592 81.3073 76.2934 81.3576 76.246 81.4234C76.1986 81.4893 76.1719 81.5677 76.1691 81.6487C76.1372 82.5744 76.4165 84.8726 76.076 87.0325C75.8313 88.5807 76.7703 88.3625 77.4991 86.2053C78.353 83.6809 79.2281 83.2181 79.8931 82.6462C80.5581 82.0743 80.4251 81.1779 78.9435 80.191C78.8766 80.1475 78.7985 80.1244 78.7187 80.1244C78.6389 80.1244 78.5609 80.1475 78.494 80.191C77.8487 80.6264 77.1584 80.9912 76.4351 81.279Z" fill="#CE9E41"/>
<path d="M89.8016 18.1332C89.3999 19.8862 88.9557 23.1021 90.15 24.3177C87.8554 24.7975 85.7316 25.8842 84.0001 27.4645C82.835 25.1264 84.6731 24.1448 84.6731 24.1448C86.6548 23.7378 86.6495 22.2828 86.3489 20.8996L89.8016 18.1332Z" fill="#FFC3BD"/>
<path d="M84.1489 25.951C84.6064 24.065 83.2844 23.7485 85.4789 22.8813C87.1999 22.2004 90.4558 22.2216 91.2245 22.8494C91.6528 23.2032 91.0756 24.355 91.0756 24.355L84.1489 25.951Z" fill="#CE9E41"/>
<path d="M92.8605 27.4964L92.7355 27.6534L92.6291 27.7837L92.4216 28.0258C92.2806 28.1827 92.137 28.3317 91.9933 28.478C91.7087 28.7732 91.4081 29.0472 91.1022 29.3159C90.4889 29.8465 89.8372 30.331 89.1525 30.7656C88.812 30.9837 88.4582 31.1858 88.0885 31.38C87.7187 31.5742 87.3623 31.7471 86.9899 31.912C86.2414 32.2404 85.4675 32.5073 84.6757 32.71L84.564 32.7366C84.4201 32.7745 84.2708 32.788 84.1224 32.7765C83.7725 32.7495 83.4289 32.6688 83.1036 32.5371C82.8485 32.4377 82.6035 32.3139 82.3721 32.1674C81.9826 31.9222 81.615 31.6436 81.2736 31.3348C80.6701 30.7844 80.1115 30.1866 79.6031 29.5473C79.111 28.9328 78.6561 28.3024 78.2305 27.6587C77.8049 27.015 77.4086 26.3659 77.0415 25.6663C76.9401 25.4727 76.9117 25.249 76.9613 25.0361C77.011 24.8233 77.1354 24.6353 77.312 24.5064C77.4885 24.3775 77.7055 24.3163 77.9234 24.3339C78.1413 24.3515 78.3456 24.4468 78.4992 24.6023L78.5178 24.621C79.0179 25.1343 79.5339 25.6717 80.0473 26.1797C80.5607 26.6878 81.0794 27.1958 81.6061 27.6667C82.1055 28.1265 82.6332 28.5547 83.1861 28.9488C83.4202 29.1157 83.6685 29.2617 83.9282 29.385C84.0183 29.4265 84.1118 29.4603 84.2075 29.4861C84.2767 29.5021 84.3139 29.4861 84.2767 29.4861L83.7234 29.5553C84.3281 29.3282 84.9173 29.0617 85.487 28.7573C86.0576 28.4523 86.6093 28.1129 87.1388 27.7411C87.6693 27.3677 88.1782 26.9645 88.663 26.5335C88.9078 26.318 89.1418 26.0946 89.3706 25.8712L89.7004 25.5333L89.8547 25.3684L89.9744 25.2354L90.0675 25.129C90.3844 24.7766 90.826 24.5615 91.2989 24.5294C91.7717 24.4973 92.2384 24.6506 92.6 24.9568C92.9617 25.2631 93.1897 25.6982 93.2359 26.1699C93.282 26.6415 93.1426 27.1126 92.8472 27.4831L92.8605 27.4964Z" fill="#FFC3BD"/>
<path d="M94.2624 27.0362C93.4644 29.0259 91.3363 30.4942 88.3332 30.9837C87.0032 30.6565 85.2024 26.2196 85.2024 26.2196C85.2024 26.2196 93.8979 21.5646 94.2624 27.0362Z" fill="#263238"/>
<path d="M79.2016 28.1295C79.2149 29.3159 77.2572 31.9998 79.5182 33.6623C79.715 36.0563 79.9783 38.4343 80.4944 42.3818L92.5681 42.7622C91.419 38.3811 92.4085 35.4817 94.2466 27.8874C94.3468 27.4718 94.3586 27.0397 94.2812 26.6193C94.2037 26.1988 94.0388 25.7993 93.797 25.4466C93.5552 25.094 93.242 24.7961 92.8777 24.5723C92.5134 24.3485 92.1062 24.2038 91.6823 24.1475C91.2035 24.0836 90.6955 24.0278 90.1741 23.9852C88.3549 23.7971 86.5246 23.7393 84.6972 23.8123C84.104 23.8496 83.4922 23.9028 82.9043 23.9666C81.8797 24.0751 80.9324 24.5619 80.2477 25.3318C79.5629 26.1016 79.1899 27.0992 79.2016 28.1295Z" fill="#263238"/>
<path d="M82.1941 16.2686C82.234 16.5027 82.1382 16.7154 81.984 16.742C81.8297 16.7686 81.6727 16.5957 81.6328 16.3617C81.5929 16.1276 81.6887 15.9121 81.843 15.8855C81.9973 15.8589 82.1489 16.0318 82.1941 16.2686Z" fill="#263238"/>
<path d="M81.9067 15.8882L81.3135 15.819C81.3135 15.819 81.6779 16.226 81.9067 15.8882Z" fill="#263238"/>
<path d="M82.1327 16.5266C82.0109 17.1007 81.8114 17.6556 81.5396 18.1758C81.6744 18.242 81.8222 18.278 81.9724 18.2812C82.1226 18.2844 82.2718 18.2548 82.4094 18.1944L82.1327 16.5266Z" fill="#ED847E"/>
<path d="M81.4305 15.0689C81.3936 15.0672 81.3586 15.052 81.332 15.0263C81.3062 14.9996 81.2917 14.9638 81.2917 14.9266C81.2917 14.8894 81.3062 14.8536 81.332 14.8268C81.486 14.6651 81.6765 14.5425 81.8875 14.4694C82.0985 14.3963 82.3239 14.3747 82.545 14.4066C82.5724 14.4207 82.5944 14.4435 82.6077 14.4713C82.6209 14.4992 82.6247 14.5306 82.6183 14.5608C82.612 14.591 82.5959 14.6183 82.5726 14.6385C82.5492 14.6587 82.5199 14.6706 82.4891 14.6726C82.3136 14.6511 82.1354 14.6712 81.9691 14.7313C81.8027 14.7913 81.6529 14.8897 81.5315 15.0184C81.5193 15.0336 81.504 15.0459 81.4865 15.0547C81.4691 15.0634 81.4499 15.0682 81.4305 15.0689Z" fill="#263238"/>
<path d="M89.8734 14.1964C90.1793 17.1224 90.3708 18.362 89.1818 20.091C87.3916 22.6925 83.79 22.4132 82.6302 19.6281C81.5848 17.1224 81.2577 12.7467 83.8512 11.1294C86.4447 9.51216 89.5648 11.2624 89.8734 14.1964Z" fill="#FFC3BD"/>
<path d="M84.391 17.0586C82.8802 16.6064 82.5131 15.8084 82.6567 15.0689C82.8004 14.3294 79.6163 12.9409 81.4278 11.156C83.2393 9.37118 86.3887 9.21158 88.5486 9.79412C90.7085 10.3767 90.0515 11.9567 90.0515 11.9567C90.0515 11.9567 93.3446 12.8159 91.7858 15.819C90.2271 18.8222 90.9293 21.0486 88.7056 20.9555C86.1839 20.8517 84.2075 18.1971 84.391 17.0586Z" fill="#263238"/>
<path d="M82.5849 17.1756H82.5689C82.559 17.1737 82.5495 17.1698 82.541 17.1643C82.5326 17.1587 82.5253 17.1515 82.5196 17.1431C82.5139 17.1347 82.5099 17.1252 82.5079 17.1153C82.5059 17.1054 82.5058 17.0951 82.5078 17.0852C82.5711 16.8349 82.7162 16.6129 82.92 16.4543C83.1238 16.2958 83.3747 16.2098 83.6329 16.21C83.7872 16.2287 84.141 16.3324 84.1171 16.9256C84.1151 16.9456 84.1059 16.9642 84.0912 16.9779C84.0766 16.9916 84.0574 16.9995 84.0373 17.0001C84.027 17.0001 84.0169 16.998 84.0075 16.9939C83.9981 16.9899 83.9896 16.9839 83.9826 16.9764C83.9756 16.9689 83.9703 16.9601 83.9668 16.9504C83.9634 16.9407 83.962 16.9305 83.9628 16.9203C83.9628 16.6862 83.9176 16.3883 83.617 16.3643C83.3973 16.3676 83.1848 16.4427 83.0119 16.5781C82.839 16.7136 82.7151 16.902 82.6594 17.1144C82.6562 17.1318 82.647 17.1475 82.6334 17.1587C82.6197 17.1699 82.6026 17.1759 82.5849 17.1756Z" fill="#263238"/>
<path d="M83.7049 17.2102C83.6905 17.2099 83.6765 17.2056 83.6643 17.198C83.6521 17.1903 83.6422 17.1795 83.6357 17.1667C83.6292 17.1539 83.6262 17.1396 83.6271 17.1252C83.6281 17.1109 83.6329 17.097 83.641 17.0852C83.7847 16.8963 83.907 16.633 83.6756 16.4335C83.4949 16.3077 83.2777 16.2453 83.0578 16.2559C82.838 16.2665 82.6278 16.3495 82.46 16.492C82.4526 16.4992 82.444 16.5048 82.4345 16.5086C82.4249 16.5124 82.4148 16.5143 82.4045 16.5142C82.3943 16.5141 82.3841 16.5119 82.3747 16.5079C82.3653 16.5039 82.3568 16.498 82.3496 16.4907C82.3424 16.4833 82.3368 16.4747 82.333 16.4651C82.3292 16.4556 82.3273 16.4454 82.3274 16.4352C82.3275 16.4249 82.3297 16.4148 82.3337 16.4054C82.3377 16.396 82.3436 16.3874 82.3509 16.3803C82.5456 16.2104 82.7916 16.1108 83.0496 16.0973C83.3076 16.0837 83.5627 16.1572 83.774 16.3058C83.8911 16.4069 84.1225 16.6915 83.774 17.1676C83.7679 17.1807 83.758 17.1916 83.7458 17.1992C83.7335 17.2067 83.7193 17.2106 83.7049 17.2102Z" fill="#263238"/>
<path d="M92.2832 13.2841C91.9227 13.2881 91.5664 13.207 91.2431 13.0473C91.2337 13.0428 91.2253 13.0364 91.2184 13.0285C91.2115 13.0207 91.2062 13.0115 91.203 13.0015C91.1998 12.9916 91.1986 12.9811 91.1996 12.9707C91.2005 12.9602 91.2036 12.9501 91.2086 12.9409C91.2182 12.923 91.2343 12.9095 91.2536 12.9031C91.2729 12.8966 91.2939 12.8978 91.3123 12.9063C92.3763 13.4383 93.7276 12.9462 94.5309 12.1855C95.3342 11.4247 95.5949 10.4511 95.2119 9.59463C95.0351 9.20246 94.7419 8.87418 94.3722 8.65433C94.0025 8.43448 93.574 8.33371 93.1451 8.36571C92.1156 8.40827 90.7803 9.16371 90.1073 11.1135C90.1043 11.1234 90.0994 11.1325 90.0927 11.1404C90.0861 11.1483 90.078 11.1548 90.0688 11.1596C90.0596 11.1643 90.0496 11.1671 90.0393 11.1679C90.029 11.1686 90.0187 11.1673 90.0089 11.164C89.9897 11.1563 89.9741 11.1416 89.9652 11.1228C89.9563 11.1041 89.9548 11.0827 89.961 11.0629C90.658 9.04401 92.0598 8.24601 93.1371 8.20877C93.5983 8.17596 94.0584 8.28602 94.4549 8.52399C94.8514 8.76197 95.1649 9.11629 95.3528 9.53877C95.7598 10.4591 95.4912 11.4939 94.6373 12.3052C93.9987 12.9084 93.1612 13.2567 92.2832 13.2841Z" fill="#263238"/>
<path d="M88.6099 11.5125C89.7776 8.0997 92.9856 7.72996 94.1959 9.02804C96.2175 11.1933 92.8659 13.816 90.7379 13.5075C88.6099 13.1989 88.6099 11.5125 88.6099 11.5125Z" fill="#263238"/>
<path d="M91.3842 13.691C90.9098 13.6707 90.4484 13.5298 90.0435 13.2818C89.6386 13.0337 89.3036 12.6867 89.07 12.2732C88.893 11.9873 88.7914 11.6612 88.7747 11.3253C88.7579 10.9895 88.8266 10.6549 88.9742 10.3527C88.9944 10.3172 89.0276 10.2909 89.0669 10.2795C89.1061 10.268 89.1483 10.2724 89.1844 10.2916C89.2022 10.3013 89.218 10.3145 89.2307 10.3303C89.2435 10.3461 89.253 10.3644 89.2587 10.3839C89.2643 10.4034 89.2661 10.4239 89.2639 10.4441C89.2616 10.4643 89.2554 10.4839 89.2455 10.5017C89.1242 10.758 89.0694 11.0408 89.0861 11.3239C89.1029 11.607 89.1906 11.8814 89.3413 12.1216C89.5495 12.4888 89.8477 12.797 90.2079 13.0171C90.5681 13.2372 90.9784 13.362 91.4001 13.3798C91.4379 13.3848 91.4726 13.4033 91.4977 13.4319C91.5228 13.4605 91.5367 13.4973 91.5367 13.5354C91.5367 13.5735 91.5228 13.6103 91.4977 13.6389C91.4726 13.6676 91.4379 13.6861 91.4001 13.691H91.3842Z" fill="#CE9E41"/>
<path d="M87.1442 18.2476C87.1172 18.2465 87.0908 18.2392 87.067 18.2263L82.0689 15.3589C82.0333 15.3387 82.0071 15.3053 81.9961 15.2659C81.9852 15.2265 81.9903 15.1843 82.0104 15.1487C82.031 15.1129 82.0649 15.0867 82.1048 15.0757C82.1446 15.0648 82.1871 15.07 82.2232 15.0902L87.224 17.9577C87.2417 17.9676 87.2572 17.981 87.2696 17.997C87.282 18.013 87.2911 18.0314 87.2963 18.0509C87.3015 18.0705 87.3027 18.091 87.2999 18.111C87.2971 18.1311 87.2903 18.1504 87.2798 18.1678C87.2665 18.1921 87.2468 18.2123 87.223 18.2263C87.1991 18.2404 87.1719 18.2477 87.1442 18.2476Z" fill="#CE9E41"/>
<path d="M85.0935 17.1996C84.8115 17.9124 84.7078 18.221 84.2502 18.4843C84.1099 18.5772 83.9456 18.6271 83.7773 18.6279C83.6091 18.6287 83.4443 18.5804 83.3031 18.4889C83.1619 18.3974 83.0504 18.2667 82.9824 18.1128C82.9144 17.9589 82.8928 17.7885 82.9202 17.6225C82.9947 16.9229 83.4522 15.8696 84.1837 15.7951C84.9152 15.7206 85.3861 16.492 85.0935 17.1996Z" fill="#FFC3BD"/>
<path d="M85.0136 42.56C85.0136 42.56 74.8498 42.028 68.1545 45.0684C67.1416 45.5354 66.3074 46.3183 65.777 47.2995C65.2466 48.2807 65.0485 49.4075 65.2126 50.5107C66.5772 60.0043 67.6066 73.4586 67.6066 73.4586L69.9846 73.424C69.9846 73.424 73.0889 59.0094 71.9238 52.2291C87.7109 55.578 91.8365 50.6969 91.8365 50.6969L85.0136 42.56Z" fill="#FFC3BD"/>
<path d="M67.6172 73.3202C67.553 73.32 67.4902 73.3389 67.4367 73.3744C67.3832 73.4099 67.3414 73.4605 67.3167 73.5197C66.9655 74.3869 66.665 75.4615 64.8881 76.8181C63.6432 77.7704 64.4811 78.2519 66.4841 77.2038C68.8462 75.9669 69.6362 76.0866 70.4741 75.7781C71.312 75.4695 71.4663 74.5492 70.3783 73.0968C70.3398 73.0476 70.2881 73.0104 70.2292 72.9897C70.1703 72.9689 70.1066 72.9655 70.0458 72.9798C69.2521 73.1865 68.4372 73.3007 67.6172 73.3202Z" fill="#CE9E41"/>
<path opacity="0.2" d="M81.5981 56.9825C80.9039 57.73 80.175 58.4961 79.4222 59.2675C77.5912 57.2557 75.9617 55.0694 74.5571 52.7398C74.3523 52.3914 74.1528 52.0349 73.9639 51.6758C72.5754 49.0345 71.671 46.167 72.2961 43.6958C72.7403 43.5868 73.1845 43.491 73.6261 43.4032C72.9664 49.0238 79.4355 55.1152 81.5981 56.9825Z" fill="black"/>
<path d="M80.4941 42.3818C80.4941 42.3818 78.4273 42.1158 72.3705 43.4298C70.9527 50.3006 80.941 58.1396 80.941 58.1396C80.941 58.1396 98.5741 58.6557 92.5546 42.7622C89.4397 41.8258 80.5659 42.1025 80.4941 42.3818Z" fill="#CE9E41"/>
<path opacity="0.1" d="M85.5962 51.338C84.5163 51.3673 83.4097 51.4471 82.3324 51.5747C79.2841 51.9365 78.111 55.743 80.4491 57.73L80.4757 57.7539C80.7683 57.9986 80.9386 58.1316 80.9386 58.1316C82.0515 58.1357 83.1628 58.0467 84.2609 57.8656C86.4235 57.5172 89.2032 56.7218 91.2035 54.9051C91.4553 54.6681 91.6375 54.3667 91.7302 54.0336C91.8229 53.7005 91.8227 53.3484 91.7295 53.0154C91.6363 52.6824 91.4538 52.3813 91.2016 52.1447C90.9495 51.9081 90.6373 51.745 90.2991 51.6732C88.7495 51.3814 87.1715 51.269 85.5962 51.338Z" fill="black"/>
<path d="M83.7102 28.0311C83.0186 28.5897 82.3456 29.0951 81.6434 29.5739C80.9412 30.0527 80.2336 30.5341 79.5021 30.981C78.7706 31.4279 78.0258 31.8615 77.2571 32.2685C76.4883 32.6754 75.6877 33.0478 74.8631 33.3883L74.7407 33.4389C74.531 33.5224 74.3052 33.5577 74.08 33.5421C73.8548 33.5264 73.6361 33.4602 73.44 33.3484C72.8441 33.0026 72.2563 32.6382 71.6817 32.2578C71.1071 31.8774 70.5432 31.4758 69.9899 31.0608C69.4367 30.6459 68.9047 30.2016 68.3939 29.7308C68.1279 29.4994 67.8832 29.26 67.6332 29.0126C67.3831 28.7652 67.1544 28.5179 66.8964 28.2146C66.7564 28.0514 66.6787 27.8438 66.6773 27.6287C66.6758 27.4136 66.7506 27.205 66.8883 27.0398C67.0261 26.8746 67.2179 26.7636 67.4297 26.7264C67.6416 26.6893 67.8597 26.7283 68.0455 26.8367L68.1146 26.8793L68.9126 27.3528C69.1786 27.515 69.4712 27.672 69.7532 27.8289C70.3171 28.1393 70.8864 28.4416 71.4609 28.736C72.0328 29.0339 72.6127 29.3132 73.1926 29.5952C73.7725 29.8771 74.3603 30.1405 74.9429 30.4091L73.5224 30.3692C74.1981 30.0261 74.871 29.6324 75.5467 29.2307C76.2223 28.8291 76.8767 28.3795 77.5497 27.9353C78.2226 27.4911 78.8797 27.0283 79.526 26.5601C80.1724 26.0919 80.8427 25.6078 81.4625 25.153L81.4865 25.1343C81.8704 24.8501 82.3504 24.7277 82.8235 24.7935C83.2967 24.8593 83.7251 25.108 84.0169 25.4861C84.3088 25.8643 84.4407 26.3418 84.3843 26.8162C84.3279 27.2905 84.0878 27.7238 83.7155 28.0231L83.7102 28.0311Z" fill="#FFC3BD"/>
<path d="M83.9362 24.0331C82.2976 23.8256 80.3106 24.206 78.0656 26.6479C77.7091 27.9593 81.3161 32.202 81.3161 32.202C81.3161 32.202 89.2083 25.27 83.9362 24.0331Z" fill="#263238"/>
<path d="M91.9083 97.1352H92.8074L89.7005 57.0517H88.8015L90.7911 82.7021H79.3212L81.3109 57.0517H80.4118L77.3049 97.1352H78.204L79.1749 84.6013H90.9374L91.9083 97.1352Z" fill="#263238"/>
<path opacity="0.2" d="M91.9083 97.1352H92.8074L89.7005 57.0517H88.8015L90.7911 82.7021H79.3212L81.3109 57.0517H80.4118L77.3049 97.1352H78.204L79.1749 84.6013H90.9374L91.9083 97.1352Z" fill="white"/>
<path d="M90.6979 52.9766H79.4142C78.2551 52.9766 77.3154 53.9162 77.3154 55.0753V56.9533C77.3154 58.1124 78.2551 59.052 79.4142 59.052H90.6979C91.857 59.052 92.7966 58.1124 92.7966 56.9533V55.0753C92.7966 53.9162 91.857 52.9766 90.6979 52.9766Z" fill="#263238"/>
</svg>
