<svg width="133" height="108" viewBox="0 0 133 108" fill="none" xmlns="http://www.w3.org/2000/svg">
<path d="M129.843 71.1327C132.774 62.9529 133.267 52.5633 129.609 44.5828C127.188 39.3074 123.088 35.2805 118.791 31.8749C113.478 27.6634 108.121 23.534 102.845 19.2931C90.0523 9.03541 75.0555 -2.98078 58.4849 0.668041C51.9346 2.10705 45.8474 6.13394 41.5099 11.8988C36.9027 17.9948 34.1536 26.0163 28.4034 30.685C23.0137 35.0607 16.4517 36.4352 11.4254 41.6081C6.71134 46.5389 3.53766 52.7375 2.29314 59.4448C-2.95588 87.4688 21.8854 103.779 42.8756 105.405C51.3051 106.07 59.7823 105.041 67.8077 102.378L67.878 102.354C76.3773 99.4967 84.5483 95.8479 93.4491 94.9042C101.77 94.025 110.562 93.1311 117.775 87.8704C123.252 83.8874 127.428 77.8735 129.843 71.1327Z" fill="#CE9E41"/>
<path opacity="0.5" d="M129.843 71.1327C132.774 62.9529 133.267 52.5633 129.609 44.5828C127.188 39.3074 123.088 35.2805 118.791 31.8749C113.478 27.6634 108.121 23.534 102.845 19.2931C90.0523 9.03541 75.0555 -2.98078 58.4849 0.668041C51.9346 2.10705 45.8474 6.13394 41.5099 11.8988C36.9027 17.9948 34.1536 26.0163 28.4034 30.685C23.0137 35.0607 16.4517 36.4352 11.4254 41.6081C6.71134 46.5389 3.53766 52.7375 2.29314 59.4448C-2.95588 87.4688 21.8854 103.779 42.8756 105.405C51.3051 106.07 59.7823 105.041 67.8077 102.378L67.878 102.354C76.3773 99.4967 84.5483 95.8479 93.4491 94.9042C101.77 94.025 110.562 93.1311 117.775 87.8704C123.252 83.8874 127.428 77.8735 129.843 71.1327Z" fill="white"/>
<path d="M122.511 98.5706C122.511 98.5706 122.44 97.7324 122.856 97.3543C123.273 96.9763 124.061 96.7301 124.354 96.0267C124.647 95.3233 124.152 94.4822 124.972 93.6645C125.793 92.8468 125.852 93.0314 126.01 91.6422C126.168 90.2531 127.112 90.3205 127.449 89.5409C127.786 88.7613 127.296 87.8176 128.328 86.7127C129.36 85.6078 128.741 84.4413 129.266 83.8669C129.791 83.2925 130.28 83.1606 130.468 82.1934C130.655 81.2263 129.984 81.0211 130.441 79.9631C130.898 78.9051 130.497 78.4713 130.113 78.9696C129.729 79.4678 129.371 80.0598 128.489 80.435C127.607 80.8101 127.381 81.6717 127.381 82.4865C127.381 83.3013 125.834 83.5064 125.547 84.1102C125.26 84.7139 125.5 85.8217 124.77 86.4841C124.04 87.1464 123.331 87.3106 123.287 88.2044C123.243 89.0983 122.171 89.0075 121.725 89.9834C121.28 90.9594 121.775 91.3404 121.18 92.1288C120.585 92.9171 119.421 92.7794 119.334 93.9517C119.246 95.124 118.747 95.5167 117.818 96.3696L122.511 98.5706Z" fill="#CE9E41"/>
<path d="M129.118 81.6981L120.508 97.7207" stroke="#263238" stroke-linecap="round" stroke-linejoin="round"/>
<path d="M121.18 94.321L121.526 95.7893L122.906 95.4435" stroke="#263238" stroke-linecap="round" stroke-linejoin="round"/>
<path d="M122.877 90.7777L123.331 92.4512L124.826 91.8709" stroke="#263238" stroke-linecap="round" stroke-linejoin="round"/>
<path d="M124.422 87.7326L124.988 89.4823L126.514 88.8521" stroke="#263238" stroke-linecap="round" stroke-linejoin="round"/>
<path d="M126.137 84.9396L126.626 86.4372L127.892 85.8276" stroke="#263238" stroke-linecap="round" stroke-linejoin="round"/>
<path opacity="0.2" d="M122.511 98.5706C122.511 98.5706 122.44 97.7324 122.856 97.3543C123.273 96.9763 124.061 96.7301 124.354 96.0267C124.647 95.3233 124.152 94.4822 124.972 93.6645C125.793 92.8468 125.852 93.0314 126.01 91.6422C126.168 90.2531 127.112 90.3205 127.449 89.5409C127.786 88.7613 127.296 87.8176 128.328 86.7127C129.36 85.6078 128.741 84.4413 129.266 83.8669C129.791 83.2925 130.28 83.1606 130.468 82.1934C130.655 81.2263 129.984 81.0211 130.441 79.9631C130.898 78.9051 130.497 78.4713 130.113 78.9696C129.729 79.4678 129.371 80.0598 128.489 80.435C127.607 80.8101 127.381 81.6717 127.381 82.4865C127.381 83.3013 125.834 83.5064 125.547 84.1102C125.26 84.7139 125.5 85.8217 124.77 86.4841C124.04 87.1464 123.331 87.3106 123.287 88.2044C123.243 89.0983 122.171 89.0075 121.725 89.9834C121.28 90.9594 121.775 91.3404 121.18 92.1288C120.585 92.9171 119.421 92.7794 119.334 93.9517C119.246 95.124 118.747 95.5167 117.818 96.3696L122.511 98.5706Z" fill="black"/>
<path d="M15.4171 94.2565C15.4171 94.2565 14.0513 93.6411 14.0103 92.4365C13.981 91.6247 14.2418 90.3469 13.7172 89.3709C13.1926 88.395 11.8093 88.1722 11.6657 86.5105C11.5221 84.8487 11.7595 84.9572 10.3703 83.4889C8.98109 82.0205 9.91308 81.0446 9.3533 79.9602C8.79352 78.8758 7.30176 78.5446 7.00868 76.3759C6.7156 74.2071 4.85749 73.8232 4.70509 72.7095C4.55269 71.5958 4.85163 70.9275 3.94602 69.8285C3.04041 68.7295 2.20514 69.2922 1.43727 67.8033C0.66941 66.3145 -0.171723 66.3643 0.030501 67.2524C0.232725 68.1404 0.560971 69.0812 0.17704 70.4205C-0.206892 71.7599 0.531664 72.7915 1.44314 73.5477C2.35461 74.3038 1.15006 76.2088 1.56037 77.088C1.97067 77.9673 3.42434 78.7146 3.48882 80.139C3.55329 81.5633 3.08437 82.5012 4.0398 83.3628C4.99524 84.2245 3.90499 85.347 4.57907 86.7449C5.25314 88.1429 6.14117 87.9378 6.46649 89.3299C6.7918 90.722 5.58725 91.8738 6.79766 93.0637C8.00807 94.2536 8.01101 95.1504 8.09307 96.9792L15.4171 94.2565Z" fill="#CE9E41"/>
<path d="M1.66016 70.0336L11.9999 95.4376" stroke="#263238" stroke-linecap="round" stroke-linejoin="round"/>
<path d="M8.69141 91.3931L10.7342 92.4013L11.6574 90.4641" stroke="#263238" stroke-linecap="round" stroke-linejoin="round"/>
<path d="M6.20898 86.0152L8.58584 87.0966L9.35371 84.7989" stroke="#263238" stroke-linecap="round" stroke-linejoin="round"/>
<path d="M4.1543 81.2908L6.73045 82.3165L7.46607 79.9397" stroke="#263238" stroke-linecap="round" stroke-linejoin="round"/>
<path d="M2.55664 76.6132L4.76645 77.4866L5.2764 75.4321" stroke="#263238" stroke-linecap="round" stroke-linejoin="round"/>
<path opacity="0.2" d="M15.4171 94.2565C15.4171 94.2565 14.0513 93.6411 14.0103 92.4365C13.981 91.6247 14.2418 90.3469 13.7172 89.3709C13.1926 88.395 11.8093 88.1722 11.6657 86.5105C11.5221 84.8487 11.7595 84.9572 10.3703 83.4889C8.98109 82.0205 9.91308 81.0446 9.3533 79.9602C8.79352 78.8758 7.30176 78.5446 7.00868 76.3759C6.7156 74.2071 4.85749 73.8232 4.70509 72.7095C4.55269 71.5958 4.85163 70.9275 3.94602 69.8285C3.04041 68.7295 2.20514 69.2922 1.43727 67.8033C0.66941 66.3145 -0.171723 66.3643 0.030501 67.2524C0.232725 68.1404 0.560971 69.0812 0.17704 70.4205C-0.206892 71.7599 0.531664 72.7915 1.44314 73.5477C2.35461 74.3038 1.15006 76.2088 1.56037 77.088C1.97067 77.9673 3.42434 78.7146 3.48882 80.139C3.55329 81.5633 3.08437 82.5012 4.0398 83.3628C4.99524 84.2245 3.90499 85.347 4.57907 86.7449C5.25314 88.1429 6.14117 87.9378 6.46649 89.3299C6.7918 90.722 5.58725 91.8738 6.79766 93.0637C8.00807 94.2536 8.01101 95.1504 8.09307 96.9792L15.4171 94.2565Z" fill="black"/>
<path d="M117.552 91.8415C117.552 91.8415 117.177 90.9975 117.593 90.552C118.009 90.1065 118.836 89.5848 119.09 88.7935C119.345 88.0022 118.736 87.1435 119.545 86.191C120.354 85.2385 120.424 85.4319 120.486 83.9197C120.547 82.4074 121.558 82.3986 121.851 81.5281C122.144 80.6577 121.535 79.6847 122.549 78.401C123.563 77.1173 122.792 75.9157 123.311 75.2533C123.83 74.591 124.34 74.4005 124.457 73.3396C124.574 72.2786 123.832 72.1291 124.231 70.9392C124.63 69.7493 124.161 69.3244 123.791 69.8988C123.422 70.4733 123.085 71.1356 122.168 71.6309C121.25 72.1262 121.083 73.0611 121.157 73.9404C121.23 74.8196 119.58 75.1771 119.322 75.8542C119.064 76.5312 119.425 77.7035 118.695 78.4919C117.965 79.2802 117.229 79.5088 117.25 80.476C117.27 81.4431 116.116 81.4402 115.72 82.5275C115.324 83.6149 115.896 83.9929 115.322 84.8897C114.747 85.7866 113.496 85.7455 113.493 87.0175C113.49 88.2894 113.012 88.7584 112.074 89.7578L117.552 91.8415Z" fill="#CE9E41"/>
<path opacity="0.2" d="M117.552 91.8415C117.552 91.8415 117.177 90.9975 117.593 90.552C118.009 90.1065 118.836 89.5848 119.09 88.7935C119.345 88.0022 118.736 87.1435 119.545 86.191C120.354 85.2385 120.424 85.4319 120.486 83.9197C120.547 82.4074 121.558 82.3986 121.851 81.5281C122.144 80.6577 121.535 79.6847 122.549 78.401C123.563 77.1173 122.792 75.9157 123.311 75.2533C123.83 74.591 124.34 74.4005 124.457 73.3396C124.574 72.2786 123.832 72.1291 124.231 70.9392C124.63 69.7493 124.161 69.3244 123.791 69.8988C123.422 70.4733 123.085 71.1356 122.168 71.6309C121.25 72.1262 121.083 73.0611 121.157 73.9404C121.23 74.8196 119.58 75.1771 119.322 75.8542C119.064 76.5312 119.425 77.7035 118.695 78.4919C117.965 79.2802 117.229 79.5088 117.25 80.476C117.27 81.4431 116.116 81.4402 115.72 82.5275C115.324 83.6149 115.896 83.9929 115.322 84.8897C114.747 85.7866 113.496 85.7455 113.493 87.0175C113.49 88.2894 113.012 88.7584 112.074 89.7578L117.552 91.8415Z" fill="black"/>
<path d="M123.193 72.1028L114.99 90.9096" stroke="#263238" stroke-linecap="round" stroke-linejoin="round"/>
<path d="M115.43 87.0263L115.954 88.647L117.472 88.1283" stroke="#263238" stroke-linecap="round" stroke-linejoin="round"/>
<path d="M117.01 82.8851L117.675 84.7256L119.305 83.9343" stroke="#263238" stroke-linecap="round" stroke-linejoin="round"/>
<path d="M118.469 79.3183L119.266 81.2351L120.922 80.3881" stroke="#263238" stroke-linecap="round" stroke-linejoin="round"/>
<path d="M120.137 76.0212L120.825 77.6595L122.191 76.8594" stroke="#263238" stroke-linecap="round" stroke-linejoin="round"/>
<path d="M55.3008 26.3827L97.3838 26.3035C97.3838 26.3035 96.7595 23.4138 94.6523 23.3376C92.5451 23.2614 92.7004 22.2444 92.7004 20.6823C92.7004 19.1202 90.6694 17.6372 89.7315 17.7926C89.7315 17.7926 88.486 12.0834 83.7235 12.0834C78.9609 12.0834 77.3959 13.8888 76.8508 16.4649C76.3057 19.0411 74.7406 19.51 73.7266 19.0411C72.7125 18.5722 70.7606 18.5722 70.2917 20.8376C69.8228 23.1031 68.9641 23.6483 67.402 22.8687C65.8399 22.0891 63.419 21.8517 62.4196 23.4929C61.4202 25.1342 59.9197 24.8206 58.8265 24.4278C57.7333 24.0351 55.4561 25.3657 55.3008 26.3827Z" fill="white"/>
<path d="M38.7126 38.012H5.36328C5.51294 37.6148 5.79231 37.2798 6.15615 37.0611C6.51998 36.8425 6.94696 36.7531 7.36793 36.8074C7.36793 36.8074 6.16338 33.0297 9.68325 32.0303C11.4857 31.5174 13.7394 33.9558 15.0935 33.4341C16.4475 32.9124 17.8513 29.3926 20.6092 30.1575C22.3676 30.647 22.9538 32.6545 24.3547 32.6545C25.7556 32.6545 26.9543 31.7167 27.8394 33.1235C28.7245 34.5302 29.3488 34.5273 31.6904 34.5273C34.0321 34.5273 34.4483 36.8162 34.4483 36.8162C34.4483 36.8162 37.6722 35.8286 38.7126 38.012Z" fill="white"/>
<path d="M106.133 40.9076H132.999C132.879 40.5874 132.654 40.3172 132.361 40.1411C132.068 39.965 131.724 39.8932 131.384 39.9375C131.384 39.9375 132.354 36.8924 129.52 36.0865C128.055 35.6762 126.25 37.6398 125.162 37.2178C124.075 36.7957 122.95 33.9617 120.719 34.5801C119.289 34.9728 118.832 36.5906 117.701 36.5906C116.569 36.5906 115.605 35.8374 114.893 36.9686C114.181 38.0999 113.677 38.0999 111.792 38.0999C109.908 38.0999 109.571 39.9434 109.571 39.9434C109.571 39.9434 106.971 39.1462 106.133 40.9076Z" fill="white"/>
<path d="M82.9448 57.1939L83.1998 58.9524L114.609 58.6974L114.316 56.6869L114.023 56.6166L111.857 48.0148C111.857 48.0148 112.37 47.9854 112.37 47.1795C112.37 46.3735 111.098 46.438 111.098 46.438L82.4319 46.227L75.7527 39.9932L74.6478 39.6532L49.6922 39.5155L48.2503 40.0665L19.1389 55.0134C18.5504 55.4512 18.1511 56.0968 18.0222 56.8188C17.7614 58.0878 17.143 65.7196 17.143 65.7196L15.9707 76.1942L16.0117 77.4046L18.2508 90.4319L20.4489 89.6318C20.4489 89.6318 20.9618 80.6226 25.5455 77.7445C30.1293 74.8665 34.8215 76.1443 38.5172 84.459L64.0325 72.982C64.0325 72.982 62.362 63.3867 66.6702 58.6974C70.9784 54.0082 76.6348 56.6664 78.2556 57.9472L82.9448 57.1939Z" fill="#CE9E41"/>
<path opacity="0.3" d="M56.7007 52.9091L49.6932 39.5155L19.2835 54.9783C19.2835 54.9783 18.1932 55.3915 17.9852 57.4577C17.7771 59.5239 15.8809 76.4726 15.8809 76.4726L18.1727 90.4817L20.4675 89.7461C20.4675 89.7461 21.4376 78.4626 27.8736 76.6748C34.3096 74.887 38.5709 84.5733 38.5709 84.5733L64.0921 72.8238C64.0921 72.8238 62.8319 66.4816 65.2439 61.1769C67.656 55.8722 74.0626 55.1834 77.7818 57.9384L82.5883 57.2467L79.9506 46.1801L56.7007 52.9091Z" fill="black"/>
<path d="M107.719 60.1306C107.719 60.1306 112.062 59.9723 114.753 65.1569C116.722 68.9405 117.097 73.9638 115.183 77.8852C113.035 82.2814 107.452 84.3329 102.848 83.0463C97.1211 81.4402 95.1927 73.3748 95.8726 68.2049L107.719 60.1306Z" fill="#263238" stroke="#263238" stroke-miterlimit="10"/>
<path opacity="0.3" d="M107.716 60.1159C107.716 60.1159 112.056 59.9606 114.75 65.1422C116.716 68.9288 117.094 73.9521 115.178 77.8706C113.029 82.2667 107.446 84.3183 102.842 83.0346C97.1152 81.4256 95.1868 73.363 95.8667 68.1931L107.716 60.1159Z" fill="white" stroke="#263238" stroke-miterlimit="10"/>
<path d="M68.3768 71.4434C68.3768 71.4434 71.9876 71.3144 74.2384 75.6256C75.8767 78.7732 76.1903 82.9525 74.5959 86.2116C72.8111 89.8662 68.1658 91.5807 64.3382 90.5051C59.5757 89.1687 57.9726 82.466 58.5382 78.1607L68.3768 71.4434Z" fill="#263238"/>
<path opacity="0.3" d="M68.3739 71.4346C68.3739 71.4346 71.9817 71.3056 74.2355 75.6139C75.8738 78.7615 76.1874 82.9408 74.593 86.1998C73.5995 88.1307 71.887 89.5938 69.8246 90.2736C68.0597 90.903 66.1449 90.9796 64.3353 90.4934C59.5699 89.157 57.9667 82.4543 58.5324 78.1519L68.3739 71.4346Z" fill="#263238"/>
<path d="M20.4902 89.6933C20.6895 87.0234 21.8091 78.3073 27.8787 76.6748C35.0679 74.7434 38.5761 84.5733 38.5761 84.5733L64.0328 73.1139C64.0328 73.1139 62.2743 62.7155 67.242 58.2549C72.2096 53.7942 78.2529 57.9618 78.2529 57.9618L82.5934 57.2555" stroke="#263238" stroke-linecap="round" stroke-linejoin="round"/>
<path d="M78.7835 82.5979C75.7941 82.3185 72.8682 82.1397 70.0058 82.0616H69.8739C67.9601 80.1917 66.4889 77.2903 65.9613 73.8906C64.9678 67.5015 67.6729 61.7777 72.0046 61.1036C76.3363 60.4295 80.6504 65.0631 81.6439 71.4492C82.362 76.0535 81.1574 80.3236 78.7835 82.5979Z" fill="#263238"/>
<path d="M109.387 77.6713C107.766 80.731 105.245 81.663 103.138 81.4813C100.436 81.2644 97.4876 78.9139 96.6904 76.329C95.7379 73.2868 95.6969 69.808 95.6969 69.808L86.2276 74.1133C85.4128 65.321 81.6702 62.0532 79.6949 60.9248C79.0485 60.5612 78.31 60.3942 77.5701 60.4442C72.1892 60.7724 67.2361 60.9717 65.9759 68.9434C65.6541 71.2908 65.8493 73.6802 66.5479 75.9442C67.2466 78.2082 68.4317 80.292 70.0204 82.0499C59.185 81.7369 48.3502 82.6949 37.7379 84.9044C34.7837 78.7293 30.7304 76.5048 27.1695 78.0933C22.7147 80.0804 22.0406 89.4677 22.0406 89.4677L20.4023 89.6318C20.9182 83.8464 23.0664 77.5247 28.9602 76.4433C34.854 75.3618 38.5702 84.5674 38.5702 84.5674L64.0914 72.8179C63.5229 70.0659 62.711 61.5667 68.0245 57.4167C72.2185 54.143 78.2471 57.9442 78.2471 57.9442L82.6784 56.9536L83.2001 58.9348L114.026 58.7883L106.509 63.8585C109.36 65.8749 112.578 71.6397 109.387 77.6713Z" fill="#263238"/>
<path d="M16.7595 68.4423L15.8803 76.4726L17.586 86.9765C17.586 86.9765 13.2396 83.5123 12.8704 77.8471C12.5011 72.1819 16.7595 68.4423 16.7595 68.4423Z" fill="#263238"/>
<path d="M18.2342 90.511L15.9922 76.5312L18.0232 56.8217C18.0634 56.4339 18.1997 56.0622 18.4198 55.7403C18.6398 55.4185 18.9367 55.1565 19.2834 54.9783L49.4411 39.5155L74.259 39.6357C74.9286 39.6389 75.5719 39.8966 76.0585 40.3566L82.1867 46.142" stroke="#263238" stroke-linecap="round" stroke-linejoin="round"/>
<path d="M30.9792 69.8432L15.9941 76.5283" stroke="#263238" stroke-linecap="round" stroke-linejoin="round"/>
<path d="M34.5058 68.2664L32.0352 69.3713" stroke="#263238" stroke-linecap="round" stroke-linejoin="round"/>
<path d="M40.2402 65.6228L37.7695 66.7248" stroke="#263238" stroke-linecap="round" stroke-linejoin="round"/>
<path d="M49.4782 39.536L56.6498 52.7802L59.818 70.5905L42.5059 78.3219" stroke="#263238" stroke-linecap="round" stroke-linejoin="round"/>
<path d="M34.1719 47.4755L36.3113 67.5103L40.7192 74.5969" stroke="#263238" stroke-linecap="round" stroke-linejoin="round"/>
<path d="M82.5324 47.7217L111.588 48.0148C111.763 48.0147 111.933 47.9547 112.069 47.8448V47.8448C112.146 47.7807 112.21 47.7017 112.257 47.6124C112.303 47.5231 112.331 47.4254 112.339 47.325C112.347 47.2246 112.335 47.1237 112.303 47.0282C112.271 46.9327 112.22 46.8446 112.154 46.7692L112.083 46.69C112.014 46.6114 111.929 46.5483 111.833 46.5048C111.738 46.4614 111.634 46.4386 111.529 46.438L79.9592 46.1713C79.8168 46.1712 79.6746 46.183 79.5342 46.2065L58.4766 52.2497" stroke="#263238" stroke-linecap="round" stroke-linejoin="round"/>
<path d="M82.7461 57.0709L83.1564 58.8323L114.609 58.6857L114.319 56.6752L82.7461 57.0709Z" stroke="#263238" stroke-linecap="round" stroke-linejoin="round"/>
<path d="M85.5975 56.9243L83.4141 47.6191" stroke="#263238" stroke-miterlimit="10"/>
<path d="M84.7176 56.9859L82.5137 47.6865" stroke="#263238" stroke-miterlimit="10"/>
<path d="M113.897 56.5902L111.857 48.0265" stroke="#263238" stroke-miterlimit="10"/>
<path d="M111.043 47.9532L113.185 56.6517" stroke="#263238" stroke-miterlimit="10"/>
<path opacity="0.3" d="M89.9653 47.8448L92.096 56.939L85.5955 56.9243L83.4648 47.8272L89.9653 47.8448Z" fill="black"/>
<path d="M89.885 52.1178C90.2367 53.5334 89.6798 54.8874 88.6423 55.1453C87.6049 55.4032 86.4824 54.4625 86.1336 53.0469C85.7848 51.6313 86.3388 50.2773 87.3763 50.0194C88.4137 49.7615 89.5362 50.7081 89.885 52.1178Z" fill="#263238"/>
<path opacity="0.3" d="M105.623 47.9767L107.979 56.7016H113.088L111.095 48.1349L105.623 47.9767Z" fill="black"/>
<path d="M110.808 51.9742C111.101 53.1817 110.632 54.3364 109.747 54.5562C108.862 54.7761 107.904 53.9701 107.605 52.7655C107.306 51.561 107.784 50.4033 108.666 50.1835C109.548 49.9637 110.509 50.7668 110.808 51.9742Z" fill="#263238"/>
<path opacity="0.2" d="M89.5359 52.2087C89.829 53.3605 89.3659 54.4625 88.5248 54.6735C87.6836 54.8845 86.7663 54.1166 86.4732 52.9648C86.1802 51.813 86.6403 50.7111 87.4843 50.503C88.3284 50.2949 89.2516 51.0598 89.5359 52.2087Z" fill="white"/>
<path opacity="0.2" d="M110.594 52.027C110.855 53.0733 110.441 54.0785 109.677 54.2661C108.912 54.4537 108.079 53.7591 107.818 52.7128C107.558 51.6665 107.971 50.6612 108.739 50.4766C109.507 50.292 110.336 50.9807 110.594 52.027Z" fill="white"/>
<path d="M90.9994 47.8272L91.5621 50.2392L105.117 50.4444L104.443 47.9766H105.624L107.98 56.7016L106.744 56.7192L105.668 52.7685L92.0955 52.8564L93.0392 56.9038L92.0955 56.939L89.9648 47.8448L90.9994 47.8272Z" stroke="#263238" stroke-linecap="round" stroke-linejoin="round"/>
<path d="M32.623 53.6389L32.6523 64.0051L19.5254 70.4909L19.9035 59.3246C19.9139 58.9603 20.0213 58.6054 20.2145 58.2963C20.4076 57.9872 20.6796 57.7352 21.0025 57.5662L30.7473 52.4988C30.9433 52.3988 31.1615 52.3506 31.3814 52.3588C31.6012 52.367 31.8153 52.4312 32.0033 52.5455C32.1913 52.6598 32.3469 52.8202 32.4554 53.0116C32.5639 53.203 32.6216 53.4189 32.623 53.6389Z" fill="#263238"/>
<path d="M54.8802 53.0235L37.7821 61.4143L36.3167 50.9104C36.2573 50.4862 36.3322 50.054 36.5309 49.6745C36.7296 49.295 37.0421 48.9873 37.4245 48.7943L47.5767 43.6772C48.0535 43.4367 48.6052 43.3916 49.1147 43.5514C49.6242 43.7112 50.0513 44.0633 50.3053 44.533L54.8802 53.0235Z" fill="#263238"/>
<path d="M80.9439 46.1684H79.7716L58.4707 52.3083L53.6086 43.5453C53.5033 43.3585 53.4399 43.1509 53.4227 42.9371C53.4056 42.7233 53.4351 42.5084 53.5092 42.3071C53.5834 42.1058 53.7004 41.9231 53.8521 41.7715C54.0039 41.62 54.1868 41.5032 54.3882 41.4293C54.5474 41.369 54.7161 41.3372 54.8864 41.3355L74.7219 41.1128H74.7893C75.1323 41.1223 75.4611 41.252 75.7184 41.4791L80.9469 46.1684" fill="#263238"/>
<path d="M81.0903 46.1918L79.6836 46.098L78.394 46.5376C70.522 39.5712 61.7736 42.2265 61.7736 42.2265L63.4119 45.3917C58.7754 41.3765 54.2737 42.2968 53.4473 42.7188C53.4517 42.419 53.5467 42.1276 53.7199 41.8828C53.893 41.638 54.1361 41.4513 54.4174 41.3472L74.8185 41.0336H75.3284L75.7475 41.4088L81.0903 46.1918Z" fill="white"/>
<path opacity="0.2" d="M80.9439 46.1684H79.7716L58.4707 52.3083L53.6086 43.5453C53.5033 43.3585 53.4399 43.1509 53.4227 42.9371C53.4056 42.7233 53.4351 42.5084 53.5092 42.3071C53.5834 42.1058 53.7004 41.9231 53.8521 41.7715C54.0039 41.62 54.1868 41.5032 54.3882 41.4293C54.5474 41.369 54.7161 41.3372 54.8864 41.3355L74.7219 41.1128H74.7893C75.1323 41.1223 75.4611 41.252 75.7184 41.4791L80.9469 46.1684" fill="white"/>
<path d="M80.9439 46.1684H79.7716L58.4707 52.3083L53.6086 43.5453C53.5033 43.3585 53.4399 43.1509 53.4227 42.9371C53.4056 42.7233 53.4351 42.5084 53.5092 42.3071C53.5834 42.1058 53.7004 41.9231 53.8521 41.7715C54.0039 41.62 54.1868 41.5032 54.3882 41.4293C54.5474 41.369 54.7161 41.3372 54.8864 41.3355L74.7219 41.1128H74.7893C75.1323 41.1223 75.4611 41.252 75.7184 41.4791V41.4791L80.9469 46.1684" stroke="#263238" stroke-linecap="round" stroke-linejoin="round"/>
<path opacity="0.33" d="M80.0059 66.2999L83.8628 65.0133C85.2625 67.8275 85.987 70.9292 85.9788 74.0723L81.9079 74.6584C81.9079 74.6584 81.7673 70.2183 80.0059 66.2999Z" fill="black"/>
<path opacity="0.33" d="M108.82 66.3262L114.295 64.3421C114.295 64.3421 117.812 69.4534 115.933 75.5113L109.955 76.4433C109.955 76.4433 112.073 71.2294 108.82 66.3262Z" fill="black"/>
<path opacity="0.3" d="M25.5668 51.8072C25.5668 51.8072 20.3207 54.738 19.1542 56.0949C17.9878 57.4519 16.7188 68.8233 16.7188 68.8233C16.7188 68.8233 17.4925 56.7455 18.5182 55.6172C19.544 54.4888 25.5668 51.8072 25.5668 51.8072Z" fill="black"/>
<path opacity="0.3" d="M59.4385 68.4423L39.3275 77.7094C39.3275 77.7094 34.4507 72.6362 27.7949 75.4322C27.7949 75.4322 35.16 73.9844 39.0081 79.9397L59.8166 70.5905L59.4385 68.4423Z" fill="black"/>
<path opacity="0.3" d="M16.293 74.9808L39.6894 64.4535L42.5059 64.7114L16.1992 76.3114L16.293 74.9808Z" fill="black"/>
<path opacity="0.3" d="M104.443 47.9766L105.118 50.4444L91.5627 50.2392L91 47.8272L104.443 47.9766Z" fill="black"/>
<path opacity="0.3" d="M105.668 52.7685L106.744 56.7192L93.0394 56.9038L92.0957 52.8564L105.668 52.7685Z" fill="black"/>
<path d="M75.1725 84.0428C75.0875 84.0135 75.2721 81.622 75.2399 81.4725C74.9585 80.1595 74.6752 78.8465 74.39 77.5335C74.0461 75.9353 73.7012 74.338 73.3554 72.7417L72.3179 67.944L71.4563 63.9465L70.9492 61.6018C70.9287 61.5022 70.9082 61.4055 70.8848 61.3088L77.9802 60.2126C77.9802 60.2126 83.8417 61.1212 85.5445 69.8256C86.4237 74.2745 86.0222 77.1232 85.4624 78.8113C85.187 79.6408 84.9232 80.4878 84.3224 81.156C82.6313 83.0199 80.5798 83.5328 77.5171 83.8494C76.9163 83.8845 75.7792 84.0281 75.1725 84.0428Z" fill="#263238" stroke="#263238" stroke-miterlimit="10"/>
<path opacity="0.3" d="M80.0061 83.4273C78.8338 83.7585 75.8444 83.9812 75.777 83.9695L73.1627 71.8537C72.7173 69.7846 72.2708 67.7135 71.8234 65.6404C71.6006 64.6069 71.3769 63.5713 71.1522 62.5338C71.0995 62.2847 71.0467 62.0356 70.991 61.7865C70.9207 61.4553 70.8035 61.3527 71.1346 61.2589C71.7208 61.0889 72.4183 61.086 72.9986 60.9659L75.5924 60.535C76.4452 60.4823 77.3508 60.198 78.2301 60.3035C78.7838 60.3896 79.3166 60.5785 79.801 60.8603C81.5815 61.8795 83.0282 63.3934 83.9656 65.2184C85.1613 67.4429 85.7065 69.978 85.9673 72.4721C86.1769 74.3871 86.0649 76.3236 85.6361 78.2017C85.3724 79.336 84.9005 80.7017 83.9246 81.4959C82.6233 82.551 81.7441 82.9379 80.0061 83.4273Z" fill="white" stroke="#263238" stroke-miterlimit="10"/>
<path d="M78.7835 82.5979C76.732 84.5645 72.5204 84.7081 70.0058 82.0616C69.9765 82.0293 66.4889 77.2873 65.9613 73.8876C64.9678 67.4986 67.6729 61.7747 72.0046 61.1007C76.3363 60.4266 80.6504 65.0602 81.6439 71.4463C82.362 76.0535 81.1574 80.3236 78.7835 82.5979Z" fill="#263238" stroke="#263238" stroke-miterlimit="10"/>
<path opacity="0.1" d="M78.8423 82.6184C75.7445 85.5932 70.7739 83.3716 69.8742 82.0499C67.9604 80.18 66.5477 77.3049 66.0202 73.9082C65.0384 67.5191 67.7318 61.7894 72.0722 61.1212C76.4127 60.453 80.718 65.0807 81.7116 71.4668C82.4208 76.0828 81.2075 80.3529 78.8423 82.6184Z" fill="white" stroke="#263238" stroke-miterlimit="10"/>
<path d="M75.8593 77.9409C75.6401 78.0882 75.4027 78.2064 75.153 78.2926C72.9608 79.0429 70.4872 76.9825 69.6314 73.6913C68.7756 70.4 69.8542 67.1293 72.0464 66.3819C72.3892 66.2646 72.7513 66.2138 73.1132 66.2325C74.9889 66.3233 76.8499 68.2195 77.568 70.9803C78.33 73.8964 77.568 76.795 75.8593 77.9409Z" fill="#263238" stroke="#263238" stroke-miterlimit="10"/>
<path d="M75.883 78.0786C75.6616 78.2299 75.4211 78.3511 75.1679 78.4391C72.9493 79.1953 70.4464 77.1115 69.5789 73.7821C68.7114 70.4528 69.8045 67.141 72.0231 66.3849C72.3696 66.2654 72.7357 66.2136 73.1017 66.2325C75.0008 66.3262 76.8824 68.243 77.6121 71.0389C78.3859 73.9873 77.618 76.9239 75.883 78.0786Z" fill="#263238" stroke="#263238" stroke-miterlimit="10"/>
<path opacity="0.3" d="M75.9139 78.0874C75.6917 78.2366 75.4514 78.3568 75.1988 78.445C72.9802 79.2041 70.4773 77.1203 69.6098 73.788C68.7422 70.4557 69.8384 67.1498 72.054 66.3907C72.4016 66.2721 72.7688 66.2214 73.1355 66.2413C75.0346 66.3321 76.9133 68.2488 77.643 71.0448C78.4138 73.9932 77.6401 76.9298 75.9139 78.0874Z" fill="white" stroke="#263238" stroke-miterlimit="10"/>
<path d="M75.8595 78.0054C73.9809 77.9175 72.1199 76.0212 71.3989 73.2575C70.6369 70.3443 71.3989 67.4399 73.1134 66.2999C74.9891 66.3907 76.8472 68.284 77.5682 71.0477C78.3272 73.9609 77.5682 76.8624 75.8595 78.0054Z" fill="#263238"/>
<path d="M74.7873 76.2758C76.1177 75.9652 76.7914 73.9795 76.292 71.8405C75.7927 69.7016 74.3095 68.2194 72.9791 68.5299C71.6488 68.8405 70.9751 70.8262 71.4744 72.9652C71.9737 75.1041 73.457 76.5863 74.7873 76.2758Z" fill="#263238" stroke="#263238" stroke-miterlimit="10"/>
<path opacity="0.4" d="M74.7873 76.2758C76.1177 75.9652 76.7914 73.9795 76.292 71.8405C75.7927 69.7016 74.3095 68.2194 72.9791 68.5299C71.6488 68.8405 70.9751 70.8262 71.4744 72.9652C71.9737 75.1041 73.457 76.5863 74.7873 76.2758Z" fill="white"/>
<path d="M34.1387 98.9341C34.8238 98.7993 35.4888 98.5767 36.1169 98.2717C38.9217 96.8474 41.3923 95.2032 42.3536 91.9266C43.1098 89.3152 42.7171 86.0386 42.0137 83.4684L38.4967 84.7491L37.3244 83.2134C37.3244 83.2134 40.264 95.0596 34.1387 98.9341Z" fill="#263238"/>
<path d="M38.1046 84.9425C38.1046 84.9425 33.8345 76.0535 27.926 77.6713C22.0176 79.2891 21.9766 88.946 21.9766 88.946C21.9766 88.946 23.0434 100.499 32.035 99.4968C39.403 98.682 38.6966 88.7672 38.1046 84.9425Z" fill="#263238"/>
<path opacity="0.1" d="M36.0743 81.6161C34.7466 79.588 32.8504 78.0113 30.3534 77.5628C29.5467 77.4174 28.7177 77.4534 27.9267 77.6683C24.9959 78.4684 23.0616 81.3816 22.3114 84.0955C21.3383 87.6125 22.2791 92.3017 24.3219 95.4376C26.1067 98.1779 28.718 99.8983 32.0357 99.4997C37.8357 98.7992 39.2014 92.0409 38.2108 87.0117C37.8477 85.0938 37.1226 83.2626 36.0743 81.6161Z" fill="white" stroke="#263238" stroke-miterlimit="10"/>
<path d="M32.457 94.0426C32.2381 94.1904 32.0006 94.3086 31.7507 94.3943C29.5584 95.1446 27.0849 93.0842 26.2291 89.793C25.3733 86.5017 26.4518 83.231 28.644 82.4836C28.9866 82.365 29.3489 82.3143 29.7108 82.3341C31.5895 82.425 33.4476 84.3183 34.1686 87.082C34.9276 89.9952 34.1656 92.8967 32.457 94.0426Z" fill="#263238" stroke="#263238" stroke-miterlimit="10"/>
<path d="M32.4861 94.1803C32.2652 94.3316 32.0246 94.4519 31.771 94.5379C29.5524 95.297 27.0495 93.2132 26.182 89.8838C25.3145 86.5545 26.4106 83.2427 28.6263 82.4865C28.9734 82.3656 29.3408 82.3138 29.7077 82.3341C31.6069 82.4279 33.4885 84.3446 34.2153 87.1377C34.9861 90.089 34.2153 93.0227 32.4861 94.1803Z" fill="#263238" stroke="#263238" stroke-miterlimit="10"/>
<path opacity="0.3" d="M32.5057 94.1891C32.2838 94.3389 32.0434 94.4591 31.7905 94.5467C29.5719 95.3028 27.0691 93.2191 26.2016 89.8897C25.334 86.5603 26.4302 83.2515 28.6458 82.4924C28.9931 82.3724 29.3605 82.3216 29.7273 82.3429C31.6264 82.4338 33.508 84.3505 34.2348 87.1465C35.0115 90.0948 34.2407 93.0315 32.5057 94.1891Z" fill="white" stroke="#263238" stroke-miterlimit="10"/>
<path d="M32.3624 94.195C30.2815 94.1071 28.0893 92.1434 27.295 89.3739C26.4598 86.4607 27.3126 83.5563 29.2118 82.4103C31.8084 82.4103 33.3471 84.3886 34.1384 87.1494C34.9737 90.0597 34.2644 93.0461 32.3624 94.195Z" fill="#263238"/>
<path d="M33.4485 87.8323C33.9497 89.9717 33.2756 91.9588 31.945 92.2695C30.6145 92.5801 29.1315 91.0972 28.6333 88.9577C28.135 86.8182 28.8062 84.8312 30.1368 84.5205C31.4673 84.2098 32.9503 85.6928 33.4485 87.8323Z" fill="#263238" stroke="#263238" stroke-miterlimit="10"/>
<path opacity="0.4" d="M31.3323 91.9777C32.6626 91.6672 33.3363 89.6814 32.837 87.5425C32.3376 85.4035 30.8544 83.9213 29.524 84.2319C28.1937 84.5424 27.52 86.5281 28.0193 88.6671C28.5187 90.8061 30.0019 92.2883 31.3323 91.9777Z" fill="white"/>
<path d="M106.096 71.7746C106.65 74.9163 105.436 77.7563 103.382 78.1197C101.327 78.4831 99.2171 76.2293 98.6602 73.0875C98.1034 69.9457 99.3226 67.1088 101.374 66.7453C103.426 66.3819 105.542 68.6357 106.096 71.7746Z" fill="#263238" stroke="#263238" stroke-miterlimit="10"/>
<path d="M128.45 96.5718C110.669 88.8404 94.1423 84.4033 80.0452 82.891C79.7385 82.8578 79.4307 82.8285 79.122 82.8031C76.1326 82.5237 73.2067 82.3449 70.3444 82.2667H70.2125C59.4261 81.9621 48.6411 82.9182 38.0765 85.1154C36.3649 85.473 34.71 85.8491 33.1118 86.2438C30.6529 86.8505 28.3346 87.4952 26.1688 88.1546C24.2735 88.7408 22.4965 89.327 20.8377 89.9131C20.0561 90.1866 19.3059 90.4582 18.5869 90.7279C10.2781 93.8257 5.60938 96.5894 5.60938 96.5894C35.7378 114.743 95.5842 104.772 119.11 99.5495C125.343 98.1457 128.45 96.5718 128.45 96.5718Z" fill="white"/>
<path d="M50.3588 83.0786C50.2826 85.558 53.3248 86.7918 54.2978 86.8886C60.0802 87.4571 66.2817 86.3258 71.4458 88.9899C73.2482 89.919 74.7986 91.2642 76.4896 92.3867C79.2973 94.2507 82.4713 95.4904 85.66 96.5806C91.0702 98.43 96.7472 99.9071 102.445 99.4499C108.142 98.9927 113.766 96.5367 116.732 91.6511C116.732 91.6511 80.7744 77.006 50.3588 83.0786Z" fill="#263238"/>
<path d="M128.191 96.5601C110.982 88.3891 94.6396 84.3564 79.7864 82.8734L78.8633 82.7855C75.8739 82.508 72.948 82.3292 70.0856 82.2491H69.9537C59.1621 81.9463 48.3721 82.9053 37.8031 85.1066C36.0915 85.4642 34.4366 85.8403 32.8383 86.235C30.3794 86.8417 28.0612 87.4864 25.8953 88.1459C24.0001 88.732 22.2231 89.3182 20.5643 89.9043C19.7827 90.1759 19.0324 90.4475 18.3134 90.7191C10.0047 93.8169 5.33594 96.5806 5.33594 96.5806" stroke="#263238" stroke-linecap="round" stroke-linejoin="round"/>
</svg>
