<svg width="133" height="100" viewBox="0 0 133 100" fill="none" xmlns="http://www.w3.org/2000/svg">
<path d="M133 87.0884H0V87.1549H133V87.0884Z" fill="#EBEBEB"/>
<path d="M119.673 91.3683H110.863V91.4348H119.673V91.3683Z" fill="#EBEBEB"/>
<path d="M88.1045 92.0919H85.793V92.1584H88.1045V92.0919Z" fill="#EBEBEB"/>
<path d="M110.598 88.8999H105.493V88.9664H110.598V88.8999Z" fill="#EBEBEB"/>
<path d="M25.4426 89.3467H13.9541V89.4132H25.4426V89.3467Z" fill="#EBEBEB"/>
<path d="M29.4963 89.3467H27.8125V89.4132H29.4963V89.3467Z" fill="#EBEBEB"/>
<path d="M59.8896 90.4693H34.9707V90.5358H59.8896V90.4693Z" fill="#EBEBEB"/>
<path d="M63.0422 75.2248H11.6803C11.2779 75.2241 10.8923 75.0638 10.608 74.779C10.3237 74.4942 10.1641 74.1083 10.1641 73.7059V1.50556C10.1676 1.1055 10.3288 0.722982 10.6127 0.441086C10.8965 0.15919 11.2802 0.000685319 11.6803 0H63.0422C63.445 0 63.8314 0.160022 64.1162 0.444864C64.401 0.729705 64.5611 1.11603 64.5611 1.51886V73.7059C64.5611 74.1088 64.401 74.4951 64.1162 74.7799C63.8314 75.0648 63.445 75.2248 63.0422 75.2248ZM11.6803 0.0532002C11.2955 0.0539048 10.9268 0.207231 10.655 0.479525C10.3832 0.751819 10.2306 1.12083 10.2306 1.50556V73.7059C10.2306 74.0907 10.3832 74.4597 10.655 74.732C10.9268 75.0043 11.2955 75.1576 11.6803 75.1583H63.0422C63.4272 75.1576 63.7962 75.0044 64.0684 74.7321C64.3406 74.4599 64.4939 74.0909 64.4946 73.7059V1.50556C64.4939 1.12059 64.3406 0.751581 64.0684 0.479363C63.7962 0.207145 63.4272 0.0539034 63.0422 0.0532002H11.6803Z" fill="#EBEBEB"/>
<path d="M120.581 75.2248H69.2161C68.8135 75.2241 68.4276 75.0639 68.1429 74.7792C67.8582 74.4945 67.698 74.1086 67.6973 73.7059V1.50556C67.7015 1.10526 67.8633 0.722742 68.1476 0.44092C68.4319 0.159097 68.8158 0.000677845 69.2161 0H120.581C120.98 0.0013844 121.363 0.160198 121.647 0.44202C121.93 0.723841 122.091 1.10596 122.094 1.50556V73.7059C122.094 74.1078 121.935 74.4934 121.651 74.7781C121.368 75.0627 120.983 75.2234 120.581 75.2248ZM69.2161 0.0532002C68.8311 0.0539034 68.4621 0.207145 68.1899 0.479363C67.9177 0.751581 67.7645 1.12059 67.7638 1.50556V73.7059C67.7645 74.0909 67.9177 74.4599 68.1899 74.7321C68.4621 75.0044 68.8311 75.1576 69.2161 75.1583H120.581C120.966 75.1576 121.335 75.0044 121.607 74.7321C121.879 74.4599 122.032 74.0909 122.033 73.7059V1.50556C122.032 1.12059 121.879 0.751581 121.607 0.479363C121.335 0.207145 120.966 0.0539034 120.581 0.0532002H69.2161Z" fill="#EBEBEB"/>
<path d="M115.968 87.0884H124.4V72.1605H115.968V87.0884Z" fill="#F0F0F0"/>
<path d="M108.583 87.0884H117.016V75.4349H108.583V87.0884Z" fill="#F0F0F0"/>
<path d="M103.192 87.0884H111.624V65.8323H103.192V87.0884Z" fill="#F0F0F0"/>
<path d="M97.5903 87.0884H106.022V48.5982H97.5903V87.0884Z" fill="#F0F0F0"/>
<path d="M76.7354 87.0884H99.3613V51.5934H76.7354V87.0884Z" fill="#F0F0F0"/>
<path d="M19.2721 73.7299H7.33398V87.0884H19.2721V73.7299Z" fill="#F5F5F5"/>
<path d="M29.7252 76.6585H17.7871V87.0857H29.7252V76.6585Z" fill="#F5F5F5"/>
<path d="M37.36 68.0667H25.4219V87.0884H37.36V68.0667Z" fill="#F5F5F5"/>
<path d="M45.2945 52.6441H33.3564V87.0884H45.2945V52.6441Z" fill="#F5F5F5"/>
<path d="M42.8849 87.0884H62.4199L62.4199 45.0099H42.8849V87.0884Z" fill="#F0F0F0"/>
<path d="M44.7409 51.8966H45.6719V46.7761H44.7409V51.8966Z" fill="#F5F5F5"/>
<path d="M44.7409 59.9005H45.6719V54.78H44.7409V59.9005Z" fill="#F5F5F5"/>
<path d="M44.7409 67.9098H45.6719V62.7893H44.7409V67.9098Z" fill="#F5F5F5"/>
<path d="M44.7409 75.9164H45.6719V70.7959H44.7409V75.9164Z" fill="#F5F5F5"/>
<path d="M44.7409 83.923H45.6719V78.8025H44.7409V83.923Z" fill="#F5F5F5"/>
<path d="M48.0397 51.8966H48.9707V46.7761H48.0397V51.8966Z" fill="#F5F5F5"/>
<path d="M48.0397 59.9005H48.9707V54.78H48.0397V59.9005Z" fill="#F5F5F5"/>
<path d="M48.0397 67.9098H48.9707V62.7893H48.0397V67.9098Z" fill="#F5F5F5"/>
<path d="M48.0397 75.9164H48.9707V70.7959H48.0397V75.9164Z" fill="#F5F5F5"/>
<path d="M48.0397 83.923H48.9707V78.8025H48.0397V83.923Z" fill="#F5F5F5"/>
<path d="M51.3356 51.8966H52.2666V46.7761H51.3356V51.8966Z" fill="#F5F5F5"/>
<path d="M51.3356 59.9005H52.2666V54.78H51.3356V59.9005Z" fill="#F5F5F5"/>
<path d="M51.3356 67.9098H52.2666V62.7893H51.3356V67.9098Z" fill="#F5F5F5"/>
<path d="M51.3356 75.9164H52.2666V70.7959H51.3356V75.9164Z" fill="#F5F5F5"/>
<path d="M51.3356 83.923H52.2666V78.8025H51.3356V83.923Z" fill="#F5F5F5"/>
<path d="M54.6335 51.8966H55.5645V46.7761H54.6335V51.8966Z" fill="#F5F5F5"/>
<path d="M54.6335 59.9005H55.5645V54.78H54.6335V59.9005Z" fill="#F5F5F5"/>
<path d="M54.6335 67.9098H55.5645V62.7893H54.6335V67.9098Z" fill="#F5F5F5"/>
<path d="M54.6335 75.9164H55.5645V70.7959H54.6335V75.9164Z" fill="#F5F5F5"/>
<path d="M54.6335 83.923H55.5645V78.8025H54.6335V83.923Z" fill="#F5F5F5"/>
<path d="M57.9264 51.8966H58.8574V46.7761H57.9264V51.8966Z" fill="#F5F5F5"/>
<path d="M57.9264 59.9005H58.8574V54.78H57.9264V59.9005Z" fill="#F5F5F5"/>
<path d="M57.9264 67.9098H58.8574V62.7893H57.9264V67.9098Z" fill="#F5F5F5"/>
<path d="M57.9264 75.9164H58.8574V70.7959H57.9264V75.9164Z" fill="#F5F5F5"/>
<path d="M57.9264 83.923H58.8574V78.8025H57.9264V83.923Z" fill="#F5F5F5"/>
<path opacity="0.5" d="M62.4201 45.0099H58.3929L56.6426 87.0884H62.4201V45.0099Z" fill="#E0E0E0"/>
<path d="M94.6589 16.0052L70.9609 18.7078V87.0884H94.6589V16.0052Z" fill="#F0F0F0"/>
<path d="M113.62 16.0052H94.6592V87.0884H113.62V16.0052Z" fill="#E6E6E6"/>
<path d="M113.619 21.8945H70.9609V22.2589H113.619V21.8945Z" fill="#E0E0E0"/>
<path d="M113.619 25.7648H70.9609V26.1292H113.619V25.7648Z" fill="#E0E0E0"/>
<path d="M113.619 29.6351H70.9609V29.9995H113.619V29.6351Z" fill="#E0E0E0"/>
<path d="M113.619 33.5054H70.9609V33.8698H113.619V33.5054Z" fill="#E0E0E0"/>
<path d="M113.619 37.3757H70.9609V37.7401H113.619V37.3757Z" fill="#E0E0E0"/>
<path d="M113.619 41.246H70.9609V41.6104H113.619V41.246Z" fill="#E0E0E0"/>
<path d="M113.619 45.1163H70.9609V45.4807H113.619V45.1163Z" fill="#E0E0E0"/>
<path d="M113.619 48.9866H70.9609V49.351H113.619V48.9866Z" fill="#E0E0E0"/>
<path d="M113.619 52.8569H70.9609V53.2213H113.619V52.8569Z" fill="#E0E0E0"/>
<path d="M113.619 56.7272H70.9609V57.0916H113.619V56.7272Z" fill="#E0E0E0"/>
<path d="M113.619 60.5975H70.9609V60.9619H113.619V60.5975Z" fill="#E0E0E0"/>
<path d="M113.619 64.4704H70.9609V64.8348H113.619V64.4704Z" fill="#E0E0E0"/>
<path d="M113.619 68.3407H70.9609V68.7051H113.619V68.3407Z" fill="#E0E0E0"/>
<path d="M113.619 72.211H70.9609V72.5754H113.619V72.211Z" fill="#E0E0E0"/>
<path d="M113.619 76.0813H70.9609V76.4457H113.619V76.0813Z" fill="#E0E0E0"/>
<path d="M113.619 79.9516H70.9609V80.316H113.619V79.9516Z" fill="#E0E0E0"/>
<path d="M113.619 83.8219H70.9609V84.1863H113.619V83.8219Z" fill="#E0E0E0"/>
<path d="M28.7334 87.0884H39.9746L39.9746 28.4115H28.7334L28.7334 87.0884Z" fill="#F0F0F0"/>
<path d="M28.7337 28.4115H39.9749L35.8386 23.2298H19.7402L28.7337 28.4115Z" fill="#FAFAFA"/>
<path d="M28.7337 28.4115L19.7402 23.2298V87.0884H28.7337V28.4115Z" fill="#EBEBEB"/>
<path d="M19.7426 31.4572L39.9746 31.4572V31.1459L19.7426 31.1459V31.4572Z" fill="#E0E0E0"/>
<path d="M19.7426 34.7795H39.9746V34.4683H19.7426V34.7795Z" fill="#E0E0E0"/>
<path d="M19.7426 38.1018H39.9746V37.7906H19.7426V38.1018Z" fill="#E0E0E0"/>
<path d="M19.7426 41.4215H39.9746V41.1103H19.7426V41.4215Z" fill="#E0E0E0"/>
<path d="M19.7426 44.7439H39.9746V44.4326H19.7426V44.7439Z" fill="#E0E0E0"/>
<path d="M19.7426 48.0635H39.9746V47.7523H19.7426V48.0635Z" fill="#E0E0E0"/>
<path d="M19.7426 51.3859H39.9746V51.0747H19.7426V51.3859Z" fill="#E0E0E0"/>
<path d="M19.7426 54.7082H39.9746V54.397H19.7426V54.7082Z" fill="#E0E0E0"/>
<path d="M19.7426 58.0279H39.9746V57.7167H19.7426V58.0279Z" fill="#E0E0E0"/>
<path d="M19.7426 61.3503H39.9746V61.039H19.7426V61.3503Z" fill="#E0E0E0"/>
<path d="M19.7426 64.6699H39.9746V64.3587H19.7426V64.6699Z" fill="#E0E0E0"/>
<path d="M19.7426 67.9923H39.9746V67.681H19.7426V67.9923Z" fill="#E0E0E0"/>
<path d="M19.7426 71.3119H39.9746V71.0007H19.7426V71.3119Z" fill="#E0E0E0"/>
<path d="M19.7426 74.6343H39.9746V74.3231H19.7426V74.6343Z" fill="#E0E0E0"/>
<path d="M19.7426 77.9566H39.9746V77.6454H19.7426V77.9566Z" fill="#E0E0E0"/>
<path d="M19.7426 81.2763H39.9746V80.9651H19.7426V81.2763Z" fill="#E0E0E0"/>
<path d="M19.7426 84.5986H39.9746V84.2874H19.7426V84.5986Z" fill="#E0E0E0"/>
<path d="M68.4578 87.0857H83.6172V34.7689H68.4578V87.0857Z" fill="#F0F0F0"/>
<path d="M78.196 45.8717H80.6299V37.4741H78.196V45.8717Z" fill="#E6E6E6"/>
<path d="M72.2302 45.8717H74.6641V37.4741H72.2302V45.8717Z" fill="#E6E6E6"/>
<path d="M78.196 56.7458H80.6299V48.3482H78.196V56.7458Z" fill="#E6E6E6"/>
<path d="M72.2302 56.7458H74.6641V48.3482H72.2302V56.7458Z" fill="#E6E6E6"/>
<path d="M78.196 67.6199H80.6299V59.2222H78.196V67.6199Z" fill="#E6E6E6"/>
<path d="M72.2302 67.6199H74.6641V59.2222H72.2302V67.6199Z" fill="#E6E6E6"/>
<path d="M78.196 78.4939H80.6299V70.0963H78.196V78.4939Z" fill="#E6E6E6"/>
<path d="M72.2302 78.4939H74.6641V70.0963H72.2302V78.4939Z" fill="#E6E6E6"/>
<path d="M68.4551 34.7715H83.6145L80.0607 31.1459H64.9014L68.4551 34.7715Z" fill="white"/>
<path d="M68.4549 34.7715L64.9011 31.1459L61.3447 34.7715V87.0884H68.4549V34.7715Z" fill="#E6E6E6"/>
<path d="M50.609 25.2487C54.6431 25.2487 57.9134 21.9784 57.9134 17.9444C57.9134 13.9103 54.6431 10.64 50.609 10.64C46.575 10.64 43.3047 13.9103 43.3047 17.9444C43.3047 21.9784 46.575 25.2487 50.609 25.2487Z" fill="#FAFAFA"/>
<path d="M104.496 6.83088C102.679 6.65532 101.011 5.37054 98.6435 5.01676C97.4651 4.8412 96.7815 5.28276 96.0846 5.69772C95.2121 6.22972 94.1455 6.49572 92.8075 6.4638C91.0479 6.41697 89.3061 6.09752 87.6444 5.51684C86.1442 5.00612 84.5774 4.39432 83.3884 4.6151C81.1833 5.01942 81.1194 6.4771 79.2947 6.68458C77.4699 6.89206 77.1374 7.87626 78.651 7.87626H106.373C107.698 7.87626 106.315 7.00378 104.496 6.83088Z" fill="#F5F5F5"/>
<path d="M26.3049 6.52765C25.5388 6.97719 24.0253 6.70587 21.5409 6.31751C20.0832 6.09141 19.3597 6.55691 18.3489 6.97453C17.9445 7.14477 16.1677 7.72731 18.4872 7.72731H31.3882C34.9632 7.72731 31.6382 7.08891 31.0663 6.84153H31.0371C29.3267 6.08077 27.0683 6.08077 26.3049 6.52765Z" fill="#F5F5F5"/>
<path d="M34.5799 16.7154H48.6779C49.9122 16.7154 48.6247 15.9015 46.9303 15.7392C45.2359 15.577 43.6825 14.38 41.4667 14.0501C39.2509 13.7203 39.1924 15.5131 36.2823 15.4945C33.9309 15.4839 32.1859 16.7154 34.5799 16.7154Z" fill="#F5F5F5"/>
<path d="M66.5005 99.101C94.9845 99.101 118.075 97.7528 118.075 96.0898C118.075 94.4268 94.9845 93.0787 66.5005 93.0787C38.0166 93.0787 14.9258 94.4268 14.9258 96.0898C14.9258 97.7528 38.0166 99.101 66.5005 99.101Z" fill="#F5F5F5"/>
<path d="M36.4732 33.8911C36.3927 33.8911 36.3156 33.8591 36.2587 33.8022C36.2019 33.7454 36.1699 33.6682 36.1699 33.5878V9.23285C36.1699 9.15243 36.2019 9.0753 36.2587 9.01843C36.3156 8.96156 36.3927 8.92961 36.4732 8.92961C36.5536 8.92961 36.6307 8.96156 36.6876 9.01843C36.7445 9.0753 36.7764 9.15243 36.7764 9.23285V33.5878C36.7764 33.6682 36.7445 33.7454 36.6876 33.8022C36.6307 33.8591 36.5536 33.8911 36.4732 33.8911Z" fill="#CE9E41"/>
<path d="M44.5917 33.8911C44.5113 33.8911 44.4341 33.8591 44.3773 33.8022C44.3204 33.7454 44.2884 33.6682 44.2884 33.5878V9.23286C44.2845 9.19047 44.2894 9.14772 44.3029 9.10735C44.3164 9.06697 44.3382 9.02986 44.3669 8.99838C44.3955 8.96691 44.4304 8.94177 44.4694 8.92456C44.5083 8.90736 44.5504 8.89847 44.593 8.89847C44.6356 8.89847 44.6777 8.90736 44.7166 8.92456C44.7556 8.94177 44.7905 8.96691 44.8192 8.99838C44.8478 9.02986 44.8696 9.06697 44.8831 9.10735C44.8966 9.14772 44.9015 9.19047 44.8976 9.23286V33.5878C44.8969 33.6685 44.8643 33.7456 44.807 33.8024C44.7498 33.8592 44.6724 33.8911 44.5917 33.8911Z" fill="#CE9E41"/>
<path d="M44.592 17.6544C44.5114 17.6547 44.434 17.6231 44.3765 17.5666L40.5328 13.7229L36.6891 17.556C36.6305 17.6051 36.5556 17.6304 36.4793 17.6271C36.4029 17.6237 36.3305 17.5918 36.2765 17.5378C36.2224 17.4837 36.1906 17.4113 36.1872 17.335C36.1838 17.2586 36.2091 17.1837 36.2582 17.1251L40.1019 13.3L36.2582 9.44832C36.212 9.40622 36.1797 9.35096 36.1658 9.28997C36.152 9.22899 36.1571 9.16521 36.1806 9.10724C36.2041 9.04927 36.2447 8.99989 36.2971 8.96575C36.3496 8.93161 36.4112 8.91436 36.4737 8.91632H44.592C44.6524 8.91645 44.7114 8.93446 44.7616 8.96806C44.8118 9.00167 44.8509 9.04938 44.874 9.10518C44.8973 9.16092 44.9034 9.22235 44.8915 9.28159C44.8797 9.34084 44.8504 9.39519 44.8075 9.43768L40.9638 13.3L44.8075 17.1437C44.8553 17.1851 44.889 17.2405 44.9038 17.302C44.9186 17.3635 44.9138 17.4281 44.89 17.4868C44.8663 17.5454 44.8248 17.5952 44.7713 17.629C44.7179 17.6629 44.6552 17.6792 44.592 17.6757V17.6544ZM37.2078 9.5361L40.5328 12.8611L43.8578 9.5361H37.2078Z" fill="#CE9E41"/>
<path d="M36.4733 9.53611C36.413 9.53653 36.354 9.51897 36.3037 9.48568C36.2535 9.45238 36.2143 9.40487 36.1912 9.3492C36.168 9.29354 36.162 9.23224 36.1739 9.17314C36.1858 9.11404 36.215 9.05983 36.2578 9.01741L40.317 4.95825C40.3452 4.92978 40.3788 4.90718 40.4157 4.89176C40.4527 4.87633 40.4924 4.86839 40.5325 4.86839C40.5725 4.86839 40.6122 4.87633 40.6492 4.89176C40.6862 4.90718 40.7197 4.92978 40.7479 4.95825L44.8071 9.01741C44.8355 9.04561 44.8581 9.07917 44.8736 9.11615C44.889 9.15313 44.8969 9.1928 44.8969 9.23287C44.8969 9.27294 44.889 9.31261 44.8736 9.3496C44.8581 9.38658 44.8355 9.42014 44.8071 9.44833C44.7494 9.50455 44.6721 9.53602 44.5916 9.53602C44.5111 9.53602 44.4338 9.50455 44.3762 9.44833L40.5325 5.60463L36.6888 9.44833C36.6313 9.50483 36.5539 9.53637 36.4733 9.53611Z" fill="#CE9E41"/>
<path d="M52.7107 9.53611C52.6303 9.53581 52.5531 9.50434 52.4953 9.44833L48.6516 5.60463L44.8079 9.44833C44.7503 9.50455 44.6729 9.53602 44.5924 9.53602C44.5119 9.53602 44.4346 9.50455 44.377 9.44833C44.3485 9.42014 44.3259 9.38658 44.3105 9.3496C44.295 9.31261 44.2871 9.27294 44.2871 9.23287C44.2871 9.1928 44.295 9.15313 44.3105 9.11615C44.3259 9.07917 44.3485 9.04561 44.377 9.01741L48.4361 4.95825C48.4643 4.92978 48.4979 4.90718 48.5349 4.89176C48.5718 4.87633 48.6115 4.86839 48.6516 4.86839C48.6917 4.86839 48.7313 4.87633 48.7683 4.89176C48.8053 4.90718 48.8389 4.92978 48.867 4.95825L52.9342 9.01741C52.977 9.05983 53.0062 9.11404 53.0181 9.17314C53.03 9.23224 53.024 9.29354 53.0009 9.3492C52.9777 9.40487 52.9385 9.45238 52.8883 9.48568C52.838 9.51897 52.779 9.53653 52.7187 9.53611H52.7107Z" fill="#CE9E41"/>
<path d="M52.7106 9.53611C52.6301 9.53581 52.5529 9.50434 52.4951 9.44833C52.4667 9.42014 52.4441 9.38658 52.4286 9.3496C52.4132 9.31261 52.4053 9.27294 52.4053 9.23287C52.4053 9.1928 52.4132 9.15313 52.4286 9.11615C52.4441 9.07917 52.4667 9.04561 52.4951 9.01741L56.5543 4.95825C56.5825 4.92978 56.616 4.90718 56.653 4.89176C56.69 4.87633 56.7297 4.86839 56.7698 4.86839C56.8098 4.86839 56.8495 4.87633 56.8865 4.89176C56.9235 4.90718 56.957 4.92978 56.9852 4.95825L61.0444 9.01741C61.0728 9.04561 61.0954 9.07917 61.1109 9.11615C61.1263 9.15313 61.1342 9.1928 61.1342 9.23287C61.1342 9.27294 61.1263 9.31261 61.1109 9.3496C61.0954 9.38658 61.0728 9.42014 61.0444 9.44833C60.9867 9.50455 60.9094 9.53602 60.8289 9.53602C60.7484 9.53602 60.6711 9.50455 60.6134 9.44833L56.7698 5.60463L52.934 9.44833C52.9046 9.47727 52.8697 9.49997 52.8313 9.51506C52.7929 9.53014 52.7518 9.5373 52.7106 9.53611Z" fill="#CE9E41"/>
<path d="M36.4733 25.7727C36.413 25.7731 36.354 25.7556 36.3037 25.7223C36.2535 25.689 36.2143 25.6415 36.1912 25.5858C36.168 25.5302 36.162 25.4689 36.1739 25.4098C36.1858 25.3507 36.215 25.2964 36.2578 25.254L44.3762 17.1357C44.4348 17.0866 44.5097 17.0613 44.586 17.0647C44.6624 17.068 44.7348 17.0999 44.7888 17.154C44.8429 17.208 44.8748 17.2804 44.8781 17.3568C44.8815 17.4331 44.8562 17.508 44.8071 17.5666L36.6888 25.685C36.6313 25.7414 36.5539 25.773 36.4733 25.7727Z" fill="#CE9E41"/>
<path d="M44.5917 25.7727C44.5111 25.773 44.4336 25.7415 44.3762 25.685L36.2579 17.556C36.2088 17.4974 36.1834 17.4225 36.1868 17.3461C36.1902 17.2697 36.2221 17.1974 36.2761 17.1433C36.3302 17.0893 36.4025 17.0574 36.4789 17.054C36.5553 17.0506 36.6302 17.076 36.6888 17.1251L44.8071 25.2434C44.8499 25.2858 44.8792 25.34 44.891 25.3991C44.9029 25.4582 44.8969 25.5195 44.8738 25.5752C44.8507 25.6309 44.8115 25.6784 44.7612 25.7117C44.711 25.745 44.6519 25.7625 44.5917 25.7621V25.7727Z" fill="#CE9E41"/>
<path d="M44.5917 33.8911H36.4734C36.4132 33.8915 36.3543 33.874 36.3041 33.8409C36.2539 33.8077 36.2147 33.7604 36.1915 33.7049C36.1689 33.649 36.1631 33.5877 36.1749 33.5286C36.1868 33.4696 36.2156 33.4152 36.258 33.3724L40.1017 29.526L36.258 25.6823C36.2089 25.6237 36.1835 25.5488 36.1869 25.4724C36.1903 25.396 36.2221 25.3237 36.2762 25.2696C36.3303 25.2156 36.4026 25.1837 36.479 25.1803C36.5554 25.1769 36.6302 25.2023 36.6889 25.2514L40.5326 29.0951L44.3763 25.2514C44.4349 25.2023 44.5098 25.1769 44.5862 25.1803C44.6625 25.1837 44.7349 25.2156 44.7889 25.2696C44.843 25.3237 44.8749 25.396 44.8782 25.4724C44.8816 25.5488 44.8563 25.6237 44.8072 25.6823L40.9635 29.526L44.8072 33.3697C44.85 33.4121 44.8792 33.4663 44.8911 33.5254C44.903 33.5845 44.897 33.6458 44.8739 33.7015C44.8507 33.7572 44.8115 33.8047 44.7613 33.838C44.711 33.8712 44.652 33.8888 44.5917 33.8884V33.8911ZM37.2076 33.2846H43.8576L40.5326 29.9596L37.2076 33.2846Z" fill="#263238"/>
<path d="M33.6327 13.6165H29.2969L29.8422 9.23285H33.0847L33.6327 13.6165Z" fill="#CE9E41"/>
<path d="M33.633 13.9198H29.2972C29.2541 13.9197 29.2116 13.9106 29.1722 13.8932C29.1328 13.8758 29.0975 13.8504 29.0684 13.8187C29.0404 13.786 29.0193 13.7478 29.0065 13.7067C28.9937 13.6655 28.9894 13.6222 28.9939 13.5793L29.5419 9.19561C29.551 9.12226 29.5865 9.05475 29.6419 9.00576C29.6972 8.95678 29.7686 8.9297 29.8425 8.92961H33.085C33.1592 8.92962 33.2309 8.95661 33.2867 9.00555C33.3425 9.05449 33.3786 9.12203 33.3883 9.19561L33.9203 13.5793C33.9255 13.6219 33.9217 13.6651 33.909 13.7062C33.8963 13.7472 33.8751 13.785 33.8467 13.8172C33.8182 13.8494 33.7833 13.8752 33.7442 13.8929C33.7051 13.9106 33.6626 13.9197 33.6197 13.9198H33.633ZM29.643 13.3106H33.2872L32.8164 9.53609H30.1138L29.643 13.3106Z" fill="#CE9E41"/>
<path d="M60.8287 9.5361H28.6108C28.5684 9.54006 28.5256 9.53514 28.4852 9.52164C28.4449 9.50813 28.4078 9.48635 28.3763 9.45768C28.3448 9.42902 28.3197 9.39409 28.3025 9.35515C28.2853 9.31621 28.2764 9.2741 28.2764 9.23153C28.2764 9.18896 28.2853 9.14685 28.3025 9.10791C28.3197 9.06897 28.3448 9.03404 28.3763 9.00538C28.4078 8.97671 28.4449 8.95493 28.4852 8.94142C28.5256 8.92792 28.5684 8.92299 28.6108 8.92696H60.8287C60.8711 8.92299 60.9138 8.92792 60.9542 8.94142C60.9946 8.95493 61.0317 8.97671 61.0632 9.00538C61.0946 9.03404 61.1198 9.06897 61.137 9.10791C61.1542 9.14685 61.1631 9.18896 61.1631 9.23153C61.1631 9.2741 61.1542 9.31621 61.137 9.35515C61.1198 9.39409 61.0946 9.42902 61.0632 9.45768C61.0317 9.48635 60.9946 9.50813 60.9542 9.52164C60.9138 9.53514 60.8711 9.54006 60.8287 9.5361Z" fill="#263238"/>
<path d="M56.769 5.47694H40.543C40.4672 5.46984 40.3967 5.43469 40.3454 5.37835C40.2941 5.32202 40.2656 5.24857 40.2656 5.17237C40.2656 5.09617 40.2941 5.02272 40.3454 4.96639C40.3967 4.91005 40.4672 4.8749 40.543 4.8678H56.769C56.8114 4.86383 56.8542 4.86876 56.8945 4.88226C56.9349 4.89577 56.972 4.91755 57.0035 4.94622C57.035 4.97488 57.0601 5.00981 57.0773 5.04875C57.0945 5.08769 57.1034 5.1298 57.1034 5.17237C57.1034 5.21494 57.0945 5.25705 57.0773 5.29599C57.0601 5.33493 57.035 5.36986 57.0035 5.39852C56.972 5.42719 56.9349 5.44897 56.8945 5.46248C56.8542 5.47598 56.8114 5.4809 56.769 5.47694Z" fill="#CE9E41"/>
<path d="M65.093 22.8627H33.7927C32.1371 22.8627 30.7949 24.2049 30.7949 25.8605V91.8578C30.7949 93.5134 32.1371 94.8556 33.7927 94.8556H65.093C66.7486 94.8556 68.0908 93.5134 68.0908 91.8578V25.8605C68.0908 24.2049 66.7486 22.8627 65.093 22.8627Z" fill="#CE9E41"/>
<path opacity="0.2" d="M65.093 22.8627H33.7927C32.1371 22.8627 30.7949 24.2049 30.7949 25.8605V91.8578C30.7949 93.5134 32.1371 94.8556 33.7927 94.8556H65.093C66.7486 94.8556 68.0908 93.5134 68.0908 91.8578V25.8605C68.0908 24.2049 66.7486 22.8627 65.093 22.8627Z" fill="black"/>
<path d="M68.923 22.8627H37.6228C35.9672 22.8627 34.625 24.2049 34.625 25.8605V91.8578C34.625 93.5134 35.9672 94.8556 37.6228 94.8556H68.923C70.5787 94.8556 71.9209 93.5134 71.9209 91.8578V25.8605C71.9209 24.2049 70.5787 22.8627 68.923 22.8627Z" fill="#CE9E41"/>
<path d="M70.6709 91.8578V25.8578C70.6709 24.8927 69.8885 24.1102 68.9233 24.1102L37.6204 24.1102C36.6552 24.1102 35.8728 24.8927 35.8728 25.8578L35.8728 91.8578C35.8728 92.823 36.6552 93.6054 37.6204 93.6054H68.9233C69.8885 93.6054 70.6709 92.823 70.6709 91.8578Z" fill="white"/>
<path opacity="0.1" d="M70.1724 64.1739L68.7388 34.6508C68.6808 33.4563 67.6655 32.5351 66.4711 32.5931L40.9173 33.8339C39.7229 33.8919 38.8017 34.9072 38.8597 36.1016L40.2932 65.6248C40.3512 66.8192 41.3665 67.7404 42.5609 67.6824L68.1147 66.4416C69.3091 66.3836 70.2304 65.3683 70.1724 64.1739Z" fill="black"/>
<path d="M69.6729 27.5257V26.2755C69.6729 25.632 69.1512 25.1104 68.5078 25.1104L38.0375 25.1104C37.394 25.1104 36.8724 25.632 36.8724 26.2755V27.5257C36.8724 28.1691 37.394 28.6908 38.0375 28.6908H68.5078C69.1512 28.6908 69.6729 28.1691 69.6729 27.5257Z" fill="#CE9E41"/>
<path d="M40.3415 27.7385C40.1191 27.7385 39.9057 27.6503 39.7481 27.4932C39.5906 27.3362 39.5017 27.123 39.501 26.9006C39.5017 26.6779 39.5905 26.4645 39.7479 26.307C39.9054 26.1495 40.1188 26.0607 40.3415 26.06C40.5643 26.0607 40.7776 26.1495 40.9351 26.307C41.0926 26.4645 41.1814 26.6779 41.1821 26.9006C41.1814 27.123 41.0925 27.3362 40.935 27.4932C40.7774 27.6503 40.564 27.7385 40.3415 27.7385Z" fill="white"/>
<path d="M42.8386 27.7385C42.6161 27.7385 42.4027 27.6503 42.2452 27.4932C42.0876 27.3362 41.9988 27.123 41.998 26.9006C41.9987 26.6779 42.0875 26.4645 42.245 26.307C42.4025 26.1495 42.6159 26.0607 42.8386 26.06C43.0611 26.0607 43.2742 26.1496 43.4313 26.3071C43.5883 26.4647 43.6765 26.6781 43.6765 26.9006C43.6758 27.1226 43.5873 27.3353 43.4303 27.4923C43.2733 27.6493 43.0606 27.7378 42.8386 27.7385Z" fill="white"/>
<path d="M45.3367 27.7385C45.1142 27.7385 44.9008 27.6503 44.7432 27.4932C44.5857 27.3362 44.4968 27.123 44.4961 26.9006C44.4968 26.6779 44.5856 26.4645 44.7431 26.307C44.9005 26.1495 45.1139 26.0607 45.3367 26.06C45.5591 26.0607 45.7722 26.1496 45.9293 26.3071C46.0864 26.4647 46.1746 26.6781 46.1746 26.9006C46.1739 27.1226 46.0853 27.3353 45.9284 27.4923C45.7714 27.6493 45.5587 27.7378 45.3367 27.7385Z" fill="white"/>
<path d="M67.3355 25.8578H66.1704C65.9177 25.8578 65.7129 26.0627 65.7129 26.3154V27.4804C65.7129 27.7331 65.9177 27.938 66.1704 27.938H67.3355C67.5882 27.938 67.793 27.7331 67.793 27.4804V26.3154C67.793 26.0627 67.5882 25.8578 67.3355 25.8578Z" fill="white"/>
<path d="M47.2913 79.4524C50.265 78.2206 51.6772 74.8114 50.4454 71.8377C49.2137 68.8639 45.8044 67.4518 42.8307 68.6835C39.857 69.9153 38.4448 73.3245 39.6766 76.2983C40.9084 79.272 44.3176 80.6842 47.2913 79.4524Z" fill="#CE9E41"/>
<path d="M65.8638 71.4183H54.5003C54.3072 71.4176 54.1223 71.3406 53.9857 71.2041C53.8492 71.0676 53.7722 70.8826 53.7715 70.6895C53.7722 70.4964 53.8492 70.3114 53.9857 70.1749C54.1223 70.0384 54.3072 69.9614 54.5003 69.9607H65.8638C66.0571 69.9607 66.2425 70.0374 66.3792 70.1741C66.5159 70.3108 66.5927 70.4962 66.5927 70.6895C66.5927 70.8828 66.5159 71.0682 66.3792 71.2049C66.2425 71.3416 66.0571 71.4183 65.8638 71.4183Z" fill="#CE9E41"/>
<path d="M65.8638 74.7966H54.5003C54.3072 74.7958 54.1223 74.7188 53.9857 74.5823C53.8492 74.4458 53.7722 74.2608 53.7715 74.0677C53.7722 73.8746 53.8492 73.6896 53.9857 73.5531C54.1223 73.4166 54.3072 73.3396 54.5003 73.3389H65.8638C66.0571 73.3389 66.2425 73.4157 66.3792 73.5523C66.5159 73.689 66.5927 73.8744 66.5927 74.0677C66.5927 74.261 66.5159 74.4464 66.3792 74.5831C66.2425 74.7198 66.0571 74.7966 65.8638 74.7966Z" fill="#CE9E41"/>
<path d="M65.8638 76.7171H54.5003C54.0978 76.7171 53.7715 77.0434 53.7715 77.4459C53.7715 77.8484 54.0978 78.1748 54.5003 78.1748H65.8638C66.2664 78.1748 66.5927 77.8484 66.5927 77.4459C66.5927 77.0434 66.2664 76.7171 65.8638 76.7171Z" fill="#CE9E41"/>
<path d="M64.7046 83.1676H41.8445C40.4019 83.1676 39.2324 84.337 39.2324 85.7797V89.0275C39.2324 90.4702 40.4019 91.6397 41.8445 91.6397H64.7046C66.1472 91.6397 67.3167 90.4702 67.3167 89.0275V85.7797C67.3167 84.337 66.1472 83.1676 64.7046 83.1676Z" fill="#E0E0E0"/>
<path d="M73.3194 62.0373L71.0209 32.5688C70.9279 31.3766 69.8861 30.4855 68.6939 30.5785L43.1874 32.568C41.9952 32.661 41.1042 33.7029 41.1971 34.8951L43.4957 64.3635C43.5886 65.5557 44.6305 66.4468 45.8227 66.3538L71.3291 64.3643C72.5213 64.2713 73.4124 63.2295 73.3194 62.0373Z" fill="white"/>
<path d="M45.6482 66.5C45.0688 66.4989 44.5113 66.2791 44.0871 65.8845C43.663 65.4899 43.4035 64.9497 43.3606 64.372L41.0623 34.9019C41.0161 34.2947 41.2124 33.6939 41.6083 33.2312C42.0042 32.7685 42.5673 32.4816 43.1744 32.4334L68.6838 30.4437C69.2909 30.3974 69.8917 30.5938 70.3544 30.9896C70.8171 31.3855 71.104 31.9487 71.1522 32.5557L73.4505 62.0259C73.4975 62.6335 73.3015 63.235 72.9055 63.6983C72.5096 64.1615 71.946 64.4488 71.3384 64.497L45.829 66.484C45.7679 66.5 45.7093 66.5 45.6482 66.5ZM43.6266 64.372C43.67 64.9077 43.9239 65.4044 44.3327 65.7534C44.7415 66.1023 45.2719 66.2752 45.8078 66.234L71.3172 64.2443C71.8531 64.2002 72.3498 63.9457 72.6987 63.5365C73.0476 63.1273 73.2203 62.5966 73.1792 62.0605L70.8809 32.5903C70.8375 32.0541 70.5832 31.557 70.1738 31.2079C69.7645 30.8589 69.2334 30.6864 68.6971 30.7283L43.1903 32.718C42.6544 32.7621 42.1577 33.0166 41.8088 33.4258C41.4599 33.835 41.2871 34.3657 41.3283 34.9019L43.6266 64.372Z" fill="#CE9E41"/>
<path d="M72.2099 61.5152L71.7004 54.9835C71.6269 54.0417 70.8039 53.3378 69.8622 53.4113L45.5704 55.306C44.6286 55.3795 43.9247 56.2025 43.9982 57.1442L44.5076 63.676C44.5811 64.6177 45.4041 65.3216 46.3458 65.2481L70.6377 63.3534C71.5794 63.2799 72.2833 62.457 72.2099 61.5152Z" fill="#CE9E41"/>
<path opacity="0.2" d="M57.8004 51.6117L56.453 34.3369C56.3786 33.3835 55.5454 32.6708 54.5919 32.7452L43.8993 33.5792C42.9458 33.6536 42.2332 34.4868 42.3075 35.4403L43.655 52.7151C43.7293 53.6685 44.5626 54.3812 45.516 54.3068L56.2087 53.4728C57.1622 53.3984 57.8748 52.5652 57.8004 51.6117Z" fill="#CE9E41"/>
<path opacity="0.2" d="M70.1219 35.8775L69.8933 32.9471C69.8336 32.1811 69.1642 31.6086 68.3982 31.6683L59.2357 32.383C58.4697 32.4427 57.8972 33.1121 57.9569 33.8781L58.1855 36.8085C58.2452 37.5745 58.9147 38.1471 59.6807 38.0873L68.8431 37.3727C69.6091 37.3129 70.1817 36.6435 70.1219 35.8775Z" fill="#CE9E41"/>
<path opacity="0.4" d="M70.7059 43.3892L70.4773 40.4588C70.4176 39.6928 69.7482 39.1202 68.9822 39.18L59.8197 39.8947C59.0537 39.9544 58.4812 40.6238 58.5409 41.3898L58.7695 44.3202C58.8292 45.0862 59.4986 45.6587 60.2646 45.599L69.4271 44.8843C70.1931 44.8246 70.7656 44.1552 70.7059 43.3892Z" fill="#CE9E41"/>
<path opacity="0.6" d="M71.2928 50.9008L71.0642 47.9704C71.0045 47.2044 70.3351 46.6319 69.5691 46.6917L60.4066 47.4063C59.6406 47.4661 59.0681 48.1355 59.1278 48.9015L59.3564 51.8319C59.4162 52.5979 60.0855 53.1704 60.8516 53.1107L70.014 52.396C70.78 52.3362 71.3526 51.6668 71.2928 50.9008Z" fill="#CE9E41"/>
<path d="M60.1823 27.0362C60.1463 27.0362 60.1118 27.0219 60.0863 26.9965C60.0609 26.9711 60.0466 26.9366 60.0466 26.9006V9.23286C60.0426 9.21317 60.0431 9.19285 60.048 9.17336C60.0528 9.15387 60.0619 9.1357 60.0747 9.12017C60.0874 9.10463 60.1034 9.09211 60.1215 9.08352C60.1397 9.07492 60.1595 9.07047 60.1796 9.07047C60.1997 9.07047 60.2195 9.07492 60.2377 9.08352C60.2558 9.09211 60.2718 9.10463 60.2846 9.12017C60.2973 9.1357 60.3064 9.15387 60.3112 9.17336C60.3161 9.19285 60.3166 9.21317 60.3126 9.23286V26.9006C60.3126 26.9357 60.2991 26.9694 60.2748 26.9947C60.2505 27.02 60.2173 27.0349 60.1823 27.0362Z" fill="#263238"/>
<path d="M61.8718 29.792H58.4936C58.359 29.7919 58.2281 29.7483 58.1203 29.6678C58.0124 29.5873 57.9335 29.4741 57.8951 29.3451L57.1689 26.8766C57.1422 26.7837 57.1374 26.6859 57.1548 26.5908C57.1723 26.4958 57.2115 26.406 57.2695 26.3287C57.3276 26.2513 57.4027 26.1885 57.4891 26.1451C57.5755 26.1017 57.6707 26.079 57.7674 26.0786H62.598C62.6946 26.079 62.7899 26.1017 62.8763 26.1451C62.9627 26.1885 63.0378 26.2513 63.0958 26.3287C63.1539 26.406 63.1931 26.4958 63.2106 26.5908C63.228 26.6859 63.2232 26.7837 63.1965 26.8766L62.4703 29.3451C62.4323 29.4743 62.3534 29.5877 62.2455 29.6683C62.1376 29.7489 62.0065 29.7923 61.8718 29.792Z" fill="#263238"/>
<path d="M60.1821 33.6171C60.1017 33.6171 60.0246 33.5851 59.9677 33.5283C59.9109 33.4714 59.8789 33.3943 59.8789 33.3138C59.8789 33.2334 59.9109 33.1563 59.9677 33.0994C60.0246 33.0425 60.1017 33.0106 60.1821 33.0106C60.4643 33.0106 60.735 32.8985 60.9345 32.699C61.134 32.4994 61.2461 32.2288 61.2461 31.9466C61.2461 31.6644 61.134 31.3938 60.9345 31.1942C60.735 30.9947 60.4643 30.8826 60.1821 30.8826C60.1017 30.8826 60.0246 30.8506 59.9677 30.7938C59.9109 30.7369 59.8789 30.6598 59.8789 30.5794V29.792C59.886 29.7161 59.9212 29.6456 59.9775 29.5943C60.0338 29.543 60.1073 29.5146 60.1835 29.5146C60.2597 29.5146 60.3331 29.543 60.3895 29.5943C60.4458 29.6456 60.4809 29.7161 60.488 29.792V30.3001C60.8963 30.3775 61.261 30.6043 61.511 30.9361C61.7611 31.268 61.8784 31.6812 61.8402 32.0949C61.802 32.5087 61.6109 32.8933 61.3043 33.1738C60.9978 33.4543 60.5977 33.6104 60.1821 33.6118V33.6171Z" fill="#263238"/>
<path d="M107.124 37.6576C107.462 38.437 107.738 39.1765 108.009 39.9532C108.281 40.7299 108.528 41.496 108.738 42.294C108.968 43.1086 109.153 43.9354 109.292 44.7705C109.37 45.2168 109.425 45.667 109.457 46.1191C109.497 46.6511 109.484 47.1858 109.417 47.7151L109.401 47.8242C109.393 47.8764 109.382 47.928 109.366 47.9784C109.127 48.7059 108.84 49.4168 108.507 50.1064C108.196 50.7741 107.842 51.4045 107.491 52.0296C107.14 52.6547 106.757 53.2532 106.36 53.8464C105.964 54.4396 105.562 55.0141 105.11 55.586C104.959 55.7745 104.747 55.9041 104.51 55.9522C104.274 56.0004 104.028 55.964 103.815 55.8495C103.602 55.735 103.437 55.5495 103.347 55.3255C103.257 55.1014 103.248 54.8529 103.323 54.6231V54.5992C103.535 53.9581 103.772 53.3038 103.998 52.66C104.224 52.0163 104.458 51.3779 104.674 50.7395C104.889 50.1011 105.105 49.4654 105.296 48.8456C105.488 48.2258 105.655 47.6034 105.772 47.0368L105.722 47.3028C105.716 47.0467 105.691 46.7914 105.645 46.5394C105.592 46.2335 105.525 45.8983 105.44 45.5605C105.355 45.2227 105.262 44.8769 105.158 44.5284C105.054 44.18 104.948 43.8288 104.831 43.4644C104.597 42.7595 104.355 42.0466 104.097 41.3364L103.317 39.227L103.304 39.1898C103.101 38.6843 103.107 38.119 103.321 37.6181C103.535 37.1173 103.94 36.722 104.445 36.5192C104.951 36.3163 105.516 36.3226 106.017 36.5366C106.518 36.7506 106.913 37.1548 107.116 37.6603L107.124 37.6576Z" fill="#CE9E41"/>
<path opacity="0.7" d="M107.124 37.6576C107.462 38.437 107.738 39.1765 108.009 39.9532C108.281 40.7299 108.528 41.496 108.738 42.294C108.968 43.1086 109.153 43.9354 109.292 44.7705C109.37 45.2168 109.425 45.667 109.457 46.1191C109.497 46.6511 109.484 47.1858 109.417 47.7151L109.401 47.8242C109.393 47.8764 109.382 47.928 109.366 47.9784C109.127 48.7059 108.84 49.4168 108.507 50.1064C108.196 50.7741 107.842 51.4045 107.491 52.0296C107.14 52.6547 106.757 53.2532 106.36 53.8464C105.964 54.4396 105.562 55.0141 105.11 55.586C104.959 55.7745 104.747 55.9041 104.51 55.9522C104.274 56.0004 104.028 55.964 103.815 55.8495C103.602 55.735 103.437 55.5495 103.347 55.3255C103.257 55.1014 103.248 54.8529 103.323 54.6231V54.5992C103.535 53.9581 103.772 53.3038 103.998 52.66C104.224 52.0163 104.458 51.3779 104.674 50.7395C104.889 50.1011 105.105 49.4654 105.296 48.8456C105.488 48.2258 105.655 47.6034 105.772 47.0368L105.722 47.3028C105.716 47.0467 105.691 46.7914 105.645 46.5394C105.592 46.2335 105.525 45.8983 105.44 45.5605C105.355 45.2227 105.262 44.8769 105.158 44.5284C105.054 44.18 104.948 43.8288 104.831 43.4644C104.597 42.7595 104.355 42.0466 104.097 41.3364L103.317 39.227L103.304 39.1898C103.101 38.6843 103.107 38.119 103.321 37.6181C103.535 37.1173 103.94 36.722 104.445 36.5192C104.951 36.3163 105.516 36.3226 106.017 36.5366C106.518 36.7506 106.913 37.1548 107.116 37.6603L107.124 37.6576Z" fill="white"/>
<path d="M103.445 54.264L102.086 54.9769L103.988 56.9533C104.352 56.6933 104.677 56.3824 104.953 56.0302C105.14 55.7778 105.22 55.4619 105.175 55.1511C105.13 54.8403 104.965 54.5597 104.714 54.3704C104.534 54.2345 104.32 54.1524 104.095 54.1335C103.87 54.1147 103.645 54.1599 103.445 54.264Z" fill="#FFC3BD"/>
<path d="M101.346 57.2405L102.131 57.8204C102.282 57.9315 102.467 57.9858 102.655 57.9736C102.842 57.9615 103.019 57.8837 103.155 57.7539L103.977 56.9559L102.075 54.9795L101.202 56.126C101.074 56.2932 101.018 56.5041 101.045 56.7128C101.072 56.9216 101.18 57.1113 101.346 57.2405Z" fill="#FFC3BD"/>
<path d="M81.7787 41.6636L80.3769 39.8548L78.7676 42.0759C78.7676 42.0759 80.2359 43.5575 81.1483 42.9058L81.7787 41.6636Z" fill="#FFC3BD"/>
<path d="M78.0231 39.5383L77.5895 40.4107C77.5067 40.5795 77.486 40.7721 77.5313 40.9546C77.5765 41.1371 77.6848 41.2978 77.8369 41.4082L78.7679 42.0759L80.3772 39.8548L79.1004 39.1871C79.0067 39.139 78.9044 39.1099 78.7994 39.1016C78.6944 39.0932 78.5888 39.1057 78.4886 39.1383C78.3885 39.171 78.2958 39.2231 78.2159 39.2917C78.136 39.3604 78.0705 39.4442 78.0231 39.5383Z" fill="#FFC3BD"/>
<path d="M105.033 96.3293H103.346L103.139 96.1351L102.827 96.3293C101.798 96.3293 100.409 96.292 99.7471 96.0633C99.7279 95.9859 99.7305 95.9048 99.7544 95.8287C99.7783 95.7527 99.8227 95.6848 99.8828 95.6323C99.8828 95.6323 102.609 94.7891 102.854 94.2225H104.921" fill="#263238"/>
<path d="M102.942 72.4823C102.604 63.7629 103.155 56.8708 102.327 53.5272L94.6133 52.2796C94.6133 52.2796 96.0337 67.0506 97.7414 73.1607C99.4492 79.2707 102.529 94.3608 102.529 94.3608H105.155C105.155 94.3608 105.219 79.6377 102.942 72.4823Z" fill="#CE9E41"/>
<path opacity="0.2" d="M97.3556 59.584L95.9219 63.308C96.3794 66.5665 96.9274 69.8995 97.5179 72.2935C98.1536 67.9471 97.6934 60.8183 97.3556 59.584Z" fill="black"/>
<path d="M83.1832 93.8288C83.1832 93.8288 87.0641 94.1241 87.4897 93.6559L89.5246 94.281L88.9554 96.3292L87.6998 95.9462L87.5589 95.6988L87.1918 95.7893C86.1757 95.478 83.4891 94.6135 82.9092 94.1933C82.9174 94.1133 82.9472 94.0372 82.9955 93.973C83.0438 93.9087 83.1087 93.8589 83.1832 93.8288Z" fill="#263238"/>
<path d="M94.7839 73.0117C97.3783 66.6483 99.0965 59.962 99.8911 53.1362L91.4695 51.7583C91.4695 51.7583 90.2193 66.9921 89.674 73.2537C89.1101 79.7628 86.9209 93.632 86.9209 93.632L89.6421 94.4566C89.6421 94.4566 94.5019 81.1087 94.7839 73.0117Z" fill="#CE9E41"/>
<path d="M103.035 29.5393C102.54 31.1353 102.237 33.4468 102.715 34.7529C101.784 35.3966 100.322 36.1467 98.5473 35.8621C96.7731 35.5775 97.2785 34.4257 97.8424 33.8778C99.207 33.4229 99.3506 32.7818 99.1245 32.1674L103.035 29.5393Z" fill="#FFC3BD"/>
<path d="M104.311 35.3913C103.897 34.8937 103.445 34.4286 102.96 34.0001C102.545 33.7128 99.1005 33.2846 98.2785 33.3138C97.4566 33.3431 96.3154 34.3938 96.3154 34.3938L104.311 35.3913Z" fill="#CE9E41"/>
<path opacity="0.7" d="M104.311 35.3913C103.897 34.8937 103.445 34.4286 102.96 34.0001C102.545 33.7128 99.1005 33.2846 98.2785 33.3138C97.4566 33.3431 96.3154 34.3938 96.3154 34.3938L104.311 35.3913Z" fill="white"/>
<path d="M98.4203 27.6321C98.3671 27.789 98.2421 27.8981 98.141 27.8555C98.0399 27.813 97.9947 27.664 98.0479 27.5044C98.1011 27.3448 98.2261 27.2384 98.3272 27.2836C98.4283 27.3289 98.4735 27.4752 98.4203 27.6321Z" fill="#263238"/>
<path d="M98.3594 27.8555C98.0133 28.2731 97.6115 28.6409 97.165 28.9488C97.2468 29.062 97.3521 29.1561 97.4739 29.2245C97.5956 29.293 97.7307 29.3341 97.8699 29.3451L98.3594 27.8555Z" fill="#630F0F"/>
<path d="M98.4204 26.5442C98.4267 26.559 98.437 26.5718 98.4501 26.5812C98.4633 26.5906 98.4788 26.5962 98.4949 26.5974C98.6163 26.6097 98.7331 26.6506 98.8358 26.7167C98.9384 26.7828 99.0239 26.8723 99.0854 26.9777C99.0905 26.9893 99.0979 26.9998 99.1072 27.0084C99.1165 27.017 99.1275 27.0236 99.1395 27.0279C99.1514 27.0321 99.1641 27.0339 99.1768 27.033C99.1894 27.0322 99.2018 27.0287 99.2131 27.023C99.2362 27.0115 99.2539 26.9914 99.2623 26.967C99.2708 26.9427 99.2693 26.9159 99.2583 26.8926C99.1834 26.7576 99.0772 26.6426 98.9484 26.5574C98.8197 26.4722 98.6723 26.4193 98.5188 26.4032C98.5016 26.4022 98.4844 26.4057 98.469 26.4132C98.4535 26.4207 98.4402 26.4321 98.4303 26.4462C98.4204 26.4604 98.4144 26.4768 98.4126 26.4939C98.4109 26.511 98.4136 26.5283 98.4204 26.5442Z" fill="#263238"/>
<path d="M103.881 28.9754C103.123 30.8693 102.777 32.0184 101.487 32.6808C99.5268 33.6783 97.4334 31.9812 97.609 29.8931C97.7659 28.0151 98.9762 25.2328 101.12 25.1051C101.594 25.0784 102.067 25.1721 102.495 25.3774C102.923 25.5827 103.292 25.893 103.567 26.2794C103.843 26.6657 104.016 27.1156 104.071 27.587C104.126 28.0584 104.061 28.536 103.881 28.9754Z" fill="#FFC3BD"/>
<path d="M99.6223 29.0366C99.5705 29.4656 99.6093 29.9008 99.7363 30.3139C99.8632 30.727 100.075 31.1089 100.359 31.4348C100.643 31.7608 100.992 32.0235 101.384 32.206C101.776 32.3886 102.201 32.4869 102.633 32.4946C104.538 32.4946 104.567 29.7814 104.229 29.1563C105.24 28.9807 105.825 27.5922 105.208 26.7144C106.137 25.9855 103.99 24.879 101.378 24.7353C98.4971 24.5757 99.0238 26.2728 99.9841 26.7862C99.0611 27.0602 98.9653 28.7041 99.6223 29.0366Z" fill="#263238"/>
<path d="M99.0693 25.4615C99.0693 25.4615 99.2529 27.6933 101.128 29.0366C103.003 30.3799 104.671 30.5049 104.671 30.5049L105.134 29.0366C105.134 29.0366 100.899 26.4856 99.4683 25.0599C99.3275 25.1857 99.1942 25.3198 99.0693 25.4615Z" fill="#CE9E41"/>
<path opacity="0.6" d="M99.0693 25.4615C99.0693 25.4615 99.2529 27.6933 101.128 29.0366C103.003 30.3799 104.671 30.5049 104.671 30.5049L105.134 29.0366C105.134 29.0366 100.899 26.4856 99.4683 25.0599C99.3275 25.1857 99.1942 25.3198 99.0693 25.4615Z" fill="white"/>
<path d="M100.618 29.0632C100.373 29.4233 99.9999 29.6764 99.5748 29.7707C99.0428 29.8745 98.8726 29.3318 99.1093 28.8078C99.3221 28.337 99.8594 27.7145 100.357 27.8475C100.854 27.9805 100.937 28.6056 100.618 29.0632Z" fill="#FFC3BD"/>
<path d="M104.229 35.1519C101.532 34.4098 97.6297 33.8724 94.975 33.9443C94.3184 33.9645 93.687 34.2023 93.1801 34.6202C92.6731 35.038 92.3193 35.6124 92.174 36.2531C91.275 40.1527 91.1367 47.1804 90.876 54.2374C96.6641 57.1634 103.147 56.0036 103.147 56.0036C103.49 54.6231 103.413 49.9229 103.293 47.4012C104.011 44.9221 105.312 42.153 106.299 38.8653C106.411 38.4856 106.446 38.0873 106.403 37.6937C106.359 37.3002 106.238 36.9193 106.045 36.5734C105.852 36.2275 105.592 35.9236 105.28 35.6795C104.969 35.4354 104.611 35.256 104.229 35.1519Z" fill="#CE9E41"/>
<path opacity="0.7" d="M104.229 35.1519C101.532 34.4098 97.6297 33.8724 94.975 33.9443C94.3184 33.9645 93.687 34.2023 93.1801 34.6202C92.6731 35.038 92.3193 35.6124 92.174 36.2531C91.275 40.1527 91.1367 47.1804 90.876 54.2374C96.6641 57.1634 103.147 56.0036 103.147 56.0036C103.49 54.6231 103.413 49.9229 103.293 47.4012C104.011 44.9221 105.312 42.153 106.299 38.8653C106.411 38.4856 106.446 38.0873 106.403 37.6937C106.359 37.3002 106.238 36.9193 106.045 36.5734C105.852 36.2275 105.592 35.9236 105.28 35.6795C104.969 35.4354 104.611 35.256 104.229 35.1519Z" fill="white"/>
<path d="M95.7231 33.5533C93.4994 33.4256 92.1162 34.5242 91.5496 37.8811C90.983 41.238 90.3712 48.8483 90.6079 51.5934C98.0746 54.7348 102.706 53.4554 103.703 52.7239C104.094 52.1254 103.95 50.266 103.754 49.5319C104.253 48.2134 104.503 46.8135 104.49 45.4036C105.597 44.3396 106.086 42.2993 106.124 41.5067C107.097 40.2086 107.228 37.2693 106.688 36.4314C106.148 35.5935 104.578 34.048 95.7231 33.5533Z" fill="#263238"/>
<path opacity="0.2" d="M91.6799 52.1546C91.6446 52.1546 91.6108 52.1406 91.5858 52.1157C91.5609 52.0907 91.5469 52.0569 91.5469 52.0216C91.5469 46.6272 92.2677 38.6711 93.2812 35.8808C93.2932 35.8476 93.3179 35.8206 93.3498 35.8056C93.3817 35.7907 93.4183 35.789 93.4514 35.801C93.4681 35.8066 93.4834 35.8155 93.4965 35.8272C93.5096 35.8389 93.5202 35.8532 93.5276 35.8691C93.5351 35.885 93.5392 35.9022 93.5398 35.9198C93.5405 35.9373 93.5375 35.9548 93.5312 35.9712C92.6242 38.4689 91.8182 45.9701 91.8129 52.0216C91.8129 52.0391 91.8094 52.0564 91.8028 52.0725C91.7961 52.0887 91.7863 52.1033 91.7739 52.1157C91.7616 52.128 91.7469 52.1378 91.7308 52.1445C91.7146 52.1512 91.6973 52.1546 91.6799 52.1546Z" fill="white"/>
<path d="M95.6854 37.24C95.281 37.9768 94.8714 38.6339 94.4298 39.3122C93.9883 39.9905 93.5254 40.6422 93.02 41.2859C92.5116 41.9522 91.9645 42.5882 91.3815 43.1904C91.0682 43.5173 90.736 43.8255 90.3866 44.1135C89.9788 44.4588 89.5325 44.756 89.0566 44.9992L88.9609 45.0471C88.9128 45.0705 88.863 45.0901 88.8119 45.1056C88.0134 45.3405 87.1776 45.4217 86.3487 45.345C85.9784 45.3164 85.6104 45.2622 85.2475 45.1828C84.9001 45.1117 84.5565 45.0229 84.2181 44.9168C83.5693 44.7084 82.9379 44.4496 82.3295 44.1427C82.0289 43.9911 81.739 43.8288 81.4517 43.6586C81.1644 43.4884 80.8984 43.3128 80.5978 43.0947C80.405 42.9559 80.2663 42.7546 80.2053 42.525C80.1443 42.2954 80.1648 42.0517 80.2633 41.8356C80.3619 41.6194 80.5323 41.4441 80.7456 41.3395C80.9589 41.2349 81.2018 41.2075 81.4331 41.2619L81.5235 41.2832L82.3561 41.4774C82.638 41.5439 82.9227 41.6024 83.2046 41.6556C83.7534 41.7638 84.3075 41.8437 84.8645 41.895C85.3733 41.9413 85.8852 41.9413 86.394 41.895C86.7999 41.8646 87.1975 41.7647 87.5697 41.5998L87.325 41.7088C87.5152 41.5691 87.6932 41.4133 87.857 41.2433C88.0618 41.0332 88.2826 40.7938 88.4954 40.5384C88.7082 40.2831 88.921 40.0064 89.1285 39.7271C89.3359 39.4478 89.5514 39.1579 89.7562 38.86C90.1632 38.2694 90.5702 37.6603 90.9665 37.0405C91.3629 36.4207 91.7645 35.7797 92.1316 35.1785L92.1502 35.1466C92.2877 34.9145 92.4695 34.7117 92.6853 34.5499C92.9011 34.388 93.1467 34.2703 93.4081 34.2033C93.6694 34.1364 93.9413 34.1216 94.2084 34.1597C94.4755 34.1979 94.7324 34.2883 94.9645 34.4257C95.1966 34.5632 95.3994 34.745 95.5612 34.9608C95.7231 35.1767 95.8408 35.4223 95.9078 35.6836C95.9747 35.9449 95.9895 36.2169 95.9514 36.4839C95.9132 36.751 95.8228 37.0079 95.6854 37.24Z" fill="#CE9E41"/>
<path opacity="0.7" d="M95.6854 37.24C95.281 37.9768 94.8714 38.6339 94.4298 39.3122C93.9883 39.9905 93.5254 40.6422 93.02 41.2859C92.5116 41.9522 91.9645 42.5882 91.3815 43.1904C91.0682 43.5173 90.736 43.8255 90.3866 44.1135C89.9788 44.4588 89.5325 44.756 89.0566 44.9992L88.9609 45.0471C88.9128 45.0705 88.863 45.0901 88.8119 45.1056C88.0134 45.3405 87.1776 45.4217 86.3487 45.345C85.9784 45.3164 85.6104 45.2622 85.2475 45.1828C84.9001 45.1117 84.5565 45.0229 84.2181 44.9168C83.5693 44.7084 82.9379 44.4496 82.3295 44.1427C82.0289 43.9911 81.739 43.8288 81.4517 43.6586C81.1644 43.4884 80.8984 43.3128 80.5978 43.0947C80.405 42.9559 80.2663 42.7546 80.2053 42.525C80.1443 42.2954 80.1648 42.0517 80.2633 41.8356C80.3619 41.6194 80.5323 41.4441 80.7456 41.3395C80.9589 41.2349 81.2018 41.2075 81.4331 41.2619L81.5235 41.2832L82.3561 41.4774C82.638 41.5439 82.9227 41.6024 83.2046 41.6556C83.7534 41.7638 84.3075 41.8437 84.8645 41.895C85.3733 41.9413 85.8852 41.9413 86.394 41.895C86.7999 41.8646 87.1975 41.7647 87.5697 41.5998L87.325 41.7088C87.5152 41.5691 87.6932 41.4133 87.857 41.2433C88.0618 41.0332 88.2826 40.7938 88.4954 40.5384C88.7082 40.2831 88.921 40.0064 89.1285 39.7271C89.3359 39.4478 89.5514 39.1579 89.7562 38.86C90.1632 38.2694 90.5702 37.6603 90.9665 37.0405C91.3629 36.4207 91.7645 35.7797 92.1316 35.1785L92.1502 35.1466C92.2877 34.9145 92.4695 34.7117 92.6853 34.5499C92.9011 34.388 93.1467 34.2703 93.4081 34.2033C93.6694 34.1364 93.9413 34.1216 94.2084 34.1597C94.4755 34.1979 94.7324 34.2883 94.9645 34.4257C95.1966 34.5632 95.3994 34.745 95.5612 34.9608C95.7231 35.1767 95.8408 35.4223 95.9078 35.6836C95.9747 35.9449 95.9895 36.2169 95.9514 36.4839C95.9132 36.751 95.8228 37.0079 95.6854 37.24Z" fill="white"/>
<path d="M105.171 29.9702C105.136 30.004 105.093 30.0277 105.047 30.039C105 30.0502 104.951 30.0485 104.905 30.0341C103.409 29.4625 102.033 28.6183 100.846 27.5443C98.832 25.6983 98.6591 23.5836 99.5529 24.5944C100.048 24.0624 102.149 23.4133 104.096 24.2565C106.155 25.153 107.147 27.93 105.171 29.9702Z" fill="#CE9E41"/>
<path d="M103.45 24.0331C103.957 24.5138 104.319 25.1259 104.498 25.8009C104.676 26.476 104.664 27.1873 104.461 27.8555C104.894 27.7615 105.31 27.6019 105.695 27.3821C105.695 27.3821 106.006 25.8898 105.429 24.9295C104.852 23.9693 103.575 23.7272 103.45 24.0331Z" fill="#CE9E41"/>
<path opacity="0.2" d="M104.461 27.8555C104.664 27.1873 104.676 26.4759 104.498 25.8009C104.319 25.1259 103.957 24.5138 103.45 24.0331C103.467 24.0032 103.491 23.9778 103.52 23.9588C103.548 23.9399 103.581 23.9279 103.615 23.924C104.019 24.1847 105.134 25.7674 104.461 27.8555Z" fill="black"/>
</svg>
