<svg width="133" height="127" viewBox="0 0 133 127" fill="none" xmlns="http://www.w3.org/2000/svg">
<path d="M121.112 19.4508C125.588 19.4508 129.216 15.8222 129.216 11.346C129.216 6.86992 125.588 3.2413 121.112 3.2413C116.635 3.2413 113.007 6.86992 113.007 11.346C113.007 15.8222 116.635 19.4508 121.112 19.4508Z" fill="#EBEBEB"/>
<path d="M121.483 19.2607C125.754 19.2607 129.216 15.7982 129.216 11.527C129.216 7.25576 125.754 3.79327 121.483 3.79327C117.212 3.79327 113.749 7.25576 113.749 11.527C113.749 15.7982 117.212 19.2607 121.483 19.2607Z" fill="#DBDBDB"/>
<path d="M128.697 12.1219C129.025 8.13518 126.06 4.63703 122.073 4.30856C118.086 3.98009 114.588 6.94569 114.26 10.9324C113.931 14.9191 116.897 18.4173 120.884 18.7457C124.87 19.0742 128.369 16.1086 128.697 12.1219Z" fill="white"/>
<path opacity="0.5" d="M128.564 9.99065C125.267 11.9869 119.846 15.2681 116.813 17.065C115.957 16.342 115.28 15.4311 114.835 14.4033L124.856 5.11493C125.793 5.60746 126.61 6.29924 127.251 7.14161C127.891 7.98398 128.339 8.95646 128.564 9.99065Z" fill="#EBEBEB"/>
<path opacity="0.5" d="M128.723 11.7937C128.698 12.6001 128.536 13.3964 128.245 14.1488L119.211 18.4204C118.817 18.2921 118.435 18.1289 118.07 17.9329C120.799 16.3383 125.786 13.4681 128.723 11.7937Z" fill="#EBEBEB"/>
<path d="M121.556 4.80827H121.415V5.90608H121.556V4.80827Z" fill="#C7C7C7"/>
<path d="M118.187 5.6677L118.064 5.73824L118.613 6.68896L118.736 6.61843L118.187 5.6677Z" fill="#C7C7C7"/>
<path d="M115.694 8.0996L115.623 8.22176L116.574 8.77066L116.644 8.6485L115.694 8.0996Z" fill="#C7C7C7"/>
<path d="M115.865 11.4564H114.768V11.5975H115.865V11.4564Z" fill="#C7C7C7"/>
<path d="M116.579 14.2706L115.628 14.8195L115.698 14.9416L116.649 14.3927L116.579 14.2706Z" fill="#C7C7C7"/>
<path d="M118.62 16.3653L118.071 17.3163L118.193 17.3867L118.742 16.4357L118.62 16.3653Z" fill="#C7C7C7"/>
<path d="M121.556 17.1478H121.415V18.2456H121.556V17.1478Z" fill="#C7C7C7"/>
<path d="M124.358 16.3582L124.235 16.4287L124.784 17.3795L124.906 17.3089L124.358 16.3582Z" fill="#C7C7C7"/>
<path d="M126.38 14.2691L126.31 14.3912L127.26 14.9401L127.331 14.818L126.38 14.2691Z" fill="#C7C7C7"/>
<path d="M128.201 11.4564H127.104V11.5975H128.201V11.4564Z" fill="#C7C7C7"/>
<path d="M127.267 8.10229L126.316 8.65135L126.387 8.7735L127.338 8.22444L127.267 8.10229Z" fill="#C7C7C7"/>
<path d="M124.782 5.67388L124.233 6.62489L124.356 6.69536L124.904 5.74435L124.782 5.67388Z" fill="#C7C7C7"/>
<path d="M121.59 5.30505L121.83 12.0145L121.14 12.0053L121.403 5.30199L121.59 5.30505Z" fill="#C7C7C7"/>
<path d="M125.77 9.18723L121.256 12.0667L120.928 11.4656L125.681 9.02164L125.77 9.18723Z" fill="#A6A6A6"/>
<path d="M121.719 11.527C121.719 11.5737 121.705 11.6193 121.68 11.6581C121.654 11.697 121.617 11.7272 121.574 11.7451C121.53 11.763 121.483 11.7677 121.437 11.7586C121.391 11.7494 121.349 11.727 121.316 11.6939C121.283 11.6609 121.261 11.6188 121.252 11.573C121.242 11.5272 121.247 11.4798 121.265 11.4366C121.283 11.3935 121.313 11.3566 121.352 11.3306C121.391 11.3047 121.436 11.2908 121.483 11.2908C121.546 11.2908 121.606 11.3157 121.65 11.36C121.694 11.4043 121.719 11.4643 121.719 11.527Z" fill="#C7C7C7"/>
<path d="M94.2217 84.5647C94.2217 84.5647 99.0238 83.4761 101.655 81.0535C104.286 78.631 105.755 74.2858 105.755 74.2858C103.93 74.6344 102.131 75.1067 100.37 75.6994C99.7109 76.3778 99.1615 77.1548 98.7417 78.0024C98.7013 77.4542 98.7013 76.9038 98.7417 76.3557C98.1276 76.6214 97.5529 76.9702 97.0337 77.3922C94.838 79.3026 94.2217 84.5647 94.2217 84.5647Z" fill="#DBDBDB"/>
<path d="M102.759 76.3955C103.412 75.9417 104.077 75.5063 104.73 75.0493C104.739 75.0441 104.745 75.0356 104.747 75.0258C104.75 75.016 104.748 75.0058 104.743 74.9972C104.737 74.9887 104.729 74.9826 104.719 74.9803C104.709 74.978 104.699 74.9797 104.691 74.985C103.464 75.724 102.237 76.5182 101.054 77.34C100.643 77.6283 100.238 77.9288 99.8271 78.2354L99.9099 78.0913C100.054 77.8521 100.217 77.616 100.358 77.3799C100.659 76.898 101 76.4425 101.379 76.0184C101.379 76.003 101.379 75.9785 101.354 75.9969C100.98 76.4262 100.606 76.8524 100.266 77.3094C100.103 77.5271 99.9589 77.754 99.8087 77.984C99.7351 78.1036 99.6615 78.2232 99.594 78.3458L99.5204 78.4685C98.9071 78.9561 98.2938 79.4651 97.7204 80.0017C97.3647 80.335 97.0202 80.6784 96.687 81.0321C96.874 80.4525 97.0366 79.8637 97.2512 79.2934C97.2512 79.2893 97.2496 79.2854 97.2467 79.2825C97.2439 79.2797 97.24 79.278 97.2359 79.278C97.2318 79.278 97.2279 79.2797 97.225 79.2825C97.2222 79.2854 97.2206 79.2893 97.2206 79.2934C97.012 79.9067 96.782 80.4954 96.6073 81.1149C96.2393 81.5115 95.8897 81.9203 95.5585 82.3415C95.5585 82.3169 95.5585 82.2893 95.5738 82.2648C95.629 82.0379 95.6873 81.811 95.7456 81.5871C95.8621 81.1517 95.9909 80.7224 96.1381 80.2961C96.4139 79.4113 96.8505 78.5848 97.426 77.8583C97.4413 77.8429 97.426 77.8215 97.4045 77.8368C96.5039 78.9578 95.8742 80.2717 95.5646 81.676C95.5115 81.8805 95.4624 82.0849 95.4175 82.2893C95.3929 82.3967 95.3653 82.5101 95.3469 82.6205C95.1997 82.8249 95.0587 83.0243 94.9238 83.2185C94.1043 84.4701 93.4226 85.8067 92.8907 87.2049C92.2937 88.7748 91.7818 90.3758 91.3574 92.0009C91.3574 92.0074 91.36 92.0137 91.3646 92.0183C91.3692 92.0229 91.3754 92.0255 91.3819 92.0255C91.3885 92.0255 91.3947 92.0229 91.3993 92.0183C91.4039 92.0137 91.4065 92.0074 91.4065 92.0009C92.3479 89.192 93.3046 86.3432 94.9115 83.8318C95.2515 83.3027 95.6179 82.7909 96.0093 82.2985C96.8041 82.2449 97.5885 82.0882 98.3429 81.8324C99.1672 81.5549 99.9533 81.1747 100.683 80.7009C101.099 80.4224 101.499 80.1204 101.882 79.7963C101.9 79.7809 101.882 79.7564 101.863 79.7717C101.192 80.3117 100.452 80.7593 99.6615 81.1026C98.8851 81.4587 98.073 81.7311 97.239 81.9152C96.8863 81.9919 96.5275 82.0501 96.1657 82.0992C96.6102 81.5515 97.0831 81.0274 97.5824 80.5292C97.7449 80.3666 97.9105 80.2225 98.0792 80.0569C98.6381 79.6656 99.2313 79.3259 99.8516 79.0419C100.64 78.6617 101.412 78.2569 102.191 77.8613C102.633 77.6375 103.068 77.4105 103.51 77.1928C103.528 77.1928 103.51 77.156 103.495 77.1652C102.703 77.5455 101.903 77.9043 101.106 78.2692C100.358 78.6095 99.6002 78.9561 98.8795 79.3608L98.7875 79.413C99.4376 78.8487 100.112 78.309 100.802 77.7877C101.45 77.3155 102.102 76.8514 102.759 76.3955Z" fill="#A6A6A6"/>
<path d="M102.486 78.8702C102.094 79.0419 101.698 79.1922 101.312 79.3731C100.925 79.554 100.536 79.7779 100.159 80.0017C100.143 80.0017 100.159 80.0324 100.174 80.0263C100.557 79.8423 100.944 79.6706 101.324 79.4804C101.704 79.2903 102.097 79.0757 102.495 78.9009C102.514 78.8947 102.505 78.861 102.486 78.8702Z" fill="#A6A6A6"/>
<path d="M78.6318 60.3731C79.5181 61.5174 80.0195 62.9129 80.0639 64.3596C80.0823 64.7889 80.0118 65.3899 79.9627 66.0952C81.1612 66.7899 82.2232 67.6971 83.0966 68.7722C82.1374 68.2157 81.0362 67.9524 79.929 68.0148C79.9557 68.497 80.0172 68.9766 80.1129 69.4499C80.8115 69.4489 81.5033 69.5854 82.1491 69.8516C81.5171 69.8437 80.8904 69.968 80.3092 70.2166C81.1648 72.9396 83.7099 75.7363 90.7353 76.923C91.4787 73.5838 91.0386 70.0901 89.4903 67.0397C87.3867 62.8999 78.6318 60.3731 78.6318 60.3731Z" fill="#DBDBDB"/>
<path d="M93.1636 88.5726C93.0451 87.4094 92.8938 86.2502 92.7098 85.0952C92.3545 82.7809 91.8816 80.4863 91.2931 78.2201C91.0202 77.1561 90.6833 76.1095 90.2842 75.0862C90.3056 74.8999 90.3148 74.7124 90.3118 74.525C90.3118 74.2981 90.3118 74.0742 90.3118 73.8473C90.3118 73.3996 90.2873 72.9488 90.2474 72.5011C90.1756 71.6127 90.031 70.7317 89.815 69.867C89.6862 69.3671 89.539 68.8734 89.3918 68.3797C89.3918 68.3757 89.3902 68.3718 89.3873 68.3689C89.3845 68.366 89.3806 68.3644 89.3765 68.3644C89.3724 68.3644 89.3685 68.366 89.3657 68.3689C89.3628 68.3718 89.3612 68.3757 89.3612 68.3797C89.5936 69.2429 89.7667 70.1209 89.8794 71.0077C90.0041 71.8821 90.0829 72.7623 90.1155 73.6449C90.1155 73.8872 90.1155 74.1263 90.1155 74.3686C90.1155 74.4698 90.1155 74.574 90.1155 74.6752C89.772 73.8344 89.3777 73.0152 88.9349 72.2221C88.2202 70.9667 87.4157 69.7645 86.5277 68.6251C86.5262 68.4924 86.5076 68.3605 86.4725 68.2325C86.4388 68.0762 86.4051 67.9259 86.3683 67.7634C86.2967 67.4424 86.217 67.1235 86.1291 66.8066C85.9543 66.1688 85.7243 65.5555 85.5158 64.9269C85.5158 64.9228 85.5142 64.9189 85.5113 64.916C85.5084 64.9132 85.5045 64.9115 85.5005 64.9115C85.4964 64.9115 85.4925 64.9132 85.4896 64.916C85.4867 64.9189 85.4851 64.9228 85.4851 64.9269C85.6722 65.5402 85.7918 66.1933 85.9359 66.825C86.0064 67.1317 86.077 67.4383 86.1444 67.7664L86.2456 68.2387C86.2444 68.2499 86.2444 68.2612 86.2456 68.2724C85.9604 67.9136 85.6722 67.561 85.3747 67.2145C84.0347 65.6414 82.5628 64.1909 81.0816 62.7497C80.9007 62.5718 80.7137 62.4001 80.5297 62.2253C80.5143 62.21 80.4929 62.2253 80.5082 62.2498C81.9219 63.7248 83.314 65.2182 84.6326 66.779C84.9393 67.1501 85.2459 67.5272 85.5526 67.9075C85.3931 67.7971 85.2459 67.6928 85.0742 67.6008C84.6664 67.3341 84.2524 67.0734 83.8262 66.8342C83.3999 66.595 82.9706 66.362 82.5321 66.1473C82.0936 65.9327 81.6121 65.7395 81.1644 65.488C81.146 65.488 81.1307 65.5095 81.1491 65.5156C81.5928 65.7219 82.0212 65.9596 82.4309 66.2271C82.8571 66.4816 83.2865 66.7361 83.7035 67.0029C84.1205 67.2697 84.5314 67.5211 84.9301 67.7879C85.2735 68.0118 85.6078 68.254 85.9635 68.4564C86.7776 69.5038 87.5292 70.5984 88.2143 71.7345C88.6384 72.4495 89.0263 73.1853 89.3765 73.9393L89.125 73.8289L88.4811 73.5437L87.2392 73.0009C86.4511 72.6606 85.6507 72.3447 84.878 71.9675C84.4424 71.7635 84.0213 71.5299 83.6176 71.2684C83.5992 71.2684 83.5839 71.2837 83.6023 71.296C85.0405 72.2895 86.6688 72.9887 88.2511 73.694L88.9411 74.0006C89.1312 74.0834 89.3213 74.1785 89.5176 74.2521C89.9893 75.3073 90.3859 76.3945 90.7043 77.5056C91.3344 79.7422 91.8462 82.0105 92.2375 84.301C92.6392 86.5947 92.9122 88.9007 93.1238 91.2251C93.1483 91.5134 93.1759 91.8047 93.2065 92.0929C93.2065 92.1173 93.2162 92.1407 93.2335 92.158C93.2507 92.1752 93.2741 92.1849 93.2985 92.1849C93.3229 92.1849 93.3463 92.1752 93.3636 92.158C93.3809 92.1407 93.3905 92.1173 93.3905 92.0929C93.4089 90.9093 93.2863 89.744 93.1636 88.5726Z" fill="#A6A6A6"/>
<path d="M88.8924 69.174C88.7636 68.4625 88.5857 67.7634 88.3803 67.0642C88.3803 67.0601 88.3787 67.0562 88.3758 67.0534C88.3729 67.0505 88.369 67.0489 88.3649 67.0489C88.3609 67.0489 88.357 67.0505 88.3541 67.0534C88.3512 67.0562 88.3496 67.0601 88.3496 67.0642C88.5275 67.7511 88.6563 68.4503 88.782 69.1464C88.9077 69.8424 89.0304 70.5692 89.1316 71.2929H89.15C89.104 70.5823 89.018 69.8749 88.8924 69.174Z" fill="#A6A6A6"/>
<path d="M85.8653 71.112C85.3744 70.7912 84.8621 70.5043 84.3321 70.2534C84.0745 70.1215 83.8138 69.9958 83.5562 69.87C83.2986 69.7443 83.0104 69.6309 82.7467 69.499C82.7283 69.499 82.7099 69.5174 82.7313 69.5266C82.9859 69.6554 83.2312 69.8118 83.4826 69.9498L84.2615 70.376C84.767 70.6698 85.2869 70.938 85.8193 71.1794C85.8283 71.1855 85.8392 71.1878 85.8499 71.1858C85.8605 71.1838 85.8699 71.1776 85.876 71.1687C85.8821 71.1598 85.8844 71.1487 85.8824 71.1381C85.8804 71.1275 85.8742 71.1181 85.8653 71.112Z" fill="#A6A6A6"/>
<path opacity="0.1" d="M94.3105 76.2484C94.3105 76.2484 98.7508 75.1873 100.79 72.2067C102.74 69.361 103.369 64.5098 103.418 64.0836C103.338 64.4761 102.421 68.714 99.3979 70.6888C97.0827 72.2036 94.8441 73.4486 94.3105 76.2484Z" fill="#A6A6A6"/>
<path d="M98.4109 68.5729C97.6209 69.2995 97.0532 70.2352 96.7734 71.2714C96.7734 71.2714 96.7734 71.2714 96.7734 71.2714C97.101 70.2605 97.6656 69.3427 98.4201 68.5944C98.4477 68.5821 98.4263 68.5576 98.4109 68.5729Z" fill="#A6A6A6"/>
<path d="M94.3106 76.2484C94.3106 76.2484 98.7509 75.1873 100.79 72.2067C102.74 69.361 103.369 64.5098 103.418 64.0836C103.42 64.0734 103.42 64.0631 103.418 64.0529C103.418 64.0529 101.272 67.0826 99.0483 67.8554C96.8251 68.6281 93.6575 71.299 94.3106 76.2484Z" fill="#DBDBDB"/>
<path d="M102.636 65.7242C102.239 66.541 101.78 67.3263 101.262 68.0731C100.74 68.7828 100.121 69.4156 99.4225 69.9528C98.8092 70.4312 98.1959 70.8728 97.5826 71.3358L97.598 71.3144C97.7114 71.1426 97.8341 70.9801 97.9629 70.8176C98.2143 70.4926 98.4934 70.1859 98.7724 69.8823C99.3244 69.2843 99.8886 68.6956 100.382 68.0424C100.658 67.6836 100.897 67.2984 101.097 66.8925C101.097 66.8741 101.075 66.8649 101.066 66.8925C100.346 68.3951 98.9043 69.3457 97.8801 70.6213C97.7333 70.801 97.5961 70.9883 97.4692 71.1825C97.3667 71.3238 97.2803 71.476 97.2116 71.6363C96.6496 72.0877 96.1413 72.6022 95.6967 73.1696C95.7356 72.8785 95.795 72.5906 95.8746 72.3079C95.9774 71.9121 96.1364 71.5331 96.3468 71.1825C96.3468 71.1641 96.3284 71.1457 96.3192 71.1641C96.1034 71.5157 95.9295 71.8914 95.801 72.2834C95.7073 72.5953 95.6527 72.9178 95.6385 73.2432C95.4201 73.537 95.2204 73.8443 95.0405 74.1631L95.0957 73.878C95.1816 73.4364 95.2797 72.9948 95.4023 72.5563C95.6113 71.667 95.9723 70.8205 96.4695 70.054C96.4695 70.054 96.4541 70.0203 96.4419 70.0356C95.9336 70.7934 95.5351 71.6194 95.2582 72.4888C95.1172 72.9243 95.0037 73.3689 94.9056 73.8136C94.8565 74.0343 94.8105 74.2521 94.7706 74.4729C94.7492 74.5863 94.7247 74.7028 94.7063 74.8194C94.266 75.7871 93.9219 76.7957 93.679 77.8307C93.2454 79.6833 92.931 81.5618 92.7376 83.4546C92.5066 85.434 92.4042 87.4263 92.4309 89.4189C92.4309 89.6673 92.4493 89.9188 92.4616 90.1672C92.4616 90.2316 92.5628 90.2408 92.5658 90.1672C92.6088 89.1797 92.6333 88.1954 92.6916 87.2111C92.7498 86.2267 92.8357 85.2393 92.943 84.258C93.1422 82.3278 93.4493 80.4103 93.863 78.5145C94.2217 76.8923 94.6879 75.2548 95.5771 73.832C96.0191 73.1246 96.559 72.4835 97.1809 71.9277C97.7942 71.3696 98.4842 70.8789 99.1404 70.3607C99.8052 69.8557 100.409 69.2753 100.94 68.6312C101.482 67.9131 101.955 67.1451 102.351 66.3374L102.658 65.7242C102.673 65.7242 102.645 65.7058 102.636 65.7242Z" fill="#A6A6A6"/>
<path d="M78.0186 74.2858C78.0186 74.2858 77.9481 80.5966 81.723 82.4181C85.4978 84.2396 87.5186 82.7248 90.0853 83.3381C89.9872 83.1878 88.1565 80.5568 85.2433 79.83C82.2351 79.0787 78.9171 76.9138 78.0186 74.2858Z" fill="#DBDBDB"/>
<path opacity="0.1" d="M78.0186 74.2858C78.0186 74.2858 77.9481 80.5966 81.723 82.4181C85.4978 84.2396 87.5186 82.7248 90.0853 83.3381C88.7304 82.6912 87.2813 82.2638 85.7922 82.0716C83.4003 81.7803 78.8527 80.2287 78.0186 74.2858Z" fill="#A6A6A6"/>
<path d="M90.3239 83.4454C89.8744 83.0366 89.3683 82.6947 88.8213 82.4304C88.7416 82.3905 88.6588 82.3599 88.576 82.3261C88.4932 82.2924 88.4932 82.228 88.4502 82.1789C88.3368 82.0624 88.2172 81.9489 88.0945 81.8416C87.8576 81.6376 87.6032 81.4549 87.334 81.2958C86.7207 80.9278 86.0246 80.6825 85.3837 80.3298C85.3653 80.3298 85.35 80.3482 85.3837 80.3574C85.6904 80.52 85.997 80.7009 86.3037 80.8818C86.6103 81.0627 86.917 81.2222 87.1991 81.4092C87.4625 81.5769 87.7126 81.7645 87.9473 81.9704C88.0148 82.0287 88.0761 82.0931 88.1405 82.1575C87.7236 82.015 87.2974 81.9013 86.8649 81.8171C86.1749 81.676 85.4757 81.5779 84.7858 81.4307C84.447 81.3588 84.1122 81.2687 83.783 81.1609C83.4764 80.9094 83.1697 80.658 82.8631 80.385C82.5039 80.0556 82.1764 79.6932 81.8849 79.3026C81.8849 79.3026 81.845 79.3026 81.8573 79.321C82.3157 79.9401 82.8345 80.5122 83.4059 81.029C83.2433 80.9646 83.0808 80.9002 82.9244 80.8266C81.6276 80.2466 80.5149 79.3217 79.7077 78.1526C79.7077 78.1342 79.6678 78.1526 79.6801 78.168C80.3647 79.1719 81.2502 80.0229 82.2805 80.6672C82.7962 80.9898 83.3478 81.2512 83.9241 81.446C84.5942 81.6527 85.2775 81.8135 85.9694 81.9275C86.6463 82.0383 87.3145 82.1972 87.9688 82.4028C88.5705 82.608 89.1365 82.906 89.6462 83.2859C90.6082 84.0328 91.383 84.9934 91.9092 86.0918C92.5824 87.5432 93.0034 89.0987 93.1542 90.6915C93.1542 90.759 93.2677 90.759 93.2616 90.6915C93.0776 88.0513 92.3692 85.2884 90.3239 83.4454Z" fill="#A6A6A6"/>
<path d="M85.9425 81.4031C85.7458 81.1086 85.4793 80.8674 85.1667 80.7009C84.8101 80.5134 84.4967 80.2533 84.2467 79.9373C84.2467 79.9189 84.2069 79.9373 84.2191 79.9527C84.4462 80.2419 84.7223 80.4889 85.0348 80.6825C85.378 80.8651 85.6805 81.1155 85.9241 81.4184L85.9425 81.4031Z" fill="#A6A6A6"/>
<path d="M87.9482 88.1065L88.12 91.5777L88.6443 102.185H96.562L97.0895 91.5777L97.2612 88.1065H87.9482Z" fill="#EBEBEB"/>
<path d="M87.9482 88.1065L88.12 91.5777H97.0895L97.2612 88.1065H87.9482Z" fill="#DBDBDB"/>
<path d="M87.3923 89.9709H97.8184V86.6591H87.3923V89.9709Z" fill="#EBEBEB"/>
<path d="M13.3156 34.2803L11.9541 37.2824L12.874 37.6964C13.0059 37.7577 13.1181 37.8543 13.1982 37.9756C13.2784 38.0969 13.3233 38.238 13.3279 38.3833C13.3279 38.5458 13.3524 38.7084 13.377 38.8739C13.3996 39.0161 13.383 39.1618 13.329 39.2953C13.2749 39.4288 13.1855 39.545 13.0703 39.6314L12.2485 40.2171L14.1681 42.8972L14.9899 42.3115C15.1079 42.2273 15.2469 42.1776 15.3915 42.1679C15.5361 42.1581 15.6805 42.1887 15.8087 42.2563C15.9541 42.3328 16.1036 42.4014 16.2564 42.4617C16.3919 42.5133 16.5106 42.6013 16.5993 42.716C16.688 42.8307 16.7434 42.9677 16.7593 43.1118L16.8574 44.1176L20.1355 43.7926L20.0374 42.7837C20.0242 42.6397 20.0513 42.4949 20.1158 42.3655C20.1802 42.236 20.2794 42.1271 20.4023 42.0508L20.6047 41.9128C20.6691 41.8668 20.7365 41.8178 20.7979 41.7656C20.9093 41.6741 21.0441 41.6153 21.187 41.5958C21.3299 41.5763 21.4755 41.5969 21.6074 41.6553L22.5274 42.0754L23.8889 39.0733L22.9689 38.6562C22.8372 38.5946 22.7249 38.4979 22.6443 38.3768C22.5637 38.2556 22.518 38.1147 22.512 37.9693C22.5058 37.8061 22.4905 37.6433 22.466 37.4818C22.443 37.3395 22.4595 37.1937 22.5135 37.0602C22.5676 36.9267 22.6572 36.8105 22.7727 36.7243L23.5945 36.1356L21.6749 33.4555L20.8531 34.0442C20.7348 34.1279 20.5956 34.1771 20.4511 34.1863C20.3065 34.1955 20.1622 34.1644 20.0343 34.0963C19.8896 34.0224 19.7412 33.9559 19.5897 33.897C19.457 33.8459 19.3409 33.7594 19.2538 33.647C19.1668 33.5346 19.1122 33.4004 19.096 33.2592L18.9948 32.2534L15.7167 32.5784L15.8148 33.5842C15.8264 33.7246 15.7997 33.8654 15.7376 33.9917C15.6755 34.1181 15.5803 34.2252 15.4622 34.3018C15.3924 34.3442 15.3248 34.3903 15.2598 34.4398C15.1923 34.4858 15.1279 34.5349 15.0635 34.5839C14.9522 34.6769 14.8171 34.7368 14.6734 34.7569C14.5298 34.7769 14.3834 34.7563 14.2509 34.6974L13.3156 34.2803ZM16.3484 35.9822C16.7819 35.6693 17.2984 35.492 17.8327 35.4727C18.367 35.4535 18.895 35.5933 19.3498 35.8743C19.8047 36.1553 20.1659 36.565 20.3878 37.0514C20.6097 37.5378 20.6822 38.0792 20.5963 38.6069C20.5103 39.1345 20.2698 39.6249 19.905 40.0157C19.5402 40.4066 19.0677 40.6805 18.5472 40.8027C18.0267 40.9248 17.4816 40.8898 16.9811 40.7021C16.4805 40.5143 16.0468 40.1822 15.7351 39.7479C15.3176 39.1668 15.1479 38.4436 15.2635 37.7374C15.3791 37.0313 15.7704 36.3999 16.3515 35.9822H16.3484Z" fill="#EBEBEB"/>
<path d="M122.483 64.47L120.484 65.623L120.836 66.2363C120.887 66.3246 120.912 66.4253 120.909 66.5271C120.906 66.6289 120.874 66.7278 120.818 66.8128C120.757 66.9078 120.698 67.009 120.646 67.1194C120.601 67.2105 120.532 67.2873 120.446 67.3414C120.359 67.3955 120.26 67.4248 120.159 67.4261H119.45V69.7351H120.159C120.26 69.7364 120.359 69.7657 120.446 69.8198C120.532 69.8739 120.601 69.9507 120.646 70.0418C120.698 70.1471 120.755 70.2494 120.818 70.3484C120.874 70.4333 120.906 70.5322 120.909 70.6341C120.912 70.7359 120.887 70.8366 120.836 70.9249L120.484 71.5382L122.483 72.6912L122.839 72.0779C122.89 71.9904 122.965 71.9189 123.055 71.8713C123.145 71.8237 123.246 71.8018 123.348 71.8081H123.516H123.688C123.789 71.8021 123.889 71.8238 123.978 71.8708C124.068 71.9178 124.142 71.9884 124.194 72.0749L124.55 72.6882L126.549 71.5352L126.196 70.9219C126.146 70.8335 126.12 70.7325 126.124 70.6305C126.128 70.5285 126.161 70.4297 126.218 70.3454C126.281 70.2464 126.338 70.1441 126.39 70.0387C126.434 69.9472 126.504 69.87 126.59 69.8158C126.676 69.7616 126.775 69.7326 126.877 69.7321H127.583V67.423H126.877C126.775 67.4224 126.676 67.3934 126.59 67.3392C126.504 67.285 126.434 67.2078 126.39 67.1163C126.338 67.0151 126.279 66.917 126.218 66.8097C126.161 66.7258 126.128 66.6275 126.125 66.5261C126.121 66.4246 126.146 66.3242 126.196 66.2363L126.549 65.623L124.55 64.47L124.197 65.0833C124.145 65.1707 124.07 65.2422 123.981 65.2899C123.891 65.3375 123.79 65.3594 123.688 65.3531H123.516H123.348C123.246 65.3594 123.145 65.3375 123.055 65.2899C122.965 65.2422 122.89 65.1707 122.839 65.0833L122.483 64.47ZM123.516 66.6778C123.891 66.6778 124.257 66.7889 124.568 66.9969C124.879 67.2049 125.122 67.5006 125.265 67.8465C125.408 68.1924 125.445 68.573 125.372 68.9401C125.299 69.3072 125.118 69.6443 124.853 69.9088C124.588 70.1733 124.251 70.3532 123.884 70.4259C123.516 70.4986 123.136 70.4607 122.79 70.317C122.445 70.1733 122.149 69.9303 121.942 69.6188C121.734 69.3072 121.624 68.9411 121.624 68.5668C121.625 68.318 121.675 68.0717 121.771 67.8422C121.868 67.6128 122.008 67.4046 122.185 67.2296C122.362 67.0547 122.572 66.9164 122.802 66.8227C123.033 66.7291 123.28 66.6819 123.529 66.684L123.516 66.6778Z" fill="#EBEBEB"/>
<path d="M5.82399 28.4448L7.22538 30.2847L7.78655 29.8554C7.86716 29.793 7.9638 29.7547 8.06528 29.7449C8.16677 29.7351 8.26894 29.7543 8.35998 29.8002C8.46424 29.8493 8.57157 29.8922 8.66663 29.9321C8.76245 29.9655 8.84721 30.0246 8.91158 30.1031C8.97596 30.1815 9.01747 30.2762 9.03154 30.3767L9.12354 31.0789L11.4142 30.7723L11.3222 30.0731C11.3095 29.9721 11.3252 29.8696 11.3674 29.777C11.4097 29.6844 11.4768 29.6054 11.5614 29.5487C11.6565 29.4843 11.7454 29.4138 11.8343 29.3402C11.9108 29.2734 12.0044 29.2292 12.1045 29.2124C12.2047 29.1956 12.3075 29.207 12.4016 29.2452L13.0548 29.5181L13.941 27.3715L13.297 27.1262C13.2041 27.0859 13.124 27.0208 13.0656 26.9381C13.0072 26.8553 12.9727 26.7581 12.9659 26.657C12.9659 26.5988 12.9659 26.5436 12.9475 26.4853C12.9291 26.4271 12.9475 26.3749 12.9229 26.3197C12.9022 26.2201 12.9099 26.1167 12.9452 26.0213C12.9804 25.9259 13.0418 25.8423 13.1222 25.78L13.6865 25.3476L12.2851 23.5078L11.7209 23.9371C11.6399 23.9988 11.5433 24.0367 11.442 24.0465C11.3407 24.0562 11.2386 24.0374 11.1474 23.9923C11.0479 23.9424 10.9455 23.8983 10.8408 23.8604C10.745 23.827 10.6602 23.7678 10.5958 23.6894C10.5314 23.6109 10.4899 23.5163 10.4759 23.4158L10.3839 22.7135L8.0932 23.0202L8.18519 23.7224C8.19748 23.823 8.18196 23.9251 8.14034 24.0176C8.09871 24.11 8.03256 24.1893 7.94907 24.2468C7.85427 24.3111 7.76316 24.3807 7.67615 24.4553C7.599 24.522 7.50495 24.5662 7.40433 24.583C7.30371 24.5997 7.20041 24.5885 7.10579 24.5504L6.45262 24.2774L5.56641 26.424L6.21957 26.6969C6.30567 26.7347 6.38055 26.794 6.43696 26.8693C6.49337 26.9445 6.5294 27.033 6.54155 27.1262L6.55995 27.2949C6.55995 27.3531 6.57528 27.4083 6.58755 27.4635C6.60717 27.5634 6.59864 27.6668 6.5629 27.7621C6.52716 27.8574 6.46562 27.9409 6.38516 28.0032L5.82399 28.4448ZM7.87854 27.1323C7.83068 26.7612 7.89394 26.3843 8.06032 26.0491C8.2267 25.7139 8.48872 25.4356 8.81326 25.2494C9.1378 25.0631 9.51028 24.9773 9.8836 25.0027C10.2569 25.0281 10.6143 25.1637 10.9106 25.3922C11.2069 25.6208 11.4288 25.932 11.5482 26.2867C11.6676 26.6413 11.6791 27.0234 11.5814 27.3846C11.4836 27.7457 11.281 28.0699 10.9991 28.3159C10.7171 28.5619 10.3686 28.7188 9.99749 28.7668C9.75051 28.799 9.49961 28.7821 9.25921 28.7169C9.01881 28.6518 8.79366 28.5398 8.59672 28.3873C8.39978 28.2348 8.23495 28.0449 8.11169 27.8285C7.98844 27.6121 7.9092 27.3734 7.87854 27.1262V27.1323Z" fill="#EBEBEB"/>
<path d="M0 102.185L16.3628 102.108L32.7225 102.084L65.4451 102.031L98.1676 102.08L114.527 102.108L130.89 102.185L114.527 102.258L98.1676 102.286L65.4451 102.338L32.7225 102.286L16.3628 102.258L0 102.185Z" fill="#263238"/>
<path d="M107.483 115.187C121.575 115.187 132.999 113.372 132.999 111.133C132.999 108.894 121.575 107.079 107.483 107.079C93.3908 107.079 81.9668 108.894 81.9668 111.133C81.9668 113.372 93.3908 115.187 107.483 115.187Z" fill="#EBEBEB"/>
<path d="M56.3677 126.56C86.4642 126.56 110.862 123.186 110.862 119.023C110.862 114.86 86.4642 111.485 56.3677 111.485C26.2711 111.485 1.87305 114.86 1.87305 119.023C1.87305 123.186 26.2711 126.56 56.3677 126.56Z" fill="#EBEBEB"/>
<path d="M107.066 2.69852H23.7744V57.7512H107.066V2.69852Z" fill="#EBEBEB"/>
<path d="M109.1 0H21.7939V2.69545H109.1V0Z" fill="#455A64"/>
<path d="M40.9412 10.239H27.7891V25.8229H40.9412V10.239Z" fill="white"/>
<path d="M34.8383 11.3C34.8389 11.3943 34.8115 11.4866 34.7595 11.5652C34.7075 11.6439 34.6333 11.7053 34.5463 11.7416C34.4593 11.778 34.3635 11.7876 34.271 11.7694C34.1785 11.7512 34.0936 11.7058 34.0269 11.6392C33.9603 11.5725 33.9149 11.4875 33.8967 11.3951C33.8784 11.3026 33.8881 11.2068 33.9245 11.1198C33.9608 11.0328 34.0222 10.9586 34.1008 10.9066C34.1795 10.8546 34.2718 10.8272 34.3661 10.8278C34.4281 10.8278 34.4895 10.84 34.5468 10.8637C34.6041 10.8875 34.6561 10.9222 34.7 10.9661C34.7438 11.01 34.7786 11.062 34.8024 11.1193C34.8261 11.1766 34.8383 11.238 34.8383 11.3Z" fill="#455A64"/>
<path d="M30.291 13.3607C31.6219 13.2595 32.9527 13.2534 34.2775 13.238C35.6022 13.2227 36.9361 13.2595 38.2639 13.3607C36.933 13.465 35.6052 13.4711 34.2775 13.4864C32.9497 13.5018 31.6219 13.465 30.291 13.3607Z" fill="#EBEBEB"/>
<path d="M30.291 14.5934C31.7325 14.4258 33.1886 14.4258 34.6301 14.5934C33.1884 14.757 31.7328 14.757 30.291 14.5934Z" fill="#EBEBEB"/>
<path d="M30.291 15.8231C31.211 15.728 32.1309 15.7066 33.0509 15.7004C33.9708 15.6943 34.8908 15.728 35.8107 15.8231C34.8908 15.9212 33.9708 15.9427 33.0509 15.9488C32.1309 15.955 31.2171 15.9212 30.291 15.8231Z" fill="#EBEBEB"/>
<path d="M30.291 17.0558C31.4471 16.9608 32.6032 16.9362 33.7592 16.9332C34.9153 16.9301 36.0714 16.9577 37.2244 17.0558C36.0714 17.154 34.9153 17.1754 33.7592 17.1785C32.6032 17.1816 31.4471 17.1509 30.291 17.0558Z" fill="#EBEBEB"/>
<path d="M30.291 18.2886C31.2968 18.1904 32.2996 18.169 33.3023 18.1628C34.3051 18.1567 35.3109 18.1904 36.3167 18.2886C35.3109 18.3836 34.3081 18.4082 33.3023 18.4112C32.2965 18.4143 31.2968 18.3836 30.291 18.2886Z" fill="#EBEBEB"/>
<path d="M30.291 19.5182C31.5759 19.417 32.8607 19.4109 34.1456 19.3956C35.4305 19.3802 36.7184 19.417 38.0032 19.5182C36.7184 19.6225 35.4335 19.6286 34.1456 19.644C32.8577 19.6593 31.5759 19.6225 30.291 19.5182Z" fill="#EBEBEB"/>
<path d="M30.291 20.7509C31.9468 20.5833 33.6152 20.5833 35.271 20.7509C33.615 20.9145 31.947 20.9145 30.291 20.7509Z" fill="#EBEBEB"/>
<path d="M30.291 21.9806C31.6219 21.8794 32.9527 21.8733 34.2775 21.858C35.6022 21.8426 36.9361 21.8794 38.2639 21.9806C36.933 22.0849 35.6052 22.091 34.2775 22.1063C32.9497 22.1217 31.6219 22.0849 30.291 21.9806Z" fill="#EBEBEB"/>
<path d="M30.291 23.2134C31.6219 23.1122 32.9527 23.106 34.2775 23.0907C35.6022 23.0754 36.9361 23.1091 38.2639 23.2134C36.933 23.3176 35.6052 23.3237 34.2775 23.336C32.9497 23.3483 31.6219 23.3145 30.291 23.2134Z" fill="#EBEBEB"/>
<path d="M103.178 23.6273H92.8809V35.8289H103.178V23.6273Z" fill="white"/>
<path d="M98.3852 24.6945C98.3859 24.7649 98.3655 24.834 98.3268 24.8929C98.2881 24.9518 98.2327 24.9979 98.1678 25.0253C98.1028 25.0527 98.0312 25.0601 97.962 25.0468C97.8928 25.0334 97.8292 24.9998 97.7791 24.9501C97.7291 24.9005 97.6949 24.8371 97.6809 24.7681C97.6669 24.699 97.6738 24.6273 97.7006 24.5621C97.7274 24.4969 97.773 24.4412 97.8316 24.402C97.8901 24.3628 97.959 24.3418 98.0295 24.3418C98.0761 24.3414 98.1223 24.3502 98.1654 24.3678C98.2086 24.3853 98.2478 24.4112 98.2809 24.444C98.3139 24.4768 98.3402 24.5158 98.3581 24.5588C98.376 24.6018 98.3852 24.6479 98.3852 24.6945Z" fill="#455A64"/>
<path d="M94.5312 26.9545C95.2432 26.8538 95.9658 26.8538 96.6778 26.9545C95.9658 27.0551 95.2432 27.0551 94.5312 26.9545Z" fill="#EBEBEB"/>
<path d="M94.5312 27.8253C95.4604 27.719 96.3987 27.719 97.3279 27.8253C96.3985 27.9276 95.4607 27.9276 94.5312 27.8253Z" fill="#EBEBEB"/>
<path d="M94.5312 28.6932C95.392 28.591 96.2617 28.591 97.1224 28.6932C96.262 28.7995 95.3917 28.7995 94.5312 28.6932Z" fill="#EBEBEB"/>
<path d="M94.5312 29.5794C95.392 29.4772 96.2617 29.4772 97.1224 29.5794C96.2617 29.6816 95.392 29.6816 94.5312 29.5794Z" fill="#EBEBEB"/>
<path d="M94.5312 30.4349C95.2777 30.3285 96.0356 30.3285 96.7821 30.4349C96.0353 30.5372 95.278 30.5372 94.5312 30.4349Z" fill="#EBEBEB"/>
<path d="M94.5312 31.3027C95.4894 31.2005 96.4556 31.2005 97.4138 31.3027C96.4559 31.4091 95.4891 31.4091 94.5312 31.3027Z" fill="#EBEBEB"/>
<path d="M94.5312 32.1736C95.3212 32.0714 96.1209 32.0714 96.9108 32.1736C96.1209 32.2759 95.3212 32.2759 94.5312 32.1736Z" fill="#EBEBEB"/>
<path d="M94.5312 33.0445C95.5219 32.9382 96.5212 32.9382 97.5119 33.0445C96.521 33.1467 95.5222 33.1467 94.5312 33.0445Z" fill="#EBEBEB"/>
<path d="M94.5312 33.9123C95.5222 33.8101 96.521 33.8101 97.5119 33.9123C96.5212 34.0187 95.5219 34.0187 94.5312 33.9123Z" fill="#EBEBEB"/>
<path d="M98.7871 26.9545C99.7268 26.8523 100.675 26.8523 101.614 26.9545C100.675 27.0567 99.7268 27.0567 98.7871 26.9545Z" fill="#EBEBEB"/>
<path d="M98.7871 27.8253C99.402 27.7191 100.031 27.7191 100.645 27.8253C100.03 27.9275 99.4023 27.9275 98.7871 27.8253Z" fill="#EBEBEB"/>
<path d="M98.7871 28.6932C99.6714 28.591 100.565 28.591 101.449 28.6932C100.565 28.7995 99.6712 28.7995 98.7871 28.6932Z" fill="#EBEBEB"/>
<path d="M98.7871 29.5794C99.6468 29.4772 100.516 29.4772 101.375 29.5794C100.516 29.6816 99.6468 29.6816 98.7871 29.5794Z" fill="#EBEBEB"/>
<path d="M98.7871 30.4349C99.7265 30.3286 100.675 30.3286 101.614 30.4349C100.675 30.5371 99.7268 30.5371 98.7871 30.4349Z" fill="#EBEBEB"/>
<path d="M98.7871 31.3027C99.5339 31.2005 100.291 31.2005 101.038 31.3027C100.291 31.4092 99.5336 31.4092 98.7871 31.3027Z" fill="#EBEBEB"/>
<path d="M98.7871 32.1736C99.6714 32.0714 100.565 32.0714 101.449 32.1736C100.565 32.2758 99.6714 32.2758 98.7871 32.1736Z" fill="#EBEBEB"/>
<path d="M98.7871 33.0445C99.4689 32.9382 100.163 32.9382 100.845 33.0445C100.163 33.1467 99.4692 33.1467 98.7871 33.0445Z" fill="#EBEBEB"/>
<path d="M98.7871 33.9123C99.4414 33.8101 100.108 33.8101 100.762 33.9123C100.108 34.0186 99.4411 34.0186 98.7871 33.9123Z" fill="#EBEBEB"/>
<path d="M46.4662 19.8433H38.5547V27.7548H46.4662V19.8433Z" fill="#CE9E41"/>
<path d="M42.9826 20.6467C42.9826 20.7401 42.9549 20.8314 42.903 20.9091C42.8511 20.9867 42.7773 21.0472 42.691 21.083C42.6048 21.1187 42.5098 21.1281 42.4182 21.1099C42.3266 21.0916 42.2424 21.0467 42.1764 20.9806C42.1104 20.9146 42.0654 20.8304 42.0472 20.7388C42.0289 20.6472 42.0383 20.5523 42.074 20.466C42.1098 20.3797 42.1703 20.3059 42.248 20.254C42.3256 20.2022 42.4169 20.1745 42.5103 20.1745C42.5723 20.1745 42.6338 20.1867 42.691 20.2104C42.7483 20.2341 42.8004 20.2689 42.8443 20.3128C42.8881 20.3566 42.9229 20.4087 42.9466 20.466C42.9704 20.5233 42.9826 20.5847 42.9826 20.6467Z" fill="#455A64"/>
<path d="M107.066 2.69852H23.7744V6.20045H107.066V2.69852Z" fill="#DBDBDB"/>
<path d="M50.1738 10.5395L63.5284 10.5119L76.886 10.5395L63.5284 10.5671L50.1738 10.5395Z" fill="#C7C7C7"/>
<path d="M50.1738 11.6281L63.5284 11.6005L76.886 11.6281L63.5284 11.6588L50.1738 11.6281Z" fill="#C7C7C7"/>
<path d="M50.1738 12.7198L63.5284 12.6891L76.886 12.7198L63.5284 12.7474L50.1738 12.7198Z" fill="#C7C7C7"/>
<path d="M50.1738 13.8084L63.5284 13.7777L76.886 13.8084L63.5284 13.836L50.1738 13.8084Z" fill="#C7C7C7"/>
<path d="M50.1738 14.897L63.5284 14.8694L76.886 14.897L63.5284 14.9246L50.1738 14.897Z" fill="#C7C7C7"/>
<path d="M50.1738 15.9856L63.5284 15.958L76.886 15.9856L63.5284 16.0163L50.1738 15.9856Z" fill="#C7C7C7"/>
<path d="M50.1738 17.0742L63.5284 17.0466L76.886 17.0742L63.5284 17.1049L50.1738 17.0742Z" fill="#C7C7C7"/>
<path d="M50.1738 18.1659L63.5284 18.1352L76.886 18.1659L63.5284 18.1935L50.1738 18.1659Z" fill="#C7C7C7"/>
<path d="M50.1738 19.2545L63.5284 19.2238L76.886 19.2545L63.5284 19.2821L50.1738 19.2545Z" fill="#C7C7C7"/>
<path d="M50.1738 20.3431L63.5284 20.3155L76.886 20.3431L63.5284 20.3707L50.1738 20.3431Z" fill="#C7C7C7"/>
<path d="M50.1738 21.4317L63.5284 21.4041L76.886 21.4317L63.5284 21.4624L50.1738 21.4317Z" fill="#C7C7C7"/>
<path d="M50.1738 22.5234L63.5284 22.4927L76.886 22.5234L63.5284 22.551L50.1738 22.5234Z" fill="#C7C7C7"/>
<path d="M50.1738 23.612L63.5284 23.5813L76.886 23.612L63.5284 23.6396L50.1738 23.612Z" fill="#C7C7C7"/>
<path d="M50.1738 24.7006L63.5284 24.673L76.886 24.7006L63.5284 24.7282L50.1738 24.7006Z" fill="#C7C7C7"/>
<path d="M50.1738 25.7892L63.5284 25.7616L76.886 25.7892L63.5284 25.8199L50.1738 25.7892Z" fill="#C7C7C7"/>
<path d="M55.025 18.1659H52.998V27.0618H55.025V18.1659Z" fill="#CE9E41"/>
<path d="M58.7818 14.4033H56.7549V27.0618H58.7818V14.4033Z" fill="white"/>
<path d="M62.5406 12.6953H60.5137V27.0618H62.5406V12.6953Z" fill="#CE9E41"/>
<path d="M66.2975 14.9216H64.2705V27.0587H66.2975V14.9216Z" fill="white"/>
<path d="M70.0572 15.5839H68.0303V27.0587H70.0572V15.5839Z" fill="#CE9E41"/>
<path d="M73.8141 22.0879H71.7871V27.0618H73.8141V22.0879Z" fill="white"/>
<path d="M50.8974 9.77597L50.9434 14.0967L50.974 18.4173C50.9945 21.2998 51.0047 24.1803 51.0047 27.0587L50.8974 26.9545H57.3953H63.8901L70.388 26.9913L76.8859 27.0526L70.388 27.117L63.8901 27.1538H57.3953H50.8974H50.79V27.0465C50.79 24.166 50.8003 21.2855 50.8207 18.4051L50.8514 14.0844L50.8974 9.77597Z" fill="#C7C7C7"/>
<path d="M55.025 27.9725H52.998V28.1565H55.025V27.9725Z" fill="#C7C7C7"/>
<path d="M58.7818 27.9725H56.7549V28.1565H58.7818V27.9725Z" fill="#C7C7C7"/>
<path d="M62.5406 27.9725H60.5137V28.1565H62.5406V27.9725Z" fill="#C7C7C7"/>
<path d="M66.2975 27.9725H64.2705V28.1565H66.2975V27.9725Z" fill="#C7C7C7"/>
<path d="M70.0572 27.9725H68.0303V28.1565H70.0572V27.9725Z" fill="#C7C7C7"/>
<path d="M73.8141 27.9725H71.7871V28.1565H73.8141V27.9725Z" fill="#C7C7C7"/>
<path d="M39.309 50.8271H31.2656V51.5171H39.309V50.8271Z" fill="#C7C7C7"/>
<path d="M42.1333 52.2684H31.2656V52.9583H42.1333V52.2684Z" fill="#C7C7C7"/>
<path d="M37.0337 53.7127H31.2656V54.4026H37.0337V53.7127Z" fill="#C7C7C7"/>
<path d="M29.4723 50.8271H27.7949V52.5045H29.4723V50.8271Z" fill="#CE9E41"/>
<path d="M91.2495 10.5089H83.2061V11.1988H91.2495V10.5089Z" fill="#C7C7C7"/>
<path d="M94.0737 11.9501H83.2061V12.6401H94.0737V11.9501Z" fill="#C7C7C7"/>
<path d="M88.9741 13.3944H83.2061V14.0844H88.9741V13.3944Z" fill="#C7C7C7"/>
<path d="M81.4127 10.5089H79.7354V12.1862H81.4127V10.5089Z" fill="#CE9E41"/>
<path d="M92.7674 16.0929H83.2061V16.7829H92.7674V16.0929Z" fill="#C7C7C7"/>
<path d="M90.768 17.5342H83.2061V18.2242H90.768V17.5342Z" fill="#C7C7C7"/>
<path d="M94.0737 18.9785H83.2061V19.6685H94.0737V18.9785Z" fill="#C7C7C7"/>
<path d="M81.4127 16.0929H79.7354V17.7703H81.4127V16.0929Z" fill="white"/>
<path d="M63.8387 33.1089H27.7891V48.8768H63.8387V33.1089Z" fill="#DBDBDB"/>
<path d="M61.9247 35.0991H29.7051V36.4606H61.9247V35.0991Z" fill="white"/>
<path d="M46.1783 35.0991H29.7051V36.4606H46.1783V35.0991Z" fill="#CE9E41"/>
<path d="M61.9247 37.7056H29.7051V39.0671H61.9247V37.7056Z" fill="white"/>
<path d="M59.2599 37.7056H29.7051V39.0671H59.2599V37.7056Z" fill="#CE9E41"/>
<path d="M61.9247 40.3121H29.7051V41.6736H61.9247V40.3121Z" fill="white"/>
<path d="M39.2388 40.3121H29.7051V41.6736H39.2388V40.3121Z" fill="#CE9E41"/>
<path d="M61.9247 42.9186H29.7051V44.2801H61.9247V42.9186Z" fill="white"/>
<path d="M55.0251 42.9186H29.7051V44.2801H55.0251V42.9186Z" fill="#CE9E41"/>
<path d="M61.9247 45.5251H29.7051V46.8867H61.9247V45.5251Z" fill="white"/>
<path d="M48.3218 45.5251H29.7051V46.8867H48.3218V45.5251Z" fill="#CE9E41"/>
<path d="M87.1992 41.7012C87.0872 43.2099 86.6048 44.6676 85.7948 45.9453L83.4336 44.5807C83.9979 43.7148 84.3508 42.7285 84.4639 41.7012H87.1992Z" fill="#455A64"/>
<path d="M87.2176 40.9898C87.2176 41.091 87.2176 41.1891 87.2176 41.2965H84.4885C84.4885 41.1983 84.4885 41.1002 84.4885 40.9898C84.4892 39.9016 84.2191 38.8304 83.7025 37.8727C83.1859 36.9149 82.4391 36.1009 81.5293 35.5039L82.8969 33.1396C84.2204 33.9779 85.3104 35.1372 86.0658 36.5096C86.8212 37.8821 87.2174 39.4232 87.2176 40.9898Z" fill="#A6A6A6"/>
<path d="M82.553 32.9249L81.1915 35.2892C80.2562 34.7531 79.2026 34.457 78.125 34.4275V31.7014C79.6805 31.7297 81.2037 32.1505 82.553 32.9249Z" fill="#455A64"/>
<path d="M77.7266 31.7014V34.4275C76.6184 34.4617 75.537 34.7765 74.5835 35.3422C73.63 35.908 72.8355 36.7064 72.2744 37.6627L69.9102 36.3011C70.7108 34.9299 71.8499 33.787 73.2184 32.9816C74.5869 32.1763 76.1391 31.7355 77.7266 31.7014Z" fill="#CE9E41"/>
<path d="M72.075 38.0245C71.6242 38.9084 71.3829 39.8842 71.3697 40.8763H68.6436C68.6557 39.4056 69.0217 37.9594 69.7107 36.6599L72.075 38.0245Z" fill="#A6A6A6"/>
<path d="M74.2735 46.4451L72.9089 48.8094C71.6405 47.9965 70.5894 46.8866 69.8467 45.5759C69.104 44.2651 68.692 42.7931 68.6465 41.2872H71.3726C71.4179 42.3142 71.7041 43.3161 72.208 44.2121C72.7119 45.108 73.4195 45.873 74.2735 46.4451Z" fill="#455A64"/>
<path d="M85.5646 46.2887C84.2329 48.2082 82.2271 49.5556 79.9465 50.0625C77.666 50.5694 75.2782 50.1986 73.2588 49.024L74.6234 46.6628C76.0183 47.4802 77.6657 47.7542 79.2501 47.4322C80.8345 47.1102 82.2443 46.215 83.2095 44.918L85.5646 46.2887Z" fill="#DBDBDB"/>
<path d="M82.792 41.2872C82.7911 42.1331 82.5415 42.9599 82.0742 43.665C81.607 44.37 80.9426 44.922 80.164 45.2522L78.4805 41.2872H82.792Z" fill="#CE9E41"/>
<path d="M77.9348 40.9929L79.6153 44.9578C79.4834 45.01 79.3516 45.0621 79.2197 45.102C78.8056 45.2301 78.3745 45.2952 77.941 45.2952C77.5075 45.2945 77.0765 45.2294 76.6622 45.102C75.779 44.8359 75.005 44.2924 74.4547 43.5521C73.9045 42.8117 73.6074 41.9138 73.6074 40.9913C73.6074 40.0689 73.9045 39.171 74.4547 38.4306C75.005 37.6902 75.779 37.1468 76.6622 36.8807C77.4953 36.6232 78.3867 36.6232 79.2197 36.8807C79.8865 37.0867 80.493 37.4521 80.9867 37.9452C81.4804 38.4384 81.8465 39.0445 82.0531 39.7111C82.1801 40.1255 82.2452 40.5564 82.2463 40.9898L77.9348 40.9929Z" fill="#CE9E41"/>
<path d="M77.9349 40.9929L79.6153 44.9578C79.4835 45.01 79.3516 45.0621 79.2198 45.102C78.8056 45.2301 78.3745 45.2952 77.941 45.2952C77.0224 45.2967 76.1275 45.0035 75.3879 44.4587C74.6483 43.9139 74.1029 43.1463 73.8319 42.2685C73.5703 41.4361 73.5703 40.5435 73.8319 39.7111C74.1035 38.8339 74.6491 38.0669 75.3886 37.5227C76.1282 36.9785 77.0228 36.6858 77.941 36.6875C79.0796 36.6875 80.1716 37.1398 80.9767 37.9449C81.7818 38.75 82.2341 39.842 82.2341 40.9806L77.9349 40.9929Z" fill="#DBDBDB"/>
<path d="M77.9351 40.9929L75.1292 44.2556C74.5879 43.7846 74.1733 43.1854 73.9233 42.5128C73.6733 41.8401 73.5959 41.1156 73.6981 40.4054C73.8003 39.6951 74.079 39.0218 74.5085 38.447C74.9381 37.8722 75.5049 37.4143 76.1571 37.115C76.8093 36.8158 77.5261 36.6848 78.242 36.7341C78.9578 36.7833 79.65 37.0112 80.255 37.3969C80.8601 37.7826 81.3589 38.3138 81.7057 38.942C82.0525 39.5702 82.2364 40.2753 82.2404 40.9929H77.9351Z" fill="#A6A6A6"/>
<path d="M90.2654 51.2595H84.2642L76.8311 43.8263L76.9414 43.719L84.3286 51.1062H90.2654V51.2595Z" fill="#263238"/>
<path d="M77.3059 43.3541H76.4688V44.1912H77.3059V43.3541Z" fill="#263238"/>
<path d="M90.2652 45.5098H83.5036L80.293 42.2992L80.4003 42.1888L83.5649 45.3565H90.2652V45.5098Z" fill="#263238"/>
<path d="M80.7628 41.827H79.9287V42.6641H80.7628V41.827Z" fill="#263238"/>
<path d="M90.2658 39.8184H80.0391V39.9717H90.2658V39.8184Z" fill="#263238"/>
<path d="M80.3479 39.478H79.5107V40.3152H80.3479V39.478Z" fill="#263238"/>
<path d="M100.943 39.0579H92.8994V39.7479H100.943V39.0579Z" fill="#DBDBDB"/>
<path d="M103.767 40.4992H92.8994V41.1891H103.767V40.4992Z" fill="#DBDBDB"/>
<path d="M98.6675 41.9435H92.8994V42.6334H98.6675V41.9435Z" fill="#DBDBDB"/>
<path d="M91.1051 39.0579H89.4277V40.7353H91.1051V39.0579Z" fill="#CE9E41"/>
<path d="M102.461 44.642H92.8994V45.3319H102.461V44.642Z" fill="#DBDBDB"/>
<path d="M100.461 46.0833H92.8994V46.7732H100.461V46.0833Z" fill="#DBDBDB"/>
<path d="M103.767 47.5276H92.8994V48.2175H103.767V47.5276Z" fill="#DBDBDB"/>
<path d="M91.1051 44.642H89.4277V46.3194H91.1051V44.642Z" fill="#A6A6A6"/>
<path d="M102.461 50.2261H92.8994V50.916H102.461V50.2261Z" fill="#DBDBDB"/>
<path d="M100.461 51.6673H92.8994V52.3573H100.461V51.6673Z" fill="#DBDBDB"/>
<path d="M103.767 53.1116H92.8994V53.8016H103.767V53.1116Z" fill="#DBDBDB"/>
<path d="M91.1051 50.2261H89.4277V51.9034H91.1051V50.2261Z" fill="#C7C7C7"/>
<path d="M67.2607 86.4996L67.8556 90.0782L71.9003 111.909H72.5504L69.6097 90.0782L69.1773 86.4996H67.2607Z" fill="#DBDBDB"/>
<path d="M69.1773 86.4996H67.2607L67.8556 90.0782H69.6097L69.1773 86.4996Z" fill="#A6A6A6"/>
<path d="M54.5654 111.909H55.2186L59.2602 90.0782L59.8582 86.4996H57.9416L57.5062 90.0782L54.5654 111.909Z" fill="#DBDBDB"/>
<path d="M57.9413 86.4996L57.5059 90.0782H59.2599L59.8579 86.4996H57.9413Z" fill="#A6A6A6"/>
<path d="M42.4434 111.909H43.0935L47.1351 90.0782L47.7331 86.4996H45.8165L45.3811 90.0782L42.4434 111.909Z" fill="#DBDBDB"/>
<path d="M45.3809 90.0782H47.1349L47.7329 86.4996H45.8163L45.3809 90.0782Z" fill="#A6A6A6"/>
<path d="M43.4736 88.1831H73.0929V85.0614H62.0075L58.2787 63.3813H44.6052L43.4736 88.1831Z" fill="#DBDBDB"/>
<path d="M43.4736 88.1831H45.0897L46.1415 63.3813H44.6052L43.4736 88.1831Z" fill="#A6A6A6"/>
<path d="M110.783 104.601C111.856 104.423 113.159 104.616 113.963 105.395C113.993 105.426 113.963 105.469 113.914 105.457C112.9 105.105 111.851 104.863 110.786 104.736C110.768 104.736 110.751 104.73 110.738 104.717C110.725 104.705 110.717 104.688 110.717 104.67C110.716 104.652 110.723 104.635 110.735 104.622C110.748 104.609 110.765 104.602 110.783 104.601Z" fill="#263238"/>
<path d="M110.001 105.049C111.075 104.871 112.381 105.064 113.181 105.843C113.212 105.874 113.181 105.917 113.132 105.904C112.118 105.554 111.07 105.312 110.005 105.184C109.996 105.184 109.987 105.182 109.979 105.179C109.97 105.176 109.963 105.171 109.956 105.165C109.95 105.159 109.945 105.152 109.941 105.144C109.938 105.135 109.936 105.127 109.936 105.118C109.935 105.109 109.937 105.1 109.94 105.092C109.943 105.084 109.948 105.076 109.954 105.07C109.96 105.063 109.968 105.058 109.976 105.055C109.984 105.051 109.993 105.049 110.001 105.049Z" fill="#263238"/>
<path d="M109.219 105.497C110.292 105.322 111.598 105.512 112.399 106.291C112.429 106.321 112.399 106.364 112.353 106.355C111.338 106.002 110.288 105.758 109.222 105.628C109.207 105.625 109.193 105.617 109.183 105.606C109.173 105.594 109.167 105.579 109.167 105.564C109.167 105.548 109.172 105.533 109.181 105.521C109.19 105.509 109.204 105.5 109.219 105.497Z" fill="#263238"/>
<path d="M104.558 110.351C105.125 110.526 121.24 110.105 121.844 109.701C122.077 109.55 122.151 107.198 122.151 104.356V104.264L111.749 104.42V104.595C111.749 104.595 105.653 107.514 105.036 108.029C104.42 108.545 103.991 110.176 104.558 110.351Z" fill="#37474F"/>
<path d="M122.175 104.264V104.356C122.175 107.198 122.089 109.55 121.869 109.701C121.648 109.851 118.103 110.072 114.328 110.207C109.811 110.366 104.892 110.446 104.583 110.351C104.015 110.176 104.472 108.545 105.083 108.029C105.693 107.514 111.795 104.595 111.795 104.595V104.42L115.263 104.368L122.175 104.264Z" fill="#37474F"/>
<path d="M104.724 109.719C107.441 109.581 118.403 109.287 121.096 109.357C121.117 109.357 121.117 109.357 121.096 109.357C118.409 109.553 107.444 109.762 104.727 109.75C104.668 109.765 104.668 109.722 104.724 109.719Z" fill="#263238"/>
<path d="M115.229 104.368C114.975 106.11 114.589 108.676 114.309 110.194C109.793 110.354 104.874 110.434 104.564 110.339C103.997 110.164 104.454 108.532 105.064 108.017C105.674 107.502 111.777 104.583 111.777 104.583V104.408L115.229 104.368Z" fill="#263238"/>
<path d="M123.528 104.402L111.378 104.512C111.378 104.512 108.137 61.5261 111.019 50.2659H119.738C119.738 50.2659 122.08 55.0466 120.74 60.4283L123.528 104.402Z" fill="#455A64"/>
<path d="M122.687 102.372C122.369 102.33 122.048 102.306 121.727 102.298C121.371 102.274 121.016 102.249 120.657 102.234C119.973 102.206 119.286 102.194 118.599 102.191C117.216 102.191 115.839 102.191 114.447 102.237C113.659 102.261 112.871 102.292 112.086 102.335C112.08 102.335 112.073 102.338 112.069 102.342C112.064 102.347 112.062 102.353 112.062 102.36C112.062 102.366 112.064 102.372 112.069 102.377C112.073 102.381 112.08 102.384 112.086 102.384C113.46 102.433 114.846 102.452 116.204 102.479C117.563 102.507 118.964 102.531 120.323 102.504C120.715 102.504 121.108 102.504 121.503 102.473C121.899 102.442 122.297 102.473 122.681 102.418C122.705 102.415 122.715 102.378 122.687 102.372Z" fill="#263238"/>
<path d="M112.28 91.8905C112.142 88.7504 112.043 85.6103 111.955 82.4672C111.783 76.187 111.738 69.9027 111.82 63.6144C111.866 60.0879 111.958 56.5615 112.065 53.0381C112.065 52.9982 112.004 53.0013 112.001 53.0381C111.666 59.3458 111.541 65.6689 111.534 71.989C111.528 78.309 111.657 84.5616 111.967 90.8387C112.142 94.3621 112.356 97.8916 112.687 101.4C112.687 101.43 112.736 101.43 112.736 101.4C112.595 98.232 112.414 95.0613 112.28 91.8905Z" fill="#263238"/>
<path d="M101.05 105.969C102.124 105.791 103.43 105.984 104.23 106.763C104.261 106.794 104.23 106.837 104.181 106.824C103.168 106.472 102.119 106.231 101.053 106.104C101.035 106.104 101.018 106.097 101.005 106.085C100.992 106.073 100.985 106.056 100.984 106.038C100.984 106.02 100.991 106.003 101.003 105.99C101.015 105.977 101.032 105.969 101.05 105.969Z" fill="#263238"/>
<path d="M100.268 106.416C101.341 106.242 102.647 106.432 103.447 107.211C103.478 107.241 103.447 107.284 103.401 107.272C102.386 106.921 101.337 106.678 100.271 106.548C100.255 106.545 100.242 106.537 100.232 106.526C100.222 106.514 100.216 106.499 100.216 106.484C100.215 106.468 100.22 106.453 100.23 106.441C100.239 106.429 100.253 106.42 100.268 106.416Z" fill="#263238"/>
<path d="M99.4828 106.855C100.556 106.68 101.859 106.87 102.66 107.649C102.69 107.68 102.66 107.726 102.614 107.714C101.598 107.365 100.549 107.127 99.4828 107.002C99.4633 107.002 99.4445 106.994 99.4307 106.981C99.4169 106.967 99.4092 106.948 99.4092 106.929C99.4092 106.909 99.4169 106.89 99.4307 106.877C99.4445 106.863 99.4633 106.855 99.4828 106.855Z" fill="#263238"/>
<path d="M94.8251 111.718C95.3924 111.893 111.507 111.473 112.111 111.068C112.344 110.918 112.418 108.566 112.418 105.723V105.628L102.016 105.782V105.957C102.016 105.957 95.9199 108.876 95.3035 109.391C94.6871 109.906 94.2701 111.544 94.8251 111.718Z" fill="#37474F"/>
<path d="M94.9902 111.087C97.7072 110.952 108.67 110.654 111.362 110.725C111.384 110.725 111.384 110.74 111.362 110.74C108.676 110.936 97.7102 111.145 94.9933 111.133C94.935 111.148 94.935 111.09 94.9902 111.087Z" fill="#263238"/>
<path d="M114.426 61.4402C114.426 61.4402 113.571 78.8763 113.54 79.2903C113.54 79.4497 113.141 106.355 113.141 106.355L100.995 106.466C100.995 106.466 102.657 81.2436 102.835 78.7812C102.856 78.4961 103.543 61.5384 106.426 50.2782H119.483C119.483 50.2782 119.37 56.1751 116.689 60.4406C115.917 60.7309 115.161 61.0647 114.426 61.4402Z" fill="#455A64"/>
<path d="M113.482 61.7775C114.126 61.428 114.782 61.1121 115.456 60.8239C116.131 60.5356 116.818 60.275 117.489 59.9775C117.514 59.9775 117.535 60.002 117.511 60.0143C116.852 60.3547 116.205 60.7196 115.536 61.0416C114.881 61.3571 114.204 61.6276 113.512 61.8511C113.502 61.8552 113.491 61.8552 113.482 61.8512C113.472 61.8472 113.464 61.8394 113.46 61.8297C113.456 61.8199 113.456 61.8089 113.46 61.7992C113.464 61.7894 113.472 61.7816 113.482 61.7775Z" fill="#263238"/>
<path d="M114.377 61.4218C114.377 61.3973 114.42 61.4034 114.417 61.4218C113.978 64.6907 113.386 103.54 113.285 104.469C113.285 104.484 113.279 104.498 113.269 104.508C113.259 104.519 113.244 104.524 113.23 104.524C113.215 104.524 113.201 104.519 113.191 104.508C113.18 104.498 113.175 104.484 113.175 104.469C113.153 102.826 113.23 72.2926 114.377 61.4218Z" fill="#263238"/>
<path d="M108.376 51.514C108.042 53.1944 107.809 54.8871 107.557 56.5921C107.306 58.2971 107.064 59.9898 106.837 61.6917C106.389 65.0403 105.99 68.394 105.641 71.7528C104.938 78.5502 104.426 85.364 104.108 92.1941C103.926 96.0333 103.815 99.8767 103.776 103.724C103.776 103.755 103.825 103.752 103.825 103.724C104.058 96.8919 104.39 90.0629 104.908 83.2461C105.426 76.4292 106.107 69.6492 106.938 62.8784C107.169 61.0017 107.41 59.1271 107.662 57.2545C107.922 55.3471 108.229 53.4459 108.45 51.5324C108.44 51.4864 108.376 51.468 108.376 51.514Z" fill="#263238"/>
<path d="M112.482 104.678C112.164 104.635 111.843 104.61 111.522 104.601C111.167 104.577 110.811 104.552 110.455 104.537C109.768 104.509 109.084 104.497 108.398 104.497C107.011 104.497 105.638 104.497 104.242 104.543C103.457 104.567 102.669 104.598 101.881 104.641C101.851 104.641 101.854 104.687 101.881 104.687C103.252 104.736 104.626 104.757 106 104.782C107.373 104.807 108.744 104.834 110.115 104.81C110.51 104.81 110.903 104.81 111.295 104.776C111.688 104.742 112.093 104.776 112.476 104.721C112.5 104.708 112.51 104.681 112.482 104.678Z" fill="#263238"/>
<path d="M103.424 47.2454C104.696 46.6045 109.664 44.2771 109.863 43.9183C110.063 43.5595 111.976 36.6292 112.488 35.3505C113 34.0718 114.518 34.7771 114.509 36.7948C114.5 38.8126 114.638 45.7981 114.347 46.9143C114.055 48.0305 108.606 52.4339 107.6 53.3784C106.843 54.1297 102.712 47.6012 103.424 47.2454Z" fill="#FFC3BD"/>
<path d="M108.615 52.4431C107.918 53.1391 107.177 53.7886 106.395 54.3873C105.76 54.835 103.893 56.0708 103.328 55.4176C102.945 54.973 103.942 54.1205 104.656 53.498C105.027 53.173 105.405 52.5382 105.181 52.3052C104.794 51.8973 103.85 52.7621 103.267 53.4367C102.136 54.7399 100.762 56.8558 99.6548 56.4357C99.2378 56.2763 99.4463 55.6538 99.8327 54.9822C99.1274 55.8531 98.3301 56.6412 97.8579 56.4817C97.7348 56.4415 97.6322 56.3551 97.5715 56.2407C97.5109 56.1263 97.497 55.9928 97.5328 55.8684C97.4377 55.9598 97.3175 56.0209 97.1875 56.0438C97.0576 56.0667 96.9237 56.0505 96.803 55.9972C96.4074 55.7918 96.3952 55.2919 96.5546 54.7185C96.4978 54.7317 96.4386 54.7311 96.382 54.7166C96.3255 54.7022 96.2732 54.6745 96.2296 54.6357C95.2912 53.9059 97.4562 50.1402 98.4436 49.5208C100.421 48.3361 102.551 47.4291 104.776 46.8253C106.358 47.3988 108.618 52.4401 108.615 52.4431Z" fill="#FFC3BD"/>
<path d="M102.982 51.0908C102.269 51.4612 101.647 51.9848 101.161 52.6241C100.597 53.3815 100.241 54.2677 99.7656 55.0773C99.7656 55.0987 99.7902 55.1202 99.7994 55.0957C100.02 54.6939 100.281 54.3076 100.514 53.912C100.747 53.5164 100.962 53.13 101.216 52.7621C101.676 52.0858 102.283 51.5227 102.992 51.1153C102.992 51.1153 102.992 51.0877 102.982 51.0908Z" fill="#263238"/>
<path d="M101.936 49.9562C101.164 50.4415 100.445 51.0057 99.7897 51.6397C99.0936 52.3542 98.6766 53.2772 98.2565 54.1696C98.005 54.7072 97.7669 55.249 97.542 55.7948C97.542 55.8194 97.5635 55.8378 97.5757 55.8132C97.9958 54.8933 98.4405 53.9733 98.9127 53.0994C99.3472 52.2689 99.9412 51.5322 100.661 50.9314C101.075 50.591 101.51 50.2782 101.949 49.9716C101.955 49.9654 101.936 49.9501 101.936 49.9562Z" fill="#263238"/>
<path d="M100.658 49.0915C99.9181 49.467 99.2522 49.9729 98.6922 50.5849C98.0745 51.3898 97.5595 52.2684 97.1589 53.2006C96.9351 53.6973 96.7296 54.2002 96.5303 54.7093C96.5303 54.7277 96.5579 54.743 96.5671 54.7093C97.0366 53.5867 97.5785 52.4959 98.1892 51.4435C98.4723 50.9379 98.8311 50.4787 99.2533 50.082C99.6933 49.7108 100.163 49.3765 100.658 49.0823C100.658 49.0823 100.661 49.0884 100.658 49.0915Z" fill="#263238"/>
<path d="M104.285 46.1538L110.452 52.3573C110.452 52.3573 114.187 48.748 114.589 46.9265C114.99 45.105 115.003 38.0981 114.589 35.9883C114.175 33.8786 112.813 33.1856 111.899 36.0926C110.985 38.9996 109.875 43.5534 109.79 43.722C109.704 43.8907 104.285 46.1538 104.285 46.1538Z" fill="#CE9E41"/>
<path d="M111.525 50.4315C111.138 49.9935 110.728 49.5758 110.298 49.1804C109.881 48.7695 109.452 48.377 109.019 47.9814C108.155 47.1933 107.265 46.4267 106.355 45.6907C106.327 45.6662 106.284 45.6907 106.312 45.7306C107.13 46.58 107.98 47.408 108.845 48.2083C109.274 48.6039 109.706 48.9964 110.151 49.3767C110.577 49.767 111.023 50.1345 111.488 50.4775C111.519 50.4867 111.546 50.4469 111.525 50.4315Z" fill="#263238"/>
<path d="M110.795 37.2732C111.5 37.3284 113.009 36.0466 113.616 34.9672C113.596 34.3517 113.545 33.7376 113.463 33.1273C113.411 32.5385 113.368 31.8823 113.374 31.2874C113.374 31.1617 112.951 31.3855 112.951 31.3855L112.172 31.5695L109.59 32.1828C109.8 32.9374 109.916 33.715 109.936 34.498C109.934 34.5804 109.925 34.6624 109.909 34.7433C109.909 34.7433 109.909 34.7679 109.909 34.7863C109.823 35.2401 109.694 37.1873 110.795 37.2732Z" fill="#FFC3BD"/>
<path d="M109.909 34.7311C109.909 34.7311 109.909 34.7556 109.909 34.774C110.039 34.7909 110.169 34.7981 110.299 34.7955C112.841 34.7587 113.184 31.5266 113.184 31.5266L112.179 31.5634L109.597 32.1767C109.807 32.9313 109.923 33.7089 109.943 34.4919C109.938 34.5724 109.927 34.6524 109.909 34.7311Z" fill="#263238"/>
<path d="M113.478 26.1756C114.036 27.4604 113.785 31.3886 112.923 32.3515C111.696 33.7498 109.461 34.1239 108.216 32.5937C107.011 31.1126 107.446 26.0039 108.415 25.1054C109.841 23.7806 112.669 24.2774 113.478 26.1756Z" fill="#FFC3BD"/>
<path d="M107.643 27.2519C107.643 27.2519 107.336 28.7238 107.029 30.1866L107.526 30.1222L107.413 30.7845C107.591 30.8247 107.775 30.827 107.955 30.791C108.134 30.7551 108.303 30.6818 108.452 30.576L107.643 27.2519Z" fill="#FFC3BD"/>
<path d="M108.177 28.8495C108.177 28.8495 108.198 28.8495 108.195 28.8741C108.159 29.1378 108.162 29.4444 108.392 29.5579C108.1 29.4996 108.1 29.0918 108.177 28.8495Z" fill="#263238"/>
<path d="M108.443 28.5981C108.869 28.5981 108.811 29.4659 108.416 29.4536C108.02 29.4414 108.084 28.5889 108.443 28.5981Z" fill="#263238"/>
<path d="M108.805 28.2915C108.692 28.2547 108.59 28.1995 108.498 28.1535C108.377 28.1202 108.269 28.0481 108.192 27.948C108.174 27.9122 108.169 27.8717 108.178 27.8327C108.186 27.7938 108.207 27.7588 108.238 27.7334C108.305 27.6898 108.382 27.6651 108.462 27.6618C108.542 27.6586 108.621 27.6769 108.692 27.715C108.845 27.7694 108.973 27.8786 109.05 28.0216C109.07 28.0568 109.077 28.0971 109.072 28.1369C109.068 28.1766 109.05 28.2139 109.024 28.2436C108.997 28.2732 108.961 28.2937 108.922 28.3023C108.883 28.3109 108.842 28.3071 108.805 28.2915Z" fill="#263238"/>
<path d="M108.526 30.5269C108.415 30.6567 108.271 30.7538 108.109 30.8078C107.947 30.8618 107.773 30.8707 107.606 30.8336C107.588 30.8336 107.579 30.809 107.585 30.809C107.916 30.8026 108.236 30.6957 108.505 30.5024C108.536 30.4993 108.545 30.4993 108.526 30.5269Z" fill="#263238"/>
<path d="M107.937 25.9946C107.048 25.7279 106.428 23.7653 106.738 23.0385C107.048 22.3118 107.778 23.4587 107.778 23.4587C107.778 23.4587 107.851 22.7718 108.164 22.6951C108.477 22.6184 109.059 23.5629 109.059 23.5629C109.059 23.5629 112.046 23.753 112.684 23.983C113.322 24.213 113.515 25.0716 113.515 25.0716C113.781 25.1896 114.018 25.3644 114.209 25.5837C114.4 25.803 114.541 26.0616 114.622 26.3412C114.929 27.3347 113.941 31.0666 113.325 31.5726C112.708 32.0786 111 29.239 111 29.239C111 29.239 110.54 29.3003 110.35 28.3804C110.071 27.0158 109.995 26.148 109.317 26.01C108.859 25.9587 108.396 25.9535 107.937 25.9946Z" fill="#263238"/>
<path d="M110.86 29.4015C110.86 29.4015 111.614 28.0768 112.209 28.3344C112.804 28.592 112.317 30.4564 111.676 30.7661C111.596 30.8115 111.509 30.8404 111.418 30.8511C111.327 30.8618 111.235 30.854 111.148 30.8282C111.06 30.8024 110.978 30.7592 110.908 30.7011C110.837 30.643 110.779 30.5712 110.737 30.4901L110.86 29.4015Z" fill="#FFC3BD"/>
<path d="M112.055 28.8649C112.055 28.8649 112.071 28.8649 112.055 28.8833C111.852 29.0094 111.677 29.177 111.542 29.3751C111.407 29.5732 111.316 29.7974 111.273 30.0332C111.296 29.9837 111.329 29.9398 111.37 29.9043C111.411 29.8688 111.459 29.8428 111.512 29.8279C111.564 29.813 111.619 29.8097 111.672 29.8181C111.726 29.8266 111.777 29.8466 111.822 29.8768V29.9044C111.738 29.8854 111.651 29.8933 111.571 29.9269C111.492 29.9604 111.425 30.018 111.381 30.0915C111.305 30.2138 111.243 30.3445 111.197 30.4809C111.178 30.5269 111.102 30.5116 111.111 30.4595C111.04 29.8584 111.424 28.9845 112.055 28.8649Z" fill="#263238"/>
<path d="M110.629 38.5642C108.28 43.0842 104.125 48.1623 100.074 50.0574C97.6058 51.2073 95.7813 50.5879 95.0484 49.671C93.9843 48.3555 96.0573 39.9012 97.6549 37.3529C98.1762 36.528 105.898 38.693 105.379 39.5976C104.861 40.5022 107.219 37.7945 109.768 35.7614C112.383 33.6609 112.055 35.835 110.629 38.5642Z" fill="#FFC3BD"/>
<path d="M100.127 32.8452C101.047 32.1583 102.068 31.2936 103.233 30.9593C104.399 30.6251 105.831 31.8609 105.966 32.2963C106.1 32.7317 106.502 35.605 105.352 35.9608C104.202 36.3165 104.248 34.0013 104.126 33.7743C104.003 33.5474 103.868 33.253 103.656 33.342C103.445 33.4309 100.173 36.4085 100.173 36.4085L100.127 32.8452Z" fill="#FFC3BD"/>
<path d="M100.25 32.9832C100.314 32.9648 103.044 30.7845 104.212 30.4503C105.38 30.116 106.809 31.3518 106.944 31.7903C107.079 32.2288 107.481 35.096 106.331 35.4517C105.181 35.8074 105.227 33.4922 105.104 33.2653C104.982 33.0384 104.85 32.744 104.638 32.836C104.427 32.928 101.155 35.9025 101.155 35.9025L100.25 32.9832Z" fill="#FFC3BD"/>
<path d="M105.883 35.4272C105.698 35.2607 105.559 35.0496 105.479 34.8139C105.378 34.5737 105.316 34.3191 105.295 34.0595C105.295 33.8315 105.276 33.6038 105.239 33.3788C105.171 33.1647 105.051 32.9708 104.89 32.8145C104.749 32.6796 104.583 32.7869 104.467 32.8851C104.275 33.0321 104.094 33.1919 103.924 33.3634L103.366 33.9031C103.167 34.083 102.981 34.2756 102.808 34.4796C102.808 34.495 102.808 34.5195 102.832 34.5072C103.009 34.3681 103.177 34.2197 103.338 34.0626C103.526 33.8909 103.716 33.7222 103.908 33.5566C104.086 33.4002 104.258 33.2346 104.439 33.0813C104.503 33.0261 104.626 32.9035 104.718 32.8943C104.81 32.8851 104.923 33.0936 104.963 33.158C105.077 33.3506 105.13 33.5727 105.117 33.7958C105.118 34.0216 105.143 34.2466 105.19 34.4674C105.233 34.6757 105.312 34.875 105.423 35.0561C105.55 35.2101 105.694 35.349 105.853 35.4701C105.874 35.4793 105.905 35.4425 105.883 35.4272Z" fill="#263238"/>
<path d="M97.6191 37.4419C97.6191 37.4419 99.0021 34.1025 100.312 32.4558C101.468 30.9961 102.955 29.8308 104.206 29.4322C105.457 29.0335 108.56 32.284 107.53 32.8053C106.444 33.345 104.997 31.6891 104.549 32.1C104.05 32.56 103.464 33.3266 103.7 33.9706C103.936 34.6146 104.927 35.6081 105.985 35.2463C107.042 34.8844 106.932 33.4432 107.87 32.9648C108.809 32.4864 109.051 34.1577 108.674 35.418C108.251 36.6584 107.486 37.7537 106.466 38.5765C105.641 39.2112 103.133 41.3363 103.133 41.3363L97.6191 37.4419Z" fill="#FFC3BD"/>
<path d="M107.122 32.9096C106.713 32.9254 106.307 32.8312 105.948 32.6367C105.601 32.4446 105.242 32.2745 104.874 32.1276C104.838 32.1143 104.8 32.1093 104.761 32.113C104.723 32.1168 104.686 32.1291 104.653 32.1491C104.578 32.2011 104.508 32.2607 104.445 32.327C104.31 32.4677 104.187 32.6195 104.077 32.7808C103.868 33.0874 103.666 33.4769 103.77 33.8111C103.885 34.174 104.097 34.4984 104.384 34.7495C104.663 35.0132 105.018 35.1818 105.399 35.2309C105.588 35.2422 105.778 35.2194 105.96 35.1635C106.142 35.0956 106.309 34.9913 106.45 34.8568C106.735 34.5769 106.953 34.2376 107.091 33.8633C106.992 34.2613 106.8 34.6302 106.53 34.9396C106.383 35.091 106.205 35.2092 106.009 35.2861C105.813 35.3606 105.605 35.3971 105.396 35.3934C104.97 35.3603 104.568 35.1842 104.255 34.8936C103.926 34.6219 103.68 34.2641 103.543 33.8602C103.486 33.6408 103.505 33.4086 103.596 33.2009C103.675 33.0052 103.778 32.8198 103.902 32.6489C104.021 32.4796 104.155 32.3206 104.301 32.1736C104.378 32.0967 104.464 32.0279 104.555 31.9682C104.611 31.9403 104.672 31.9237 104.734 31.9195C104.796 31.9153 104.858 31.9235 104.917 31.9436C105.112 32.0174 105.299 32.1109 105.475 32.2227L105.997 32.5293C106.334 32.7487 106.721 32.8795 107.122 32.9096Z" fill="#263238"/>
<path d="M96.6833 37.7393L105.549 39.3922L105.426 39.6712C105.426 39.6712 109.06 35.9025 110.639 34.7158C112.479 33.3297 112.387 35.3015 111.519 37.3315C110.651 39.3615 105.386 48.5487 100.519 51.051C98.8206 51.9218 95.1715 50.7842 94.7667 49.4901C94.0308 47.1718 96.6833 37.7393 96.6833 37.7393Z" fill="#CE9E41"/>
<path d="M105.447 39.6222C105.045 39.9326 104.663 40.2686 104.303 40.628C103.831 41.0726 103.368 41.5234 102.905 41.9772C101.979 42.8788 101.059 43.7916 100.145 44.7156C100.032 44.8321 99.9211 44.9517 99.8107 45.0682C99.6176 45.1541 99.4336 45.2553 99.2465 45.3504C99.0595 45.4454 98.7988 45.5834 98.5688 45.6938C98.5644 45.6973 98.5614 45.7022 98.5601 45.7077C98.5589 45.7132 98.5596 45.7189 98.5622 45.724C98.5647 45.729 98.5688 45.733 98.574 45.7353C98.5791 45.7377 98.5848 45.7382 98.5903 45.7367C98.8172 45.6386 99.0472 45.5435 99.268 45.4301C99.3947 45.3688 99.5205 45.3044 99.6452 45.2369C99.3017 45.5926 98.9583 45.9483 98.6209 46.3102C98.6025 46.3316 98.6209 46.3623 98.6577 46.3439C100.556 44.6236 102.396 42.8297 104.177 40.9867C104.432 40.723 105.242 39.9411 105.462 39.6497C105.487 39.6375 105.468 39.6068 105.447 39.6222Z" fill="#263238"/>
<path d="M103.96 40.8395C103.402 40.6683 102.835 40.5261 102.261 40.4133C101.691 40.2814 101.118 40.168 100.544 40.0606C99.3942 39.8399 98.235 39.6528 97.0759 39.4995C97.0361 39.4995 97.0207 39.5485 97.0759 39.5577C98.2167 39.8644 99.3727 40.1128 100.529 40.3428C101.102 40.4562 101.676 40.5666 102.255 40.6494C102.822 40.7596 103.394 40.8394 103.969 40.8886C103.988 40.8978 103.988 40.8487 103.96 40.8395Z" fill="#263238"/>
<path d="M110.602 39.1407C109.268 41.2382 107.91 43.3173 106.444 45.3258C106.015 45.9115 105.598 46.5064 105.162 47.0921C105.162 47.1166 105.177 47.1504 105.199 47.1258C106.794 45.1994 108.244 43.1577 109.538 41.0174C109.915 40.4041 110.28 39.7908 110.62 39.153L110.602 39.1407Z" fill="#263238"/>
<path d="M121.691 55.6783C121.651 55.7212 104.923 56.0432 104.767 55.8745C104.549 55.6354 107.285 38.8647 109.943 35.2095C110.609 34.2895 112.982 33.6762 113.97 34.5962C116.834 37.2855 117.435 39.5424 118.18 41.3884C118.906 43.3819 119.514 45.4165 120.001 47.4816C121.001 51.4251 121.826 55.5188 121.691 55.6783Z" fill="#CE9E41"/>
<path d="M108.71 38.0981C108.22 39.3768 107.791 40.6831 107.395 41.9956C106.999 43.3081 106.647 44.6082 106.386 45.9422C106.312 46.3193 106.242 46.6965 106.178 47.0737C106.113 47.4509 106.061 47.8587 105.963 48.242C105.963 48.2727 106.003 48.2819 106.009 48.242C106.128 47.5727 106.288 46.9112 106.487 46.2611C106.662 45.5926 106.846 44.9272 107.015 44.2556C107.34 42.937 107.699 41.6276 108.079 40.3244C108.3 39.5792 108.533 38.8402 108.763 38.0981C108.772 38.0766 108.723 38.0674 108.71 38.0981Z" fill="#263238"/>
<path d="M32.584 91.3753L33.231 95.2698L37.6314 119.026H38.3398L35.1414 95.2698L34.6692 91.3753H32.584Z" fill="#DBDBDB"/>
<path d="M34.6692 91.3753H32.584L33.231 95.2698H35.1414L34.6692 91.3753Z" fill="#A6A6A6"/>
<path d="M18.7695 119.026H19.4779L23.8783 95.2698L24.5253 91.3753H22.4401L21.9679 95.2698L18.7695 119.026Z" fill="#DBDBDB"/>
<path d="M22.44 91.3753L21.9678 95.2698H23.8782L24.5252 91.3753H22.44Z" fill="#A6A6A6"/>
<path d="M5.57715 119.026H6.28551L10.6829 95.2698L11.333 91.3753H9.24774L8.7755 95.2698L5.57715 119.026Z" fill="#DBDBDB"/>
<path d="M8.77539 95.2698H10.6827L11.3328 91.3753H9.24763L8.77539 95.2698Z" fill="#A6A6A6"/>
<path d="M6.69922 93.206H38.9311V89.8084H26.8645L22.8106 66.2178H7.92888L6.69922 93.206Z" fill="#DBDBDB"/>
<path d="M6.69922 93.206H8.45632L9.60319 66.2178H7.92888L6.69922 93.206Z" fill="#A6A6A6"/>
<path d="M73.3954 116.291C72.7974 116.496 55.7109 116.554 55.0578 116.143C54.8063 115.99 54.653 113.5 54.5549 110.489L45.751 100.139L58.851 100.066L65.5728 110.418C65.5728 110.418 72.1228 113.322 72.7944 113.85C73.4659 114.377 73.9903 116.091 73.3954 116.291Z" fill="#FFC3BD"/>
<path d="M73.3955 116.291C72.7976 116.496 55.7111 116.554 55.0579 116.143C54.8341 116.008 54.6899 114.04 54.5918 111.498C56.2324 111.783 70.0776 114.162 70.7338 113.798C71.39 113.433 69.3048 112.117 69.3048 112.117H69.3294C70.9239 112.853 72.4848 113.604 72.7945 113.847C73.4569 114.374 73.9904 116.091 73.3955 116.291Z" fill="#263238"/>
<path d="M64.2725 113.328C64.2725 113.328 66.0296 111.289 69.3046 112.117L64.2725 113.328Z" fill="#263238"/>
<path d="M66.7136 110.302L60.0563 110.955L53.4848 111.602C53.4848 111.602 40.2988 92.8564 39.4985 92.0377C37.6586 90.1978 22.8505 87.211 18.8549 83.2399C14.6231 79.0358 16.4691 73.7185 16.4691 73.7185H27.5085C27.5085 73.7185 28.9068 77.2633 29.4956 77.4473C35.8708 79.4283 44.362 81.9183 47.1218 84.3531C52.0711 88.729 66.7136 110.302 66.7136 110.302Z" fill="#263238"/>
<path d="M64.6406 108.272C62.767 108.446 63.3006 108.37 61.4331 108.578C60.5131 108.673 54.5059 109.314 53.6687 109.557C53.6473 109.557 53.6687 109.593 53.6687 109.593C54.5396 109.636 60.5377 108.891 61.4515 108.778C63.319 108.542 62.7793 108.591 64.6437 108.336C64.6522 108.336 64.6603 108.332 64.666 108.326C64.6718 108.319 64.6748 108.311 64.6744 108.302C64.674 108.294 64.6702 108.286 64.6638 108.28C64.6575 108.274 64.6492 108.271 64.6406 108.272Z" fill="#455A64"/>
<path d="M53.8378 108.428C51.6728 105.469 49.4588 102.412 47.2448 99.4862L43.9238 95.0981C43.3678 94.3641 42.8117 93.6333 42.2556 92.9055C41.7879 92.2489 41.2591 91.638 40.6764 91.0809C40.0696 90.5725 39.3893 90.1589 38.6586 89.8544C37.889 89.5109 37.0978 89.2165 36.3005 88.9344C34.6446 88.364 32.958 87.901 31.2807 87.4012C28.1682 86.4812 25.0158 85.4723 22.3357 83.5956C19.9254 81.906 17.9138 79.3976 17.3404 76.4568C17.2694 76.0837 17.2305 75.7051 17.2239 75.3253C17.2239 75.3188 17.2213 75.3126 17.2167 75.308C17.2121 75.3034 17.2058 75.3008 17.1993 75.3008C17.1928 75.3008 17.1866 75.3034 17.182 75.308C17.1774 75.3126 17.1748 75.3188 17.1748 75.3253C17.2351 76.7535 17.6055 78.1515 18.2603 79.4221C18.9476 80.723 19.8698 81.8854 20.9803 82.8505C23.3722 84.9694 26.3988 86.193 29.4101 87.1436C31.0783 87.6679 32.7832 88.1218 34.4422 88.6308C35.2916 88.8915 36.1319 89.1644 36.9629 89.471C37.7597 89.7467 38.5355 90.0798 39.2842 90.4676C40.0126 90.8619 40.6615 91.3881 41.1977 92.0193C41.765 92.6847 42.2679 93.4084 42.7923 94.1076C43.8962 95.5734 45.0032 97.0371 46.1133 98.4988C48.3426 101.446 50.5566 104.408 52.8197 107.33C53.1018 107.695 53.387 108.054 53.6691 108.416C53.7458 108.532 53.9298 108.554 53.8378 108.428Z" fill="#455A64"/>
<path d="M45.224 119.839C44.626 120.032 27.5395 119.811 26.8955 119.388C26.6472 119.234 29.2629 102.593 29.2629 102.593L40.6948 102.706L37.5025 113.84C37.5025 113.84 44.0035 116.849 44.6628 117.388C45.3221 117.928 45.8189 119.648 45.224 119.839Z" fill="#FFC3BD"/>
<path d="M45.2238 119.839C44.6259 120.032 27.5394 119.811 26.8954 119.388C26.8157 119.339 27.0334 117.566 27.3676 115.19C28.0637 110.228 29.2597 102.593 29.2597 102.593L40.6915 102.706L37.4993 113.84C37.4993 113.84 39.5201 114.776 41.4214 115.696C42.9301 116.425 44.3621 117.146 44.6535 117.385C45.3189 117.925 45.8187 119.648 45.2238 119.839Z" fill="#FFC3BD"/>
<path d="M45.2238 119.839C44.6259 120.032 27.5394 119.811 26.8954 119.388C26.8157 119.339 27.0334 117.566 27.3676 115.19C29.0542 115.478 33.0836 116.162 36.6162 116.698L37.0271 116.76C40.0323 117.207 42.5836 117.529 42.8534 117.373C43.5311 116.993 41.5379 115.76 41.4275 115.696C42.9362 116.425 44.3683 117.146 44.6596 117.385C45.3189 117.925 45.8187 119.648 45.2238 119.839Z" fill="#263238"/>
<path d="M36.3984 116.91C36.3984 116.91 38.1555 114.868 41.4275 115.683L36.3984 116.91Z" fill="#263238"/>
<path d="M38.2809 113.69L26.2909 113.632C26.2909 113.632 31.9057 92.3873 31.6358 90.7835C31.5101 90.0414 18.1893 91.1576 13.4055 86.1408C9.29029 81.8232 13.0805 73.7369 13.0805 73.7369L25.9107 73.4302C25.9107 73.4302 24.727 76.9015 23.9205 79.0542C23.9205 79.0542 41.513 80.2961 43.4878 84.1537C45.5945 88.2751 38.2809 113.69 38.2809 113.69Z" fill="#263238"/>
<path d="M25.58 74.2827C25.4512 74.9635 25.3408 75.6473 25.1844 76.3219C25.1108 76.6286 25.0434 76.9628 24.9483 77.2756C24.919 77.4133 24.8432 77.5367 24.7337 77.6252C24.6039 77.6978 24.4557 77.7309 24.3074 77.7202C24.2392 77.73 24.1697 77.7241 24.1042 77.7028C24.0386 77.6816 23.9788 77.6456 23.9294 77.5976C23.8799 77.5496 23.8421 77.491 23.8189 77.4261C23.7956 77.3612 23.7876 77.2919 23.7953 77.2235C23.7953 76.5918 24.2185 74.4391 24.243 74.2612C24.243 74.2275 24.1326 74.2122 24.1234 74.2612C23.8168 75.6136 23.3967 77.3277 23.6543 77.6681C23.7936 77.8383 23.9893 77.9528 24.2059 77.9911C24.4225 78.0293 24.6456 77.9887 24.8349 77.8766C24.998 77.7441 25.107 77.5565 25.1415 77.3492C25.2182 77.0425 25.2642 76.7359 25.3194 76.4507C25.4482 75.7393 25.5861 75.0309 25.6781 74.3042C25.675 74.2945 25.6694 74.2859 25.6618 74.2791C25.6543 74.2723 25.6451 74.2675 25.6352 74.2654C25.6253 74.2632 25.615 74.2637 25.6053 74.2667C25.5956 74.2697 25.5869 74.2753 25.58 74.2827Z" fill="#455A64"/>
<path d="M24.108 77.9686C24.0859 78.0545 24.0685 78.1415 24.0559 78.2293C24.0375 78.3182 24.0191 78.4041 23.9976 78.4899C23.9761 78.5758 23.9577 78.6647 23.9332 78.7536C23.9087 78.8426 23.8964 78.9254 23.878 79.0143C23.8775 79.0216 23.8795 79.0289 23.8835 79.0351C23.8876 79.0412 23.8936 79.0459 23.9005 79.0483C23.9075 79.0507 23.915 79.0508 23.922 79.0486C23.929 79.0463 23.9351 79.0418 23.9393 79.0358C23.9795 78.956 24.0153 78.8741 24.0467 78.7904C24.0743 78.7015 24.1019 78.6156 24.1264 78.5267C24.1509 78.4378 24.1693 78.3519 24.1877 78.263C24.2139 78.1742 24.2294 78.0826 24.2337 77.9901C24.2337 77.9288 24.1295 77.9042 24.108 77.9686Z" fill="#455A64"/>
<path d="M33.743 90.2039C33.4977 89.5416 32.7955 89.4496 32.1791 89.4097C31.296 89.3525 30.4139 89.2779 29.5328 89.1859C27.7726 89.0019 26.0206 88.7484 24.2768 88.4254C22.6186 88.1518 20.9797 87.7718 19.3704 87.2877C17.8838 86.8569 16.5102 86.1042 15.3472 85.0829C14.2575 84.1223 13.5382 82.8107 13.3141 81.3755C13.2317 80.5009 13.2554 79.6195 13.3846 78.7506C13.4858 77.8766 13.6115 77.0088 13.7863 76.1471C13.8752 75.7209 13.9734 75.3008 14.093 74.8837C14.0912 74.879 14.0881 74.875 14.084 74.8721C14.0799 74.8693 14.075 74.8677 14.07 74.8677C14.065 74.8677 14.0601 74.8693 14.056 74.8721C14.0518 74.875 14.0487 74.879 14.047 74.8837C13.6029 76.5611 13.2952 78.2717 13.127 79.9986C13.0507 80.7886 13.1141 81.5857 13.3141 82.3537C13.5138 83.0149 13.825 83.6371 14.234 84.1936C16.0494 86.7081 19.1741 87.6189 22.0628 88.2414C23.7923 88.6155 25.53 88.9221 27.2758 89.1613C28.1252 89.2748 28.9777 89.376 29.8302 89.468C30.6827 89.56 31.5566 89.5968 32.4183 89.6734C32.6023 89.6679 32.7853 89.7008 32.9559 89.77C33.1264 89.8391 33.2807 89.9431 33.4088 90.0751C33.5015 90.2287 33.563 90.399 33.5899 90.5763C33.6167 90.7536 33.6083 90.9345 33.5652 91.1085C33.5008 91.5103 33.3812 91.9058 33.2831 92.3014C33.1849 92.697 33.0715 93.1447 32.9764 93.5648C32.5348 95.3209 32.0963 97.08 31.6609 98.8422C30.7931 102.347 29.9038 105.852 29.0942 109.373C28.9931 109.808 28.8949 110.243 28.8029 110.682C28.8009 110.69 28.8022 110.699 28.8065 110.706C28.8108 110.713 28.8178 110.718 28.8259 110.72C28.8341 110.722 28.8427 110.721 28.8499 110.717C28.857 110.712 28.8622 110.705 28.8643 110.697C29.3733 108.959 29.7842 107.192 30.2411 105.435C30.698 103.678 31.1365 101.921 31.575 100.164C32.0135 98.4068 32.4521 96.6712 32.8844 94.9233C33.0889 94.0422 33.3056 93.1621 33.5345 92.283C33.6848 91.636 33.9853 90.851 33.743 90.2039Z" fill="#455A64"/>
<path d="M38.4099 111.654C37.0208 111.568 35.6286 111.534 34.2364 111.488C32.8442 111.442 31.4581 111.424 30.069 111.449C29.2779 111.449 28.4898 111.516 27.6986 111.528C27.668 111.528 27.671 111.574 27.6986 111.574C29.0908 111.574 30.4799 111.685 31.8721 111.691C33.2643 111.697 34.6504 111.691 36.0395 111.691C36.8276 111.691 37.6187 111.718 38.4099 111.712C38.4589 111.706 38.4589 111.657 38.4099 111.654Z" fill="#455A64"/>
<path d="M19.0327 75.6105C19.0156 75.6712 18.992 75.7298 18.9622 75.7853C18.9587 75.7896 18.9568 75.7951 18.9568 75.8006C18.9568 75.8062 18.9587 75.8116 18.9622 75.816C18.677 76.7666 18.3182 77.7448 17.4841 78.3458C17.0557 78.65 16.5788 78.8792 16.0736 79.0235C15.4848 79.1952 14.8715 79.2443 14.2797 79.4068C14.2667 79.4128 14.2562 79.4228 14.2496 79.4354C14.243 79.448 14.2407 79.4624 14.2432 79.4764C14.2456 79.4904 14.2526 79.5032 14.2631 79.5128C14.2736 79.5224 14.287 79.5283 14.3011 79.5295C14.9657 79.5589 15.6311 79.4907 16.2759 79.3271C16.832 79.2023 17.3548 78.9597 17.8092 78.6157C18.7291 77.8705 18.9898 76.7482 19.1124 75.6166C19.1094 75.5768 19.045 75.5768 19.0327 75.6105Z" fill="#455A64"/>
<path d="M43.1329 83.5159C42.5778 82.7708 41.7622 82.369 40.8974 82.0869C35.0711 80.1734 27.9292 79.3271 24.0317 79.0051C24.001 79.0051 23.9888 79.048 24.0317 79.0511C28.2451 79.6859 39.0299 81.1302 42.078 82.9486C43.3843 83.7275 43.9578 85.595 43.5928 88.6676C43.3015 91.1208 42.9795 93.758 42.5778 96.1836C42.5778 96.2695 42.6208 96.2633 42.6392 96.1836C43.1022 93.9941 43.5009 91.5992 43.783 89.379C44.0099 87.4594 44.3717 85.178 43.1329 83.5159Z" fill="#455A64"/>
<path d="M19.3765 48.8308C17.9966 50.5818 17.8432 53.2067 17.8432 53.2067C17.8432 53.2067 16.6534 55.9665 17.2299 57.325C17.3895 57.7105 17.6404 58.0514 17.9609 58.3185C18.2814 58.5855 18.6619 58.7708 19.0698 58.8582L18.8491 58.0978C18.8491 58.0978 19.4624 59.0361 21.2072 59.2354C22.952 59.4347 25.1078 58.6467 26.1964 57.9199C26.8471 57.4946 27.3756 56.907 27.7296 56.2149L27.423 57.3955C27.9642 57.268 28.4655 57.0087 28.8822 56.6406C29.299 56.2725 29.6183 55.8071 29.8118 55.2858C30.5723 53.4275 27.4812 51.2625 27.1807 50.7535C26.8802 50.2445 26.1044 46.3562 22.0566 47.5306C22.0535 47.5337 20.3271 47.6288 19.3765 48.8308Z" fill="#263238"/>
<path d="M18.4841 58.8306C17.9811 58.6272 17.5529 58.2739 17.2576 57.8187C16.9424 57.3784 16.7847 56.8448 16.8098 56.3039C16.8848 55.6614 17.076 55.038 17.3741 54.464C17.6439 53.8507 17.9567 53.2711 18.2143 52.6609C18.2143 52.6271 18.1775 52.6057 18.156 52.6333C17.8431 53.1093 17.5574 53.6028 17.3005 54.1113C17.0279 54.5788 16.8117 55.077 16.6565 55.5955C16.5155 56.075 16.5155 56.5849 16.6565 57.0643C16.7768 57.455 16.9917 57.81 17.2821 58.0978C17.6417 58.4061 18.0395 58.6668 18.4657 58.8736C18.4903 58.8828 18.5271 58.8398 18.4841 58.8306Z" fill="#263238"/>
<path d="M29.9406 53.4551C29.2721 52.069 27.8615 51.3086 26.9201 50.1464C26.408 49.5147 25.9848 48.8002 25.3562 48.2758C25.3562 48.2605 25.3163 48.2758 25.3316 48.3034C25.8126 48.8096 26.2382 49.3658 26.6012 49.9624C27.0246 50.5278 27.5044 51.0487 28.0332 51.5171C28.9716 52.4002 30.0908 53.4428 30.0694 54.8381C30.0694 55.4851 29.7627 56.2303 29.1494 56.5063C29.1249 56.5063 29.1494 56.5584 29.1709 56.543C29.4147 56.4094 29.6286 56.2273 29.7995 56.0079C29.9704 55.7885 30.0945 55.5365 30.1644 55.2674C30.3113 54.6561 30.2318 54.0123 29.9406 53.4551Z" fill="#263238"/>
<path d="M30.0477 53.8384C30.0286 53.2827 29.8367 52.7467 29.4988 52.3052C29.1344 51.8943 28.6857 51.5669 28.1833 51.3453C27.6252 51.0632 27.0425 50.8056 26.65 50.2997C26.65 50.2782 26.604 50.2997 26.6193 50.3273C27.251 51.1614 28.2906 51.4619 29.0511 52.1365C29.922 52.9092 30.0722 54.1665 29.6644 55.203C29.4015 55.8456 28.9907 56.4172 28.4654 56.8712C28.4654 56.8712 28.4654 56.8926 28.4654 56.8712C29.3761 56.1475 30.1182 55.0619 30.0477 53.8384Z" fill="#263238"/>
<path d="M26.132 62.6975C28.4074 64.752 36.5152 71.023 39.4866 70.2993C41.4338 69.824 48.2231 65.672 48.6309 63.3875C48.8088 62.3939 45.4141 57.7114 44.5647 58.3768C43.7153 59.0422 38.3673 62.5748 37.567 62.7128C36.7666 62.8508 28.5638 59.3397 25.8683 58.8061C21.2195 57.8616 24.9085 61.5905 26.132 62.6975Z" fill="#FFC3BD"/>
<path d="M45.4686 56.126C46.4561 55.5127 47.5416 54.7553 48.7345 54.5284C49.9273 54.3014 51.2398 55.663 51.3348 56.1107C51.4299 56.5584 51.5679 59.4531 50.3781 59.7015C49.1883 59.9499 49.4581 57.6501 49.3631 57.4139C49.268 57.1778 49.1546 56.8712 48.9368 56.9417C48.7191 57.0122 45.1865 59.7015 45.1865 59.7015L45.4686 56.126Z" fill="#FFC3BD"/>
<path d="M45.5801 56.2732C45.6475 56.2732 48.5638 54.3382 49.7566 54.1113C50.9495 53.8844 52.262 55.2459 52.354 55.6967C52.446 56.1475 52.587 59.0361 51.4003 59.2845C50.2135 59.5329 50.4803 57.233 50.3822 56.9969C50.2841 56.7608 50.1768 56.4541 49.956 56.5247C49.7352 56.5952 46.2087 59.2845 46.2087 59.2845L45.5801 56.2732Z" fill="#FFC3BD"/>
<path d="M50.9641 59.2201C50.7943 59.0339 50.676 58.8067 50.6207 58.5608C50.5425 58.3128 50.5031 58.0542 50.5042 57.7942C50.5225 57.5666 50.5225 57.3379 50.5042 57.1104C50.4536 56.8904 50.3481 56.6867 50.1975 56.5185C50.0718 56.3683 49.9093 56.4633 49.7682 56.5461C49.5656 56.6775 49.3711 56.8208 49.1856 56.9754C48.9801 57.1349 48.7808 57.3005 48.5723 57.463C48.3574 57.6241 48.1526 57.7982 47.959 57.9843C47.959 57.9996 47.959 58.0272 47.9805 58.015C48.1736 57.8984 48.3454 57.7512 48.5263 57.6163C48.7072 57.4814 48.9341 57.3097 49.1396 57.1656C49.345 57.0214 49.5168 56.8773 49.713 56.7393C49.7805 56.6933 49.9154 56.5799 50.0197 56.5799C50.1239 56.5799 50.2037 56.7945 50.2405 56.865C50.3352 57.0677 50.3673 57.2941 50.3325 57.5151C50.3146 57.7399 50.3197 57.966 50.3478 58.1898C50.3672 58.4037 50.4276 58.6119 50.5256 58.8031C50.6376 58.9688 50.7683 59.1211 50.9151 59.2569C50.9519 59.2692 50.9856 59.2385 50.9641 59.2201Z" fill="#263238"/>
<path d="M42.4668 60.1768C42.4668 60.1768 45.1254 56.4971 45.6866 55.7519C46.8089 54.2708 52.1017 50.6952 52.8898 50.4407C53.6779 50.1862 54.3157 51.7777 50.7433 54.3168C48.8604 55.6568 48.7408 56.9202 48.9034 57.5673C49.0659 58.2143 49.9644 59.309 51.0499 59.0484C52.1354 58.7877 52.528 57.0245 53.5031 56.632C54.4782 56.2395 54.1992 58.2419 53.7086 59.4654C53.1754 60.6626 52.3129 61.6836 51.2216 62.4092C50.3415 62.9673 47.6522 64.8624 47.6522 64.8624L42.4668 60.1768Z" fill="#FFC3BD"/>
<path d="M52.2926 57.9843C51.9461 58.3921 51.5597 58.9042 51.0169 59.0453C50.4742 59.1864 50.0111 58.895 49.6523 58.4872C49.268 58.095 49.0485 57.5705 49.0391 57.0214C49.0664 56.5172 49.2389 56.0316 49.5358 55.6231C49.8995 55.1266 50.3333 54.6855 50.8238 54.3137C50.8267 54.3123 50.8294 54.3101 50.8314 54.3075C50.8334 54.3048 50.8348 54.3018 50.8354 54.2985C50.8361 54.2952 50.8359 54.2919 50.8351 54.2887C50.8342 54.2855 50.8325 54.2825 50.8303 54.28C50.8281 54.2776 50.8253 54.2756 50.8222 54.2744C50.8191 54.2732 50.8158 54.2727 50.8125 54.273C50.8092 54.2733 50.806 54.2744 50.8031 54.2761C50.8003 54.2778 50.7979 54.2802 50.7961 54.283C50.3331 54.6142 48.8888 55.5955 48.8643 57.0582C48.8775 57.6179 49.1047 58.1512 49.499 58.5485C49.8363 58.938 50.281 59.2876 50.8268 59.2201C51.4892 59.1342 51.94 58.4872 52.3263 57.9935C52.3478 57.969 52.311 57.9628 52.2926 57.9843Z" fill="#263238"/>
<path d="M42.2279 59.0576L46.1254 66.6839C46.1254 66.6839 40.9798 70.4619 38.1096 70.701C34.6261 71.0077 26.0675 63.596 24.7795 62.3265C22.6698 60.2412 22.2681 58.5915 23.8412 58.34C24.4545 58.2388 25.3744 58.34 26.601 58.7356C27.8798 59.1373 35.4939 62.0443 37.6159 62.2958C38.7811 62.4338 42.2279 59.0576 42.2279 59.0576Z" fill="#455A64"/>
<path d="M42.2247 59.0576L46.1253 66.6839C46.1253 66.6839 45.2728 67.2972 44.0646 68.0669C42.3075 69.1709 39.8083 70.5569 38.1095 70.698C34.629 71.0046 26.0643 63.5929 24.7794 62.3234C23.2462 60.8147 22.6329 59.5329 22.9855 58.846C23.0775 58.6994 23.2031 58.5768 23.3519 58.4883C23.5006 58.3998 23.6683 58.3479 23.8411 58.3369C24.4544 58.2388 25.3743 58.3369 26.6009 58.7356C27.8796 59.1373 35.4937 62.0443 37.6157 62.2958C38.781 62.4338 42.2247 59.0576 42.2247 59.0576Z" fill="#455A64"/>
<path d="M46.125 66.6839C46.125 66.6839 45.2725 67.2972 44.0643 68.0669C43.2946 68.5484 42.39 69.085 41.467 69.548C40.2772 70.1429 39.0659 70.6182 38.0938 70.698C34.6134 71.0046 26.0486 63.5929 24.7638 62.3234C23.2305 60.8147 22.6172 59.5329 22.9699 58.846C23.0132 58.7609 23.0738 58.6857 23.1477 58.6252C23.341 58.4655 23.5764 58.3654 23.8254 58.3369C24.4387 58.2388 25.3587 58.3369 26.5853 58.7356C27.864 59.1373 35.4781 62.0443 37.6001 62.2958C38.7807 62.4368 42.2244 59.0606 42.2244 59.0606L46.125 66.6839Z" fill="#455A64"/>
<path d="M44.5339 67.0489C43.9206 65.9388 41.5962 61.3114 41.1607 60.275C41.1301 60.2044 41.1607 60.1676 41.2098 60.2382C43.1171 63.5163 44.034 65.905 44.5829 67.0243C44.5921 67.0519 44.5492 67.0765 44.5339 67.0489Z" fill="#263238"/>
<path d="M41.464 69.545C40.2742 70.1399 39.063 70.6152 38.0909 70.6949C34.6104 71.0016 26.0457 63.5898 24.7609 62.3203C23.2276 60.8116 22.6143 59.5298 22.967 58.8429C23.0103 58.7578 23.0709 58.6826 23.1448 58.6221L41.464 69.545Z" fill="#263238"/>
<path d="M11.6982 77.0732C12.9248 77.2511 15.8533 77.5148 18.972 77.7785C23.9458 78.1894 29.4287 78.5881 29.4287 78.5881L28.5088 69.0819C28.5088 69.0819 29.7813 67.242 29.5483 65.4604C29.2784 63.4488 26.0648 59.3121 25.7213 58.9932C24.5591 57.9107 22.8817 57.2667 21.2749 58.1315C20.9388 58.3144 20.6293 58.5424 20.3549 58.8092C20.335 58.826 20.3166 58.8445 20.2998 58.8644C20.2108 58.9502 20.1158 59.0422 20.0268 59.1434C16.0312 63.458 11.6982 77.0732 11.6982 77.0732Z" fill="#455A64"/>
<path d="M18.8857 60.2136C15.6046 64.6784 11.333 72.9978 12.8325 74.3195C16.1136 77.2204 22.9519 80.6457 26.2545 80.9278C27.2205 81.0106 29.0144 74.6905 28.3612 73.8749C27.708 73.0592 19.4684 70.7624 19.3948 70.1337C19.3457 69.775 20.4221 65.7977 21.3481 61.9585C22.4183 57.5519 19.8241 58.9349 18.8857 60.2136Z" fill="#FFC3BD"/>
<path d="M26.6656 73.4118C26.6656 73.4118 29.6187 73.329 31.5505 73.3658C32.6269 73.3873 34.4729 73.5866 35.2579 73.9638C36.4324 74.528 40.98 77.6436 40.2502 78.7598C39.5878 79.7717 36.0184 76.6132 36.0184 76.6132C36.0184 76.6132 39.9037 79.4896 38.8825 80.5659C37.8614 81.6423 34.3073 77.5209 34.3073 77.5209C34.3073 77.5209 38.2324 80.569 37.0028 81.5074C36.0828 82.2188 32.6453 78.6709 32.6453 78.6709C32.6453 78.6709 36.0062 81.308 35.0862 82.0808C34.0589 82.9363 30.6858 79.8699 30.6858 79.8699C28.0087 81.4399 26.0861 81.0964 24.7613 80.6825C24.4393 80.569 26.6656 73.4118 26.6656 73.4118Z" fill="#FFC3BD"/>
<path d="M34.739 75.5216C35.2081 75.8436 35.6834 76.1655 36.122 76.5274C36.5605 76.8892 36.9867 77.2664 37.3884 77.6681C37.9247 78.1831 38.401 78.7572 38.8082 79.3792C37.9656 78.3822 37.0313 77.4664 36.0177 76.6439C35.5822 76.2821 35.1621 75.8988 34.7236 75.5369L34.739 75.5216Z" fill="#263238"/>
<path d="M33.4029 77.0793C33.9856 77.5179 34.5774 77.9288 35.1386 78.3918C35.6997 78.8548 36.1873 79.3363 36.7117 79.8331C36.7515 79.8729 36.7117 79.8821 36.6749 79.8331C36.1321 79.3578 35.5893 78.9591 35.0404 78.4899C34.4915 78.0208 33.958 77.5271 33.3907 77.0793C33.3845 77.0855 33.3937 77.0732 33.4029 77.0793Z" fill="#263238"/>
<path d="M32.0192 78.2109C32.9247 78.8594 33.7612 79.5992 34.5153 80.4188C34.5552 80.4586 34.5153 80.4648 34.4694 80.4188C33.6506 79.6705 33.0158 79.0756 31.9978 78.2354C31.9763 78.2293 31.9947 78.1986 32.0192 78.2109Z" fill="#263238"/>
<path d="M22.9637 80.9339L27.4193 73.0592C27.4193 73.0592 19.8113 70.4005 19.6212 70.1552C19.4311 69.9099 20.9459 64.9422 21.5838 61.6733C22.2216 58.4044 20.7436 57.6255 18.321 60.7104C15.8985 63.7953 11.4398 71.9522 12.188 73.9393C12.9363 75.9264 22.9637 80.9339 22.9637 80.9339Z" fill="#455A64"/>
<path d="M25.8007 72.9794C25.6204 73.2222 25.4575 73.4773 25.3131 73.743L24.8041 74.5771C24.4606 75.1444 24.1294 75.7178 23.8044 76.2943C23.1635 77.4381 22.5287 78.5881 21.8848 79.7288C21.8848 79.7564 21.9093 79.7779 21.9277 79.7533C22.633 78.6432 23.3291 77.5332 24.0006 76.4016C24.3349 75.8435 24.6569 75.2793 24.9605 74.7059C25.1138 74.4176 25.2671 74.1294 25.4143 73.8411C25.5708 73.5689 25.7081 73.2861 25.8252 72.9948C25.8313 72.9794 25.8099 72.9702 25.8007 72.9794Z" fill="#263238"/>
<path d="M22.9336 80.8757C21.5383 80.1366 20.1737 79.3424 18.8 78.5451C17.4262 77.7478 16.0401 76.9444 14.743 76.0459C14.375 75.7914 14.004 75.54 13.6421 75.2763C13.2803 75.0125 12.9491 74.7243 12.575 74.4943C12.5474 74.4759 12.5228 74.5158 12.5443 74.5342C12.8199 74.816 13.1184 75.0744 13.4367 75.3069C13.7433 75.5584 14.0745 75.8037 14.3995 76.0459C15.0128 76.5151 15.6844 76.9659 16.3468 77.3737C17.6776 78.2262 19.0637 78.9898 20.4712 79.7073C21.2807 80.1182 22.1056 80.5016 22.9244 80.9186C22.9288 80.9175 22.9328 80.9151 22.936 80.9118C22.9391 80.9085 22.9413 80.9044 22.9423 80.9C22.9432 80.8955 22.9429 80.8909 22.9414 80.8866C22.9398 80.8823 22.9371 80.8785 22.9336 80.8757Z" fill="#263238"/>
<path d="M27.4203 73.004C26.7334 72.7372 19.9963 70.1705 19.7173 70.1184C19.7173 69.9099 20.3122 67.5027 20.444 66.9446C20.4747 66.8127 20.5023 66.6839 20.5299 66.5551C20.6311 66.3006 20.7292 66.043 20.8365 65.7855C20.9747 65.4365 21.1345 65.0965 21.3149 64.7674C21.3182 64.7617 21.319 64.7549 21.3173 64.7486C21.3156 64.7423 21.3114 64.7369 21.3057 64.7337C21.3 64.7304 21.2933 64.7295 21.2869 64.7313C21.2806 64.733 21.2752 64.7372 21.272 64.7429C21.0972 65.0802 20.9193 65.4205 20.7599 65.764L20.6771 65.9449L20.8243 65.3009C20.95 64.7306 21.0972 64.1571 21.18 63.5776C21.1781 63.5722 21.1746 63.5675 21.1699 63.5642C21.1652 63.5608 21.1596 63.5591 21.1539 63.5591C21.1482 63.5591 21.1426 63.5608 21.1379 63.5642C21.1333 63.5675 21.1297 63.5722 21.1279 63.5776C20.9224 64.1541 20.7783 64.752 20.6157 65.3408C20.4532 65.9296 19.5179 70.1736 19.5517 70.2012C19.8001 70.3852 26.7518 72.8139 27.4172 73.0622C27.4203 73.0592 27.4387 73.0132 27.4203 73.004Z" fill="#263238"/>
<path d="M39.7842 81.9949H24.0225V82.7033H39.7842V81.9949Z" fill="#CE9E41"/>
<path opacity="0.1" d="M39.7836 81.9949H31.8506V82.7033H39.7836V81.9949Z" fill="black"/>
<path d="M32.7061 82.7002H48.0661L50.0747 72.268H34.7115L32.7061 82.7002Z" fill="#CE9E41"/>
<path d="M40.4556 77.4841C40.4449 77.6019 40.459 77.7207 40.4971 77.8326C40.5353 77.9446 40.5965 78.0473 40.6769 78.1341C40.7573 78.2208 40.855 78.2897 40.9638 78.3362C41.0725 78.3827 41.1899 78.4059 41.3081 78.4041C41.5602 78.3992 41.8021 78.3035 41.9892 78.1344C42.1762 77.9654 42.2959 77.7344 42.3262 77.4841C42.3388 77.365 42.326 77.2445 42.2885 77.1307C42.2511 77.0168 42.1899 76.9122 42.109 76.8238C42.0282 76.7354 41.9294 76.6652 41.8194 76.6178C41.7093 76.5704 41.5905 76.5469 41.4707 76.5489C41.2163 76.5536 40.9726 76.6514 40.7855 76.8237C40.5985 76.9961 40.4811 77.231 40.4556 77.4841Z" fill="white"/>
<path d="M21.7529 58.4044C21.848 58.6467 23.2861 60.1002 24.4115 59.8825C24.7795 59.8089 24.479 57.7758 24.479 57.7758V57.6194L24.6477 55.4452L21.9461 54.2186L21.5566 54.0592C21.5566 54.0592 21.5566 54.6572 21.5566 55.4023V55.5096C21.5566 55.5495 21.5566 55.5894 21.5566 55.6292C21.5566 55.7396 21.5566 55.8531 21.5566 55.9665C21.5566 56.08 21.5566 56.1383 21.5566 56.2272C21.5566 56.3161 21.5566 56.4081 21.5566 56.497C21.5804 57.1364 21.646 57.7736 21.7529 58.4044Z" fill="#FFC3BD"/>
<path d="M21.5625 55.3962C21.8596 55.9574 22.2756 56.4471 22.7814 56.831C23.2871 57.215 23.8706 57.484 24.491 57.6194L24.6597 55.4452L21.9581 54.2186L21.5686 54.0592C21.5686 54.0592 21.5625 54.651 21.5625 55.3962Z" fill="#263238"/>
<path d="M27.0457 51.6581C27.9319 55.3809 25.8007 56.3315 24.9973 56.5216C24.2675 56.6933 21.7652 57.1901 20.4988 53.5778C19.2323 49.9654 20.6828 48.3647 22.3387 47.8925C23.9946 47.4202 26.1595 47.9415 27.0457 51.6581Z" fill="#FFC3BD"/>
<path d="M26.5427 51.0448C26.4548 51.0493 26.3668 51.0493 26.2789 51.0448C26.1854 51.0531 26.0916 51.0305 26.0122 50.9804C25.9902 50.9602 25.9756 50.9333 25.9707 50.9039C25.9657 50.8745 25.9706 50.8442 25.9846 50.8179C26.0196 50.771 26.0664 50.7341 26.1202 50.711C26.1741 50.6878 26.233 50.6792 26.2912 50.6861C26.415 50.6835 26.5353 50.7272 26.6285 50.8087C26.6452 50.8281 26.6564 50.8516 26.661 50.8768C26.6656 50.9019 26.6634 50.9278 26.6547 50.9519C26.6459 50.9759 26.6309 50.9972 26.6113 51.0135C26.5916 51.0299 26.5679 51.0407 26.5427 51.0448Z" fill="#263238"/>
<path d="M24.1326 51.5017C24.2161 51.4746 24.298 51.4428 24.378 51.4067C24.4696 51.386 24.5516 51.3353 24.611 51.2625C24.6258 51.2359 24.6311 51.205 24.6261 51.1749C24.6211 51.1449 24.606 51.1174 24.5834 51.097C24.534 51.063 24.4764 51.0428 24.4165 51.0385C24.3567 51.0342 24.2968 51.0459 24.243 51.0724C24.1264 51.1116 24.0275 51.1909 23.964 51.2963C23.9507 51.3214 23.9451 51.3498 23.948 51.3781C23.9508 51.4064 23.962 51.4331 23.98 51.4551C23.998 51.477 24.0221 51.4932 24.0493 51.5015C24.0764 51.5098 24.1054 51.5099 24.1326 51.5017Z" fill="#263238"/>
<path d="M24.7919 52.3726C24.7919 52.3726 24.7765 52.3726 24.7765 52.4002C24.8348 52.6547 24.8563 52.9553 24.6416 53.084C24.9207 53.0043 24.8869 52.6057 24.7919 52.3726Z" fill="#263238"/>
<path d="M24.5123 52.1488C24.0953 52.1948 24.2057 53.0288 24.6074 52.9828C25.0091 52.9369 24.8619 52.1089 24.5123 52.1488Z" fill="#263238"/>
<path d="M24.3534 52.2162C24.289 52.2745 24.2307 52.3695 24.1418 52.391C24.0529 52.4125 23.9547 52.3389 23.875 52.2653C23.8965 52.4247 23.9823 52.5719 24.1571 52.5719C24.3319 52.5719 24.4055 52.4125 24.4208 52.2469C24.4147 52.2346 24.384 52.1948 24.3534 52.2162Z" fill="#263238"/>
<path d="M26.1934 52.0568C26.1934 52.0568 26.2148 52.0568 26.2148 52.0752C26.2424 52.3358 26.3191 52.6271 26.5644 52.6885C26.2854 52.6946 26.1934 52.3051 26.1934 52.0568Z" fill="#263238"/>
<path d="M26.3925 51.7532C26.8034 51.6643 26.9537 52.4922 26.5734 52.575C26.1932 52.6578 26.0491 51.8299 26.3925 51.7532Z" fill="#263238"/>
<path d="M26.5761 51.7777C26.6497 51.8084 26.7295 51.8758 26.8061 51.8666C26.8828 51.8574 26.9502 51.7563 26.9932 51.6581C27.0269 51.8145 26.9932 51.9893 26.8583 52.0476C26.7233 52.1058 26.5976 51.9832 26.5332 51.8298C26.5332 51.8115 26.5455 51.7655 26.5761 51.7777Z" fill="#263238"/>
<path d="M25.0247 54.372C25.0952 54.4272 25.1657 54.5038 25.2608 54.5008C25.3563 54.4897 25.4483 54.4583 25.5306 54.4088C25.5306 54.4088 25.549 54.4088 25.5306 54.4088C25.5001 54.4629 25.4555 54.5078 25.4015 54.5386C25.3475 54.5693 25.2861 54.5849 25.224 54.5835C25.1697 54.5753 25.1191 54.5511 25.0787 54.5139C25.0383 54.4768 25.0099 54.4284 24.9971 54.375C24.9971 54.372 25.0155 54.3658 25.0247 54.372Z" fill="#263238"/>
<path d="M25.9511 53.268C26.0086 53.4515 26.0567 53.6378 26.0952 53.8262C26.0952 53.8445 26.0554 53.8568 25.9941 53.8721C25.8429 53.9255 25.68 53.9363 25.5232 53.9033C25.3663 53.8703 25.2216 53.7948 25.1048 53.6851C25.0894 53.6698 25.1048 53.6483 25.1293 53.6575C25.3859 53.7767 25.6737 53.8111 25.9511 53.7556C25.9511 53.7035 25.7334 53.1178 25.761 53.1117C25.9037 53.1017 26.047 53.111 26.1872 53.1393C25.9726 52.3481 25.6291 51.606 25.4268 50.8118C25.4263 50.8066 25.4274 50.8014 25.4301 50.797C25.4327 50.7925 25.4367 50.789 25.4415 50.7869C25.4463 50.7849 25.4516 50.7844 25.4566 50.7856C25.4617 50.7867 25.4663 50.7895 25.4697 50.7934C25.8579 51.5845 26.1661 52.4125 26.3896 53.265C26.4234 53.3631 26.0309 53.2895 25.9511 53.268Z" fill="#263238"/>
<path d="M25.9572 53.7341C25.8939 53.9031 25.7883 54.053 25.6506 54.1696C25.5706 54.2294 25.4744 54.2637 25.3746 54.2677C25.1569 54.2677 25.0986 54.0837 25.0925 53.9151C25.0895 53.8246 25.0967 53.7341 25.1139 53.6452C25.3788 53.7622 25.6737 53.7933 25.9572 53.7341Z" fill="#263238"/>
<path d="M25.6352 54.1696C25.5553 54.2295 25.4591 54.2637 25.3593 54.2677C25.1415 54.2677 25.0833 54.0837 25.0771 53.9151C25.1852 53.8883 25.2992 53.8989 25.4005 53.9451C25.5018 53.9913 25.5846 54.0704 25.6352 54.1696Z" fill="#FFA2BE"/>
<path d="M20.529 53.5992C20.9583 53.5042 21.8874 52.1304 21.5777 50.036C21.5777 50.036 21.7249 51.9341 21.6298 52.2316C21.5348 52.529 22.1481 51.4588 21.9211 49.7784C22.5141 50.0716 23.1462 50.2781 23.7978 50.3917C24.6289 50.4837 25.1134 50.3917 25.1594 50.3303C25.2054 50.269 23.9788 50.085 23.6016 49.7722C23.6016 49.7722 25.8769 50.407 26.8643 50.3211C26.9778 50.3211 26.7325 47.9722 25.0612 47.2362C23.39 46.5003 21.1821 47.9569 20.6424 48.6806C20.6424 48.6806 19.9065 48.9136 19.2717 50.1617C18.6369 51.4097 20.0598 53.7035 20.529 53.5992Z" fill="#263238"/>
<path d="M26.0336 52.2714C25.9017 51.6305 26.1379 51.0448 26.5641 50.9467C26.9903 50.8486 27.4442 51.3085 27.5791 51.9525C27.714 52.5965 27.4749 53.1791 27.0486 53.2803C26.6224 53.3815 26.1685 52.9001 26.0336 52.2714ZM26.19 52.2408C26.3065 52.7958 26.6776 53.1914 27.0149 53.1239C27.3522 53.0564 27.5362 52.5413 27.4227 51.9832C27.3093 51.4251 26.9352 51.0326 26.5948 51.1031C26.2544 51.1736 26.0765 51.6581 26.1931 52.2254L26.19 52.2408Z" fill="#CE9E41"/>
<path d="M23.1022 52.8663C23.0726 52.6507 23.1066 52.4312 23.2001 52.2347C23.2937 52.0383 23.4426 51.8734 23.6286 51.7604C23.8146 51.6475 24.0295 51.5913 24.247 51.5989C24.4644 51.6065 24.675 51.6775 24.8526 51.8032C25.0303 51.9289 25.1673 52.1037 25.2469 52.3062C25.3265 52.5088 25.3451 52.7301 25.3005 52.9431C25.2559 53.1561 25.1501 53.3514 24.996 53.505C24.8418 53.6587 24.6462 53.7639 24.433 53.8077C24.1317 53.8593 23.8223 53.7891 23.5727 53.6126C23.3231 53.436 23.1539 53.1676 23.1022 52.8663ZM23.2586 52.8326C23.3106 53.0104 23.4133 53.1692 23.5541 53.2896C23.6949 53.41 23.8678 53.4868 24.0515 53.5106C24.2353 53.5343 24.422 53.5041 24.5888 53.4234C24.7556 53.3428 24.8953 53.2154 24.9909 53.0567C25.0865 52.8979 25.1337 52.7148 25.1269 52.5296C25.1201 52.3445 25.0595 52.1653 24.9525 52.0141C24.8455 51.8628 24.6968 51.746 24.5245 51.6779C24.3522 51.6098 24.1638 51.5933 23.9823 51.6305C23.7275 51.695 23.5086 51.8575 23.373 52.0826C23.2375 52.3078 23.1964 52.5773 23.2586 52.8326Z" fill="#CE9E41"/>
<path d="M25.2058 52.3205C25.7486 51.9924 26.0522 52.1304 26.0553 52.1304L26.1258 51.9893C26.1258 51.9893 25.7486 51.8053 25.123 52.1825L25.2058 52.3205Z" fill="#CE9E41"/>
<path d="M23.1575 52.7467V52.5781C23.0532 52.5781 21.2808 52.6026 21.0109 52.6425C20.7411 52.6823 20.1707 53.173 20.1094 53.2282L20.2136 53.3478C20.4523 53.1233 20.7257 52.939 21.0232 52.8019C21.2409 52.7774 22.2713 52.7682 23.1575 52.7467Z" fill="#CE9E41"/>
<path d="M21.1585 53.7311C21.1585 53.7311 20.1557 52.6731 19.6651 53.0472C19.1744 53.4214 20.0453 55.0405 20.7107 55.1938C20.7945 55.2182 20.8824 55.2253 20.969 55.2147C21.0556 55.2041 21.1392 55.176 21.2146 55.1321C21.29 55.0882 21.3557 55.0295 21.4078 54.9594C21.4598 54.8894 21.497 54.8095 21.5172 54.7246L21.1585 53.7311Z" fill="#FFC3BD"/>
<path d="M19.9248 53.498C19.9248 53.498 19.9248 53.498 19.9248 53.5164C20.1425 53.5872 20.3429 53.703 20.513 53.8562C20.6831 54.0094 20.8191 54.1966 20.9122 54.4057C20.8802 54.3651 20.8397 54.332 20.7936 54.3087C20.7474 54.2854 20.6968 54.2724 20.6451 54.2706C20.5934 54.2689 20.542 54.2784 20.4944 54.2986C20.4468 54.3187 20.4042 54.349 20.3694 54.3873C20.3694 54.3873 20.3694 54.4118 20.3694 54.4088C20.4432 54.3718 20.5268 54.3589 20.6083 54.3722C20.6897 54.3854 20.765 54.4239 20.8233 54.4824C20.9199 54.575 21.0063 54.6778 21.0809 54.789C21.1085 54.8258 21.1759 54.789 21.1545 54.7491C21.0931 54.1941 20.5381 53.4704 19.9248 53.498Z" fill="#263238"/>
<path d="M24.4977 57.7635L24.093 59.8487L21.6582 57.7236L20.9805 58.5455C20.9805 58.5455 23.7955 62.2253 23.7771 62.0382L24.2524 60.2167L25.6262 61.1551L25.0282 58.5332L24.4977 57.7635Z" fill="#EBEBEB"/>
<path d="M25.052 58.5547C25.052 58.5393 25.0152 58.5363 25.0183 58.5547C25.0704 59.0024 25.4384 60.5724 25.5212 61.0079C25.4629 60.9649 24.2578 60.1922 24.2517 60.2106C24.129 60.5172 23.7794 61.8358 23.761 61.9523C23.2673 61.4065 21.5071 59.0422 20.9521 58.5424C20.9487 58.5408 20.9448 58.5402 20.9411 58.5409C20.9373 58.5415 20.9339 58.5433 20.9312 58.546C20.9285 58.5487 20.9267 58.5521 20.926 58.5559C20.9254 58.5596 20.9259 58.5635 20.9276 58.5669C21.3814 59.1557 23.7549 62.2099 23.7825 62.1946C23.9818 61.5631 24.1466 60.9213 24.2762 60.2719C24.7349 60.6378 25.2174 60.9727 25.7205 61.2746C25.6438 60.7932 25.1992 59.0177 25.052 58.5547Z" fill="#263238"/>
</svg>
